<svg width="16" height="16" viewBox="0 0 16 16" fill="none" xmlns="http://www.w3.org/2000/svg">
<path d="M12.998 5.32602L7.99995 10.198L3.00195 5.32602C2.91266 5.2388 2.79278 5.18996 2.66795 5.18996C2.54313 5.18996 2.42325 5.2388 2.33395 5.32602C2.29072 5.36838 2.25637 5.41895 2.23292 5.47475C2.20947 5.53056 2.19739 5.59048 2.19739 5.65102C2.19739 5.71155 2.20947 5.77147 2.23292 5.82728C2.25637 5.88309 2.29072 5.93365 2.33395 5.97602L7.65095 11.16C7.74433 11.251 7.86956 11.302 7.99995 11.302C8.13035 11.302 8.25558 11.251 8.34895 11.16L13.666 5.97702C13.7095 5.93462 13.7441 5.88393 13.7677 5.82794C13.7914 5.77195 13.8035 5.71179 13.8035 5.65102C13.8035 5.59024 13.7914 5.53009 13.7677 5.47409C13.7441 5.4181 13.7095 5.36741 13.666 5.32502C13.5767 5.2378 13.4568 5.18896 13.332 5.18896C13.2071 5.18896 13.0873 5.2378 12.998 5.32502V5.32602Z" fill="#101010"/>
</svg>
