<svg width="13" height="14" viewBox="0 0 13 14" fill="none" xmlns="http://www.w3.org/2000/svg">
<path d="M4.95848 2.3334H7.87524C7.87524 1.94662 7.72159 1.57567 7.44809 1.30218C7.17459 1.02868 6.80365 0.875027 6.41686 0.875027C6.03008 0.875027 5.65913 1.02868 5.38563 1.30218C5.11213 1.57567 4.95848 1.94662 4.95848 2.3334ZM4.08346 2.3334C4.08346 1.71455 4.3293 1.12104 4.7669 0.683438C5.20449 0.24584 5.79801 0 6.41686 0C7.03572 0 7.62923 0.24584 8.06683 0.683438C8.50443 1.12104 8.75027 1.71455 8.75027 2.3334H12.3962C12.5122 2.3334 12.6235 2.3795 12.7056 2.46155C12.7876 2.5436 12.8337 2.65488 12.8337 2.77092C12.8337 2.88695 12.7876 2.99824 12.7056 3.08029C12.6235 3.16234 12.5122 3.20843 12.3962 3.20843H11.632L10.9221 11.7271C10.8704 12.3468 10.5878 12.9245 10.1302 13.3456C9.67258 13.7666 9.07345 14.0004 8.45159 14.0004H4.38213C3.76028 14.0004 3.16114 13.7666 2.70354 13.3456C2.24594 12.9245 1.96329 12.3468 1.91164 11.7271L1.2017 3.20843H0.437513C0.321478 3.20843 0.210194 3.16234 0.128145 3.08029C0.046095 2.99824 0 2.88695 0 2.77092C0 2.65488 0.046095 2.5436 0.128145 2.46155C0.210194 2.3795 0.321478 2.3334 0.437513 2.3334H4.08346ZM5.54184 5.68767C5.54184 5.57164 5.49574 5.46035 5.41369 5.37831C5.33164 5.29626 5.22036 5.25016 5.10432 5.25016C4.98829 5.25016 4.877 5.29626 4.79495 5.37831C4.7129 5.46035 4.66681 5.57164 4.66681 5.68767V10.6462C4.66681 10.7622 4.7129 10.8735 4.79495 10.9555C4.877 11.0376 4.98829 11.0837 5.10432 11.0837C5.22036 11.0837 5.33164 11.0376 5.41369 10.9555C5.49574 10.8735 5.54184 10.7622 5.54184 10.6462V5.68767ZM7.7294 5.25016C7.61337 5.25016 7.50208 5.29626 7.42003 5.37831C7.33798 5.46035 7.29189 5.57164 7.29189 5.68767V10.6462C7.29189 10.7622 7.33798 10.8735 7.42003 10.9555C7.50208 11.0376 7.61337 11.0837 7.7294 11.0837C7.84544 11.0837 7.95672 11.0376 8.03877 10.9555C8.12082 10.8735 8.16692 10.7622 8.16692 10.6462V5.68767C8.16692 5.57164 8.12082 5.46035 8.03877 5.37831C7.95672 5.29626 7.84544 5.25016 7.7294 5.25016Z" fill="#ED0000"/>
</svg>
