<svg width="24" height="24" viewBox="0 0 24 24" fill="none" xmlns="http://www.w3.org/2000/svg">
<path d="M21.6884 2.12277C21.9339 2.30133 22.0343 2.53942 21.9897 2.83704L19.1326 19.9796C19.0954 20.1953 18.9764 20.3627 18.7755 20.4818C18.6713 20.5413 18.556 20.5711 18.4295 20.5711C18.3477 20.5711 18.2584 20.5525 18.1616 20.5153L13.1059 18.4506L10.4051 21.7429C10.2712 21.9141 10.0889 21.9996 9.85823 21.9996C9.76151 21.9996 9.67966 21.9847 9.6127 21.955C9.47134 21.9029 9.35787 21.8155 9.27231 21.6927C9.18674 21.5699 9.14396 21.4342 9.14396 21.2853V17.3903L18.7866 5.57136L6.85606 15.8948L2.44766 14.0868C2.17237 13.9827 2.02356 13.778 2.00124 13.473C1.98636 13.1754 2.1054 12.9559 2.35838 12.8145L20.9294 2.10044C21.0411 2.03348 21.1601 2 21.2866 2C21.4354 2 21.5693 2.04092 21.6884 2.12277Z" fill="#F16682"/>
</svg>
