<svg width="24" height="24" viewBox="0 0 24 24" fill="none" xmlns="http://www.w3.org/2000/svg">
<path d="M19.7499 9.99983C19.7499 9.80092 19.6709 9.61015 19.5302 9.4695C19.3896 9.32885 19.1988 9.24983 18.9999 9.24983C18.801 9.24983 18.6102 9.32885 18.4696 9.4695C18.3289 9.61015 18.2499 9.80092 18.2499 9.99983H19.7499ZM5.74991 9.99983C5.74991 9.80092 5.67089 9.61015 5.53024 9.4695C5.38959 9.32885 5.19882 9.24983 4.99991 9.24983C4.801 9.24983 4.61023 9.32885 4.46958 9.4695C4.32893 9.61015 4.24991 9.80092 4.24991 9.99983H5.74991ZM20.4699 12.5298C20.5386 12.6035 20.6214 12.6626 20.7134 12.7036C20.8054 12.7446 20.9047 12.7666 21.0054 12.7684C21.1061 12.7702 21.2061 12.7517 21.2995 12.714C21.3929 12.6762 21.4777 12.6201 21.5489 12.5489C21.6202 12.4776 21.6763 12.3928 21.714 12.2994C21.7518 12.206 21.7703 12.106 21.7685 12.0053C21.7667 11.9046 21.7447 11.8053 21.7037 11.7133C21.6627 11.6213 21.6036 11.5385 21.5299 11.4698L20.4699 12.5298ZM11.9999 2.99983L12.5299 2.46983C12.3893 2.32938 12.1987 2.25049 11.9999 2.25049C11.8012 2.25049 11.6105 2.32938 11.4699 2.46983L11.9999 2.99983ZM2.46991 11.4698C2.39622 11.5385 2.33712 11.6213 2.29613 11.7133C2.25514 11.8053 2.23309 11.9046 2.23132 12.0053C2.22954 12.106 2.24807 12.206 2.28579 12.2994C2.32351 12.3928 2.37965 12.4776 2.45087 12.5489C2.52209 12.6201 2.60692 12.6762 2.70031 12.714C2.7937 12.7517 2.89373 12.7702 2.99443 12.7684C3.09513 12.7666 3.19445 12.7446 3.28645 12.7036C3.37845 12.6626 3.46125 12.6035 3.52991 12.5298L2.46991 11.4698ZM6.99991 21.7498H16.9999V20.2498H6.99991V21.7498ZM19.7499 18.9998V9.99983H18.2499V18.9998H19.7499ZM5.74991 18.9998V9.99983H4.24991V18.9998H5.74991ZM21.5299 11.4698L12.5299 2.46983L11.4699 3.52983L20.4699 12.5298L21.5299 11.4698ZM11.4699 2.46983L2.46991 11.4698L3.52991 12.5298L12.5299 3.52983L11.4699 2.46983ZM16.9999 21.7498C17.7293 21.7498 18.4287 21.4601 18.9445 20.9444C19.4602 20.4286 19.7499 19.7292 19.7499 18.9998H18.2499C18.2499 19.6898 17.6899 20.2498 16.9999 20.2498V21.7498ZM6.99991 20.2498C6.30991 20.2498 5.74991 19.6898 5.74991 18.9998H4.24991C4.24991 19.7292 4.53964 20.4286 5.05537 20.9444C5.57109 21.4601 6.27056 21.7498 6.99991 21.7498V20.2498Z" fill="#101010"/>
</svg>
