<svg width="24" height="24" viewBox="0 0 24 24" fill="none" xmlns="http://www.w3.org/2000/svg">
<path d="M19.7502 9.99983C19.7502 9.80092 19.6711 9.61015 19.5305 9.4695C19.3898 9.32885 19.1991 9.24983 19.0002 9.24983C18.8012 9.24983 18.6105 9.32885 18.4698 9.4695C18.3292 9.61015 18.2502 9.80092 18.2502 9.99983H19.7502ZM5.75015 9.99983C5.75015 9.80092 5.67114 9.61015 5.53048 9.4695C5.38983 9.32885 5.19907 9.24983 5.00015 9.24983C4.80124 9.24983 4.61048 9.32885 4.46982 9.4695C4.32917 9.61015 4.25015 9.80092 4.25015 9.99983H5.75015ZM20.4702 12.5298C20.5388 12.6035 20.6216 12.6626 20.7136 12.7036C20.8056 12.7446 20.9049 12.7666 21.0056 12.7684C21.1063 12.7702 21.2064 12.7517 21.2998 12.714C21.3931 12.6762 21.478 12.6201 21.5492 12.5489C21.6204 12.4776 21.6766 12.3928 21.7143 12.2994C21.752 12.206 21.7705 12.106 21.7687 12.0053C21.767 11.9046 21.7449 11.8053 21.7039 11.7133C21.6629 11.6213 21.6038 11.5385 21.5302 11.4698L20.4702 12.5298ZM12.0002 2.99983L12.5302 2.46983C12.3895 2.32938 12.1989 2.25049 12.0002 2.25049C11.8014 2.25049 11.6108 2.32938 11.4702 2.46983L12.0002 2.99983ZM2.47015 11.4698C2.39647 11.5385 2.33736 11.6213 2.29637 11.7133C2.25538 11.8053 2.23334 11.9046 2.23156 12.0053C2.22979 12.106 2.24831 12.206 2.28603 12.2994C2.32375 12.3928 2.3799 12.4776 2.45112 12.5489C2.52233 12.6201 2.60717 12.6762 2.70056 12.714C2.79394 12.7517 2.89397 12.7702 2.99468 12.7684C3.09538 12.7666 3.19469 12.7446 3.28669 12.7036C3.37869 12.6626 3.46149 12.6035 3.53015 12.5298L2.47015 11.4698ZM7.00015 21.7498H17.0002V20.2498H7.00015V21.7498ZM19.7502 18.9998V9.99983H18.2502V18.9998H19.7502ZM5.75015 18.9998V9.99983H4.25015V18.9998H5.75015ZM21.5302 11.4698L12.5302 2.46983L11.4702 3.52983L20.4702 12.5298L21.5302 11.4698ZM11.4702 2.46983L2.47015 11.4698L3.53015 12.5298L12.5302 3.52983L11.4702 2.46983ZM17.0002 21.7498C17.7295 21.7498 18.429 21.4601 18.9447 20.9444C19.4604 20.4286 19.7502 19.7292 19.7502 18.9998H18.2502C18.2502 19.6898 17.6902 20.2498 17.0002 20.2498V21.7498ZM7.00015 20.2498C6.31015 20.2498 5.75015 19.6898 5.75015 18.9998H4.25015C4.25015 19.7292 4.53989 20.4286 5.05561 20.9444C5.57133 21.4601 6.27081 21.7498 7.00015 21.7498V20.2498Z" fill="#607274"/>
</svg>
