<svg width="24" height="24" viewBox="0 0 24 24" fill="none" xmlns="http://www.w3.org/2000/svg">
<path d="M7.208 16.793L7.561 17.146L7.207 16.793H7.208ZM5 10.3C5 9.452 5 8.845 5.04 8.37C5.078 7.901 5.15 7.604 5.272 7.365L4.382 6.911C4.176 7.314 4.086 7.758 4.042 8.289C4 8.814 4 9.469 4 10.3H5ZM5 11.5V10.3H4V11.5H5ZM4 11.5V16.5H5V11.5H4ZM4 16.5V18.414H5V16.5H4ZM4 18.414C4 19.26 5.023 19.684 5.622 19.085L4.915 18.378C4.92301 18.3713 4.93268 18.3668 4.943 18.365C4.95168 18.3631 4.96071 18.3638 4.969 18.367C4.97736 18.3717 4.98445 18.3783 4.98968 18.3863C4.9949 18.3943 4.9981 18.4035 4.999 18.413L4 18.414ZM5.622 19.085L7.561 17.146L6.854 16.439L4.914 18.379L5.622 19.085ZM14.7 16H7.914V17H14.7V16ZM17.635 15.728C17.396 15.85 17.099 15.922 16.63 15.961C16.154 16 15.548 16 14.7 16V17C15.532 17 16.186 17 16.711 16.957C17.242 16.914 17.686 16.824 18.089 16.619L17.635 15.728ZM18.727 14.635C18.4874 15.1051 18.1051 15.4884 17.635 15.728L18.089 16.619C18.7478 16.2834 19.2834 15.7478 19.619 15.089L18.727 14.635ZM19 11.7C19 12.548 19 13.155 18.96 13.63C18.922 14.099 18.85 14.396 18.727 14.635L19.619 15.089C19.824 14.686 19.914 14.242 19.957 13.711C20 13.186 20 12.531 20 11.7H19ZM19 10.3V11.7H20V10.3H19ZM18.727 7.365C18.849 7.604 18.922 7.901 18.961 8.37C19 8.845 19 9.452 19 10.3H20C20 9.468 20 8.814 19.957 8.289C19.914 7.758 19.824 7.314 19.619 6.911L18.727 7.365ZM17.635 6.272C18.1053 6.51189 18.4875 6.89451 18.727 7.365L19.619 6.911C19.2834 6.2522 18.7478 5.7166 18.089 5.381L17.635 6.272ZM14.7 6C15.548 6 16.154 6 16.63 6.04C17.099 6.078 17.396 6.15 17.635 6.272L18.089 5.381C17.686 5.175 17.242 5.086 16.711 5.042C16.186 5 15.531 5 14.7 5V6ZM9.3 6H14.7V5H9.3V6ZM6.365 6.272C6.604 6.151 6.901 6.078 7.37 6.039C7.845 6 8.452 6 9.3 6V5C8.468 5 7.814 5 7.289 5.043C6.758 5.086 6.314 5.176 5.911 5.381L6.365 6.272ZM5.272 7.365C5.51172 6.89435 5.89435 6.51172 6.365 6.272L5.911 5.381C5.25235 5.71634 4.71777 6.25257 4.382 6.911L5.272 7.365ZM7.561 17.146C7.65471 17.0525 7.78165 17 7.914 17V16C7.51631 16.0003 7.13503 16.1586 6.854 16.44L7.561 17.146Z" fill="#101010" fill-opacity="0.7"/>
<path d="M8.5 9.5H15.5M8.5 12.5H13.5" stroke="#101010" stroke-opacity="0.7" stroke-width="0.666667" stroke-linecap="round" stroke-linejoin="round"/>
</svg>
