<svg width="24" height="24" viewBox="0 0 24 24" fill="none" xmlns="http://www.w3.org/2000/svg">
<path d="M7.208 17.2671L7.561 17.6642L7.207 17.2671H7.208ZM5 9.9625C5 9.0085 5 8.32562 5.04 7.79125C5.078 7.26362 5.15 6.9295 5.272 6.66062L4.382 6.14987C4.176 6.60325 4.086 7.10275 4.042 7.70012C4 8.29075 4 9.02763 4 9.9625H5ZM5 11.3125V9.9625H4V11.3125H5ZM4 11.3125V16.9375H5V11.3125H4ZM4 16.9375V19.0907H5V16.9375H4ZM4 19.0907C4 20.0425 5.023 20.5195 5.622 19.8456L4.915 19.0503C4.92301 19.0427 4.93268 19.0376 4.943 19.0356C4.95168 19.0335 4.96071 19.0343 4.969 19.0379C4.97736 19.0431 4.98445 19.0506 4.98968 19.0596C4.9949 19.0686 4.9981 19.0789 4.999 19.0896L4 19.0907ZM5.622 19.8456L7.561 17.6642L6.854 16.8689L4.914 19.0514L5.622 19.8456ZM14.7 16.375H7.914V17.5H14.7V16.375ZM17.635 16.069C17.396 16.2062 17.099 16.2873 16.63 16.3311C16.154 16.375 15.548 16.375 14.7 16.375V17.5C15.532 17.5 16.186 17.5 16.711 17.4516C17.242 17.4033 17.686 17.302 18.089 17.0714L17.635 16.069ZM18.727 14.8394C18.4874 15.3683 18.1051 15.7994 17.635 16.069L18.089 17.0714C18.7478 16.6938 19.2834 16.0913 19.619 15.3501L18.727 14.8394ZM19 11.5375C19 12.4915 19 13.1744 18.96 13.7087C18.922 14.2364 18.85 14.5705 18.727 14.8394L19.619 15.3501C19.824 14.8967 19.914 14.3973 19.957 13.7999C20 13.2093 20 12.4724 20 11.5375H19ZM19 9.9625V11.5375H20V9.9625H19ZM18.727 6.66062C18.849 6.9295 18.922 7.26362 18.961 7.79125C19 8.32562 19 9.0085 19 9.9625H20C20 9.0265 20 8.29075 19.957 7.70012C19.914 7.10275 19.824 6.60325 19.619 6.14987L18.727 6.66062ZM17.635 5.431C18.1053 5.70088 18.4875 6.13132 18.727 6.66062L19.619 6.14987C19.2834 5.40872 18.7478 4.80617 18.089 4.42863L17.635 5.431ZM14.7 5.125C15.548 5.125 16.154 5.125 16.63 5.17C17.099 5.21275 17.396 5.29375 17.635 5.431L18.089 4.42863C17.686 4.19688 17.242 4.09675 16.711 4.04725C16.186 4 15.531 4 14.7 4V5.125ZM9.3 5.125H14.7V4H9.3V5.125ZM6.365 5.431C6.604 5.29487 6.901 5.21275 7.37 5.16887C7.845 5.125 8.452 5.125 9.3 5.125V4C8.468 4 7.814 4 7.289 4.04838C6.758 4.09675 6.314 4.198 5.911 4.42863L6.365 5.431ZM5.272 6.66062C5.51172 6.13115 5.89435 5.70069 6.365 5.431L5.911 4.42863C5.25235 4.80588 4.71777 5.40914 4.382 6.14987L5.272 6.66062ZM7.561 17.6642C7.65471 17.5591 7.78165 17.5 7.914 17.5V16.375C7.51631 16.3754 7.13503 16.5534 6.854 16.87L7.561 17.6642Z" fill="#607274"/>
<path d="M8.5 9.0625H15.5M8.5 12.4375H13.5" stroke="#607274" stroke-width="0.666667" stroke-linecap="round" stroke-linejoin="round"/>
</svg>
