<svg width="128" height="85" viewBox="0 0 128 85" fill="none" xmlns="http://www.w3.org/2000/svg">
<path d="M127.999 74.6968H0V74.7539H127.999V74.6968Z" fill="#EBEBEB"/>
<path d="M115.175 78.3677H106.697V78.4248H115.175V78.3677Z" fill="#EBEBEB"/>
<path d="M84.7925 78.9878H82.5679V79.0449H84.7925V78.9878Z" fill="#EBEBEB"/>
<path d="M106.439 76.2505H101.527V76.3076H106.439V76.2505Z" fill="#EBEBEB"/>
<path d="M24.4862 76.6333H13.4296V76.6904H24.4862V76.6333Z" fill="#EBEBEB"/>
<path d="M28.3879 76.6333H26.7674V76.6904H28.3879V76.6333Z" fill="#EBEBEB"/>
<path d="M57.638 77.5962H33.6561V77.6533H57.638V77.5962Z" fill="#EBEBEB"/>
<path d="M60.6731 64.521H11.2423C10.8551 64.5204 10.484 64.3828 10.2104 64.1386C9.9368 63.8944 9.78315 63.5633 9.78315 63.2182V1.29133C9.78652 0.948199 9.94166 0.620108 10.2149 0.378323C10.4881 0.136539 10.8573 0.000587804 11.2423 0H60.6731C61.0608 0 61.4326 0.137253 61.7067 0.381564C61.9808 0.625875 62.1349 0.957231 62.1349 1.30274V63.2182C62.1349 63.5637 61.9808 63.8951 61.7067 64.1394C61.4326 64.3837 61.0608 64.521 60.6731 64.521ZM11.2423 0.0456303C10.8721 0.0462347 10.5172 0.177744 10.2556 0.411293C9.99406 0.644842 9.84715 0.961346 9.84715 1.29133V63.2182C9.84715 63.5482 9.99406 63.8647 10.2556 64.0983C10.5172 64.3318 10.8721 64.4633 11.2423 64.4639H60.6731C61.0436 64.4633 61.3987 64.3319 61.6607 64.0984C61.9227 63.8649 62.0702 63.5484 62.0709 63.2182V1.29133C62.0702 0.961137 61.9227 0.644638 61.6607 0.411154C61.3987 0.17767 61.0436 0.0462334 60.6731 0.0456303H11.2423Z" fill="#EBEBEB"/>
<path d="M116.047 64.521H66.6137C66.2262 64.5204 65.8548 64.3829 65.5809 64.1387C65.3069 63.8946 65.1526 63.5636 65.152 63.2182V1.29133C65.156 0.947991 65.3117 0.619903 65.5853 0.378181C65.859 0.136459 66.2284 0.000581394 66.6137 0H116.047C116.432 0.00118741 116.8 0.137403 117.073 0.379124C117.346 0.620845 117.5 0.948593 117.504 1.29133V63.2182C117.504 63.5629 117.35 63.8936 117.077 64.1378C116.804 64.382 116.434 64.5198 116.047 64.521ZM66.6137 0.0456303C66.2432 0.0462334 65.8881 0.17767 65.6261 0.411154C65.3641 0.644638 65.2166 0.961137 65.216 1.29133V63.2182C65.2166 63.5484 65.3641 63.8649 65.6261 64.0984C65.8881 64.3319 66.2432 64.4633 66.6137 64.4639H116.047C116.418 64.4633 116.773 64.3319 117.035 64.0984C117.297 63.8649 117.444 63.5484 117.445 63.2182V1.29133C117.444 0.961137 117.297 0.644638 117.035 0.411154C116.773 0.17767 116.418 0.0462334 116.047 0.0456303H66.6137Z" fill="#EBEBEB"/>
<path d="M22.6461 74.6968H30.1776L30.1776 50.4056H22.6461L22.6461 74.6968Z" fill="#E6E6E6"/>
<path d="M23.9513 74.6964H22.6483V71.3883H25.3209L23.9513 74.6964Z" fill="#F0F0F0"/>
<path d="M72.306 74.6968H79.8374V50.4056H72.306L72.306 74.6968Z" fill="#E6E6E6"/>
<path d="M22.6452 72.6656H73.4429V50.4049L22.6452 50.4049V72.6656Z" fill="#F0F0F0"/>
<path d="M23.6558 57.4987L72.4312 57.4987V51.3934L23.6558 51.3934V57.4987Z" fill="#E6E6E6"/>
<path d="M38.003 53.2888H58.0912C59.108 53.2887 60.1141 53.104 61.0481 52.7458C61.982 52.3877 62.8243 51.8637 63.5235 51.2058H32.5682C33.2678 51.8637 34.1106 52.3878 35.045 52.7459C35.9794 53.104 36.9859 53.2888 38.003 53.2888Z" fill="#F0F0F0"/>
<path d="M72.1401 74.6964H73.4457V71.3883H70.773L72.1401 74.6964Z" fill="#F0F0F0"/>
<path d="M23.6558 64.5875H72.4312V58.4822L23.6558 58.4822V64.5875Z" fill="#E6E6E6"/>
<path d="M38.003 60.3796H58.0912C59.108 60.3795 60.1141 60.1947 61.0481 59.8366C61.982 59.4785 62.8243 58.9545 63.5235 58.2965H32.5682C33.2678 58.9545 34.1106 59.4786 35.045 59.8367C35.9794 60.1948 36.9859 60.3795 38.003 60.3796Z" fill="#F0F0F0"/>
<path d="M23.6558 71.6803H72.4312V65.5749L23.6558 65.5749V71.6803Z" fill="#E6E6E6"/>
<path d="M38.003 67.471H58.0912C59.1077 67.4708 60.1136 67.2862 61.0475 66.9285C61.9814 66.5708 62.8238 66.0474 63.5235 65.3902H32.5682C33.2683 66.0475 34.1112 66.5709 35.0456 66.9286C35.9799 67.2863 36.9861 67.4709 38.003 67.471Z" fill="#F0F0F0"/>
<path d="M21.5358 43.282H51.2419L51.2419 10.4945H21.5358L21.5358 43.282Z" fill="#E6E6E6"/>
<path d="M18.158 43.282H50.3806L50.3806 10.4945H18.158L18.158 43.282Z" fill="#F0F0F0"/>
<path d="M47.6794 40.8781V12.9023L20.8559 12.9023L20.8559 40.8781H47.6794Z" fill="white"/>
<path d="M71.4493 42.4636L111.702 42.4636V10.1324L71.4493 10.1324V42.4636Z" fill="#EBEBEB"/>
<path d="M70.39 42.4636L111.206 42.4636V10.1324L70.39 10.1324L70.39 42.4636Z" fill="#F5F5F5"/>
<path d="M74.5597 44.2156L111.702 44.2156V42.4634H74.5597V44.2156Z" fill="#EBEBEB"/>
<path d="M68.8369 44.2156L103.822 44.2156V42.4634H68.8369V44.2156Z" fill="#F0F0F0"/>
<path d="M109.724 41.1446V11.4531L71.8695 11.4531V41.1446H109.724Z" fill="#FAFAFA"/>
<path d="M103.824 41.1446L91.1803 11.4531H85.2104L97.8542 41.1446H103.824Z" fill="white"/>
<path d="M109.014 39.0681C109.049 39.0681 109.083 39.0556 109.108 39.0334C109.133 39.0111 109.147 38.981 109.147 38.9495V12.3357C109.153 12.3181 109.154 12.2995 109.15 12.2814C109.146 12.2634 109.138 12.2464 109.125 12.2317C109.113 12.217 109.097 12.2051 109.079 12.197C109.06 12.1888 109.04 12.1845 109.019 12.1845C108.999 12.1845 108.978 12.1888 108.96 12.197C108.941 12.2051 108.925 12.217 108.913 12.2317C108.901 12.2464 108.892 12.2634 108.888 12.2814C108.885 12.2995 108.886 12.3181 108.891 12.3357V38.9495C108.89 38.9796 108.903 39.0088 108.926 39.0309C108.949 39.053 108.98 39.0664 109.014 39.0681Z" fill="#F0F0F0"/>
<path d="M96.5699 41.1446L83.9262 11.4531H81.5991L94.2429 41.1446H96.5699Z" fill="white"/>
<path d="M91.053 41.1446L78.4092 11.4531H76.0796L88.726 41.1446H91.053Z" fill="white"/>
<path d="M72.0601 41.1446V11.4531H71.8724L71.8724 41.1446H72.0601Z" fill="#EBEBEB"/>
<g opacity="0.7">
<path d="M70.0387 12.6512H110.292L110.428 11.9667H70.1743L70.0387 12.6512Z" fill="#EBEBEB"/>
<path d="M70.0387 13.3856H110.292L110.428 12.7011H70.1743L70.0387 13.3856Z" fill="#EBEBEB"/>
<path d="M70.0387 14.1209H110.292L110.428 13.4364H70.1743L70.0387 14.1209Z" fill="#EBEBEB"/>
<path d="M70.0387 14.8559H110.292L110.428 14.1737H70.1743L70.0387 14.8559Z" fill="#EBEBEB"/>
<path d="M70.0387 15.5926H110.292L110.428 14.9081H70.1743L70.0387 15.5926Z" fill="#EBEBEB"/>
<path d="M70.0387 16.326H110.292L110.428 15.6415H70.1743L70.0387 16.326Z" fill="#EBEBEB"/>
<path d="M70.0387 17.0613H110.292L110.428 16.3769H70.1743L70.0387 17.0613Z" fill="#EBEBEB"/>
<path d="M70.0387 17.7957H110.292L110.428 17.1112H70.1743L70.0387 17.7957Z" fill="#EBEBEB"/>
<path d="M70.0387 18.531H110.292L110.428 17.8466H70.1743L70.0387 18.531Z" fill="#EBEBEB"/>
<path d="M70.0387 19.2651H110.292L110.428 18.5829H70.1743L70.0387 19.2651Z" fill="#EBEBEB"/>
<path d="M70.0387 20.0017H110.292L110.428 19.3173H70.1743L70.0387 20.0017Z" fill="#EBEBEB"/>
<path d="M70.0387 20.7371H110.292L110.428 20.0526H70.1743L70.0387 20.7371Z" fill="#EBEBEB"/>
<path d="M70.0387 21.4714H110.292L110.428 20.787H70.1743L70.0387 21.4714Z" fill="#EBEBEB"/>
<path d="M70.0387 22.2058H110.292L110.428 21.5214H70.1743L70.0387 22.2058Z" fill="#EBEBEB"/>
<path d="M70.0387 22.9408H110.292L110.428 22.2587H70.1743L70.0387 22.9408Z" fill="#EBEBEB"/>
<path d="M70.0387 23.6775H110.292L110.428 22.993H70.1743L70.0387 23.6775Z" fill="#EBEBEB"/>
<path d="M70.0387 24.4119H110.292L110.428 23.7274H70.1743L70.0387 24.4119Z" fill="#EBEBEB"/>
<path d="M70.0387 25.1462H110.292L110.428 24.4618H70.1743L70.0387 25.1462Z" fill="#EBEBEB"/>
<path d="M70.0387 25.8816H110.292L110.428 25.1971H70.1743L70.0387 25.8816Z" fill="#EBEBEB"/>
<path d="M70.0387 26.6159H110.292L110.428 25.9315H70.1743L70.0387 26.6159Z" fill="#EBEBEB"/>
<path d="M70.0387 27.3513H110.292L110.428 26.6668H70.1743L70.0387 27.3513Z" fill="#EBEBEB"/>
<path d="M70.0387 28.0876H110.292L110.428 27.4032H70.1743L70.0387 28.0876Z" fill="#EBEBEB"/>
<path d="M70.0387 28.823H110.292L110.428 28.1385H70.1743L70.0387 28.823Z" fill="#EBEBEB"/>
<path d="M70.0387 29.5573H110.292L110.428 28.8729H70.1743L70.0387 29.5573Z" fill="#EBEBEB"/>
</g>
<path d="M62.902 46.8464C62.902 48.8131 60.0041 50.4056 56.4303 50.4056C52.8566 50.4056 49.9587 48.8085 49.9587 46.8464H62.902Z" fill="#EBEBEB"/>
<path d="M45.8929 46.8464C45.8929 48.8131 42.995 50.4056 39.4213 50.4056C35.8475 50.4056 32.9471 48.8085 32.9471 46.8464H45.8929Z" fill="#EBEBEB"/>
<path d="M94.8698 73.3638H99.5033V52.3306H94.8698V73.3638Z" fill="#F0F0F0"/>
<path d="M75.763 74.6968H98.6186V73.3644H75.763V74.6968Z" fill="#F0F0F0"/>
<path d="M94.8738 52.3308H74.8726V73.364H94.8738V52.3308Z" fill="#F5F5F5"/>
<path d="M93.0487 54.9206H76.6929V61.8176H93.0487V54.9206Z" fill="#F0F0F0"/>
<path d="M93.0487 63.8756H76.6929V70.7726H93.0487V63.8756Z" fill="#F0F0F0"/>
<path d="M83.0074 58.8405H86.7347C86.9694 58.8405 87.1597 58.6709 87.1597 58.4618V58.2724C87.1597 58.0632 86.9694 57.8937 86.7347 57.8937H83.0074C82.7727 57.8937 82.5824 58.0632 82.5824 58.2724V58.4618C82.5824 58.6709 82.7727 58.8405 83.0074 58.8405Z" fill="#F5F5F5"/>
<path d="M83.0074 67.7975H86.7347C86.9694 67.7975 87.1597 67.6279 87.1597 67.4187V67.2294C87.1597 67.0202 86.9694 66.8506 86.7347 66.8506H83.0074C82.7727 66.8506 82.5824 67.0202 82.5824 67.2294V67.4187C82.5824 67.6279 82.7727 67.7975 83.0074 67.7975Z" fill="#F5F5F5"/>
<path d="M63.9988 84.9998C91.4117 84.9998 113.634 83.8435 113.634 82.4172C113.634 80.9908 91.4117 79.8345 63.9988 79.8345C36.5858 79.8345 14.3632 80.9908 14.3632 82.4172C14.3632 83.8435 36.5858 84.9998 63.9988 84.9998Z" fill="#F5F5F5"/>
<path d="M22.6758 27.8162H22.4198V32.1967H22.6758V27.8162Z" fill="#607274"/>
<path d="M22.6758 33.8514H22.4198V35.8637H22.6758V33.8514Z" fill="#607274"/>
<path d="M92.4919 16.954H25.9349C24.4391 16.954 23.2264 18.0347 23.2264 19.3678V56.5427C23.2264 57.8758 24.4391 58.9565 25.9349 58.9565H92.4919C93.9878 58.9565 95.2004 57.8758 95.2004 56.5427V19.3678C95.2004 18.0347 93.9878 16.954 92.4919 16.954Z" fill="#607274"/>
<path d="M24.1268 19.3654L24.1268 56.5426C24.1268 57.4309 24.9348 58.151 25.9316 58.151L92.4912 58.151C93.488 58.151 94.296 57.4309 94.296 56.5426V19.3654C94.296 18.4771 93.488 17.757 92.4912 17.757L25.9316 17.757C24.9348 17.757 24.1268 18.4771 24.1268 19.3654Z" fill="white"/>
<path opacity="0.6" d="M51.0896 51.6582V58.1536H67.3301V51.6582C67.3301 51.0531 67.0604 50.4728 66.5803 50.0449C66.1002 49.617 65.4491 49.3767 64.7701 49.3767H53.6419C52.9642 49.3785 52.3151 49.6197 51.8366 50.0473C51.3582 50.475 51.0895 51.0543 51.0896 51.6582Z" fill="#607274"/>
<path opacity="0.6" d="M71.6246 51.6582V58.1536H87.8728V51.6582C87.8728 51.0531 87.6031 50.4728 87.123 50.0449C86.6429 49.617 85.9918 49.3767 85.3128 49.3767H74.1769C73.4993 49.3785 72.8501 49.6197 72.3717 50.0473C71.8932 50.475 71.6246 51.0543 71.6246 51.6582Z" fill="#607274"/>
<path opacity="0.6" d="M30.5506 51.6582V58.1536H46.8014V51.6582C46.8014 51.0531 46.5317 50.4728 46.0516 50.0449C45.5715 49.617 44.9204 49.3767 44.2414 49.3767H33.1055C32.4274 49.3779 31.7776 49.6188 31.2986 50.0465C30.8196 50.4742 30.5506 51.0539 30.5506 51.6582Z" fill="#607274"/>
<path d="M82.5078 21.8265H87.2207C87.3939 21.8265 87.5599 21.7652 87.6823 21.6561C87.8047 21.547 87.8735 21.399 87.8735 21.2447C87.8735 21.1683 87.8566 21.0927 87.8238 21.0221C87.791 20.9515 87.7429 20.8874 87.6823 20.8334C87.6217 20.7793 87.5497 20.7365 87.4705 20.7073C87.3913 20.678 87.3065 20.663 87.2207 20.663H82.5078C82.3349 20.6636 82.1692 20.7251 82.0469 20.834C81.9247 20.943 81.8557 21.0906 81.855 21.2447C81.8557 21.3989 81.9247 21.5465 82.0469 21.6555C82.1692 21.7644 82.3349 21.8259 82.5078 21.8265Z" fill="#607274"/>
<path d="M66.4623 22.1623C67.0307 22.1623 67.4914 21.7517 67.4914 21.2452C67.4914 20.7386 67.0307 20.328 66.4623 20.328C65.894 20.328 65.4332 20.7386 65.4332 21.2452C65.4332 21.7517 65.894 22.1623 66.4623 22.1623Z" fill="#607274"/>
<path d="M64.2898 21.2455C64.2898 21.426 64.2298 21.6024 64.1172 21.7525C64.0047 21.9026 63.8448 22.0196 63.6577 22.0886C63.4706 22.1577 63.2647 22.1758 63.0661 22.1406C62.8674 22.1053 62.685 22.0184 62.5418 21.8908C62.3985 21.7632 62.301 21.6006 62.2615 21.4235C62.222 21.2465 62.2423 21.063 62.3198 20.8963C62.3973 20.7295 62.5285 20.587 62.6969 20.4867C62.8653 20.3864 63.0633 20.3329 63.2658 20.3329C63.5374 20.3329 63.7979 20.429 63.9899 20.6002C64.1819 20.7713 64.2898 21.0035 64.2898 21.2455Z" fill="#607274"/>
<path d="M32.2479 20.3075H30.9602C30.734 20.3075 30.5506 20.4709 30.5506 20.6725V21.8201C30.5506 22.0217 30.734 22.1852 30.9602 22.1852H32.2479C32.4741 22.1852 32.6575 22.0217 32.6575 21.8201V20.6725C32.6575 20.4709 32.4741 20.3075 32.2479 20.3075Z" fill="#607274"/>
<path opacity="0.2" d="M39.0266 21.5354H36.569C36.4828 21.5354 36.4001 21.5049 36.3392 21.4506C36.2782 21.3962 36.2439 21.3225 36.2439 21.2457C36.2439 21.1688 36.2782 21.0951 36.3392 21.0408C36.4001 20.9865 36.4828 20.9559 36.569 20.9559H39.0266C39.1129 20.9559 39.1956 20.9865 39.2565 21.0408C39.3175 21.0951 39.3518 21.1688 39.3518 21.2457C39.3518 21.3225 39.3175 21.3962 39.2565 21.4506C39.1956 21.5049 39.1129 21.5354 39.0266 21.5354Z" fill="#101010"/>
<path opacity="0.2" d="M43.8235 21.5354H41.3659C41.2797 21.5354 41.197 21.5049 41.136 21.4506C41.075 21.3962 41.0408 21.3225 41.0408 21.2457C41.0408 21.1688 41.075 21.0951 41.136 21.0408C41.197 20.9865 41.2797 20.9559 41.3659 20.9559H43.8235C43.9099 20.9559 43.9929 20.9864 44.0543 21.0407C44.1157 21.0949 44.1505 21.1686 44.1512 21.2457C44.1505 21.3227 44.1157 21.3964 44.0543 21.4507C43.9929 21.505 43.9099 21.5354 43.8235 21.5354Z" fill="#101010"/>
<path opacity="0.2" d="M48.6229 21.5354H46.1653C46.0788 21.5354 45.9959 21.505 45.9345 21.4507C45.8731 21.3964 45.8383 21.3227 45.8376 21.2457C45.8383 21.1686 45.8731 21.0949 45.9345 21.0407C45.9959 20.9864 46.0788 20.9559 46.1653 20.9559H48.6229C48.7091 20.9559 48.7918 20.9865 48.8528 21.0408C48.9138 21.0951 48.948 21.1688 48.948 21.2457C48.948 21.3225 48.9138 21.3962 48.8528 21.4506C48.7918 21.5049 48.7091 21.5354 48.6229 21.5354Z" fill="#101010"/>
<path opacity="0.2" d="M53.4217 21.5354H50.9641C50.8776 21.5354 50.7947 21.505 50.7333 21.4507C50.6719 21.3964 50.6371 21.3227 50.6364 21.2457C50.6371 21.1686 50.6719 21.0949 50.7333 21.0407C50.7947 20.9864 50.8776 20.9559 50.9641 20.9559H53.4217C53.5079 20.9559 53.5906 20.9865 53.6516 21.0408C53.7126 21.0951 53.7468 21.1688 53.7468 21.2457C53.7468 21.3225 53.7126 21.3962 53.6516 21.4506C53.5906 21.5049 53.5079 21.5354 53.4217 21.5354Z" fill="#101010"/>
<path opacity="0.4" d="M104.89 25.9459L52.9836 27.3337C51.4877 27.3737 50.3115 28.4868 50.3564 29.8199L50.8099 43.2945C50.8548 44.6276 52.1038 45.6759 53.5997 45.6359L105.506 44.2481C107.002 44.2081 108.178 43.095 108.133 41.7619L107.68 28.2873C107.635 26.9542 106.386 25.9059 104.89 25.9459Z" fill="#607274"/>
<path opacity="0.4" d="M73.115 36.8445L56.9384 37.3373C56.7303 37.3431 56.5229 37.3123 56.3282 37.2466C56.1334 37.1809 55.9551 37.0817 55.8034 36.9545C55.6518 36.8274 55.5297 36.6749 55.4442 36.5057C55.3587 36.3365 55.3114 36.1539 55.3051 35.9684C55.2987 35.7829 55.3332 35.5981 55.4069 35.4246C55.4806 35.251 55.592 35.0921 55.7346 34.9569C55.8773 34.8217 56.0484 34.7129 56.2383 34.6367C56.4282 34.5605 56.633 34.5184 56.8411 34.5128L73.0177 34.02C73.2258 34.0142 73.4332 34.0451 73.6279 34.1108C73.8226 34.1764 74.001 34.2757 74.1526 34.4028C74.3043 34.5299 74.4264 34.6825 74.5119 34.8517C74.5974 35.0209 74.6447 35.2034 74.6509 35.3889C74.6581 35.5746 74.624 35.7596 74.5505 35.9334C74.4771 36.1073 74.3658 36.2664 74.223 36.4017C74.0802 36.537 73.9088 36.6458 73.7186 36.7218C73.5285 36.7978 73.3233 36.8395 73.115 36.8445Z" fill="#607274"/>
<path opacity="0.4" d="M67.793 41.2963L57.1025 41.6203C56.6843 41.632 56.2779 41.4959 55.9719 41.2415C55.6659 40.9872 55.4852 40.6354 55.4692 40.2628C55.4627 40.0773 55.4973 39.8925 55.571 39.7189C55.6447 39.5454 55.7561 39.3865 55.8987 39.2513C56.0414 39.1161 56.2125 39.0073 56.4024 38.9311C56.5922 38.8549 56.7971 38.8128 57.0052 38.8072L67.6931 38.4809C67.9013 38.4752 68.1086 38.506 68.3034 38.5717C68.4981 38.6373 68.6764 38.7366 68.8281 38.8637C68.9798 38.9909 69.1019 39.1434 69.1874 39.3126C69.2729 39.4818 69.3201 39.6643 69.3264 39.8498C69.3368 40.2225 69.1814 40.5837 68.8941 40.8547C68.6068 41.1256 68.211 41.2844 67.793 41.2963Z" fill="#607274"/>
<path d="M106.699 35.9474L107.162 37.2273L108.862 35.8402C108.509 35.6307 108.143 35.4395 107.766 35.2675C107.63 35.203 107.47 35.1893 107.322 35.2295C107.174 35.2697 107.05 35.3605 106.978 35.482L106.699 35.9474Z" fill="#7F3E3B"/>
<path d="M108.85 38.2818L109.583 36.7578L108.863 35.8406L107.163 37.2278L108.85 38.2818Z" fill="#7F3E3B"/>
<path d="M90.4664 26.5434C89.5935 27.5907 88.6898 28.574 87.7247 29.5436C86.7562 30.5271 85.7218 31.4573 84.6271 32.3293L84.5657 32.3773L84.4428 32.4662C84.361 32.5232 84.2755 32.5757 84.1868 32.6237C84.006 32.711 83.8133 32.777 83.6133 32.8199C83.2859 32.8883 82.9465 32.8976 82.615 32.8472C82.1371 32.7709 81.6763 32.626 81.2505 32.4183C80.5602 32.0773 79.9131 31.6712 79.3203 31.2068C78.2069 30.3427 77.1909 29.3837 76.2867 28.3435L77.3107 27.4789C78.3756 28.2523 79.4918 29.0234 80.6079 29.6782C81.131 29.9948 81.6864 30.2668 82.2668 30.4904C82.4732 30.5733 82.694 30.6242 82.9196 30.641C82.9836 30.641 83.0143 30.6296 82.9759 30.6296C82.9482 30.6315 82.9211 30.6385 82.8966 30.6502C82.8801 30.6559 82.8646 30.6636 82.8505 30.673L82.83 30.6844L82.8633 30.6524C83.3318 30.2281 83.7849 29.7718 84.2405 29.3155C84.6962 28.8592 85.1365 28.3801 85.5794 27.9055C86.46 26.9518 87.3432 25.9708 88.1906 25.0126L90.4664 26.5434Z" fill="#7F3E3B"/>
<path d="M76.3415 25.4901L74.3472 25.8528L75.3277 27.4088L77.1018 26.1837L76.3415 25.4901Z" fill="#7F3E3B"/>
<path d="M77.3539 27.8033L77.0979 26.1834L75.3238 27.4086C75.3238 27.4086 75.5977 28.8186 76.8598 28.8186L77.3539 27.8033Z" fill="#7F3E3B"/>
<path d="M77.486 27.4793C77.4353 27.4799 77.3869 27.4981 77.351 27.5301C77.3151 27.5621 77.2947 27.6052 77.294 27.6504C77.2928 27.6634 77.2928 27.6763 77.294 27.6892C77.2679 27.6773 77.2389 27.6711 77.2095 27.671C77.1586 27.671 77.1098 27.689 77.0738 27.7211C77.0378 27.7532 77.0175 27.7967 77.0175 27.8421C77.0194 27.8585 77.0237 27.8746 77.0303 27.89H77.0175C76.9668 27.8906 76.9184 27.9088 76.8825 27.9408C76.8467 27.9727 76.8262 28.0159 76.8256 28.0611C76.8267 28.0976 76.841 28.1329 76.8665 28.1615C76.8156 28.1615 76.7668 28.1795 76.7307 28.2116C76.6947 28.2437 76.6745 28.2872 76.6745 28.3326C76.676 28.3698 76.6903 28.4056 76.7155 28.4353C76.6725 28.4427 76.6338 28.463 76.6058 28.493C76.5778 28.5229 76.5623 28.5606 76.5619 28.5996C76.5628 28.6259 76.5704 28.6517 76.5841 28.675C76.5979 28.6983 76.6174 28.7186 76.6412 28.7342C76.6039 28.7456 76.5715 28.7671 76.5485 28.7957C76.5256 28.8244 76.5132 28.8587 76.5132 28.8939C76.5132 28.9392 76.5335 28.9828 76.5695 29.0149C76.6055 29.047 76.6543 29.065 76.7052 29.065C76.7562 29.065 76.805 29.047 76.841 29.0149C76.877 28.9828 76.8972 28.9392 76.8972 28.8939C76.8974 28.8676 76.8906 28.8417 76.8772 28.8182C76.8639 28.7948 76.8444 28.7746 76.8204 28.7593C76.8571 28.7472 76.8887 28.7254 76.9112 28.6969C76.9336 28.6683 76.9457 28.6344 76.9459 28.5996C76.9444 28.5624 76.9301 28.5265 76.9049 28.4969C76.9479 28.4895 76.9866 28.4691 77.0146 28.4392C77.0426 28.4092 77.0581 28.3716 77.0585 28.3326C77.0571 28.2961 77.0427 28.261 77.0175 28.2322C77.0429 28.2325 77.068 28.2283 77.0914 28.2198C77.1149 28.2113 77.1362 28.1987 77.1541 28.1828C77.172 28.1668 77.1861 28.1479 77.1956 28.127C77.2052 28.1061 77.2099 28.0837 77.2095 28.0611C77.212 28.0452 77.212 28.0291 77.2095 28.0132C77.2605 28.0132 77.3093 27.9952 77.3453 27.9631C77.3813 27.931 77.4015 27.8875 77.4015 27.8421C77.4028 27.8292 77.4028 27.8162 77.4015 27.8033C77.4269 27.815 77.4549 27.8212 77.4835 27.8216C77.5344 27.8216 77.5832 27.8035 77.6192 27.7714C77.6552 27.7394 77.6755 27.6958 77.6755 27.6504C77.6755 27.6051 77.6552 27.5615 77.6192 27.5295C77.5832 27.4974 77.5344 27.4793 77.4835 27.4793H77.486Z" fill="#101010"/>
<path d="M100.889 24.8075C101.485 25.7475 102.059 26.6966 102.619 27.6548C103.18 28.613 103.728 29.5735 104.263 30.5432L104.462 30.9059L104.631 31.2025L104.828 31.5105L105.051 31.8277C105.361 32.2497 105.691 32.6832 106.034 33.1122L108.121 35.7176L107.097 36.5846C106.135 35.8916 105.221 35.1488 104.357 34.3601C103.925 33.9632 103.497 33.5548 103.077 33.1099L102.773 32.7699L102.481 32.398C102.386 32.2657 102.276 32.1151 102.194 31.9942L101.961 31.6474C101.337 30.7348 100.73 29.7926 100.131 28.8571C99.5318 27.9217 98.9507 26.9772 98.3901 26.0235L100.889 24.8075Z" fill="#7F3E3B"/>
<path d="M91.2049 18.3257C91.2382 18.458 91.1844 18.5812 91.0897 18.604C90.995 18.6268 90.89 18.5356 90.8568 18.4033C90.8235 18.2709 90.8798 18.1454 90.9745 18.1249C91.0692 18.1044 91.1742 18.1934 91.2049 18.3257Z" fill="#101010"/>
<path d="M91.1958 18.579C91.1173 19.0241 90.9718 19.4577 90.7632 19.868C90.8808 19.9102 91.0075 19.9286 91.1341 19.9219C91.2607 19.9152 91.3841 19.8836 91.4953 19.8293L91.1958 18.579Z" fill="#630F0F"/>
<path d="M90.8125 17.5203C90.7983 17.5203 90.7842 17.5174 90.7713 17.5119C90.7585 17.5064 90.7472 17.4983 90.7383 17.4884C90.7315 17.4797 90.7267 17.4699 90.7242 17.4596C90.7217 17.4492 90.7215 17.4386 90.7236 17.4282C90.7258 17.4178 90.7302 17.4078 90.7367 17.399C90.7431 17.3901 90.7515 17.3825 90.7614 17.3766C90.8808 17.3101 91.0166 17.2705 91.157 17.2609C91.2974 17.2514 91.4383 17.2723 91.5677 17.3218C91.5895 17.3304 91.6066 17.346 91.6157 17.3656C91.6247 17.3851 91.625 17.407 91.6164 17.4268C91.6119 17.4365 91.6053 17.4454 91.5969 17.4529C91.5886 17.4604 91.5786 17.4663 91.5677 17.4703C91.5567 17.4744 91.545 17.4764 91.5331 17.4764C91.5213 17.4763 91.5095 17.4742 91.4986 17.4701C91.3972 17.4306 91.2867 17.4133 91.1762 17.4197C91.0658 17.426 90.9586 17.4558 90.8637 17.5066C90.8486 17.5156 90.8308 17.5203 90.8125 17.5203Z" fill="#101010"/>
<path d="M96.3109 18.745C96.4773 20.2873 96.2315 21.7794 96.6206 23.1187C96.6206 23.1187 96.1906 24.3621 93.6331 24.3621C90.8171 24.3621 92.3531 23.1187 92.3531 23.1187C93.8891 22.7924 93.907 21.7794 93.6818 20.8257L96.3109 18.745Z" fill="#7F3E3B"/>
<path d="M96.9699 23.5457C97.19 23.1532 97.4307 22.7015 96.9699 22.5601C96.4732 22.4049 93.7161 22.2475 92.751 22.5395C92.4939 22.6008 92.2736 22.749 92.1369 22.9526C92.0003 23.1561 91.9579 23.3991 92.0189 23.6301L96.9699 23.5457Z" fill="#101010"/>
<path d="M102.45 79.6416C102.627 79.6048 102.799 79.5497 102.962 79.4773C102.971 79.4737 102.978 79.4679 102.983 79.4606C102.988 79.4533 102.991 79.4448 102.99 79.4363C102.989 79.4279 102.985 79.42 102.979 79.4132C102.973 79.4065 102.966 79.401 102.957 79.3975C102.875 79.3724 102.14 79.1397 101.933 79.2834C101.911 79.2996 101.895 79.3206 101.886 79.3442C101.876 79.3679 101.874 79.3933 101.879 79.418C101.884 79.4608 101.9 79.502 101.927 79.5378C101.954 79.5736 101.99 79.603 102.033 79.6233C102.165 79.6737 102.313 79.6801 102.45 79.6416ZM102.808 79.4454C102.483 79.5709 102.217 79.6097 102.089 79.5481C102.06 79.534 102.036 79.5137 102.018 79.489C102 79.4643 101.989 79.4359 101.987 79.4066C101.987 79.3724 101.987 79.3587 102.005 79.3518C102.107 79.2765 102.514 79.3587 102.808 79.4454Z" fill="#607274"/>
<path d="M102.952 79.4812L102.976 79.4698C102.982 79.4643 102.986 79.4574 102.989 79.4497C102.991 79.4421 102.991 79.4341 102.988 79.4265C102.988 79.4037 102.809 78.8972 102.535 78.7717C102.503 78.7552 102.467 78.7453 102.43 78.7425C102.393 78.7398 102.355 78.7443 102.32 78.7557C102.284 78.7625 102.253 78.7801 102.23 78.8054C102.207 78.8308 102.195 78.8624 102.195 78.8949C102.195 79.1025 102.707 79.4196 102.927 79.479L102.952 79.4812ZM102.371 78.831C102.413 78.8235 102.456 78.83 102.492 78.8493C102.67 78.9843 102.8 79.1639 102.863 79.3649C102.622 79.2645 102.295 79.0158 102.292 78.8926C102.292 78.8812 102.292 78.8561 102.351 78.8378L102.371 78.831Z" fill="#607274"/>
<path d="M89.2594 80.8365C89.4409 80.833 89.6213 80.8108 89.797 80.7703C89.8062 80.7685 89.8145 80.7643 89.8209 80.7582C89.8273 80.7521 89.8315 80.7443 89.8328 80.7361C89.8348 80.7278 89.8339 80.7193 89.8302 80.7115C89.8266 80.7038 89.8203 80.6972 89.8123 80.6927C89.7381 80.6494 89.0751 80.2866 88.8472 80.3916C88.8217 80.403 88.8002 80.4207 88.7853 80.4424C88.7704 80.4642 88.7626 80.4892 88.7628 80.5148C88.7579 80.5573 88.7646 80.6003 88.7824 80.6401C88.8003 80.6798 88.8287 80.7151 88.8652 80.7429C88.9806 80.8135 89.1198 80.8466 89.2594 80.8365ZM89.6562 80.7087C89.308 80.7726 89.0392 80.7612 88.9266 80.6767C88.9018 80.6574 88.8827 80.633 88.8711 80.6055C88.8595 80.578 88.8557 80.5484 88.86 80.5193C88.86 80.4851 88.878 80.4737 88.8908 80.4691C89.0085 80.4144 89.3874 80.5718 89.6562 80.7087Z" fill="#607274"/>
<path d="M89.7865 80.7659C89.7949 80.7679 89.8037 80.7679 89.8121 80.7659C89.8195 80.7613 89.8255 80.7551 89.8295 80.7479C89.8336 80.7408 89.8355 80.7328 89.8352 80.7248C89.8352 80.702 89.784 80.1749 89.5433 80.0016C89.5151 79.9797 89.4821 79.9634 89.4464 79.9536C89.4107 79.9437 89.3731 79.9407 89.336 79.9445C89.2996 79.9449 89.2644 79.9565 89.2365 79.9773C89.2085 79.9981 89.1894 80.0268 89.1824 80.0586C89.1388 80.2639 89.551 80.6632 89.7635 80.7659C89.771 80.7681 89.7791 80.7681 89.7865 80.7659ZM89.3718 80.0221C89.4125 80.023 89.4515 80.0367 89.4819 80.0609C89.6263 80.2262 89.7111 80.4267 89.7251 80.6358C89.5152 80.4921 89.2515 80.1795 89.2771 80.0677C89.2771 80.0563 89.2771 80.0312 89.3488 80.0244H89.3718V80.0221Z" fill="#607274"/>
<path d="M91.9966 80.7066H90.1151L90.0971 76.8257H91.9762L91.9966 80.7066Z" fill="#7F3E3B"/>
<path d="M105.139 79.0683L103.299 79.4173L101.632 75.7647L103.473 75.4156L105.139 79.0683Z" fill="#7F3E3B"/>
<path d="M103.134 79.2513L105.2 78.8589C105.236 78.8524 105.273 78.857 105.306 78.8719C105.338 78.8868 105.364 78.9112 105.379 78.941L106.027 80.3418C106.042 80.3768 106.048 80.4142 106.045 80.4515C106.042 80.4888 106.03 80.5251 106.01 80.5579C105.99 80.5907 105.962 80.6191 105.928 80.6413C105.894 80.6635 105.855 80.6789 105.814 80.6863C105.09 80.8118 104.734 80.8415 103.825 81.0149C103.265 81.1198 102.123 81.3913 101.352 81.5373C100.582 81.6834 100.346 81.0172 100.648 80.8939C102.013 80.3464 102.471 79.8627 102.855 79.4087C102.923 79.3278 103.023 79.2718 103.134 79.2513Z" fill="#101010"/>
<path d="M90.1353 80.5133H92.1833C92.2204 80.5123 92.2566 80.5233 92.2853 80.5442C92.314 80.5652 92.3332 80.5947 92.3394 80.6273L92.6466 82.1172C92.6538 82.1539 92.6518 82.1915 92.6407 82.2274C92.6297 82.2634 92.6099 82.2967 92.5828 82.325C92.5556 82.3533 92.5218 82.376 92.4837 82.3913C92.4456 82.4066 92.4042 82.4143 92.3625 82.4138C91.6226 82.4138 90.5551 82.3659 89.6233 82.3659C88.5327 82.3659 87.5906 82.4183 86.3132 82.4183C85.5452 82.4183 85.3583 81.7225 85.6835 81.6586C87.1682 81.3734 88.3714 81.3415 89.6719 80.6433C89.8102 80.5632 89.9704 80.5182 90.1353 80.5133Z" fill="#101010"/>
<path d="M100.207 23.5007C101.955 23.8612 103.791 28.1436 103.791 28.1436L100.158 30.3064C99.3243 29.1794 98.5932 27.9946 97.972 26.7633C97.0223 24.8012 98.4226 23.1311 100.207 23.5007Z" fill="#607274"/>
<path opacity="0.2" d="M98.828 26.2381L100.331 30.2102L100.159 30.3129C100.159 30.3129 99.4732 29.4003 98.7436 28.1843L98.828 26.2381Z" fill="black"/>
<path d="M88.4747 30.9857C88.4901 32.8566 88.6155 35.1837 88.9278 38.0721H98.9886C99.1191 36.7032 98.4382 29.9819 100.207 23.4978C99.1006 23.3067 97.9812 23.1802 96.8561 23.1191C95.4322 23.0461 94.0048 23.0461 92.5809 23.1191C91.5989 23.2042 90.6258 23.3567 89.6702 23.5754C89.6702 23.5754 88.8075 24.4059 88.5489 28.3004C88.4977 29.0784 88.4696 29.9636 88.4747 30.9857Z" fill="#607274"/>
<path opacity="0.2" d="M88.4747 30.9855C89.084 29.9953 90.1899 28.0081 90.0337 26.8788L88.5489 28.3115C88.4977 29.0781 88.4696 29.9633 88.4747 30.9855Z" fill="black"/>
<path d="M91.6479 25.0974C91.8067 26.6944 87.744 30.5365 87.744 30.5365L84.48 28.1751C85.3338 26.8932 86.3565 25.7067 87.5264 24.6411C89.431 22.9984 91.4636 23.311 91.6479 25.0974Z" fill="#607274"/>
<g opacity="0.2">
<path d="M90.0971 76.8257L90.1048 78.8266H91.9864L91.9787 76.8257H90.0971Z" fill="black"/>
<path d="M103.475 75.4185L101.634 75.7676L102.494 77.6498L104.335 77.3008L103.475 75.4185Z" fill="black"/>
</g>
<path d="M96.0439 16.9408C96.3178 18.5903 96.5713 19.5417 95.8596 20.5798C95.6334 20.9196 95.3071 21.1978 94.9161 21.3842C94.5251 21.5706 94.0844 21.6581 93.6416 21.6372C93.1988 21.6163 92.7709 21.4878 92.4042 21.2656C92.0375 21.0434 91.746 20.736 91.5614 20.3767C90.8267 19.0078 90.499 16.5346 92.1144 15.4897C92.4561 15.2549 92.8612 15.1047 93.289 15.0541C93.7167 15.0035 94.1518 15.0543 94.5504 15.2015C94.949 15.3487 95.297 15.587 95.5592 15.8924C95.8215 16.1978 95.9887 16.5594 96.0439 16.9408Z" fill="#7F3E3B"/>
<path d="M92.6712 18.3324C91.7419 18.4715 91.2196 17.5201 91.9339 16.7056C90.5796 16.7604 90.0037 16.1421 90.6078 15.0379C91.1198 14.0865 92.7556 14.5519 92.7556 14.5519C92.7556 14.5519 94.1175 12.9206 95.7278 13.8287C97.4558 14.8029 96.5393 15.7041 96.5393 15.7041C96.5393 15.7041 99.0199 16.0098 98.3799 17.5977C98.2827 17.8407 98.1114 18.0549 97.8854 18.216C97.6593 18.3772 97.3873 18.4791 97.0999 18.5103C97.0999 18.5103 97.7348 20.2123 95.8532 20.5637C93.9716 20.915 92.0721 19.5142 92.6712 18.3324Z" fill="#101010"/>
<path d="M93.2404 17.9086C93.2739 18.3273 93.1564 18.7446 92.905 19.0996C92.5696 19.5559 92.1088 19.3848 91.9604 18.9079C91.8247 18.479 91.8349 17.7193 92.288 17.4181C92.7412 17.1169 93.1815 17.4067 93.2404 17.9086Z" fill="#7F3E3B"/>
<path d="M92.4975 38.0724C92.4975 38.0724 94.077 50.8785 95.0421 55.6696C96.0969 60.9171 101.562 77.4192 101.562 77.4192L104.931 76.7804C104.931 76.7804 101.171 61.3506 100.664 56.1465C100.113 50.4997 98.9896 38.0633 98.9896 38.0633L92.4975 38.0724Z" fill="#101010"/>
<path d="M100.81 76.4148C100.795 76.4148 101.384 77.5122 101.384 77.5122L105.172 76.7935L104.901 75.7691L100.81 76.4148Z" fill="#607274"/>
<path opacity="0.2" d="M93.6474 42.6357C96.0973 43.0669 95.4803 51.2689 95.0016 55.4874C94.4179 52.5055 93.6243 46.7675 93.0893 42.695C93.2625 42.6197 93.4592 42.5988 93.6474 42.6357Z" fill="black"/>
<path d="M88.9302 38.072C88.9302 38.072 88.1264 50.6044 88.111 55.7149C88.0931 61.0308 89.4217 78.4387 89.4217 78.4387H92.6089C92.6089 78.4387 93.4665 61.3411 93.8326 56.121C94.2345 50.4173 95.5426 38.072 95.5426 38.072H88.9302Z" fill="#101010"/>
<path d="M88.4748 36.8859C88.4657 37.2907 88.543 37.6933 88.7027 38.0723C88.6281 38.4144 88.5895 38.7619 88.5875 39.1104C89.6115 39.4321 99.2831 39.8314 99.2626 39.1104C99.2421 38.3895 99.2626 38.0723 99.2626 38.0723C99.2626 38.0723 99.5186 37.0571 99.2626 36.8859C99.0066 36.7148 88.5465 36.2768 88.4748 36.8859Z" fill="#607274"/>
<path opacity="0.3" d="M88.4748 36.8859C88.4657 37.2907 88.543 37.6933 88.7027 38.0723C88.6281 38.4144 88.5895 38.7619 88.5875 39.1104C89.6115 39.4321 99.2831 39.8314 99.2626 39.1104C99.2421 38.3895 99.2626 38.0723 99.2626 38.0723C99.2626 38.0723 99.5186 37.0571 99.2626 36.8859C99.0066 36.7148 88.5465 36.2768 88.4748 36.8859Z" fill="black"/>
<path d="M88.8581 77.3072C88.8427 77.3072 88.9861 78.4867 88.9861 78.4867H92.8619L93.0129 77.4349L88.8581 77.3072Z" fill="#607274"/>
</svg>
