<svg width="156" height="156" viewBox="0 0 156 156" fill="none" xmlns="http://www.w3.org/2000/svg">
<path d="M156 119.308H0V119.386H156V119.308Z" fill="#EBEBEB"/>
<path d="M140.369 124.33H130.035V124.408H140.369V124.33Z" fill="#EBEBEB"/>
<path d="M103.341 125.177H100.629V125.255H103.341V125.177Z" fill="#EBEBEB"/>
<path d="M129.722 121.433H123.734V121.511H129.722V121.433Z" fill="#EBEBEB"/>
<path d="M29.8434 121.957H16.3672V122.035H29.8434V121.957Z" fill="#EBEBEB"/>
<path d="M34.597 121.957H32.6211V122.035H34.597V121.957Z" fill="#EBEBEB"/>
<path d="M70.2455 123.275H41.0186V123.353H70.2455V123.275Z" fill="#EBEBEB"/>
<path d="M73.9487 105.394H13.7018C12.7199 105.394 11.9209 104.595 11.9209 103.613V18.9259C11.9209 17.9441 12.7199 17.145 13.7018 17.145H73.9487C74.9302 17.145 75.7293 17.9441 75.7293 18.9259V103.613C75.7293 104.595 74.9302 105.394 73.9487 105.394ZM13.7018 17.2233C12.7627 17.2233 11.9989 17.9871 11.9989 18.9262V103.613C11.9989 104.552 12.7627 105.316 13.7018 105.316H73.9487C74.8875 105.316 75.6513 104.552 75.6513 103.613V18.9259C75.6513 17.9871 74.8875 17.223 73.9487 17.223L13.7018 17.2233Z" fill="#EBEBEB"/>
<path d="M141.432 105.394H81.1859C80.204 105.394 79.4053 104.595 79.4053 103.613V18.9259C79.4053 17.9441 80.2043 17.145 81.1859 17.145H141.432C142.415 17.145 143.213 17.9441 143.213 18.9259V103.613C143.214 104.595 142.415 105.394 141.432 105.394ZM81.1859 17.2233C80.247 17.2233 79.4833 17.9871 79.4833 18.9262V103.613C79.4833 104.552 80.247 105.316 81.1859 105.316H141.432C142.372 105.316 143.135 104.552 143.135 103.613V18.9259C143.135 17.9871 142.372 17.223 141.432 17.223L81.1859 17.2233Z" fill="#EBEBEB"/>
<path d="M45.8208 90.6646H23.6055V118.432H45.8208C47.9695 118.432 49.7274 116.674 49.7274 114.525V94.5714C49.7274 92.4227 47.9692 90.6646 45.8208 90.6646Z" fill="#F0F0F0"/>
<path d="M23.789 90.6646H23.4212C21.2725 90.6646 19.5146 92.4224 19.5146 94.5711V114.525C19.5146 116.674 21.2725 118.432 23.4212 118.432H23.789C25.9378 118.432 27.6956 116.673 27.6956 114.525V94.5711C27.6956 92.4227 25.9378 90.6646 23.789 90.6646Z" fill="#F5F5F5"/>
<path d="M26.5798 118.432H55.5742V100.907H26.5798L26.5798 118.432Z" fill="#F0F0F0"/>
<path d="M24.1984 119.308H76.4546C76.897 119.308 77.2558 118.949 77.2558 118.507V118.432H45.8321L23.3975 118.507C23.3975 118.95 23.7559 119.308 24.1984 119.308Z" fill="#E0E0E0"/>
<path d="M47.0857 79.144H74.0628C77.0718 79.144 79.2969 81.5833 79.0333 84.5922L77.2552 104.869H39.3818L41.1599 84.5922C41.4239 81.5833 44.0768 79.144 47.0857 79.144Z" fill="#E0E0E0"/>
<path d="M42.824 79.144H70.3262C73.19 79.144 75.3082 81.4656 75.057 84.3295L73.2559 104.869H35.3828L37.184 84.3295C37.4348 81.4656 39.9602 79.144 42.824 79.144Z" fill="#F5F5F5"/>
<path d="M28.9036 99.3064H51.8699C53.2284 99.3064 54.3297 100.408 54.3297 101.766V103.984C54.3297 105.342 53.2284 106.444 51.8699 106.444H28.9036C26.9327 106.444 25.335 104.846 25.335 102.875C25.335 100.904 26.9327 99.3064 28.9036 99.3064Z" fill="#E0E0E0"/>
<path d="M77.9155 90.6646H55.7002V118.432H77.9155C80.0643 118.432 81.8221 116.674 81.8221 114.525V94.5714C81.8221 92.4227 80.0643 90.6646 77.9155 90.6646Z" fill="#F0F0F0"/>
<path d="M55.8848 90.6646H55.5169C53.3682 90.6646 51.6104 92.4224 51.6104 94.5711V114.525C51.6104 116.674 53.3685 118.432 55.5169 118.432H55.8848C58.0335 118.432 59.7913 116.673 59.7913 114.525V94.5711C59.7913 92.4227 58.0332 90.6646 55.8848 90.6646Z" fill="#F5F5F5"/>
<path d="M117.004 75.4004H95.6465V119.309H117.004V75.4004Z" fill="#F0F0F0"/>
<path d="M98.8398 115.888V78.8203H98.3475V115.888H98.8398Z" fill="#E6E6E6"/>
<path d="M113.854 78.8206H98.3467V79.4442H113.854V78.8206Z" fill="#E6E6E6"/>
<path d="M138.854 75.4001H117.496V119.309H138.854V75.4001Z" fill="#F0F0F0"/>
<path d="M138.855 119.308H141.682V75.4H138.855V119.308Z" fill="#E0E0E0"/>
<path d="M120.689 115.888V78.8201H120.197V115.888H120.689Z" fill="#E6E6E6"/>
<path d="M117.496 119.308L117.496 75.8989H117.004L117.004 119.308H117.496Z" fill="#E6E6E6"/>
<path d="M135.704 78.8203H120.197V79.444H135.704V78.8203Z" fill="#E6E6E6"/>
<path d="M116.068 85.1143H115.007V94.8165H116.068V85.1143Z" fill="#E0E0E0"/>
<path d="M119.494 85.1143H118.433V94.8165H119.494V85.1143Z" fill="#E0E0E0"/>
<path d="M132.947 29.6147H24.0518V68.4547H132.947V29.6147Z" fill="#E0E0E0"/>
<path d="M131.949 29.6147H23.0537V68.4547H131.949V29.6147Z" fill="#F0F0F0"/>
<path d="M128.682 65.1876V32.8816L26.3204 32.8816V65.1876L128.682 65.1876Z" fill="#FAFAFA"/>
<path d="M42.9375 65.1879L49.7219 32.8816H64.6951L57.911 65.1879H42.9375Z" fill="white"/>
<path d="M64.2285 65.1879L71.013 32.8816H78.4997L71.7153 65.1879H64.2285Z" fill="white"/>
<path d="M109.941 65.1879L116.726 32.8816H124.212L117.428 65.1879H109.941Z" fill="white"/>
<path d="M78.0002 133.399C111.41 133.399 138.494 131.817 138.494 129.866C138.494 127.915 111.41 126.333 78.0002 126.333C44.5906 126.333 17.5068 127.915 17.5068 129.866C17.5068 131.817 44.5906 133.399 78.0002 133.399Z" fill="#F5F5F5"/>
<path d="M51.7952 36.0809C52.5811 34.2782 45.6166 32.6386 43.5106 38.1938C41.6021 43.2282 38.4319 44.5118 39.9226 47.9971C41.5366 51.7711 50.6632 52.2232 54.6266 48.0408C57.8392 44.6506 54.3492 43.2223 54.7997 40.0327C55.2506 36.8437 54.3027 35.8035 51.7952 36.0809Z" fill="#101010"/>
<path d="M39.1065 46.88C38.7442 44.9148 39.4734 44.1039 40.3966 43.0774C41.2387 42.1408 42.287 40.9754 42.8608 38.471C43.3263 36.4399 44.7147 35.1111 46.7704 34.7301C48.8281 34.3483 51.0099 35.0212 51.5859 35.878C51.7752 36.1597 51.7868 36.4596 51.6183 36.7223L51.3556 36.5538C51.457 36.3956 51.4476 36.2315 51.3269 36.0521C50.8155 35.2917 48.7385 34.6827 46.8272 35.0372C45.465 35.2899 43.7238 36.1026 43.165 38.5412C42.5728 41.1243 41.4948 42.323 40.6287 43.2864C39.7292 44.287 39.0793 45.0096 39.4135 46.8242L39.1065 46.88Z" fill="#101010"/>
<path d="M34.8157 45.3862L34.621 44.7647C34.4884 44.3414 34.2475 43.9598 33.9218 43.6584L33.3081 43.0902C32.9016 42.714 32.2844 42.6812 31.8405 43.0125L31.1706 43.513C30.6574 43.8961 30.5566 44.625 30.9466 45.1329L31.3787 45.6958C31.3787 45.6958 32.3874 47.4036 33.851 47.9974L34.188 47.7097C34.1936 47.705 34.1989 47.7004 34.2045 47.6957C34.8559 47.1297 35.0734 46.2093 34.8157 45.3862Z" fill="#FFC3BD"/>
<path d="M46.9437 56.218L46.744 56.3708L46.5821 56.4891L46.2685 56.7075C46.0598 56.8454 45.8501 56.9743 45.6383 57.0975C45.2149 57.3446 44.7775 57.5614 44.3279 57.7617C43.4262 58.1527 42.4634 58.4569 41.4425 58.6207C40.426 58.7954 39.343 58.8069 38.2704 58.6397C37.7347 58.5539 37.2024 58.421 36.6914 58.2322C36.5619 58.1901 36.4368 58.1377 36.3113 58.0853L36.1235 58.007L36.0299 57.9677L35.9263 57.9218L35.7969 57.8597C35.468 57.6906 35.225 57.4984 35.049 57.3324C34.8621 57.159 34.7295 57.002 34.61 56.8504C34.1598 56.257 33.9604 55.7731 33.762 55.306C33.5751 54.842 33.4313 54.4015 33.303 53.9675C33.0634 53.097 32.8787 52.2587 32.7383 51.4178C32.4538 49.7374 32.2915 48.0932 32.261 46.3953C32.2482 45.698 32.8032 45.1223 33.5005 45.1098C34.0537 45.0998 34.5304 45.4471 34.7102 45.9398L34.722 45.9734C35.2643 47.4682 35.7872 48.998 36.3366 50.4528C36.6187 51.1776 36.8938 51.8965 37.2062 52.5517C37.355 52.8799 37.5113 53.1937 37.6692 53.4639C37.8186 53.7276 38.0052 53.965 38.066 54.0031C38.0766 54.0068 38.0801 54.0009 38.0461 53.9613C38.0189 53.9329 37.9444 53.8571 37.7962 53.7791L37.7356 53.7488C37.7188 53.7407 37.6807 53.7266 37.7019 53.7332L37.7515 53.7454L37.8501 53.7703C37.9153 53.7875 37.9796 53.8062 38.0467 53.8159C38.3078 53.8773 38.5771 53.892 38.8442 53.9123C39.3824 53.9394 39.9396 53.8708 40.5146 53.7373C41.0868 53.5962 41.6762 53.3928 42.2543 53.1204C42.5457 52.9906 42.8312 52.8374 43.1117 52.6824C43.2527 52.6053 43.3894 52.5229 43.5217 52.4418L43.8471 52.24L44.0907 52.0886C45.2698 51.357 46.8186 51.7196 47.5502 52.8986C48.236 54.004 47.9511 55.4405 46.9437 56.218Z" fill="#FFC3BD"/>
<path d="M52.428 128.505C54.4039 127.855 56.0675 126.52 55.7315 124.177C55.5873 123.172 58.8094 122.779 58.8094 122.779C58.4424 125.971 58.8427 126.509 59.2274 127.244C59.6137 127.983 59.5881 128.846 58.9217 128.925C58.1233 129.021 57.9439 128.932 56.9526 129.064C55.7936 129.218 55.0416 129.824 52.7232 129.824C51.453 129.824 51.7937 128.714 52.428 128.505Z" fill="#F16682"/>
<path d="M58.422 94.4147C58.6507 78.4278 57.1687 69.7146 57.1687 69.7146L45.3408 70.3033C45.3408 70.3033 47.0902 84.9296 50.1958 95.7033C51.0258 101.485 52.8956 111.264 54.1904 117.83C56.2355 117.623 58.2848 117.27 59.8585 116.756C60.3178 110.987 60.4004 102.641 58.422 94.4147Z" fill="#F16682"/>
<path d="M58.6774 124.345C58.6774 124.345 59.1395 121.324 59.4506 116.757C58.104 117.27 56.3499 117.623 54.5996 117.83C55.2729 121.819 55.7537 124.358 55.7537 124.358C56.3415 124.644 57.8329 124.744 58.6774 124.345Z" fill="#FFC3BD"/>
<path d="M53.5507 115.918C53.6565 116.467 53.941 117.843 54.2246 118.325C54.2586 118.383 54.3167 118.421 54.3831 118.43C56.5877 118.708 58.7914 118.263 59.703 117.865C59.7542 117.842 59.7926 117.803 59.8122 117.751C60.0599 117.091 60.1507 115.698 60.1788 115.112C60.1854 114.975 60.064 114.869 59.9298 114.896C59.2063 115.039 57.0039 115.436 53.7444 115.671C53.619 115.679 53.5267 115.794 53.5507 115.918Z" fill="#101010"/>
<path d="M45.5019 51.5051C43.7488 51.8309 41.074 53.2991 41.074 53.2991C41.074 53.2991 39.6669 56.6687 41.3517 59.0964C43.0128 59.4876 43.857 59.1682 43.857 59.1682L45.5019 51.5051Z" fill="#101010"/>
<path opacity="0.2" d="M41.3516 59.0965C43.0127 59.4877 43.8566 59.1682 43.8566 59.1682L43.7983 54.6208C42.6613 56.1397 41.7241 57.6413 41.3516 59.0965Z" fill="black"/>
<path opacity="0.2" d="M58.3579 84.9824C57.0351 81.747 55.6123 79.0825 55.0663 76.6489C54.1366 83.2664 54.8667 89.3536 58.4266 93.7153C58.4671 90.4955 58.4328 87.5814 58.3579 84.9824Z" fill="black"/>
<path d="M76.4294 110.354L71.7089 113.712C67.8557 108.692 62.0774 101.023 60.6797 97.6842C57.1291 89.2134 49.9902 70.5483 49.9902 70.5483L59.2566 68.3967C59.2566 68.3967 65.1035 73.8255 68.8756 94.3118C72.0427 98.7887 74.7009 105.391 76.4294 110.354Z" fill="#F16682"/>
<path d="M76.1682 126.267C77.3454 123.968 77.3613 121.433 76.0896 119.437C75.5442 118.581 78.3182 116.895 78.3182 116.895C79.2991 119.954 80.096 120.132 80.7777 120.606C81.4794 121.093 81.5277 122.102 80.953 122.449C80.2648 122.865 79.9996 123.136 79.3909 123.929C78.6795 124.857 78.2814 126.152 77.2611 126.951C76.6084 127.462 75.6525 127.274 76.1682 126.267Z" fill="#F16682"/>
<path d="M78.8343 118.297C78.8343 118.297 78.0188 115.433 76.4201 111.143C75.4045 112.166 73.9518 113.21 72.4424 114.12C74.6997 117.477 76.3489 119.889 76.3489 119.889C77.3517 119.57 78.229 119.008 78.8343 118.297Z" fill="#FFC3BD"/>
<path d="M70.6988 112.81C71.0215 113.267 71.8479 114.403 72.305 114.726C72.3596 114.765 72.4283 114.775 72.4922 114.756C74.6154 114.101 76.4403 112.787 77.1067 112.049C77.1441 112.007 77.1629 111.956 77.1591 111.9C77.1129 111.197 76.6219 109.89 76.4056 109.344C76.3554 109.217 76.201 109.171 76.0899 109.25C75.4896 109.679 73.6463 110.948 70.7731 112.505C70.6627 112.565 70.6262 112.707 70.6988 112.81Z" fill="#101010"/>
<path d="M42.8256 56.1736C43.25 58.9333 41.6042 61.0742 44.1342 62.3478C43.7145 64.445 44.3385 68.6399 45.341 70.3032C46.7459 71.0663 53.6299 69.9372 59.2562 68.3965C59.1735 65.9951 57.1979 61.2683 57.7467 53.3999C57.874 51.5757 56.3933 50.0434 54.5656 50.109C54.0773 50.1264 53.5616 50.1561 53.0355 50.2022C50.9913 50.3826 49.3187 50.5458 47.5556 50.9535C46.9712 51.0886 46.37 51.2474 45.7971 51.4094C43.7301 51.9938 42.499 54.0501 42.8256 56.1736Z" fill="#101010"/>
<path d="M46.8037 54.0612C46.8037 54.0612 48.5646 53.4166 49.4903 54.9988C51.0266 54.1355 53.1913 50.4813 53.0359 50.2024C50.461 50.9081 46.8037 54.0612 46.8037 54.0612Z" fill="white"/>
<path d="M46.8039 54.0611C46.8039 54.0611 45.4648 53.9023 45.0879 55.0854C45.101 52.7454 46.6654 51.275 47.3564 51.0007C47.1243 51.6101 46.8039 54.0611 46.8039 54.0611Z" fill="white"/>
<path d="M52.3589 44.0085C52.1636 45.8316 52.1315 48.7662 53.0363 50.2024C53.0363 50.2024 49.6199 52.5545 46.8041 54.0609C45.9202 52.0173 47.3566 51.0005 47.3566 51.0005C48.6948 50.4863 48.6829 48.7747 48.5017 47.4633L52.3589 44.0085Z" fill="#FFC3BD"/>
<path opacity="0.2" d="M48.5 47.4636L50.6943 45.498C50.7751 45.7944 50.7408 46.2272 50.6247 46.6007C50.2812 47.6808 49.377 48.5469 48.5724 49.018C48.612 48.5014 48.5677 47.956 48.5 47.4636Z" fill="black"/>
<path d="M53.0643 40.6174C52.7694 43.5792 52.7064 44.8391 51.1764 46.3055C48.8748 48.511 45.3722 47.4992 44.7935 44.5087C44.2728 41.8167 44.8425 37.4256 47.7385 36.3558C50.592 35.3012 53.3594 37.6556 53.0643 40.6174Z" fill="#FFC3BD"/>
<path d="M52.4018 42.7842C51.3357 41.8338 51.5179 40.1902 52.2979 39.4002C53.0779 38.6099 54.1749 40.2436 54.1749 40.2436L52.4018 42.7842Z" fill="#101010"/>
<path d="M48.7983 41.4374C48.789 41.6792 48.6533 41.8701 48.4951 41.8639C48.3369 41.8577 48.2165 41.6567 48.2261 41.4149C48.2355 41.1731 48.3712 40.9822 48.5294 40.9884C48.6873 40.9947 48.8077 41.1956 48.7983 41.4374Z" fill="#101010"/>
<path d="M45.8247 41.3634C45.8153 41.6052 45.6796 41.7962 45.5214 41.7899C45.3633 41.7837 45.2428 41.5828 45.2525 41.341C45.2619 41.0992 45.3976 40.9082 45.5558 40.9145C45.7136 40.9207 45.8341 41.1219 45.8247 41.3634Z" fill="#101010"/>
<path d="M45.6239 40.9307L45.0498 40.7407C45.0498 40.7407 45.33 41.2059 45.6239 40.9307Z" fill="#101010"/>
<path d="M46.5557 41.4592C46.5557 41.4592 46.1049 42.4838 45.6338 42.9684C45.9411 43.2788 46.4893 43.1637 46.4893 43.1637L46.5557 41.4592Z" fill="#ED847E"/>
<path d="M47.8444 44.1114C47.7183 44.1286 47.5826 44.1361 47.4375 44.1305C47.3985 44.1289 47.3679 44.0958 47.3692 44.0565C47.3707 44.0175 47.4029 43.9872 47.4431 43.9882C48.5033 44.0303 49.0284 43.308 49.0337 43.3008C49.0565 43.2687 49.1008 43.2612 49.1326 43.2837C49.1647 43.3065 49.1722 43.3508 49.1495 43.3826C49.1295 43.4113 48.707 43.9932 47.8444 44.1114Z" fill="#101010"/>
<path d="M53.5587 43.1002C53.2776 43.6612 52.8027 44.0059 52.3603 44.1167C51.6951 44.2833 51.3869 43.5504 51.5922 42.8206C51.7769 42.1639 52.3456 41.2856 53.0033 41.4472C53.6517 41.6063 53.8801 42.4587 53.5587 43.1002Z" fill="#FFC3BD"/>
<path d="M51.5298 36.4001C49.1785 37.8821 46.6676 38.61 44.6212 38.8702C44.6024 36.738 48.7851 34.3459 51.5298 36.4001Z" fill="#101010"/>
<path d="M49.924 36.66C49.4385 38.532 54.2745 41.9534 53.3644 45.2659C54.9503 42.7958 53.8065 37.2428 53.8065 37.2428C53.8065 37.2428 49.7075 34.6579 49.924 36.66Z" fill="#101010"/>
<path d="M49.421 39.8465C49.3839 39.8403 49.3493 39.8197 49.3265 39.7863C48.9702 39.2621 48.4479 39.2662 48.4417 39.2662C48.3643 39.2671 48.2985 39.2053 48.2969 39.1267C48.2953 39.0484 48.3577 38.9835 48.4364 38.982C48.4638 38.9816 49.1197 38.976 49.5614 39.6266C49.6054 39.6914 49.5886 39.7797 49.5237 39.824C49.4925 39.8449 49.4557 39.8521 49.421 39.8465Z" fill="#101010"/>
<path d="M44.5072 39.7409C44.4719 39.7403 44.4367 39.7262 44.4099 39.6994C44.3543 39.6438 44.3543 39.554 44.4095 39.4984C44.9646 38.9425 45.6082 39.0694 45.6354 39.0754C45.7121 39.0916 45.7614 39.1668 45.7452 39.2435C45.7293 39.3203 45.6541 39.3693 45.5774 39.3537C45.5521 39.3484 45.0519 39.257 44.6105 39.6991C44.5824 39.7281 44.5446 39.7418 44.5072 39.7409Z" fill="#101010"/>
<path d="M48.5985 41.0045L48.0244 40.8145C48.0244 40.8145 48.3046 41.2793 48.5985 41.0045Z" fill="#101010"/>
<path opacity="0.2" d="M57.6717 54.9216C57.6118 56.7692 57.6908 58.4294 57.8386 59.9083C56.2702 58.26 54.3177 55.1503 54.1904 53.5906L57.6717 54.9216Z" fill="black"/>
<path d="M67.8584 49.052L68.201 47.0708L71.2785 48.2592C71.2785 48.2592 70.5656 50.1038 69.2521 50.9184L68.8864 50.6869C68.2918 50.3103 67.9136 49.7091 67.8584 49.052Z" fill="#FFC3BD"/>
<path d="M70.1222 45.9678L71.133 46.5175C71.5939 46.7681 71.7667 47.3434 71.5199 47.8064L71.2787 48.2591L68.2012 47.0707L68.9316 46.1952C69.2236 45.8452 69.7219 45.75 70.1222 45.9678Z" fill="#FFC3BD"/>
<path d="M57.1251 51.3162L57.5157 51.7211L57.9435 52.1536C58.2349 52.4387 58.5244 52.727 58.8239 53.0019C59.4161 53.5598 60.0301 54.0796 60.6423 54.561C61.2585 55.0318 61.8837 55.4567 62.484 55.7765C63.0855 56.0935 63.6556 56.2919 64.0727 56.3447L63.2337 56.5007C63.0275 56.599 63.04 56.6426 63.084 56.6102C63.1302 56.5837 63.2185 56.5091 63.3142 56.4146C63.5086 56.2205 63.728 55.945 63.9395 55.6486C64.3632 55.0471 64.7947 54.3632 65.1981 53.6559C65.6115 52.9504 66.0109 52.2185 66.4118 51.4803L67.6142 49.2576L67.6242 49.2392C67.9565 48.6249 68.7237 48.3962 69.338 48.7284C69.8229 48.9908 70.0669 49.5265 69.9848 50.0417C69.84 50.9399 69.6457 51.7892 69.426 52.6537C69.2039 53.5139 68.9471 54.3675 68.6516 55.2243C68.344 56.0773 68.0176 56.9359 67.5656 57.8098C67.3365 58.2488 67.0869 58.6937 66.7453 59.1701C66.5725 59.4095 66.3743 59.6562 66.1041 59.9193C65.833 60.1767 65.4948 60.4784 64.8902 60.7395C64.6615 60.8381 64.424 60.888 64.1894 60.8936L64.0512 60.8955C62.6706 60.9211 61.4909 60.5763 60.4716 60.1451C59.9606 59.9271 59.4763 59.6871 59.0186 59.4291C58.5647 59.1661 58.1297 58.8897 57.7113 58.6026C56.8758 58.0289 56.1105 57.4011 55.3845 56.7462C55.0241 56.4152 54.669 56.082 54.3302 55.7307C54.1599 55.5563 53.9904 55.3797 53.8245 55.1975C53.6535 55.0081 53.5071 54.843 53.3097 54.61C52.4105 53.5482 52.5424 51.9586 53.6042 51.0594C54.6219 50.1977 56.1248 50.2831 57.0396 51.2269L57.1251 51.3162Z" fill="#FFC3BD"/>
<path d="M54.7038 50.1128C56.9895 50.1827 59.2652 52.9286 59.2652 52.9286C59.2652 52.9286 58.3835 56.5625 55.8782 58.1293C54.4695 57.0298 53.2742 56.1512 53.2742 56.1512C51.2793 53.2222 51.9435 51.2787 54.7038 50.1128Z" fill="#101010"/>
<path d="M44.8838 70.0864C45.0519 71.0651 45.255 71.8308 45.3202 72.0663C45.3343 72.1169 45.3664 72.1574 45.4123 72.183C45.7467 72.3687 47.2687 73.1081 50.0626 72.9562C53.1992 72.7858 57.7603 71.0898 60.1362 69.2699C60.2073 69.2153 60.2326 69.1195 60.1973 69.0368C59.9967 68.5672 59.6991 68.0843 59.5565 67.8631C59.5087 67.7891 59.4183 67.7564 59.334 67.7816C58.3113 68.089 51.8685 69.9376 45.0812 69.8567C44.958 69.8555 44.8628 69.965 44.8838 70.0864Z" fill="#F16682"/>
<path opacity="0.3" d="M44.8838 70.0864C45.0519 71.0651 45.255 71.8308 45.3202 72.0663C45.3343 72.1169 45.3664 72.1574 45.4123 72.183C45.7467 72.3687 47.2687 73.1081 50.0626 72.9562C53.1992 72.7858 57.7603 71.0898 60.1362 69.2699C60.2073 69.2153 60.2326 69.1195 60.1973 69.0368C59.9967 68.5672 59.6991 68.0843 59.5565 67.8631C59.5087 67.7891 59.4183 67.7564 59.334 67.7816C58.3113 68.089 51.8685 69.9376 45.0812 69.8567C44.958 69.8555 44.8628 69.965 44.8838 70.0864Z" fill="white"/>
<path d="M107.412 120.56H66.3341C63.0949 120.56 60.6004 117.91 60.7904 114.671L65.798 29.2892C65.9881 26.05 68.7936 23.3999 72.0327 23.3999H113.11C116.35 23.3999 118.844 26.05 118.654 29.2889L113.646 114.671C113.456 117.91 110.651 120.56 107.412 120.56Z" fill="#F16682"/>
<path opacity="0.8" d="M107.412 120.56H66.3341C63.0949 120.56 60.6004 117.91 60.7904 114.671L65.798 29.2892C65.9881 26.05 68.7936 23.3999 72.0327 23.3999H113.11C116.35 23.3999 118.844 26.05 118.654 29.2889L113.646 114.671C113.456 117.91 110.651 120.56 107.412 120.56Z" fill="white"/>
<path d="M107.167 118.852H67.2351C64.9588 118.852 63.2056 116.989 63.3392 114.713L68.3249 29.7042C68.4585 27.4278 70.4303 25.5652 72.7067 25.5652H112.639C114.915 25.5652 116.668 27.4275 116.535 29.7042L111.549 114.713C111.416 116.989 109.444 118.852 107.167 118.852Z" fill="#F16682"/>
<path d="M106.737 118.394H66.8047C64.5284 118.394 62.7753 116.532 62.9085 114.255L67.8942 29.2469C68.0278 26.9705 69.9993 25.1079 72.276 25.1079H112.208C114.485 25.1079 116.238 26.9702 116.104 29.2469L111.118 114.255C110.985 116.532 109.014 118.394 106.737 118.394Z" fill="white"/>
<path opacity="0.1" d="M105.571 115.233H68.3414C66.9343 115.233 65.8507 114.082 65.9331 112.675L68.0129 77.2165C68.0953 75.8094 69.3143 74.6584 70.7211 74.6584H107.951C109.358 74.6584 110.442 75.8097 110.359 77.2165L108.28 112.675C108.197 114.082 106.979 115.233 105.571 115.233Z" fill="#F16682"/>
<path opacity="0.1" d="M97.2986 31.4138H86.446C85.9421 31.4138 85.554 31.0017 85.5836 30.4978C85.6133 29.9939 86.0494 29.5818 86.5533 29.5818H97.4059C97.9098 29.5818 98.2979 29.9939 98.2683 30.4978C98.2386 31.0014 97.8022 31.4138 97.2986 31.4138Z" fill="#F16682"/>
<path opacity="0.1" d="M101.621 65.6339C108.305 59.1425 108.761 48.7702 102.639 42.4667C96.5179 36.1632 86.1367 36.3155 79.4525 42.8069C72.7682 49.2983 72.3122 59.6705 78.4338 65.974C84.5554 72.2775 94.9366 72.1252 101.621 65.6339Z" fill="#F16682"/>
<path d="M79.0625 65.0749C76.3104 62.1567 74.9279 58.2798 75.1697 54.1589L75.4811 54.1773C75.2446 58.2118 76.5968 62.0057 79.2893 64.8608L79.0625 65.0749Z" fill="#F16682"/>
<path d="M105.9 54.2867L105.589 54.2683C105.671 52.8742 105.563 51.4952 105.269 50.1695L105.573 50.1018C105.874 51.4559 105.984 52.8639 105.9 54.2867Z" fill="#F16682"/>
<path d="M104.37 47.4564C103.731 46.0321 102.86 44.7295 101.78 43.5848C100.286 42.0001 98.4961 40.8152 96.4609 40.0629L96.5692 39.7703C98.6499 40.5393 100.479 41.7505 102.007 43.3707C103.111 44.5407 104.002 45.8727 104.655 47.3288L104.37 47.4564Z" fill="#F16682"/>
<path d="M100.195 64.165C106.019 58.5089 106.417 49.471 101.083 43.9785C95.7485 38.4859 86.7029 38.6185 80.8787 44.2747C75.0545 49.9309 74.6571 58.9687 79.9912 64.4613C85.3253 69.9538 94.3709 69.8212 100.195 64.165Z" fill="#F16682"/>
<path d="M88.947 56.158C88.9498 56.1573 88.9533 56.1561 88.9558 56.1555C89.6418 56.0048 89.9626 55.4166 90.1086 54.7483C90.1233 54.6794 90.137 54.6101 90.1482 54.5396C90.1517 54.5193 90.1548 54.4991 90.1579 54.4785C90.1994 54.1961 90.2166 53.9081 90.2209 53.6382C88.9202 53.4963 87.8291 52.4832 87.768 50.9747C87.7218 49.8337 87.9817 48.3489 88.6013 47.1583C88.4765 47.1755 88.3299 47.2223 88.1801 47.333C88.1552 47.3514 88.1252 47.3574 88.0971 47.3527C88.0706 47.348 88.046 47.3337 88.0285 47.3103C87.9932 47.2622 88.0032 47.1945 88.0513 47.1589C88.2993 46.9758 88.5433 46.9327 88.7252 46.9343C88.7692 46.8582 88.8132 46.782 88.8606 46.7093C88.6628 46.7137 88.4693 46.714 88.2821 46.7097C88.4881 45.2682 91.2605 44.057 93.1522 45.1631C93.993 45.3316 95.3836 46.5337 95.3836 46.5337C95.3836 46.5337 95.4382 47.5761 95.3187 48.8347V48.835H95.3184C95.1948 50.137 94.885 51.6705 94.1346 52.5238C94.3312 52.082 94.3796 51.6146 94.3328 51.1382C94.1343 51.3313 93.9066 51.4508 93.6844 51.5067C93.5946 51.7045 93.4935 51.8857 93.3784 52.057C93.0848 53.3949 92.877 55.1798 93.3238 56.2032C93.725 56.2285 94.1166 56.265 94.4863 56.3077C94.5172 56.3115 94.5468 56.3186 94.5774 56.3233C94.8201 56.1798 95.0566 56.021 95.2837 55.8441C98.0899 53.6582 95.1096 51.0979 95.8132 48.7483C96.5168 46.3986 95.9218 45.5072 94.0024 45.4295C94.8001 44.1619 89.7436 42.132 87.5234 46.0741C85.5113 49.6465 84.8611 51.4287 85.5852 54.2229C85.8145 55.1075 86.4445 55.8419 87.305 56.3739C87.4451 56.3358 87.5876 56.304 87.7358 56.2856C88.1318 56.2356 88.5433 56.192 88.947 56.158Z" fill="#101010"/>
<path d="M84.5822 61.6511C84.4458 61.4186 84.3369 61.2034 84.2583 61.0305C84.0465 61.6595 83.8374 62.2894 83.6299 62.9109C83.4393 63.4732 83.253 64.0345 83.0605 64.5702L82.7719 65.3286L82.6456 65.6281C82.6025 65.7124 82.6456 65.6647 82.6409 65.6871C82.5847 65.7698 82.3916 65.9501 82.2007 66.1146C82.1635 66.1461 82.1227 66.1785 82.084 66.2103C82.9382 66.7854 83.8639 67.2677 84.8514 67.6362C84.8726 66.2103 85.0492 64.7283 85.2339 64.3315C84.1323 63.5499 84.3023 62.6997 84.5822 61.6511Z" fill="#FFC3BD"/>
<path d="M85.6759 57.4436C85.6491 57.4776 85.6225 57.5154 85.5957 57.5516C85.6222 57.5157 85.6497 57.4807 85.6774 57.4461L85.6759 57.4436Z" fill="#101010"/>
<path d="M84.9539 59.5332C84.9526 58.8231 85.171 58.1563 85.5511 57.6116C84.7595 58.7126 84.085 60.6046 84.085 60.6046C84.085 60.6046 84.1405 60.7718 84.2581 61.0302C84.3367 61.203 84.4456 61.4183 84.582 61.6507C84.7489 61.0249 84.9554 60.3282 84.9539 59.5332Z" fill="#101010"/>
<path d="M95.8313 64.0594C95.5006 63.5864 95.1574 62.9858 94.8482 62.3518C94.753 62.4026 94.6578 62.4529 94.558 62.4959C93.6229 61.5072 92.8233 60.7091 92.8233 60.7091C91.6558 58.2758 92.3778 56.8887 94.5892 56.3258C94.9271 56.3879 95.2522 56.5299 95.5573 56.7152C95.2737 56.5171 94.9421 56.3795 94.5767 56.323C94.5462 56.3183 94.5168 56.3112 94.4856 56.3074C94.1159 56.265 93.7243 56.2282 93.3231 56.2029C93.408 56.4306 91.4059 59.3079 90.1504 59.7825C89.634 58.4855 88.1901 58.3963 88.1901 58.3963C88.1901 58.3963 86.8432 58.1204 86.4242 58.9681C86.7 57.216 88.3876 56.2924 88.9473 56.158C88.5436 56.192 88.1321 56.2356 87.7358 56.2853C87.5876 56.304 87.4447 56.3358 87.3049 56.3736C86.6472 56.552 86.0866 56.9342 85.6782 57.4459C85.6504 57.4808 85.6229 57.5155 85.5964 57.5514C85.5818 57.5713 85.5662 57.591 85.5518 57.6113C85.1715 58.1557 84.9531 58.8224 84.9546 59.5329C84.9562 60.3278 84.75 61.0245 84.5827 61.6507C84.3029 62.6994 84.1332 63.5499 85.2345 64.3311C85.0498 64.728 84.8732 66.21 84.852 67.6358C86.3465 68.1934 87.9776 68.4979 89.698 68.4979C91.863 68.4979 93.9421 68.0136 95.831 67.1513C95.7879 66.1526 95.7736 64.9888 95.8578 63.6659L95.8575 63.665C95.8487 63.7963 95.8378 63.9317 95.8313 64.0594Z" fill="#101010"/>
<path d="M88.1904 58.397C88.1904 58.397 89.6347 58.4862 90.1507 59.7832C91.4062 59.3086 93.4083 56.4314 93.3235 56.2036C93.3235 56.2036 90.4827 57.5842 88.1904 58.397Z" fill="white"/>
<path d="M88.9557 56.1555C88.9532 56.1558 88.9498 56.1574 88.947 56.158C88.3872 56.2925 86.6996 57.216 86.4238 58.9682C86.8428 58.1205 88.1901 58.3969 88.1901 58.3969C87.7579 56.7571 88.9557 56.1555 88.9557 56.1555Z" fill="white"/>
<path d="M90.1475 54.5422C90.151 54.5212 90.1543 54.5001 90.1575 54.4788C90.1543 54.4998 90.151 54.5209 90.1475 54.5422Z" fill="#FFC3BD"/>
<path d="M93.3776 52.0574C93.1312 52.4237 92.8154 52.7416 92.3677 53.0567C92.1945 53.1787 92.0167 53.2742 91.8376 53.3581C91.4345 54.056 90.7157 54.5559 90.0979 54.802C90.102 54.7846 90.1045 54.7662 90.1082 54.7484C89.9622 55.4167 89.6414 56.0048 88.9554 56.1555C88.9554 56.1555 87.7576 56.757 88.1897 58.3966C90.482 57.5838 93.3227 56.2032 93.3227 56.2032C92.876 55.1799 93.0837 53.3949 93.3776 52.0574Z" fill="#FFC3BD"/>
<path d="M90.1084 54.7483C90.1234 54.6793 90.1365 54.6098 90.148 54.5396C90.1365 54.6101 90.1231 54.6793 90.1084 54.7483Z" fill="#101010"/>
<path opacity="0.2" d="M90.1084 54.7483C90.1234 54.6793 90.1365 54.6098 90.148 54.5396C90.1365 54.6101 90.1231 54.6793 90.1084 54.7483Z" fill="black"/>
<path d="M90.2202 53.6382C90.2159 53.9081 90.199 54.1963 90.1572 54.4784C90.1997 54.1954 90.2168 53.9074 90.2212 53.6382H90.2202Z" fill="#101010"/>
<path opacity="0.2" d="M90.2202 53.6382C90.2159 53.9081 90.199 54.1963 90.1572 54.4784C90.1997 54.1954 90.2168 53.9074 90.2212 53.6382H90.2202Z" fill="black"/>
<path d="M91.8377 53.3582C91.2995 53.6099 90.7444 53.6957 90.2212 53.6386C90.2172 53.9076 90.2 54.1959 90.1573 54.4789C90.1541 54.4994 90.151 54.5194 90.1476 54.54C90.136 54.6102 90.1229 54.6798 90.1079 54.7487C90.1039 54.7665 90.1017 54.7849 90.0977 54.8024C90.7154 54.5556 91.4343 54.0561 91.8377 53.3582Z" fill="#FFC3BD"/>
<path opacity="0.2" d="M91.8377 53.3582C91.2995 53.6099 90.7444 53.6957 90.2212 53.6386C90.2172 53.9076 90.2 54.1959 90.1573 54.4789C90.1541 54.4994 90.151 54.5194 90.1476 54.54C90.136 54.6102 90.1229 54.6798 90.1079 54.7487C90.1039 54.7665 90.1017 54.7849 90.0977 54.8024C90.7154 54.5556 91.4343 54.0561 91.8377 53.3582Z" fill="black"/>
<path d="M91.8382 53.358C92.0176 53.274 92.1955 53.1786 92.3683 53.0566C92.8161 52.7414 93.1318 52.4235 93.3783 52.0572C93.4934 51.8859 93.5945 51.7047 93.6843 51.5069C93.6257 51.5215 93.5667 51.539 93.5099 51.5443C92.9898 51.5939 92.8416 51.0067 93.0797 50.4807C93.1524 50.3203 93.2616 50.1462 93.3917 49.9934C93.2457 49.54 93.3003 49.0511 93.4856 48.6458C93.0098 47.6721 92.5078 46.7804 92.4619 46.1199C91.1924 46.5133 89.9507 46.6852 88.8602 46.7099C88.8128 46.7826 88.7688 46.8587 88.7248 46.9348C88.8961 46.9364 89.0128 46.9772 89.0224 46.9807C89.0786 47.0016 89.107 47.064 89.0861 47.1198C89.0652 47.1757 89.0031 47.2041 88.9473 47.1835C88.936 47.1791 88.7953 47.132 88.6012 47.1585C87.9816 48.3491 87.7217 49.8336 87.7679 50.9749C87.829 52.4834 88.9201 53.4965 90.2208 53.6384L90.2218 53.6388C90.745 53.6955 91.3 53.6097 91.8382 53.358ZM91.1422 47.2297C91.1628 47.2325 91.6573 47.3033 91.9156 47.8434C91.9415 47.8973 91.9184 47.9619 91.8645 47.9878C91.8386 48.0003 91.8102 48.0012 91.7846 47.9931C91.7574 47.9844 91.7337 47.9647 91.7203 47.937C91.5119 47.5017 91.1182 47.4449 91.1135 47.4443C91.0551 47.4359 91.0127 47.3822 91.0205 47.3226C91.0286 47.2637 91.0829 47.2219 91.1422 47.2297ZM91.0333 48.7712C91.0311 48.7728 91.0289 48.7728 91.0264 48.7744C91.1153 48.8258 91.164 48.9641 91.1344 49.1201C91.0997 49.301 90.9756 49.4293 90.8573 49.4065C90.7391 49.3837 90.6714 49.2187 90.706 49.0377C90.726 48.9335 90.7768 48.8514 90.8377 48.8009C90.7026 48.7497 90.623 48.5625 90.623 48.5625L91.0333 48.7712ZM88.4749 48.6424C88.4945 48.5385 88.5454 48.4564 88.6062 48.4059C88.4711 48.3547 88.3916 48.1675 88.3916 48.1675L88.8019 48.3763C88.7994 48.3778 88.7975 48.3778 88.795 48.3794C88.8839 48.4309 88.9326 48.5691 88.903 48.7248C88.8683 48.9057 88.7441 49.034 88.6259 49.0112C88.508 48.9884 88.4403 48.8234 88.4749 48.6424ZM89.1981 50.1559C89.1981 50.1559 88.7722 50.1799 88.5763 49.911C88.9863 49.5999 89.443 48.8801 89.443 48.8801L89.1981 50.1559ZM89.8015 50.9921C89.7722 50.9864 89.7531 50.9581 89.7588 50.9284C89.7644 50.8994 89.7918 50.8801 89.8221 50.8857C90.6155 51.0386 91.0932 50.5546 91.0982 50.5496C91.1188 50.5281 91.1531 50.5275 91.1746 50.5484C91.1962 50.569 91.1968 50.6033 91.1759 50.6248C91.1575 50.6439 90.7731 51.0336 90.1098 51.0242C90.0127 51.0226 89.9101 51.0127 89.8015 50.9921Z" fill="#FFC3BD"/>
<path d="M93.9182 49.6018C93.7878 49.2779 93.6387 48.9575 93.4861 48.6455C93.3008 49.0511 93.2458 49.5397 93.3922 49.993C93.5451 49.8136 93.7279 49.6645 93.9182 49.6018Z" fill="#101010"/>
<path d="M90.837 48.8009C90.7762 48.8515 90.7256 48.9335 90.7053 49.0377C90.6707 49.2187 90.7384 49.3838 90.8567 49.4065C90.9749 49.4293 91.0991 49.3011 91.1337 49.1201C91.1637 48.9644 91.1147 48.8259 91.0258 48.7744C90.9543 48.8209 90.8913 48.8218 90.837 48.8009Z" fill="#101010"/>
<path d="M88.903 48.7248C88.9329 48.5688 88.8842 48.4309 88.795 48.3794C88.7236 48.4259 88.6605 48.4268 88.6063 48.4059C88.5454 48.4565 88.4946 48.5385 88.4749 48.6424C88.4403 48.8234 88.5077 48.9884 88.6259 49.0112C88.7442 49.0337 88.8683 48.9057 88.903 48.7248Z" fill="#101010"/>
<path d="M88.795 48.3791C88.7975 48.3775 88.7994 48.3775 88.8019 48.376L88.3916 48.1672C88.3916 48.1672 88.4712 48.3544 88.6063 48.4056C88.6605 48.4265 88.7236 48.4256 88.795 48.3791Z" fill="#101010"/>
<path d="M88.5762 49.911C88.7721 50.1799 89.198 50.1559 89.198 50.1559L89.4429 48.8801C89.4429 48.8801 88.9865 49.5999 88.5762 49.911Z" fill="#ED847E"/>
<path d="M91.1747 50.5486C91.1531 50.528 91.1188 50.5283 91.0982 50.5499C91.0932 50.5549 90.6155 51.0385 89.8221 50.8859C89.7919 50.8803 89.7644 50.8996 89.7588 50.9286C89.7532 50.9583 89.7722 50.9867 89.8015 50.9923C89.9101 51.0129 90.0131 51.0229 90.1101 51.0244C90.7731 51.0338 91.1578 50.6441 91.1762 50.6251C91.1965 50.6035 91.1959 50.5695 91.1747 50.5486Z" fill="#101010"/>
<path d="M93.9182 49.6018C93.7282 49.6645 93.5453 49.814 93.3921 49.9934C93.2617 50.1462 93.1525 50.3203 93.0801 50.4807C92.8421 51.0067 92.9906 51.5936 93.5104 51.5443C93.5668 51.539 93.6261 51.5215 93.6848 51.5069C93.9069 51.451 94.1347 51.3315 94.3331 51.1384C94.2829 50.6302 94.1241 50.1116 93.9182 49.6018Z" fill="#FFC3BD"/>
<path d="M92.5263 45.6516C92.5457 45.2014 92.8012 45.0932 93.1513 45.1634C91.2596 44.0573 88.4872 45.2685 88.2812 46.71C88.4685 46.7143 88.6619 46.714 88.8597 46.7096C89.9501 46.685 91.1919 46.5131 92.4614 46.1196C92.4499 45.9471 92.4674 45.7899 92.5263 45.6516Z" fill="#101010"/>
<path d="M92.5262 45.6517C92.4672 45.7899 92.4495 45.9472 92.4616 46.1197C92.5075 46.7802 93.0095 47.6719 93.4853 48.6456C93.6379 48.9576 93.7867 49.2778 93.9174 49.6019C94.1233 50.112 94.2821 50.6306 94.3324 51.1385C94.3792 51.6149 94.3308 52.0823 94.1343 52.5241C94.8846 51.6708 95.1944 50.1373 95.318 48.8353L95.3183 48.835C95.4378 47.5764 95.3832 46.534 95.3832 46.534C95.3832 46.534 93.9926 45.3319 93.1518 45.1634C92.8011 45.0932 92.5456 45.2015 92.5262 45.6517Z" fill="#101010"/>
<path d="M91.1134 47.4444C91.1181 47.445 91.5119 47.5018 91.7203 47.937C91.7337 47.9648 91.7574 47.9844 91.7845 47.9932C91.8101 48.0013 91.8385 48.0003 91.8644 47.9879C91.9184 47.962 91.9412 47.8974 91.9156 47.8434C91.6569 47.3033 91.1627 47.2325 91.1421 47.2297C91.0829 47.2219 91.0286 47.2634 91.0205 47.3227C91.0127 47.3823 91.0551 47.4362 91.1134 47.4444Z" fill="#101010"/>
<path d="M88.9472 47.1835C89.003 47.2041 89.0651 47.1757 89.086 47.1199C89.1069 47.064 89.0785 47.0016 89.0224 46.9807C89.0127 46.977 88.896 46.9361 88.7247 46.9349C88.5428 46.9333 88.2988 46.9763 88.0508 47.1595C88.0028 47.1947 87.9925 47.2628 88.028 47.3108C88.0452 47.3342 88.0701 47.3486 88.0967 47.3532C88.1247 47.3582 88.1547 47.352 88.1797 47.3336C88.3294 47.2228 88.4761 47.176 88.6009 47.1589C88.7955 47.132 88.9362 47.1791 88.9472 47.1835Z" fill="#101010"/>
<path d="M90.8377 48.8011C90.8923 48.8217 90.955 48.8208 91.0265 48.7746C91.029 48.773 91.0311 48.7733 91.0333 48.7715L90.623 48.5627C90.623 48.5627 90.7026 48.7499 90.8377 48.8011Z" fill="#101010"/>
<path d="M95.8308 64.0594C95.8373 63.9315 95.8482 63.7961 95.8567 63.6651C95.6819 63.3861 95.5019 63.1066 95.3185 62.8267C95.2002 62.6492 95.0789 62.4711 94.9584 62.2932C94.9222 62.3138 94.8845 62.3319 94.8477 62.3516C95.1568 62.9859 95.5 63.5865 95.8308 64.0594Z" fill="#101010"/>
<path opacity="0.2" d="M95.8308 64.0594C95.8373 63.9315 95.8482 63.7961 95.8567 63.6651C95.6819 63.3861 95.5019 63.1066 95.3185 62.8267C95.2002 62.6492 95.0789 62.4711 94.9584 62.2932C94.9222 62.3138 94.8845 62.3319 94.8477 62.3516C95.1568 62.9859 95.5 63.5865 95.8308 64.0594Z" fill="black"/>
<path d="M96.7589 66.6447L96.7489 66.6946C97.9938 66.0219 99.1404 65.1799 100.156 64.1999C99.9794 63.6735 99.7759 63.1921 99.5575 62.7244C99.2493 62.0533 98.907 61.429 98.5479 60.8193C98.2384 60.2833 97.9055 59.7704 97.5651 59.2646C97.2466 59.9164 96.367 61.487 94.959 62.2935C95.0797 62.4714 95.2008 62.6495 95.319 62.8271C95.5022 63.1066 95.6825 63.3862 95.8572 63.6654L95.8575 63.6663C96.011 63.9119 96.1605 64.1565 96.3 64.3999C96.5377 64.8217 96.7636 65.2444 96.9352 65.6332L96.9031 65.8463C96.8616 66.1059 96.8123 66.3733 96.7589 66.6447Z" fill="#FFC3BD"/>
<path d="M92.823 60.7094C92.823 60.7094 93.6227 61.5075 94.5577 62.4962C94.6573 62.4532 94.7527 62.4026 94.8479 62.3521C94.8847 62.3324 94.9224 62.3143 94.9586 62.2937C96.3667 61.4869 97.2462 59.9166 97.5648 59.2648C97.6543 59.082 97.7017 58.9678 97.7017 58.9678C97.7017 58.9678 96.7988 57.4699 95.5571 56.7158C95.2519 56.5305 94.9268 56.3885 94.5889 56.3264C92.3775 56.889 91.6555 58.2761 92.823 60.7094Z" fill="#101010"/>
<path d="M107.782 29.4132H112.179C112.424 29.4132 112.636 29.2126 112.651 28.9673C112.665 28.7221 112.476 28.5215 112.231 28.5215H107.834C107.589 28.5215 107.376 28.7221 107.362 28.9673C107.348 29.2126 107.537 29.4132 107.782 29.4132Z" fill="#F16682"/>
<path d="M107.692 30.9432H112.089C112.334 30.9432 112.546 30.7426 112.561 30.4974C112.575 30.2521 112.387 30.0515 112.141 30.0515H107.744C107.499 30.0515 107.287 30.2521 107.272 30.4974C107.258 30.7426 107.447 30.9432 107.692 30.9432Z" fill="#F16682"/>
<path d="M72.1284 30.9432H76.5254C76.7707 30.9432 76.9831 30.7426 76.9975 30.4974C77.0118 30.2521 76.8231 30.0515 76.5778 30.0515H72.1808C71.9356 30.0515 71.7234 30.2521 71.7088 30.4974C71.6944 30.7426 71.8832 30.9432 72.1284 30.9432Z" fill="#F16682"/>
<path d="M107.602 32.4732H111.999C112.244 32.4732 112.457 32.2726 112.471 32.0274C112.485 31.7822 112.297 31.5815 112.051 31.5815H107.654C107.409 31.5815 107.197 31.7822 107.182 32.0274C107.168 32.2726 107.357 32.4732 107.602 32.4732Z" fill="#F16682"/>
<path d="M101.826 88.4502H75.2297C73.1116 88.4502 71.4801 86.7171 71.6043 84.5989C71.7285 82.4807 73.5633 80.7476 75.6815 80.7476H102.278C104.396 80.7476 106.027 82.4807 105.903 84.5989C105.779 86.7171 103.944 88.4502 101.826 88.4502Z" fill="white"/>
<path d="M101.218 98.7974H74.6223C72.5041 98.7974 70.8727 97.0642 70.9969 94.9461C71.1211 92.8279 72.9559 91.0947 75.0741 91.0947H101.67C103.788 91.0947 105.42 92.8279 105.296 94.9461C105.171 97.0642 103.337 98.7974 101.218 98.7974Z" fill="white"/>
<path d="M100.612 109.145H74.0159C71.8977 109.145 70.2663 107.411 70.3904 105.293C70.5146 103.175 72.3495 101.442 74.4676 101.442H101.064C103.182 101.442 104.814 103.175 104.689 105.293C104.565 107.411 102.73 109.145 100.612 109.145Z" fill="white"/>
<path d="M77.2983 85.9782C78.1075 85.1923 78.1627 83.9367 77.4216 83.1736C76.6805 82.4105 75.4238 82.4289 74.6146 83.2148C73.8054 84.0006 73.7502 85.2563 74.4912 86.0194C75.2323 86.7825 76.4891 86.764 77.2983 85.9782Z" fill="#F16682"/>
<path d="M75.7179 93.0687L75.9812 94.0571C76.0115 94.1703 76.1126 94.2471 76.2315 94.2471H77.2707C77.5372 94.2471 77.628 94.5881 77.4033 94.7444L76.5266 95.3553C76.4262 95.4255 76.3784 95.5494 76.4087 95.6626L76.672 96.6511C76.7394 96.9044 76.4371 97.115 76.2308 96.9584L75.4259 96.3475C75.3335 96.2773 75.2031 96.2773 75.1026 96.3475L74.2259 96.9584C74.0013 97.115 73.7236 96.9044 73.8209 96.6511L74.2 95.6626C74.2434 95.5494 74.2103 95.4252 74.1183 95.3553L73.3133 94.7444C73.1071 94.5878 73.2378 94.2471 73.5043 94.2471H74.5435C74.6627 94.2471 74.7729 94.1703 74.8162 94.0571L75.1953 93.0687C75.292 92.8153 75.6502 92.8153 75.7179 93.0687Z" fill="#F16682"/>
<path d="M76.4476 104.246L76.2848 107.022C76.2707 107.26 76.0661 107.454 75.8274 107.454H73.3978C73.1592 107.454 72.977 107.26 72.991 107.022L73.1938 103.564C73.2078 103.326 73.4125 103.132 73.6512 103.132H75.3987L76.4476 104.246Z" fill="#F16682"/>
<path d="M75.3987 103.132L76.4474 104.246H75.7653C75.5267 104.246 75.3445 104.053 75.3585 103.814L75.3987 103.132ZM75.1204 102.367L75.0765 103.114L75.0365 103.796C75.0243 104.001 75.0942 104.195 75.2328 104.342C75.3713 104.489 75.5604 104.569 75.7653 104.569H76.4474H77.1937L76.6823 104.026L75.6337 102.912L75.1204 102.367Z" fill="white"/>
<path opacity="0.2" d="M100.931 84.1912H81.0308C80.6858 84.1912 80.4203 83.9089 80.4405 83.5641C80.4608 83.2191 80.7597 82.937 81.1045 82.937H101.004C101.349 82.937 101.615 83.2194 101.594 83.5641C101.574 83.9089 101.276 84.1912 100.931 84.1912Z" fill="#F16682"/>
<path opacity="0.2" d="M97.1593 86.2606H80.9098C80.5647 86.2606 80.2992 85.9782 80.3194 85.6335C80.3397 85.2884 80.6386 85.0063 80.9834 85.0063H97.233C97.578 85.0063 97.8435 85.2887 97.8233 85.6335C97.803 85.9785 97.5044 86.2606 97.1593 86.2606Z" fill="#F16682"/>
<path opacity="0.2" d="M100.275 95.3535H94.7851C94.4401 95.3535 94.1412 95.6359 94.1212 95.9806C94.1009 96.3257 94.3667 96.6078 94.7115 96.6078H100.202C100.547 96.6078 100.846 96.3254 100.866 95.9806C100.886 95.6356 100.62 95.3535 100.275 95.3535Z" fill="#F16682"/>
<path opacity="0.2" d="M91.5765 95.3535H80.376C80.0309 95.3535 79.7323 95.6359 79.712 95.9806C79.6917 96.3257 79.9576 96.6078 80.3023 96.6078H91.5028C91.8479 96.6078 92.1465 96.3254 92.1668 95.9806C92.187 95.6356 91.9215 95.3535 91.5765 95.3535Z" fill="#F16682"/>
<path opacity="0.2" d="M96.7466 93.2839H80.4971C80.152 93.2839 79.8534 93.5663 79.8331 93.9111C79.8128 94.2561 80.0787 94.5382 80.4234 94.5382H96.673C97.0181 94.5382 97.3167 94.2558 97.3369 93.9111C97.3572 93.5663 97.0914 93.2839 96.7466 93.2839Z" fill="#F16682"/>
<path opacity="0.2" d="M99.6692 105.701H79.7695C79.4244 105.701 79.1255 105.983 79.1056 106.328C79.0853 106.673 79.3511 106.955 79.6959 106.955H99.5956C99.9406 106.955 100.24 106.673 100.259 106.328C100.28 105.983 100.014 105.701 99.6692 105.701Z" fill="#F16682"/>
<path opacity="0.2" d="M96.1402 103.631H79.8906C79.5455 103.631 79.247 103.913 79.2267 104.258C79.2064 104.603 79.4722 104.885 79.8173 104.885H96.0666C96.4116 104.885 96.7102 104.603 96.7305 104.258C96.7508 103.913 96.485 103.631 96.1402 103.631Z" fill="#F16682"/>
</svg>
