<svg width="128" height="85" viewBox="0 0 128 85" fill="none" xmlns="http://www.w3.org/2000/svg">
<path d="M127.999 74.6968H0V74.7539H127.999V74.6968Z" fill="#EBEBEB"/>
<path d="M115.175 78.3677H106.696V78.4248H115.175V78.3677Z" fill="#EBEBEB"/>
<path d="M84.7925 78.9878H82.5679V79.0449H84.7925V78.9878Z" fill="#EBEBEB"/>
<path d="M106.439 76.2505H101.527V76.3076H106.439V76.2505Z" fill="#EBEBEB"/>
<path d="M24.4864 76.6333H13.4299V76.6904H24.4864V76.6333Z" fill="#EBEBEB"/>
<path d="M28.3889 76.6333H26.7684V76.6904H28.3889V76.6333Z" fill="#EBEBEB"/>
<path d="M57.6382 77.5962H33.6563V77.6533H57.6382V77.5962Z" fill="#EBEBEB"/>
<path d="M60.6726 64.521H11.2419C10.8546 64.5204 10.4835 64.3828 10.2099 64.1386C9.93631 63.8944 9.78266 63.5633 9.78266 63.2182V1.29133C9.78603 0.948199 9.94117 0.620108 10.2144 0.378323C10.4876 0.136539 10.8568 0.000587804 11.2419 0H60.6726C61.0603 0 61.4321 0.137253 61.7062 0.381564C61.9804 0.625875 62.1344 0.957231 62.1344 1.30274V63.2182C62.1344 63.5637 61.9804 63.8951 61.7062 64.1394C61.4321 64.3837 61.0603 64.521 60.6726 64.521ZM11.2419 0.0456303C10.8716 0.0462347 10.5167 0.177744 10.2551 0.411293C9.99357 0.644842 9.84666 0.961346 9.84666 1.29133V63.2182C9.84666 63.5482 9.99357 63.8647 10.2551 64.0983C10.5167 64.3318 10.8716 64.4633 11.2419 64.4639H60.6726C61.0431 64.4633 61.3982 64.3319 61.6602 64.0984C61.9222 63.8649 62.0697 63.5484 62.0704 63.2182V1.29133C62.0697 0.961137 61.9222 0.644638 61.6602 0.411154C61.3982 0.17767 61.0431 0.0462334 60.6726 0.0456303H11.2419Z" fill="#EBEBEB"/>
<path d="M116.048 64.521H66.6142C66.2267 64.5204 65.8553 64.3829 65.5813 64.1387C65.3074 63.8946 65.1531 63.5636 65.1525 63.2182V1.29133C65.1565 0.947991 65.3122 0.619903 65.5858 0.378181C65.8595 0.136459 66.2289 0.000581394 66.6142 0H116.048C116.432 0.00118741 116.801 0.137403 117.073 0.379124C117.346 0.620845 117.501 0.948593 117.504 1.29133V63.2182C117.504 63.5629 117.351 63.8936 117.078 64.1378C116.805 64.382 116.434 64.5198 116.048 64.521ZM66.6142 0.0456303C66.2437 0.0462334 65.8886 0.17767 65.6266 0.411154C65.3646 0.644638 65.2171 0.961137 65.2165 1.29133V63.2182C65.2171 63.5484 65.3646 63.8649 65.6266 64.0984C65.8886 64.3319 66.2437 64.4633 66.6142 64.4639H116.048C116.418 64.4633 116.773 64.3319 117.035 64.0984C117.297 63.8649 117.445 63.5484 117.445 63.2182V1.29133C117.445 0.961137 117.297 0.644638 117.035 0.411154C116.773 0.17767 116.418 0.0462334 116.048 0.0456303H66.6142Z" fill="#EBEBEB"/>
<path d="M22.6468 74.6968H30.1783L30.1783 50.4056H22.6468L22.6468 74.6968Z" fill="#E6E6E6"/>
<path d="M23.9518 74.6964H22.6488V71.3883H25.3214L23.9518 74.6964Z" fill="#F0F0F0"/>
<path d="M72.3069 74.6968H79.8384V50.4056H72.3069L72.3069 74.6968Z" fill="#E6E6E6"/>
<path d="M22.6444 72.6656H73.4422V50.4049L22.6444 50.4049V72.6656Z" fill="#F0F0F0"/>
<path d="M23.6558 57.4987L72.4312 57.4987V51.3934L23.6558 51.3934V57.4987Z" fill="#E6E6E6"/>
<path d="M38.0023 53.2888H58.0905C59.1073 53.2887 60.1133 53.104 61.0473 52.7458C61.9813 52.3877 62.8236 51.8637 63.5228 51.2058H32.5674C33.2671 51.8637 34.1098 52.3878 35.0442 52.7459C35.9787 53.104 36.9851 53.2888 38.0023 53.2888Z" fill="#F0F0F0"/>
<path d="M72.1401 74.6964H73.4457V71.3883H70.773L72.1401 74.6964Z" fill="#F0F0F0"/>
<path d="M23.6558 64.5875H72.4312V58.4822L23.6558 58.4822V64.5875Z" fill="#E6E6E6"/>
<path d="M38.0023 60.3796H58.0905C59.1073 60.3795 60.1133 60.1947 61.0473 59.8366C61.9813 59.4785 62.8236 58.9545 63.5228 58.2965H32.5674C33.2671 58.9545 34.1098 59.4786 35.0442 59.8367C35.9787 60.1948 36.9851 60.3795 38.0023 60.3796Z" fill="#F0F0F0"/>
<path d="M23.6558 71.6803H72.4312V65.5749L23.6558 65.5749V71.6803Z" fill="#E6E6E6"/>
<path d="M38.0023 67.471H58.0905C59.107 67.4708 60.1128 67.2862 61.0467 66.9285C61.9807 66.5708 62.8231 66.0474 63.5228 65.3902H32.5674C33.2676 66.0475 34.1105 66.5709 35.0448 66.9286C35.9792 67.2863 36.9854 67.4709 38.0023 67.471Z" fill="#F0F0F0"/>
<path d="M21.5366 43.282H51.2426L51.2426 10.4945H21.5366L21.5366 43.282Z" fill="#E6E6E6"/>
<path d="M18.1588 43.282H50.3813L50.3813 10.4945H18.1588L18.1588 43.282Z" fill="#F0F0F0"/>
<path d="M47.6789 40.8781V12.9023L20.8554 12.9023L20.8554 40.8781H47.6789Z" fill="white"/>
<path d="M71.4488 42.4636L111.702 42.4636V10.1324L71.4488 10.1324V42.4636Z" fill="#EBEBEB"/>
<path d="M70.39 42.4636L111.206 42.4636V10.1324L70.39 10.1324L70.39 42.4636Z" fill="#F5F5F5"/>
<path d="M74.5592 44.2156L111.702 44.2156V42.4634H74.5592V44.2156Z" fill="#EBEBEB"/>
<path d="M68.8379 44.2156L103.823 44.2156V42.4634H68.8379V44.2156Z" fill="#F0F0F0"/>
<path d="M109.725 41.1446V11.4531L71.8705 11.4531V41.1446H109.725Z" fill="#FAFAFA"/>
<path d="M103.824 41.1446L91.1798 11.4531H85.21L97.8537 41.1446H103.824Z" fill="white"/>
<path d="M109.015 39.0681C109.05 39.0681 109.084 39.0556 109.109 39.0334C109.134 39.0111 109.148 38.981 109.148 38.9495V12.3357C109.154 12.3181 109.155 12.2995 109.151 12.2814C109.147 12.2634 109.139 12.2464 109.126 12.2317C109.114 12.217 109.098 12.2051 109.08 12.197C109.061 12.1888 109.041 12.1845 109.02 12.1845C109 12.1845 108.979 12.1888 108.961 12.197C108.942 12.2051 108.926 12.217 108.914 12.2317C108.902 12.2464 108.893 12.2634 108.889 12.2814C108.886 12.2995 108.887 12.3181 108.892 12.3357V38.9495C108.891 38.9796 108.904 39.0088 108.927 39.0309C108.95 39.053 108.981 39.0664 109.015 39.0681Z" fill="#F0F0F0"/>
<path d="M96.5704 41.1446L83.9267 11.4531H81.5996L94.2434 41.1446H96.5704Z" fill="white"/>
<path d="M91.0537 41.1446L78.41 11.4531H76.0804L88.7267 41.1446H91.0537Z" fill="white"/>
<path d="M72.0599 41.1446V11.4531H71.8721L71.8721 41.1446H72.0599Z" fill="#EBEBEB"/>
<g opacity="0.7">
<path d="M70.0394 12.6512H110.293L110.428 11.9667H70.1751L70.0394 12.6512Z" fill="#EBEBEB"/>
<path d="M70.0394 13.3856H110.293L110.428 12.7011H70.1751L70.0394 13.3856Z" fill="#EBEBEB"/>
<path d="M70.0394 14.1209H110.293L110.428 13.4364H70.1751L70.0394 14.1209Z" fill="#EBEBEB"/>
<path d="M70.0394 14.8559H110.293L110.428 14.1737H70.1751L70.0394 14.8559Z" fill="#EBEBEB"/>
<path d="M70.0394 15.5926H110.293L110.428 14.9081H70.1751L70.0394 15.5926Z" fill="#EBEBEB"/>
<path d="M70.0394 16.326H110.293L110.428 15.6415H70.1751L70.0394 16.326Z" fill="#EBEBEB"/>
<path d="M70.0394 17.0613H110.293L110.428 16.3769H70.1751L70.0394 17.0613Z" fill="#EBEBEB"/>
<path d="M70.0394 17.7957H110.293L110.428 17.1112H70.1751L70.0394 17.7957Z" fill="#EBEBEB"/>
<path d="M70.0394 18.531H110.293L110.428 17.8466H70.1751L70.0394 18.531Z" fill="#EBEBEB"/>
<path d="M70.0394 19.2651H110.293L110.428 18.5829H70.1751L70.0394 19.2651Z" fill="#EBEBEB"/>
<path d="M70.0394 20.0017H110.293L110.428 19.3173H70.1751L70.0394 20.0017Z" fill="#EBEBEB"/>
<path d="M70.0394 20.7371H110.293L110.428 20.0526H70.1751L70.0394 20.7371Z" fill="#EBEBEB"/>
<path d="M70.0394 21.4714H110.293L110.428 20.787H70.1751L70.0394 21.4714Z" fill="#EBEBEB"/>
<path d="M70.0394 22.2058H110.293L110.428 21.5214H70.1751L70.0394 22.2058Z" fill="#EBEBEB"/>
<path d="M70.0394 22.9408H110.293L110.428 22.2587H70.1751L70.0394 22.9408Z" fill="#EBEBEB"/>
<path d="M70.0394 23.6775H110.293L110.428 22.993H70.1751L70.0394 23.6775Z" fill="#EBEBEB"/>
<path d="M70.0394 24.4119H110.293L110.428 23.7274H70.1751L70.0394 24.4119Z" fill="#EBEBEB"/>
<path d="M70.0394 25.1462H110.293L110.428 24.4618H70.1751L70.0394 25.1462Z" fill="#EBEBEB"/>
<path d="M70.0394 25.8816H110.293L110.428 25.1971H70.1751L70.0394 25.8816Z" fill="#EBEBEB"/>
<path d="M70.0394 26.6159H110.293L110.428 25.9315H70.1751L70.0394 26.6159Z" fill="#EBEBEB"/>
<path d="M70.0394 27.3513H110.293L110.428 26.6668H70.1751L70.0394 27.3513Z" fill="#EBEBEB"/>
<path d="M70.0394 28.0876H110.293L110.428 27.4032H70.1751L70.0394 28.0876Z" fill="#EBEBEB"/>
<path d="M70.0394 28.823H110.293L110.428 28.1385H70.1751L70.0394 28.823Z" fill="#EBEBEB"/>
<path d="M70.0394 29.5573H110.293L110.428 28.8729H70.1751L70.0394 29.5573Z" fill="#EBEBEB"/>
</g>
<path d="M62.9027 46.8464C62.9027 48.8131 60.0048 50.4056 56.4311 50.4056C52.8573 50.4056 49.9594 48.8085 49.9594 46.8464H62.9027Z" fill="#EBEBEB"/>
<path d="M45.8924 46.8464C45.8924 48.8131 42.9945 50.4056 39.4208 50.4056C35.8471 50.4056 32.9466 48.8085 32.9466 46.8464H45.8924Z" fill="#EBEBEB"/>
<path d="M94.8693 73.3638H99.5028V52.3306H94.8693V73.3638Z" fill="#F0F0F0"/>
<path d="M75.7628 74.6968H98.6183V73.3644H75.7628V74.6968Z" fill="#F0F0F0"/>
<path d="M94.8743 52.3308H74.8731V73.364H94.8743V52.3308Z" fill="#F5F5F5"/>
<path d="M93.0484 54.9206H76.6927V61.8176H93.0484V54.9206Z" fill="#F0F0F0"/>
<path d="M93.0484 63.8756H76.6927V70.7726H93.0484V63.8756Z" fill="#F0F0F0"/>
<path d="M83.0074 58.8405H86.7347C86.9694 58.8405 87.1597 58.6709 87.1597 58.4618V58.2724C87.1597 58.0632 86.9694 57.8937 86.7347 57.8937H83.0074C82.7727 57.8937 82.5824 58.0632 82.5824 58.2724V58.4618C82.5824 58.6709 82.7727 58.8405 83.0074 58.8405Z" fill="#F5F5F5"/>
<path d="M83.0074 67.7975H86.7347C86.9694 67.7975 87.1597 67.6279 87.1597 67.4187V67.2294C87.1597 67.0202 86.9694 66.8506 86.7347 66.8506H83.0074C82.7727 66.8506 82.5824 67.0202 82.5824 67.2294V67.4187C82.5824 67.6279 82.7727 67.7975 83.0074 67.7975Z" fill="#F5F5F5"/>
<path d="M63.9985 84.9998C91.4115 84.9998 113.634 83.8435 113.634 82.4172C113.634 80.9908 91.4115 79.8345 63.9985 79.8345C36.5855 79.8345 14.363 80.9908 14.363 82.4172C14.363 83.8435 36.5855 84.9998 63.9985 84.9998Z" fill="#F5F5F5"/>
<path d="M22.6748 27.8162H22.4188V32.1967H22.6748V27.8162Z" fill="#F16682"/>
<path d="M22.6748 33.8514H22.4188V35.8637H22.6748V33.8514Z" fill="#F16682"/>
<path d="M92.4912 16.954H25.9342C24.4383 16.954 23.2257 18.0347 23.2257 19.3678V56.5427C23.2257 57.8758 24.4383 58.9565 25.9342 58.9565H92.4912C93.9871 58.9565 95.1997 57.8758 95.1997 56.5427V19.3678C95.1997 18.0347 93.9871 16.954 92.4912 16.954Z" fill="#F16682"/>
<path d="M24.1258 19.3654L24.1258 56.5426C24.1258 57.4309 24.9339 58.151 25.9306 58.151L92.4902 58.151C93.487 58.151 94.295 57.4309 94.295 56.5426V19.3654C94.295 18.4771 93.487 17.757 92.4902 17.757L25.9306 17.757C24.9339 17.757 24.1258 18.4771 24.1258 19.3654Z" fill="white"/>
<path opacity="0.6" d="M51.0883 51.6582V58.1536H67.3289V51.6582C67.3289 51.0531 67.0592 50.4728 66.5791 50.0449C66.099 49.617 65.4478 49.3767 64.7689 49.3767H53.6406C52.963 49.3785 52.3138 49.6197 51.8354 50.0473C51.357 50.475 51.0883 51.0543 51.0883 51.6582Z" fill="#F16682"/>
<path opacity="0.6" d="M71.6239 51.6582V58.1536H87.8721V51.6582C87.8721 51.0531 87.6024 50.4728 87.1223 50.0449C86.6422 49.617 85.991 49.3767 85.3121 49.3767H74.1762C73.4985 49.3785 72.8494 49.6197 72.3709 50.0473C71.8925 50.475 71.6239 51.0543 71.6239 51.6582Z" fill="#F16682"/>
<path opacity="0.6" d="M30.5491 51.6582V58.1536H46.7999V51.6582C46.7999 51.0531 46.5302 50.4728 46.0501 50.0449C45.57 49.617 44.9189 49.3767 44.2399 49.3767H33.104C32.4259 49.3779 31.7761 49.6188 31.2971 50.0465C30.8181 50.4742 30.5491 51.0539 30.5491 51.6582Z" fill="#F16682"/>
<path d="M82.5066 21.8265H87.2195C87.3926 21.8265 87.5587 21.7652 87.6811 21.6561C87.8035 21.547 87.8723 21.399 87.8723 21.2447C87.8723 21.1683 87.8554 21.0927 87.8226 21.0221C87.7898 20.9515 87.7417 20.8874 87.6811 20.8334C87.6205 20.7793 87.5485 20.7365 87.4693 20.7073C87.3901 20.678 87.3052 20.663 87.2195 20.663H82.5066C82.3337 20.6636 82.168 20.7251 82.0457 20.834C81.9234 20.943 81.8545 21.0906 81.8538 21.2447C81.8545 21.3989 81.9234 21.5465 82.0457 21.6555C82.168 21.7644 82.3337 21.8259 82.5066 21.8265Z" fill="#F16682"/>
<path d="M66.4611 22.1623C67.0295 22.1623 67.4902 21.7517 67.4902 21.2452C67.4902 20.7386 67.0295 20.328 66.4611 20.328C65.8927 20.328 65.432 20.7386 65.432 21.2452C65.432 21.7517 65.8927 22.1623 66.4611 22.1623Z" fill="#F16682"/>
<path d="M64.2898 21.2455C64.2898 21.426 64.2298 21.6024 64.1172 21.7525C64.0047 21.9026 63.8448 22.0196 63.6577 22.0886C63.4706 22.1577 63.2647 22.1758 63.0661 22.1406C62.8674 22.1053 62.685 22.0184 62.5418 21.8908C62.3985 21.7632 62.301 21.6006 62.2615 21.4235C62.222 21.2465 62.2423 21.063 62.3198 20.8963C62.3973 20.7295 62.5285 20.587 62.6969 20.4867C62.8653 20.3864 63.0633 20.3329 63.2658 20.3329C63.5374 20.3329 63.7979 20.429 63.9899 20.6002C64.1819 20.7713 64.2898 21.0035 64.2898 21.2455Z" fill="#F16682"/>
<path d="M32.2464 20.3075H30.9587C30.7325 20.3075 30.5491 20.4709 30.5491 20.6725V21.8201C30.5491 22.0217 30.7325 22.1852 30.9587 22.1852H32.2464C32.4726 22.1852 32.656 22.0217 32.656 21.8201V20.6725C32.656 20.4709 32.4726 20.3075 32.2464 20.3075Z" fill="#F16682"/>
<path opacity="0.2" d="M39.0259 21.5354H36.5683C36.4821 21.5354 36.3994 21.5049 36.3384 21.4506C36.2775 21.3962 36.2432 21.3225 36.2432 21.2457C36.2432 21.1688 36.2775 21.0951 36.3384 21.0408C36.3994 20.9865 36.4821 20.9559 36.5683 20.9559H39.0259C39.1121 20.9559 39.1948 20.9865 39.2558 21.0408C39.3168 21.0951 39.351 21.1688 39.351 21.2457C39.351 21.3225 39.3168 21.3962 39.2558 21.4506C39.1948 21.5049 39.1121 21.5354 39.0259 21.5354Z" fill="#101010"/>
<path opacity="0.2" d="M43.822 21.5354H41.3644C41.2782 21.5354 41.1955 21.5049 41.1345 21.4506C41.0736 21.3962 41.0393 21.3225 41.0393 21.2457C41.0393 21.1688 41.0736 21.0951 41.1345 21.0408C41.1955 20.9865 41.2782 20.9559 41.3644 20.9559H43.822C43.9085 20.9559 43.9914 20.9864 44.0528 21.0407C44.1142 21.0949 44.149 21.1686 44.1497 21.2457C44.149 21.3227 44.1142 21.3964 44.0528 21.4507C43.9914 21.505 43.9085 21.5354 43.822 21.5354Z" fill="#101010"/>
<path opacity="0.2" d="M48.6226 21.5354H46.1651C46.0786 21.5354 45.9956 21.505 45.9343 21.4507C45.8729 21.3964 45.8381 21.3227 45.8374 21.2457C45.8381 21.1686 45.8729 21.0949 45.9343 21.0407C45.9956 20.9864 46.0786 20.9559 46.1651 20.9559H48.6226C48.7089 20.9559 48.7916 20.9865 48.8525 21.0408C48.9135 21.0951 48.9478 21.1688 48.9478 21.2457C48.9478 21.3225 48.9135 21.3962 48.8525 21.4506C48.7916 21.5049 48.7089 21.5354 48.6226 21.5354Z" fill="#101010"/>
<path opacity="0.2" d="M53.4207 21.5354H50.9631C50.8767 21.5354 50.7937 21.505 50.7323 21.4507C50.671 21.3964 50.6361 21.3227 50.6355 21.2457C50.6361 21.1686 50.671 21.0949 50.7323 21.0407C50.7937 20.9864 50.8767 20.9559 50.9631 20.9559H53.4207C53.5069 20.9559 53.5896 20.9865 53.6506 21.0408C53.7116 21.0951 53.7458 21.1688 53.7458 21.2457C53.7458 21.3225 53.7116 21.3962 53.6506 21.4506C53.5896 21.5049 53.5069 21.5354 53.4207 21.5354Z" fill="#101010"/>
<path opacity="0.4" d="M104.89 25.9459L52.9841 27.3337C51.4882 27.3737 50.312 28.4868 50.3568 29.8199L50.8104 43.2945C50.8553 44.6276 52.1043 45.6759 53.6001 45.6359L105.506 44.2481C107.002 44.2081 108.178 43.095 108.134 41.7619L107.68 28.2873C107.635 26.9542 106.386 25.9059 104.89 25.9459Z" fill="#F16682"/>
<path opacity="0.4" d="M73.1154 36.8445L56.9389 37.3373C56.7308 37.3431 56.5234 37.3123 56.3287 37.2466C56.1339 37.1809 55.9556 37.0817 55.8039 36.9545C55.6523 36.8274 55.5302 36.6749 55.4447 36.5057C55.3592 36.3365 55.3119 36.1539 55.3056 35.9684C55.2991 35.7829 55.3337 35.5981 55.4074 35.4246C55.4811 35.251 55.5925 35.0921 55.7351 34.9569C55.8778 34.8217 56.0489 34.7129 56.2388 34.6367C56.4286 34.5605 56.6335 34.5184 56.8416 34.5128L73.0182 34.02C73.2263 34.0142 73.4336 34.0451 73.6284 34.1108C73.8231 34.1764 74.0014 34.2757 74.1531 34.4028C74.3048 34.5299 74.4269 34.6825 74.5124 34.8517C74.5979 35.0209 74.6451 35.2034 74.6514 35.3889C74.6586 35.5746 74.6245 35.7596 74.551 35.9334C74.4776 36.1073 74.3663 36.2664 74.2235 36.4017C74.0807 36.537 73.9093 36.6458 73.7191 36.7218C73.5289 36.7978 73.3238 36.8395 73.1154 36.8445Z" fill="#F16682"/>
<path opacity="0.4" d="M67.7927 41.2963L57.1022 41.6203C56.684 41.632 56.2776 41.4959 55.9717 41.2415C55.6657 40.9872 55.485 40.6354 55.469 40.2628C55.4625 40.0773 55.4971 39.8925 55.5708 39.7189C55.6445 39.5454 55.7558 39.3865 55.8985 39.2513C56.0411 39.1161 56.2123 39.0073 56.4021 38.9311C56.592 38.8549 56.7968 38.8128 57.0049 38.8072L67.6929 38.4809C67.901 38.4752 68.1084 38.506 68.3031 38.5717C68.4979 38.6373 68.6762 38.7366 68.8278 38.8637C68.9795 38.9909 69.1016 39.1434 69.1871 39.3126C69.2726 39.4818 69.3199 39.6643 69.3262 39.8498C69.3365 40.2225 69.1811 40.5837 68.8939 40.8547C68.6066 41.1256 68.2108 41.2844 67.7927 41.2963Z" fill="#F16682"/>
<path d="M106.699 35.9474L107.162 37.2273L108.862 35.8402C108.51 35.6307 108.144 35.4395 107.767 35.2675C107.63 35.203 107.47 35.1893 107.323 35.2295C107.175 35.2697 107.051 35.3605 106.978 35.482L106.699 35.9474Z" fill="#7F3E3B"/>
<path d="M108.851 38.2818L109.583 36.7578L108.864 35.8406L107.164 37.2278L108.851 38.2818Z" fill="#7F3E3B"/>
<path d="M90.4674 26.5434C89.5945 27.5907 88.6908 28.574 87.7257 29.5436C86.7572 30.5271 85.7227 31.4573 84.6281 32.3293L84.5666 32.3773L84.4438 32.4662C84.362 32.5232 84.2765 32.5757 84.1878 32.6237C84.007 32.711 83.8142 32.777 83.6143 32.8199C83.2869 32.8883 82.9474 32.8976 82.6159 32.8472C82.1381 32.7709 81.6773 32.626 81.2515 32.4183C80.5612 32.0773 79.9141 31.6712 79.3212 31.2068C78.2079 30.3427 77.1919 29.3837 76.2876 28.3435L77.3116 27.4789C78.3766 28.2523 79.4928 29.0234 80.6089 29.6782C81.132 29.9948 81.6874 30.2668 82.2678 30.4904C82.4742 30.5733 82.695 30.6242 82.9206 30.641C82.9846 30.641 83.0153 30.6296 82.9769 30.6296C82.9491 30.6315 82.9221 30.6385 82.8975 30.6502C82.8811 30.6559 82.8656 30.6636 82.8515 30.673L82.831 30.6844L82.8643 30.6524C83.3327 30.2281 83.7858 29.7718 84.2415 29.3155C84.6972 28.8592 85.1375 28.3801 85.5804 27.9055C86.461 26.9518 87.3442 25.9708 88.1916 25.0126L90.4674 26.5434Z" fill="#7F3E3B"/>
<path d="M76.3417 25.4901L74.3475 25.8528L75.3279 27.4088L77.102 26.1837L76.3417 25.4901Z" fill="#7F3E3B"/>
<path d="M77.3534 27.8033L77.0974 26.1834L75.3233 27.4086C75.3233 27.4086 75.5972 28.8186 76.8593 28.8186L77.3534 27.8033Z" fill="#7F3E3B"/>
<path d="M77.486 27.4793C77.4353 27.4799 77.3869 27.4981 77.351 27.5301C77.3151 27.5621 77.2947 27.6052 77.294 27.6504C77.2928 27.6634 77.2928 27.6763 77.294 27.6892C77.2679 27.6773 77.2389 27.6711 77.2095 27.671C77.1586 27.671 77.1098 27.689 77.0738 27.7211C77.0378 27.7532 77.0175 27.7967 77.0175 27.8421C77.0194 27.8585 77.0237 27.8746 77.0303 27.89H77.0175C76.9668 27.8906 76.9184 27.9088 76.8825 27.9408C76.8467 27.9727 76.8262 28.0159 76.8256 28.0611C76.8267 28.0976 76.841 28.1329 76.8665 28.1615C76.8156 28.1615 76.7668 28.1795 76.7307 28.2116C76.6947 28.2437 76.6745 28.2872 76.6745 28.3326C76.676 28.3698 76.6903 28.4056 76.7155 28.4353C76.6725 28.4427 76.6338 28.463 76.6058 28.493C76.5778 28.5229 76.5623 28.5606 76.5619 28.5996C76.5628 28.6259 76.5704 28.6517 76.5841 28.675C76.5979 28.6983 76.6174 28.7186 76.6412 28.7342C76.6039 28.7456 76.5715 28.7671 76.5485 28.7957C76.5256 28.8244 76.5132 28.8587 76.5132 28.8939C76.5132 28.9392 76.5335 28.9828 76.5695 29.0149C76.6055 29.047 76.6543 29.065 76.7052 29.065C76.7562 29.065 76.805 29.047 76.841 29.0149C76.877 28.9828 76.8972 28.9392 76.8972 28.8939C76.8974 28.8676 76.8906 28.8417 76.8772 28.8182C76.8639 28.7948 76.8444 28.7746 76.8204 28.7593C76.8571 28.7472 76.8887 28.7254 76.9112 28.6969C76.9336 28.6683 76.9457 28.6344 76.9459 28.5996C76.9444 28.5624 76.9301 28.5265 76.9049 28.4969C76.9479 28.4895 76.9866 28.4691 77.0146 28.4392C77.0426 28.4092 77.0581 28.3716 77.0585 28.3326C77.0571 28.2961 77.0427 28.261 77.0175 28.2322C77.0429 28.2325 77.068 28.2283 77.0914 28.2198C77.1149 28.2113 77.1362 28.1987 77.1541 28.1828C77.172 28.1668 77.1861 28.1479 77.1956 28.127C77.2052 28.1061 77.2099 28.0837 77.2095 28.0611C77.212 28.0452 77.212 28.0291 77.2095 28.0132C77.2605 28.0132 77.3093 27.9952 77.3453 27.9631C77.3813 27.931 77.4015 27.8875 77.4015 27.8421C77.4028 27.8292 77.4028 27.8162 77.4015 27.8033C77.4269 27.815 77.4549 27.8212 77.4835 27.8216C77.5344 27.8216 77.5832 27.8035 77.6192 27.7714C77.6552 27.7394 77.6755 27.6958 77.6755 27.6504C77.6755 27.6051 77.6552 27.5615 77.6192 27.5295C77.5832 27.4974 77.5344 27.4793 77.4835 27.4793H77.486Z" fill="#101010"/>
<path d="M100.889 24.8075C101.485 25.7475 102.059 26.6966 102.619 27.6548C103.18 28.613 103.728 29.5735 104.263 30.5432L104.462 30.9059L104.631 31.2025L104.828 31.5105L105.051 31.8277C105.361 32.2497 105.691 32.6832 106.034 33.1122L108.121 35.7176L107.097 36.5846C106.135 35.8916 105.221 35.1488 104.357 34.3601C103.925 33.9632 103.497 33.5548 103.077 33.1099L102.773 32.7699L102.481 32.398C102.386 32.2657 102.276 32.1151 102.194 31.9942L101.961 31.6474C101.337 30.7348 100.73 29.7926 100.131 28.8571C99.5318 27.9217 98.9507 26.9772 98.3901 26.0235L100.889 24.8075Z" fill="#7F3E3B"/>
<path d="M91.2047 18.3257C91.238 18.458 91.1842 18.5812 91.0895 18.604C90.9948 18.6268 90.8898 18.5356 90.8565 18.4033C90.8232 18.2709 90.8796 18.1454 90.9743 18.1249C91.069 18.1044 91.174 18.1934 91.2047 18.3257Z" fill="#101010"/>
<path d="M91.196 18.579C91.1176 19.0241 90.972 19.4577 90.7634 19.868C90.8811 19.9102 91.0078 19.9286 91.1344 19.9219C91.261 19.9152 91.3843 19.8836 91.4956 19.8293L91.196 18.579Z" fill="#630F0F"/>
<path d="M90.813 17.5203C90.7988 17.5203 90.7847 17.5174 90.7718 17.5119C90.759 17.5064 90.7477 17.4983 90.7388 17.4884C90.732 17.4797 90.7272 17.4699 90.7247 17.4596C90.7222 17.4492 90.722 17.4386 90.7241 17.4282C90.7262 17.4178 90.7307 17.4078 90.7372 17.399C90.7436 17.3901 90.752 17.3825 90.7618 17.3766C90.8813 17.3101 91.0171 17.2705 91.1575 17.2609C91.2979 17.2514 91.4388 17.2723 91.5682 17.3218C91.5899 17.3304 91.6071 17.346 91.6162 17.3656C91.6252 17.3851 91.6255 17.407 91.6169 17.4268C91.6124 17.4365 91.6058 17.4454 91.5974 17.4529C91.589 17.4604 91.5791 17.4663 91.5681 17.4703C91.5572 17.4744 91.5454 17.4764 91.5336 17.4764C91.5218 17.4763 91.51 17.4742 91.4991 17.4701C91.3977 17.4306 91.2871 17.4133 91.1767 17.4197C91.0663 17.426 90.9591 17.4558 90.8642 17.5066C90.8491 17.5156 90.8312 17.5203 90.813 17.5203Z" fill="#101010"/>
<path d="M96.3116 18.745C96.478 20.2873 96.2322 21.7794 96.6214 23.1187C96.6214 23.1187 96.1913 24.3621 93.6339 24.3621C90.8179 24.3621 92.3539 23.1187 92.3539 23.1187C93.8899 22.7924 93.9078 21.7794 93.6825 20.8257L96.3116 18.745Z" fill="#7F3E3B"/>
<path d="M96.9704 23.5457C97.1905 23.1532 97.4312 22.7015 96.9704 22.5601C96.4737 22.4049 93.7166 22.2475 92.7515 22.5395C92.4944 22.6008 92.2741 22.749 92.1374 22.9526C92.0008 23.1561 91.9584 23.3991 92.0194 23.6301L96.9704 23.5457Z" fill="#101010"/>
<path d="M102.451 79.6416C102.629 79.6048 102.801 79.5497 102.963 79.4773C102.972 79.4737 102.98 79.4679 102.985 79.4606C102.99 79.4533 102.992 79.4448 102.992 79.4363C102.99 79.4279 102.986 79.42 102.98 79.4132C102.975 79.4065 102.967 79.401 102.958 79.3975C102.876 79.3724 102.142 79.1397 101.934 79.2834C101.913 79.2996 101.896 79.3206 101.887 79.3442C101.878 79.3679 101.875 79.3933 101.881 79.418C101.885 79.4608 101.902 79.502 101.929 79.5378C101.955 79.5736 101.992 79.603 102.034 79.6233C102.166 79.6737 102.314 79.6801 102.451 79.6416ZM102.81 79.4454C102.485 79.5709 102.219 79.6097 102.091 79.5481C102.062 79.534 102.037 79.5137 102.019 79.489C102.001 79.4643 101.991 79.4359 101.988 79.4066C101.988 79.3724 101.988 79.3587 102.006 79.3518C102.108 79.2765 102.515 79.3587 102.81 79.4454Z" fill="#F16682"/>
<path d="M102.952 79.4812L102.976 79.4698C102.982 79.4643 102.986 79.4574 102.989 79.4497C102.991 79.4421 102.991 79.4341 102.988 79.4265C102.988 79.4037 102.809 78.8972 102.535 78.7717C102.503 78.7552 102.467 78.7453 102.43 78.7425C102.393 78.7398 102.355 78.7443 102.32 78.7557C102.284 78.7625 102.253 78.7801 102.23 78.8054C102.207 78.8308 102.195 78.8624 102.195 78.8949C102.195 79.1025 102.707 79.4196 102.927 79.479L102.952 79.4812ZM102.371 78.831C102.413 78.8235 102.456 78.83 102.492 78.8493C102.67 78.9843 102.8 79.1639 102.863 79.3649C102.622 79.2645 102.295 79.0158 102.292 78.8926C102.292 78.8812 102.292 78.8561 102.351 78.8378L102.371 78.831Z" fill="#F16682"/>
<path d="M89.2592 80.8365C89.4406 80.833 89.621 80.8108 89.7967 80.7703C89.8059 80.7685 89.8143 80.7643 89.8207 80.7582C89.8271 80.7521 89.8312 80.7443 89.8326 80.7361C89.8346 80.7278 89.8337 80.7193 89.83 80.7115C89.8263 80.7038 89.8201 80.6972 89.8121 80.6927C89.7379 80.6494 89.0748 80.2866 88.847 80.3916C88.8214 80.403 88.8 80.4207 88.785 80.4424C88.7701 80.4642 88.7623 80.4892 88.7625 80.5148C88.7576 80.5573 88.7644 80.6003 88.7822 80.6401C88.8 80.6798 88.8284 80.7151 88.8649 80.7429C88.9804 80.8135 89.1196 80.8466 89.2592 80.8365ZM89.6559 80.7087C89.3078 80.7726 89.039 80.7612 88.9264 80.6767C88.9016 80.6574 88.8825 80.633 88.8709 80.6055C88.8593 80.578 88.8555 80.5484 88.8598 80.5193C88.8598 80.4851 88.8777 80.4737 88.8905 80.4691C89.0083 80.4144 89.3872 80.5718 89.6559 80.7087Z" fill="#F16682"/>
<path d="M89.7863 80.7659C89.7947 80.7679 89.8035 80.7679 89.8119 80.7659C89.8193 80.7613 89.8253 80.7551 89.8293 80.7479C89.8333 80.7408 89.8352 80.7328 89.8349 80.7248C89.8349 80.702 89.7837 80.1749 89.5431 80.0016C89.5149 79.9797 89.4818 79.9634 89.4461 79.9536C89.4104 79.9437 89.3728 79.9407 89.3357 79.9445C89.2993 79.9449 89.2642 79.9565 89.2362 79.9773C89.2083 79.9981 89.1892 80.0268 89.1821 80.0586C89.1386 80.2639 89.5508 80.6632 89.7632 80.7659C89.7707 80.7681 89.7788 80.7681 89.7863 80.7659ZM89.3716 80.0221C89.4123 80.023 89.4513 80.0367 89.4816 80.0609C89.6261 80.2262 89.7109 80.4267 89.7248 80.6358C89.5149 80.4921 89.2512 80.1795 89.2768 80.0677C89.2768 80.0563 89.2768 80.0312 89.3485 80.0244H89.3716V80.0221Z" fill="#F16682"/>
<path d="M91.9981 80.7066H90.1165L90.0986 76.8257H91.9776L91.9981 80.7066Z" fill="#7F3E3B"/>
<path d="M105.14 79.0683L103.3 79.4173L101.633 75.7647L103.474 75.4156L105.14 79.0683Z" fill="#7F3E3B"/>
<path d="M103.134 79.2513L105.2 78.8589C105.236 78.8524 105.273 78.857 105.306 78.8719C105.338 78.8868 105.364 78.9112 105.379 78.941L106.027 80.3418C106.042 80.3768 106.048 80.4142 106.045 80.4515C106.042 80.4888 106.03 80.5251 106.01 80.5579C105.99 80.5907 105.962 80.6191 105.928 80.6413C105.894 80.6635 105.855 80.6789 105.814 80.6863C105.09 80.8118 104.734 80.8415 103.825 81.0149C103.265 81.1198 102.123 81.3913 101.352 81.5373C100.582 81.6834 100.346 81.0172 100.648 80.8939C102.013 80.3464 102.471 79.8627 102.855 79.4087C102.923 79.3278 103.023 79.2718 103.134 79.2513Z" fill="#101010"/>
<path d="M90.1362 80.5133H92.1842C92.2213 80.5123 92.2576 80.5233 92.2863 80.5442C92.315 80.5652 92.3342 80.5947 92.3404 80.6273L92.6476 82.1172C92.6547 82.1539 92.6527 82.1915 92.6417 82.2274C92.6307 82.2634 92.6109 82.2967 92.5837 82.325C92.5566 82.3533 92.5228 82.376 92.4847 82.3913C92.4466 82.4066 92.4052 82.4143 92.3634 82.4138C91.6236 82.4138 90.5561 82.3659 89.6242 82.3659C88.5337 82.3659 87.5916 82.4183 86.3142 82.4183C85.5462 82.4183 85.3593 81.7225 85.6844 81.6586C87.1692 81.3734 88.3724 81.3415 89.6729 80.6433C89.8112 80.5632 89.9714 80.5182 90.1362 80.5133Z" fill="#101010"/>
<path d="M100.208 23.5007C101.957 23.8612 103.792 28.1436 103.792 28.1436L100.16 30.3064C99.3257 29.1794 98.5946 27.9946 97.9735 26.7633C97.0238 24.8012 98.4241 23.1311 100.208 23.5007Z" fill="#F16682"/>
<path opacity="0.2" d="M98.8283 26.2381L100.331 30.2102L100.159 30.3129C100.159 30.3129 99.4734 29.4003 98.7438 28.1843L98.8283 26.2381Z" fill="black"/>
<path d="M88.4757 30.9857C88.491 32.8566 88.6165 35.1837 88.9288 38.0721H98.9895C99.1201 36.7032 98.4391 29.9819 100.208 23.4978C99.1015 23.3067 97.9821 23.1802 96.8571 23.1191C95.4332 23.0461 94.0058 23.0461 92.5819 23.1191C91.5999 23.2042 90.6268 23.3567 89.6712 23.5754C89.6712 23.5754 88.8085 24.4059 88.5499 28.3004C88.4987 29.0784 88.4706 29.9636 88.4757 30.9857Z" fill="#F16682"/>
<path opacity="0.2" d="M88.4757 30.9855C89.0849 29.9953 90.1909 28.0081 90.0347 26.8788L88.5499 28.3115C88.4987 29.0781 88.4706 29.9633 88.4757 30.9855Z" fill="black"/>
<path d="M91.6479 25.0974C91.8067 26.6944 87.744 30.5365 87.744 30.5365L84.48 28.1751C85.3338 26.8932 86.3565 25.7067 87.5264 24.6411C89.431 22.9984 91.4636 23.311 91.6479 25.0974Z" fill="#F16682"/>
<g opacity="0.2">
<path d="M90.0986 76.8257L90.1063 78.8266H91.9879L91.9802 76.8257H90.0986Z" fill="black"/>
<path d="M103.476 75.4185L101.635 75.7676L102.495 77.6498L104.336 77.3008L103.476 75.4185Z" fill="black"/>
</g>
<path d="M96.0452 16.9408C96.3191 18.5903 96.5725 19.5417 95.8608 20.5798C95.6346 20.9196 95.3083 21.1978 94.9173 21.3842C94.5264 21.5706 94.0856 21.6581 93.6428 21.6372C93.2 21.6163 92.7721 21.4878 92.4054 21.2656C92.0387 21.0434 91.7473 20.736 91.5626 20.3767C90.8279 19.0078 90.5002 16.5346 92.1156 15.4897C92.4573 15.2549 92.8625 15.1047 93.2902 15.0541C93.7179 15.0035 94.153 15.0543 94.5516 15.2015C94.9503 15.3487 95.2982 15.587 95.5605 15.8924C95.8227 16.1978 95.9899 16.5594 96.0452 16.9408Z" fill="#7F3E3B"/>
<path d="M92.6712 18.3324C91.7419 18.4715 91.2196 17.5201 91.9339 16.7056C90.5796 16.7604 90.0037 16.1421 90.6078 15.0379C91.1198 14.0865 92.7556 14.5519 92.7556 14.5519C92.7556 14.5519 94.1175 12.9206 95.7278 13.8287C97.4558 14.8029 96.5393 15.7041 96.5393 15.7041C96.5393 15.7041 99.0199 16.0098 98.3799 17.5977C98.2827 17.8407 98.1114 18.0549 97.8854 18.216C97.6593 18.3772 97.3873 18.4791 97.0999 18.5103C97.0999 18.5103 97.7348 20.2123 95.8532 20.5637C93.9716 20.915 92.0721 19.5142 92.6712 18.3324Z" fill="#101010"/>
<path d="M93.2413 17.9086C93.2749 18.3273 93.1574 18.7446 92.906 19.0996C92.5706 19.5559 92.1098 19.3848 91.9613 18.9079C91.8257 18.479 91.8359 17.7193 92.289 17.4181C92.7421 17.1169 93.1825 17.4067 93.2413 17.9086Z" fill="#7F3E3B"/>
<path d="M92.4975 38.0724C92.4975 38.0724 94.077 50.8785 95.0421 55.6696C96.0969 60.9171 101.562 77.4192 101.562 77.4192L104.931 76.7804C104.931 76.7804 101.171 61.3506 100.664 56.1465C100.113 50.4997 98.9896 38.0633 98.9896 38.0633L92.4975 38.0724Z" fill="#101010"/>
<path d="M100.811 76.4148C100.795 76.4148 101.384 77.5122 101.384 77.5122L105.173 76.7935L104.902 75.7691L100.811 76.4148Z" fill="#F16682"/>
<path opacity="0.2" d="M93.6486 42.6357C96.0985 43.0669 95.4815 51.2689 95.0028 55.4874C94.4192 52.5055 93.6256 46.7675 93.0905 42.695C93.2637 42.6197 93.4604 42.5988 93.6486 42.6357Z" fill="black"/>
<path d="M88.9309 38.072C88.9309 38.072 88.1271 50.6044 88.1117 55.7149C88.0938 61.0308 89.4224 78.4387 89.4224 78.4387H92.6096C92.6096 78.4387 93.4672 61.3411 93.8333 56.121C94.2352 50.4173 95.5434 38.072 95.5434 38.072H88.9309Z" fill="#101010"/>
<path d="M88.4758 36.8859C88.4667 37.2907 88.544 37.6933 88.7036 38.0723C88.629 38.4144 88.5905 38.7619 88.5884 39.1104C89.6124 39.4321 99.2841 39.8314 99.2636 39.1104C99.2431 38.3895 99.2636 38.0723 99.2636 38.0723C99.2636 38.0723 99.5196 37.0571 99.2636 36.8859C99.0076 36.7148 88.5475 36.2768 88.4758 36.8859Z" fill="#F16682"/>
<path opacity="0.3" d="M88.4758 36.8859C88.4667 37.2907 88.544 37.6933 88.7036 38.0723C88.629 38.4144 88.5905 38.7619 88.5884 39.1104C89.6124 39.4321 99.2841 39.8314 99.2636 39.1104C99.2431 38.3895 99.2636 38.0723 99.2636 38.0723C99.2636 38.0723 99.5196 37.0571 99.2636 36.8859C99.0076 36.7148 88.5475 36.2768 88.4758 36.8859Z" fill="black"/>
<path d="M88.8593 77.3072C88.8439 77.3072 88.9873 78.4867 88.9873 78.4867H92.8631L93.0141 77.4349L88.8593 77.3072Z" fill="#F16682"/>
</svg>
