<svg width="24" height="24" viewBox="0 0 24 24" fill="none" xmlns="http://www.w3.org/2000/svg">
<path d="M4.30909 5C3.9619 5 3.62893 5.16672 3.38342 5.46348C3.13792 5.76024 3 6.16273 3 6.58242V17.1319C3 17.5516 3.13792 17.954 3.38342 18.2508C3.62893 18.5476 3.9619 18.7143 4.30909 18.7143H19.1455C19.4926 18.7143 19.8256 18.5476 20.0711 18.2508C20.3166 17.954 20.4545 17.5516 20.4545 17.1319V6.58242C20.4545 6.16273 20.3166 5.76024 20.0711 5.46348C19.8256 5.16672 19.4926 5 19.1455 5H4.30909ZM4.30909 6.05495H19.1455C19.2612 6.05495 19.3722 6.11052 19.454 6.20944C19.5358 6.30836 19.5818 6.44252 19.5818 6.58242V17.1319C19.5818 17.2718 19.5358 17.4059 19.454 17.5048C19.3722 17.6038 19.2612 17.6593 19.1455 17.6593H4.30909C4.19336 17.6593 4.08237 17.6038 4.00054 17.5048C3.9187 17.4059 3.87273 17.2718 3.87273 17.1319V6.58242C3.87273 6.44252 3.9187 6.30836 4.00054 6.20944C4.08237 6.11052 4.19336 6.05495 4.30909 6.05495ZM4.74545 9.21978V12.3846H8.23636V9.21978H4.74545ZM5.61818 10.2747H7.36364V11.3297H5.61818V10.2747ZM4.74545 13.4396V14.4945H7.36364V13.4396H4.74545ZM8.23636 13.4396V14.4945H10.8545V13.4396H8.23636ZM11.7273 13.4396V14.4945H14.3455V13.4396H11.7273ZM15.2182 13.4396V14.4945H17.8364V13.4396H15.2182ZM4.74545 15.5495V16.6044H9.10909V15.5495H4.74545ZM9.98182 15.5495V16.6044H14.3455V15.5495H9.98182Z" fill="#101010"/>
</svg>
