<svg width="24" height="24" viewBox="0 0 24 24" fill="none" xmlns="http://www.w3.org/2000/svg">
<path d="M11.9996 2.3999C10.7266 2.3999 9.50567 2.90562 8.6055 3.80579C7.70532 4.70596 7.19961 5.92686 7.19961 7.1999C7.19961 8.47294 7.70532 9.69384 8.6055 10.594C9.50567 11.4942 10.7266 11.9999 11.9996 11.9999C13.2726 11.9999 14.4935 11.4942 15.3937 10.594C16.2939 9.69384 16.7996 8.47294 16.7996 7.1999C16.7996 5.92686 16.2939 4.70596 15.3937 3.80579C14.4935 2.90562 13.2726 2.3999 11.9996 2.3999ZM8.39961 7.1999C8.39961 6.24512 8.77889 5.32945 9.45402 4.65432C10.1292 3.97919 11.0448 3.5999 11.9996 3.5999C12.9544 3.5999 13.8701 3.97919 14.5452 4.65432C15.2203 5.32945 15.5996 6.24512 15.5996 7.1999C15.5996 8.15468 15.2203 9.07036 14.5452 9.74549C13.8701 10.4206 12.9544 10.7999 11.9996 10.7999C11.0448 10.7999 10.1292 10.4206 9.45402 9.74549C8.77889 9.07036 8.39961 8.15468 8.39961 7.1999ZM6.01041 13.1999C5.69437 13.1986 5.3812 13.2598 5.08884 13.3798C4.79648 13.4998 4.53069 13.6764 4.30672 13.8994C4.08275 14.1223 3.90499 14.3873 3.78365 14.6791C3.66231 14.971 3.59976 15.2839 3.59961 15.5999C3.59961 17.6291 4.59921 19.1591 6.16161 20.1563C7.70001 21.1367 9.77361 21.5999 11.9996 21.5999C14.2256 21.5999 16.2992 21.1367 17.8376 20.1563C19.4 19.1603 20.3996 17.6279 20.3996 15.5999C20.3996 14.9634 20.1468 14.3529 19.6967 13.9028C19.2466 13.4528 18.6361 13.1999 17.9996 13.1999H6.01041ZM4.79961 15.5999C4.79961 14.9363 5.33721 14.3999 6.01041 14.3999H17.9996C18.3179 14.3999 18.6231 14.5263 18.8481 14.7514C19.0732 14.9764 19.1996 15.2816 19.1996 15.5999C19.1996 17.1707 18.4532 18.3407 17.192 19.1435C15.908 19.9631 14.0816 20.3999 11.9996 20.3999C9.91761 20.3999 8.09121 19.9631 6.80721 19.1435C5.54721 18.3395 4.79961 17.1719 4.79961 15.5999Z" fill="#F16682"/>
</svg>
