<svg width="24" height="24" viewBox="0 0 24 24" fill="none" xmlns="http://www.w3.org/2000/svg">
<path d="M19.75 9.99983C19.75 9.80092 19.671 9.61015 19.5304 9.4695C19.3897 9.32885 19.1989 9.24983 19 9.24983C18.8011 9.24983 18.6104 9.32885 18.4697 9.4695C18.3291 9.61015 18.25 9.80092 18.25 9.99983H19.75ZM5.75003 9.99983C5.75003 9.80092 5.67101 9.61015 5.53036 9.4695C5.38971 9.32885 5.19894 9.24983 5.00003 9.24983C4.80112 9.24983 4.61035 9.32885 4.4697 9.4695C4.32905 9.61015 4.25003 9.80092 4.25003 9.99983H5.75003ZM20.47 12.5298C20.5387 12.6035 20.6215 12.6626 20.7135 12.7036C20.8055 12.7446 20.9048 12.7666 21.0055 12.7684C21.1062 12.7702 21.2062 12.7517 21.2996 12.714C21.393 12.6762 21.4779 12.6201 21.5491 12.5489C21.6203 12.4776 21.6764 12.3928 21.7142 12.2994C21.7519 12.206 21.7704 12.106 21.7686 12.0053C21.7668 11.9046 21.7448 11.8053 21.7038 11.7133C21.6628 11.6213 21.6037 11.5385 21.53 11.4698L20.47 12.5298ZM12 2.99983L12.53 2.46983C12.3894 2.32938 12.1988 2.25049 12 2.25049C11.8013 2.25049 11.6107 2.32938 11.47 2.46983L12 2.99983ZM2.47003 11.4698C2.39634 11.5385 2.33724 11.6213 2.29625 11.7133C2.25526 11.8053 2.23322 11.9046 2.23144 12.0053C2.22966 12.106 2.24819 12.206 2.28591 12.2994C2.32363 12.3928 2.37977 12.4776 2.45099 12.5489C2.52221 12.6201 2.60705 12.6762 2.70043 12.714C2.79382 12.7517 2.89385 12.7702 2.99455 12.7684C3.09526 12.7666 3.19457 12.7446 3.28657 12.7036C3.37857 12.6626 3.46137 12.6035 3.53003 12.5298L2.47003 11.4698ZM7.00003 21.7498H17V20.2498H7.00003V21.7498ZM19.75 18.9998V9.99983H18.25V18.9998H19.75ZM5.75003 18.9998V9.99983H4.25003V18.9998H5.75003ZM21.53 11.4698L12.53 2.46983L11.47 3.52983L20.47 12.5298L21.53 11.4698ZM11.47 2.46983L2.47003 11.4698L3.53003 12.5298L12.53 3.52983L11.47 2.46983ZM17 21.7498C17.7294 21.7498 18.4289 21.4601 18.9446 20.9444C19.4603 20.4286 19.75 19.7292 19.75 18.9998H18.25C18.25 19.6898 17.69 20.2498 17 20.2498V21.7498ZM7.00003 20.2498C6.31003 20.2498 5.75003 19.6898 5.75003 18.9998H4.25003C4.25003 19.7292 4.53976 20.4286 5.05549 20.9444C5.57121 21.4601 6.27069 21.7498 7.00003 21.7498V20.2498Z" fill="#F16682"/>
</svg>
