<svg width="24" height="24" viewBox="0 0 24 24" fill="none" xmlns="http://www.w3.org/2000/svg">
<path d="M11.7335 3.72372L11.466 3.16986L11.7327 3.72372H11.7335ZM4.6154 10.3717L5.22834 10.3192C5.21421 10.1615 5.13991 10.0154 5.02087 9.91116C4.90184 9.80689 4.74721 9.75249 4.58911 9.75925C4.43101 9.76601 4.28159 9.83341 4.17188 9.94746C4.06218 10.0615 4.00062 10.2134 4 10.3717H4.6154ZM18.7581 11.8675L18.1788 15.2153L19.3923 15.4253L19.9708 12.0776L18.7581 11.8675ZM13.0217 19.4106H9.20709V20.6414H13.0217V19.4106ZM8.45959 18.7239L7.79332 11.0166L6.56662 11.1225L7.23371 18.8297L8.45959 18.7239ZM18.1788 15.2153C17.7628 17.6194 15.5949 19.4106 13.0217 19.4106V20.6414C16.1611 20.6414 18.8688 18.4514 19.3923 15.4253L18.1788 15.2153ZM13.0299 6.15906L12.4859 9.47811L13.7003 9.67668L14.2443 6.35845L13.0299 6.15906ZM8.05178 10.3815L9.23253 9.36405L8.42841 8.43193L7.2493 9.44939L8.05178 10.3815ZM11.3799 6.05403L11.7704 4.54918L10.579 4.24066L10.1884 5.74469L11.3799 6.05403ZM12.3596 4.25379L12.4785 4.29235L12.8552 3.12063L12.7362 3.08207L12.3596 4.25379ZM10.7883 7.56709C11.0446 7.08789 11.2432 6.57999 11.3799 6.05403L10.1884 5.74469C10.0763 6.17681 9.91321 6.5941 9.70269 6.9878L10.7891 7.56709H10.7883ZM12.4785 4.29235C12.5956 4.32783 12.7018 4.39232 12.7873 4.47982C12.8728 4.56732 12.9348 4.67501 12.9676 4.79287L14.159 4.48435C14.0742 4.16558 13.9102 3.87341 13.6823 3.63499C13.4543 3.39657 13.1698 3.21964 12.8552 3.12063L12.4785 4.29235ZM11.7704 4.54918C11.7868 4.49008 11.8158 4.43524 11.8555 4.38848C11.8952 4.34173 11.9445 4.30416 12.0002 4.2784L11.466 3.16986C11.0295 3.37992 10.7013 3.76885 10.579 4.24066L11.7704 4.54918ZM12.0002 4.2784C12.1125 4.22476 12.241 4.21596 12.3596 4.25379L12.7362 3.08207C12.3172 2.94776 11.8626 2.97918 11.466 3.16986L11.9994 4.2784H12.0002ZM13.7676 10.9871H18.018V9.75627H13.7676V10.9871ZM6.02589 19.5386L5.22834 10.3192L4.00246 10.425L4.79838 19.6445L6.02589 19.5386ZM5.2308 19.6264V10.3717H4V19.6264H5.2308ZM4.79838 19.6445C4.79587 19.6147 4.80042 19.5847 4.81014 19.5564C4.81986 19.5281 4.83536 19.5021 4.85565 19.4801C4.87594 19.4581 4.90059 19.4406 4.92802 19.4286C4.95545 19.4167 4.98507 19.4105 5.015 19.4106V20.6414C5.6107 20.6414 6.07676 20.1311 6.02589 19.5386L4.7992 19.6453L4.79838 19.6445ZM14.2443 6.35845C14.3467 5.73462 14.3176 5.0963 14.159 4.48435L12.9676 4.79369C13.0832 5.23951 13.1045 5.70456 13.0299 6.15906L14.2443 6.35845ZM9.20709 19.4106C9.0192 19.4103 8.83824 19.3396 8.69988 19.2125C8.56152 19.0854 8.47579 18.911 8.45959 18.7239L7.23371 18.8297C7.27641 19.3238 7.50275 19.7839 7.86807 20.1193C8.23339 20.4547 8.71116 20.641 9.20709 20.6414V19.4106ZM9.23253 9.36405C9.79049 8.88322 10.3911 8.31131 10.7891 7.56709L9.70269 6.9878C9.41879 7.52032 8.96668 7.96915 8.42841 8.43193L9.23253 9.36405ZM19.9708 12.0776C20.0202 11.7928 20.0068 11.5007 19.9314 11.2217C19.8561 10.9427 19.7206 10.6836 19.5346 10.4625C19.3485 10.2413 19.1164 10.0635 18.8544 9.94154C18.5924 9.81956 18.3069 9.75632 18.018 9.75627V10.9871C18.4832 10.9871 18.8385 11.4072 18.7581 11.8675L19.9708 12.0776ZM5.015 19.4106C5.13479 19.4106 5.2308 19.5075 5.2308 19.6264H4C4 20.186 4.45375 20.6414 5.015 20.6414V19.4106ZM12.4859 9.47811C12.4553 9.66402 12.4656 9.85437 12.5159 10.0359C12.5662 10.2175 12.6555 10.386 12.7774 10.5296C12.8993 10.6732 13.0511 10.7886 13.222 10.8678C13.393 10.9469 13.5792 10.9871 13.7676 10.9871V9.75627C13.7576 9.75631 13.7477 9.75497 13.7386 9.75075C13.7295 9.74653 13.7215 9.74037 13.7151 9.73269C13.7086 9.72501 13.704 9.71601 13.7014 9.70633C13.6989 9.69665 13.6985 9.68652 13.7003 9.67668L12.4859 9.47811ZM7.79332 11.0166C7.78317 10.8978 7.80057 10.7782 7.84565 10.6678C7.89072 10.5574 7.96137 10.4593 8.05178 10.3815L7.24766 9.44857C7.00972 9.65373 6.8239 9.91246 6.7055 10.2035C6.5871 10.4945 6.5395 10.8095 6.56662 11.1225L7.79332 11.0158V11.0166Z" fill="#F16682"/>
</svg>
