<svg width="10" height="18" viewBox="0 0 10 18" fill="none" xmlns="http://www.w3.org/2000/svg">
<path d="M9.26806 16.7507L1.71205 8.99923L9.26806 1.24781C9.40334 1.10931 9.47907 0.923399 9.47907 0.729804C9.47907 0.536209 9.40334 0.350294 9.26806 0.211802C9.20236 0.144744 9.12394 0.0914703 9.03739 0.0551016C8.95084 0.0187329 8.8579 0 8.76402 0C8.67014 0 8.5772 0.0187329 8.49065 0.0551016C8.4041 0.0914703 8.32568 0.144744 8.25997 0.211802L0.220078 8.45797C0.0789246 8.60278 -7.4939e-05 8.79701 -7.4939e-05 8.99923C-7.4939e-05 9.20146 0.0789246 9.39569 0.220078 9.5405L8.25842 17.7867C8.32418 17.8542 8.40279 17.9079 8.48963 17.9445C8.57647 17.9812 8.66976 18.0001 8.76402 18.0001C8.85827 18.0001 8.95157 17.9812 9.03841 17.9445C9.12525 17.9079 9.20386 17.8542 9.26961 17.7867C9.40489 17.6482 9.48062 17.4623 9.48062 17.2687C9.48062 17.0751 9.40489 16.8892 9.26961 16.7507H9.26806Z" fill="#101010"/>
</svg>
