<svg width="16" height="16" viewBox="0 0 16 16" fill="none" xmlns="http://www.w3.org/2000/svg">
<path d="M2.66663 8.00016C2.66663 8.17697 2.73686 8.34654 2.86189 8.47157C2.98691 8.59659 3.15648 8.66683 3.33329 8.66683C3.5101 8.66683 3.67967 8.59659 3.8047 8.47157C3.92972 8.34654 3.99996 8.17697 3.99996 8.00016C3.99996 7.82335 3.92972 7.65378 3.8047 7.52876C3.67967 7.40373 3.5101 7.3335 3.33329 7.3335C3.15648 7.3335 2.98691 7.40373 2.86189 7.52876C2.73686 7.65378 2.66663 7.82335 2.66663 8.00016ZM7.33329 8.00016C7.33329 8.17697 7.40353 8.34654 7.52856 8.47157C7.65358 8.59659 7.82315 8.66683 7.99996 8.66683C8.17677 8.66683 8.34634 8.59659 8.47136 8.47157C8.59639 8.34654 8.66663 8.17697 8.66663 8.00016C8.66663 7.82335 8.59639 7.65378 8.47136 7.52876C8.34634 7.40373 8.17677 7.3335 7.99996 7.3335C7.82315 7.3335 7.65358 7.40373 7.52856 7.52876C7.40353 7.65378 7.33329 7.82335 7.33329 8.00016ZM12 8.00016C12 8.17697 12.0702 8.34654 12.1952 8.47157C12.3202 8.59659 12.4898 8.66683 12.6666 8.66683C12.8434 8.66683 13.013 8.59659 13.138 8.47157C13.2631 8.34654 13.3333 8.17697 13.3333 8.00016C13.3333 7.82335 13.2631 7.65378 13.138 7.52876C13.013 7.40373 12.8434 7.3335 12.6666 7.3335C12.4898 7.3335 12.3202 7.40373 12.1952 7.52876C12.0702 7.65378 12 7.82335 12 8.00016Z" stroke="#101010" stroke-width="1.33333" stroke-linecap="round" stroke-linejoin="round"/>
</svg>
