<svg width="24" height="24" viewBox="0 0 24 24" fill="none" xmlns="http://www.w3.org/2000/svg">
<path d="M21.5307 17.5435C22.064 16.4864 22.3327 15.3156 22.3137 14.1317C22.2946 12.9478 21.9883 11.7863 21.4212 10.7469C20.8541 9.70757 20.043 8.82146 19.0578 8.16477C18.0726 7.50808 16.9426 7.10044 15.7651 6.97691C15.3912 6.06682 14.8376 5.24154 14.1373 4.55047C13.437 3.8594 12.6044 3.31675 11.6895 2.95503C10.7745 2.5933 9.79596 2.41993 8.81242 2.4453C7.82887 2.47067 6.86056 2.69426 5.96547 3.10268C5.07037 3.51109 4.2669 4.09594 3.60316 4.8222C2.93942 5.54845 2.42906 6.40118 2.10265 7.32933C1.77623 8.25747 1.64047 9.24194 1.7035 10.2238C1.76652 11.2056 2.02703 12.1647 2.46943 13.0435L1.73162 15.6282C1.67665 15.821 1.67422 16.025 1.72457 16.2191C1.77493 16.4132 1.87624 16.5903 2.01802 16.7321C2.15981 16.8738 2.33691 16.9752 2.531 17.0255C2.72508 17.0759 2.9291 17.0734 3.12193 17.0185L5.70662 16.2807C6.49696 16.6778 7.35261 16.9287 8.23225 17.0213C8.61487 17.9545 9.18628 18.7985 9.91061 19.5003C10.6349 20.2022 11.4965 20.7467 12.4413 21.0997C13.3861 21.4527 14.3937 21.6066 15.4007 21.5517C16.4078 21.4968 17.3927 21.2343 18.2935 20.7807L20.8782 21.5185C21.071 21.5734 21.275 21.5759 21.4691 21.5255C21.6632 21.4752 21.8403 21.3738 21.9821 21.2321C22.1239 21.0903 22.2252 20.9132 22.2755 20.7191C22.3259 20.525 22.3235 20.321 22.2685 20.1282L21.5307 17.5435ZM5.7685 15.1153C5.71617 15.1151 5.66407 15.1223 5.61381 15.1369L2.81256 15.9375L3.61225 13.1372C3.65309 12.995 3.63624 12.8424 3.56537 12.7125C2.85415 11.4056 2.6377 9.88617 2.95567 8.43264C3.27363 6.9791 4.10473 5.68882 5.29667 4.79823C6.4886 3.90763 7.96154 3.47637 9.44559 3.58347C10.9296 3.69056 12.3254 4.32884 13.3771 5.38135C14.4288 6.43386 15.066 7.8301 15.172 9.31423C15.278 10.7984 14.8456 12.271 13.9541 13.4622C13.0626 14.6535 11.7717 15.4836 10.3179 15.8005C8.86415 16.1173 7.34488 15.8997 6.0385 15.1875C5.95585 15.1415 5.86308 15.1167 5.7685 15.1153ZM20.3869 17.6363L21.1876 20.4375L18.3872 19.6378C18.245 19.597 18.0924 19.6138 17.9626 19.6847C17.2351 20.0813 16.4354 20.3277 15.6109 20.4094C14.7865 20.4911 13.954 20.4063 13.1629 20.1602C12.3717 19.914 11.6381 19.5115 11.0055 18.9765C10.3729 18.4415 9.85413 17.7849 9.48006 17.0457C10.5319 16.9772 11.5564 16.682 12.4833 16.1802C13.4103 15.6784 14.2176 14.982 14.85 14.1387C15.4824 13.2954 15.9248 12.3253 16.1468 11.2949C16.3688 10.2645 16.3652 9.19828 16.1363 8.16941C17.0965 8.3482 18.0007 8.75175 18.775 9.34704C19.5492 9.94233 20.1716 10.7125 20.5911 11.5944C21.0107 12.4764 21.2155 13.4451 21.1888 14.4214C21.1621 15.3977 20.9047 16.3539 20.4376 17.2116C20.3654 17.341 20.3472 17.4936 20.3869 17.6363Z" fill="#F16682"/>
</svg>
