<svg width="24" height="24" viewBox="0 0 24 24" fill="none" xmlns="http://www.w3.org/2000/svg">
<path d="M3.42432 11.9623C3.42405 12.1108 3.46789 12.2561 3.55029 12.3797C3.63268 12.5032 3.74991 12.5996 3.88712 12.6565C4.02433 12.7133 4.17534 12.7282 4.321 12.6991C4.46667 12.6701 4.60042 12.5984 4.70532 12.4933L11.5978 5.59778C12.3012 4.89443 13.2551 4.49929 14.2498 4.49929C14.7423 4.49929 15.23 4.59629 15.6851 4.78477C16.1401 4.97325 16.5536 5.24951 16.9018 5.59778C17.2501 5.94605 17.5263 6.3595 17.7148 6.81453C17.9033 7.26956 18.0003 7.75726 18.0003 8.24978C18.0003 8.7423 17.9033 9.23 17.7148 9.68503C17.5263 10.1401 17.2501 10.5535 16.9018 10.9018L8.94732 18.8563C8.66441 19.1295 8.28551 19.2807 7.89222 19.2773C7.49892 19.2739 7.1227 19.1161 6.84459 18.838C6.56648 18.5599 6.40872 18.1837 6.40531 17.7904C6.40189 17.3971 6.55308 17.0182 6.82632 16.7353L14.7808 8.78078C14.8505 8.71105 14.9059 8.62826 14.9436 8.53716C14.9813 8.44605 15.0008 8.3484 15.0008 8.24978C15.0008 8.15116 14.9813 8.05351 14.9436 7.9624C14.9059 7.87129 14.8505 7.78851 14.7808 7.71878C14.7111 7.64905 14.6283 7.59373 14.5372 7.55599C14.4461 7.51826 14.3484 7.49883 14.2498 7.49883C14.1512 7.49883 14.0536 7.51826 13.9624 7.55599C13.8713 7.59373 13.7885 7.64905 13.7188 7.71878L5.76432 15.6748C5.47779 15.9515 5.24924 16.2826 5.09201 16.6486C4.93479 17.0146 4.85203 17.4082 4.84857 17.8066C4.8451 18.2049 4.92101 18.6 5.07185 18.9686C5.2227 19.3373 5.44545 19.6723 5.72713 19.954C6.00881 20.2356 6.34377 20.4584 6.71246 20.6092C7.08114 20.7601 7.47618 20.836 7.87452 20.8325C8.27286 20.8291 8.66652 20.7463 9.03253 20.5891C9.39854 20.4319 9.72958 20.2033 10.0063 19.9168L17.9608 11.9623C18.9454 10.9777 19.4986 9.64224 19.4986 8.24978C19.4986 6.85732 18.9454 5.5219 17.9608 4.53728C16.9762 3.55266 15.6408 2.99951 14.2483 2.99951C12.8559 2.99951 11.5204 3.55266 10.5358 4.53728L3.64482 11.4313C3.57508 11.501 3.51983 11.5838 3.48224 11.6749C3.44465 11.766 3.42398 11.8637 3.42432 11.9623Z" fill="#101010"/>
</svg>
