<svg width="17" height="17" viewBox="0 0 17 17" fill="none" xmlns="http://www.w3.org/2000/svg">
<path d="M16.6598 16.6598L12.7223 12.7223M12.7223 12.7223C13.3958 12.0488 13.9301 11.2492 14.2946 10.3692C14.6591 9.48916 14.8467 8.54597 14.8468 7.59345C14.8468 6.64094 14.6591 5.69775 14.2946 4.81774C13.9301 3.93773 13.3958 3.13813 12.7223 2.4646C12.0488 1.79107 11.2492 1.2568 10.3692 0.892284C9.48916 0.527771 8.54597 0.340159 7.59345 0.340159C6.64094 0.340159 5.69775 0.527771 4.81774 0.892284C3.93773 1.2568 3.13813 1.79107 2.4646 2.4646C1.10434 3.82486 0.340159 5.66976 0.340159 7.59345C0.340159 9.51715 1.10434 11.3621 2.4646 12.7223C3.82486 14.0826 5.66976 14.8467 7.59345 14.8468C9.51715 14.8468 11.3621 14.0826 12.7223 12.7223Z" stroke="#B3B3B3" stroke-width="0.666667" stroke-linecap="round" stroke-linejoin="round"/>
</svg>
