<svg width="21" height="21" viewBox="0 0 21 21" fill="none" xmlns="http://www.w3.org/2000/svg">
<path d="M10.5 0C7.72568 0.0336624 5.07448 1.15072 3.1126 3.1126C1.15072 5.07448 0.0336624 7.72568 0 10.5C0.0336624 13.2743 1.15072 15.9255 3.1126 17.8874C5.07448 19.8493 7.72568 20.9663 10.5 21C13.2743 20.9663 15.9255 19.8493 17.8874 17.8874C19.8493 15.9255 20.9663 13.2743 21 10.5C20.9663 7.72568 19.8493 5.07448 17.8874 3.1126C15.9255 1.15072 13.2743 0.0336624 10.5 0ZM16.5 11.25H11.25V16.5H9.75V11.25H4.5V9.75H9.75V4.5H11.25V9.75H16.5V11.25Z" fill="#F16682"/>
</svg>
