<svg width="33" height="33" viewBox="0 0 33 33" fill="none" xmlns="http://www.w3.org/2000/svg">
<path fill-rule="evenodd" clip-rule="evenodd" d="M11.0004 5.35924C11.0004 4.61965 11.5683 4.0194 12.2695 4.0194H20.7314C21.4326 4.0194 22.0005 4.61965 22.0005 5.35924C22.0005 6.09882 21.4326 6.69907 20.7314 6.69907H12.2695C11.5683 6.69907 11.0004 6.09882 11.0004 5.35924ZM13.4452 28.1364H19.5557C23.8472 28.1364 25.9936 28.1364 27.535 27.1691C28.1982 26.7536 28.771 26.215 29.2208 25.584C30.2506 24.137 30.2506 22.1206 30.2506 18.0877C30.2506 14.0548 30.2506 12.0397 29.2194 10.5913C28.7701 9.96038 28.1977 9.42181 27.535 9.00627C25.9936 8.03891 23.8472 8.03891 19.5557 8.03891H13.4452C9.15371 8.03891 7.00731 8.03891 5.46591 9.00627C4.80318 9.42184 4.23084 9.96041 3.78151 10.5913C2.75025 12.0383 2.75025 14.0548 2.75025 18.085V18.0877C2.75025 22.1206 2.75025 24.1357 3.78014 25.584C4.22564 26.2111 4.79765 26.7497 5.46591 27.1691C7.00731 28.1364 9.15371 28.1364 13.4452 28.1364ZM10.7707 18.0877C10.7707 15.1132 13.3365 12.7042 16.5004 12.7042C19.6644 12.7042 22.2302 15.1146 22.2302 18.0877C22.2302 21.0608 19.663 23.4711 16.5004 23.4711C13.3365 23.4711 10.7707 21.0594 10.7707 18.0877ZM13.0629 18.0877C13.0629 16.303 14.6029 14.8587 16.5004 14.8587C18.398 14.8587 19.938 16.3043 19.938 18.0877C19.938 19.871 18.398 21.3167 16.5004 21.3167C14.6029 21.3167 13.0629 19.871 13.0629 18.0877ZM24.9032 12.7042C24.2707 12.7042 23.7578 13.1866 23.7578 13.7814C23.7578 14.375 24.2707 14.8573 24.9032 14.8573H25.6677C26.3002 14.8573 26.8131 14.375 26.8131 13.7814C26.8131 13.1866 26.3002 12.7042 25.6677 12.7042H24.9032Z" fill="#F16682"/>
</svg>
