<svg width="266" height="216" viewBox="0 0 266 216" fill="none" xmlns="http://www.w3.org/2000/svg">
<g clip-path="url(#clip0_1_5223)">
<path d="M198.32 45.5884H168.996V87.4824H198.32V45.5884Z" fill="#B3B3B3"/>
<path d="M196.852 45.5884H167.528V87.4824H196.852V45.5884Z" fill="#F5F5F5"/>
<path d="M193.209 50.124H171.171V82.9465H193.209V50.124Z" fill="white"/>
<path d="M193.203 82.9408C193.203 82.9408 193.203 82.889 193.203 82.7852V82.3184C193.203 81.9034 193.203 81.304 193.203 80.5202C193.203 78.9468 193.203 76.653 193.203 73.754C193.203 67.9906 193.203 59.772 193.168 50.1241L193.238 50.1933H171.206L171.288 50.1126C171.288 62.4924 171.288 73.9096 171.288 82.9293L171.223 82.8717H187.268H191.694H193.203H192.817H191.648H187.227H171.147H171.083V82.8083C171.083 73.7886 171.083 62.3713 171.083 49.9916V49.9109H193.273V49.9858C193.273 59.6568 193.244 67.8523 193.238 73.6675C193.238 76.5492 193.238 78.8546 193.238 80.4107C193.238 81.1888 193.238 81.7882 193.238 82.1974V82.6527C193.237 82.7497 193.225 82.8463 193.203 82.9408Z" fill="#B3B3B3"/>
<path d="M196.934 45.5884C196.784 45.8529 196.609 46.1037 196.414 46.3376C196.075 46.7814 195.589 47.3923 195.04 48.0666C194.49 48.741 193.97 49.3115 193.589 49.7265C193.392 49.9609 193.175 50.1787 192.94 50.3777C193.117 50.1236 193.312 49.8828 193.525 49.6573L194.94 47.9687L196.349 46.28C196.523 46.0329 196.719 45.8015 196.934 45.5884Z" fill="#B3B3B3"/>
<path d="M193.32 82.8369C194.419 84.5531 195.709 86.1423 197.168 87.5744L193.32 82.8369Z" fill="white"/>
<path d="M197.168 87.5746C196.923 87.4072 196.698 87.2139 196.495 86.9983C195.985 86.4849 195.501 85.9463 195.045 85.3845C194.59 84.8309 194.164 84.2537 193.771 83.6555C193.593 83.4126 193.442 83.1517 193.32 82.8774C193.523 83.0995 193.704 83.3386 193.864 83.5921C194.186 84.0416 194.642 84.6526 195.168 85.3211C195.694 85.9897 196.209 86.5487 196.577 86.9579C196.789 87.1489 196.987 87.355 197.168 87.5746Z" fill="#B3B3B3"/>
<path d="M167.528 87.4476L171.364 82.7793L167.528 87.4476Z" fill="white"/>
<path d="M171.364 82.7793C170.789 83.6039 170.17 84.3984 169.511 85.1596C168.446 86.4506 167.558 87.4649 167.528 87.4649C168.103 86.6377 168.722 85.8412 169.382 85.0789C170.003 84.2799 170.664 83.5124 171.364 82.7793Z" fill="#B3B3B3"/>
<path d="M167.528 45.5884C168.191 46.2852 168.814 47.0183 169.394 47.7842C170.018 48.5222 170.604 49.2917 171.148 50.0896C170.485 49.3928 169.862 48.6597 169.282 47.8937C168.655 47.158 168.069 46.3884 167.528 45.5884Z" fill="#B3B3B3"/>
<path d="M186.344 56.7866H178.965V77.4368H186.344V56.7866Z" fill="#B3B3B3"/>
<path d="M139.994 162.804C138.66 163.238 137.429 163.933 136.374 164.847C135.319 165.761 134.462 166.875 133.854 168.123C132.656 170.631 132.056 173.375 132.1 176.146C132.03 181.489 134.374 187.183 137.099 191.799C142.099 188.491 144.005 181.875 144.759 178.457C145.929 173.051 144.759 162.579 139.999 162.804" fill="#F5F5F5"/>
<path d="M130.749 199.845C131.252 198.377 131.351 196.803 131.037 195.285C130.722 193.766 130.006 192.357 128.96 191.2C127.898 190.063 126.616 189.147 125.191 188.504C123.765 187.86 122.224 187.503 120.657 187.454C119.213 187.379 117.61 187.598 116.64 188.658C116.217 189.181 115.944 189.806 115.849 190.467C115.753 191.129 115.838 191.804 116.096 192.422C116.63 193.655 117.485 194.727 118.575 195.528C122.16 198.41 126.177 200.583 130.749 199.834" fill="#F5F5F5"/>
<path d="M134.497 212.686C134.565 211.508 134.51 210.326 134.334 209.159C134.191 207.876 133.893 206.614 133.445 205.401C132.944 203.91 132.344 202.452 131.65 201.038C130.369 198.441 128.457 196.196 126.083 194.503C125.349 194.008 124.565 193.589 123.744 193.252C123.452 193.113 123.137 193.024 122.815 192.987C122.768 193.085 124.072 193.563 125.808 194.843C128.028 196.586 129.826 198.795 131.071 201.309C131.752 202.701 132.355 204.129 132.878 205.586C133.335 206.759 133.668 207.976 133.872 209.216C134.234 211.355 134.404 212.698 134.497 212.686Z" fill="#B3B3B3"/>
<path d="M140.175 170.873C139.988 171.436 139.851 172.015 139.766 172.602C139.544 173.754 139.246 175.368 138.895 177.391C138.187 181.425 137.281 187.039 136.427 193.252C135.573 199.465 134.971 205.107 134.62 209.205C134.445 211.251 134.322 212.905 134.258 214.052C134.189 214.645 134.177 215.243 134.223 215.838C134.364 215.259 134.454 214.669 134.492 214.075C134.638 212.824 134.825 211.193 135.076 209.245C135.538 205.165 136.211 199.534 137.059 193.332C137.907 187.131 138.749 181.621 139.345 177.454C139.626 175.506 139.854 173.881 140.029 172.642C140.129 172.057 140.178 171.465 140.175 170.873Z" fill="#B3B3B3"/>
<path d="M137.274 202.716C138.656 199.752 140.733 197.155 143.335 195.141C145.937 193.126 148.989 191.752 152.237 191.131C153.886 190.831 155.921 190.889 156.827 192.284C157.734 193.679 156.938 195.534 155.939 196.895C153.799 199.637 150.884 201.694 147.561 202.806C144.237 203.919 140.654 204.038 137.263 203.148" fill="#F5F5F5"/>
<path d="M149.934 195.425C149.615 195.44 149.301 195.506 149.004 195.621C148.42 195.782 147.572 196.065 146.549 196.439C143.842 197.409 141.34 198.862 139.17 200.727C137.999 201.793 137.012 203.038 136.246 204.416C135.633 205.546 135.183 206.754 134.907 208.006C134.719 208.844 134.61 209.696 134.579 210.554C134.526 210.865 134.526 211.182 134.579 211.493C134.702 211.493 134.749 210.162 135.293 208.11C136.007 205.438 137.489 203.026 139.561 201.165C141.689 199.355 144.098 197.891 146.695 196.831C148.712 195.972 149.981 195.517 149.934 195.425Z" fill="#B3B3B3"/>
<path d="M251.435 61.8067C251.435 61.8067 245.307 60.0258 242.828 73.9098C240.349 87.7937 240.15 95.4417 240.15 95.4417C240.15 95.4417 239.291 98.456 237.022 97.3379C234.753 96.2198 230.9 92.2834 228.181 94.024C225.357 95.8279 225.398 99.5395 227.544 104.358C229.689 109.176 233.975 119.919 234.373 120.887C234.771 121.855 234.63 123.452 232.964 122.939C231.297 122.426 220.685 116.121 217.937 121.308C215.188 126.495 223.41 138.921 224.281 140.327C225.152 141.733 225.053 142.436 224.445 143.024C223.836 143.612 220.468 141.163 217.369 139.491C214.27 137.82 210.382 136.419 209.061 139.52C207.739 142.621 210.23 153.076 225.327 166.741L232.73 172.619L241.694 169.369C260.446 161.254 266.252 152.171 266.03 148.811C265.808 145.451 261.656 145.514 258.177 146.09C254.698 146.667 250.704 147.929 250.318 147.174C249.932 146.419 250.084 145.698 251.365 144.673C252.646 143.647 264.509 134.471 263.615 128.725C262.72 122.979 250.593 125.555 248.845 125.509C247.097 125.463 247.518 123.901 248.184 123.123C248.851 122.345 256.47 113.545 260.083 109.666C263.697 105.787 264.954 102.294 262.878 99.6836C260.878 97.165 255.932 99.6836 253.423 99.9948C250.915 100.306 251.084 97.2053 251.084 97.2053C251.084 97.2053 253.423 89.9089 255.628 75.973C257.832 62.0372 251.301 61.7951 251.301 61.7951" fill="#F5F5F5"/>
<path d="M249.195 74.2495C249.195 74.2495 249.195 74.3475 249.166 74.5434L249.043 75.4022C248.926 76.1687 248.757 77.2811 248.546 78.6988C248.108 81.5805 247.447 85.7071 246.611 90.8019C244.939 101.032 242.518 115.141 239.776 130.719C237.033 146.298 234.572 160.401 232.847 170.619C231.987 175.72 231.291 179.84 230.812 182.722C230.572 184.14 230.385 185.246 230.227 186.013C230.163 186.376 230.116 186.658 230.075 186.866C230.034 187.073 230.011 187.154 230.011 187.154C230.011 187.154 230.011 187.056 230.046 186.86C230.081 186.664 230.116 186.37 230.163 186.001C230.28 185.235 230.449 184.123 230.66 182.705C231.098 179.823 231.759 175.697 232.595 170.602C234.267 160.372 236.688 146.257 239.436 130.679C242.185 115.1 244.658 101.003 246.412 90.7616C247.266 85.661 247.962 81.5402 248.447 78.6585L249.002 75.3676L249.154 74.5146C249.163 74.4256 249.177 74.3371 249.195 74.2495Z" fill="#B3B3B3"/>
<path d="M233.35 99.7642C233.51 99.9267 233.651 100.107 233.771 100.3C234.028 100.657 234.355 101.182 234.811 101.833C235.671 103.142 236.811 104.974 238.027 107.02L241.121 112.282L242.062 113.867C242.195 114.044 242.304 114.238 242.383 114.443C242.221 114.284 242.078 114.106 241.957 113.913C241.705 113.556 241.372 113.031 240.928 112.374C240.08 111.055 238.963 109.205 237.747 107.159L234.618 101.92C234.244 101.297 233.923 100.767 233.665 100.335C233.535 100.159 233.429 99.9672 233.35 99.7642Z" fill="#B3B3B3"/>
<path d="M243.272 114.392C243.219 114.317 246.956 111.838 251.616 108.847C256.276 105.856 260.083 103.499 260.135 103.568C260.188 103.637 256.446 106.127 251.791 109.112C247.137 112.098 243.319 114.455 243.272 114.392Z" fill="#B3B3B3"/>
<path d="M237.975 138.113C238.185 138.011 238.407 137.932 238.635 137.877L240.46 137.33C241.997 136.863 244.126 136.217 246.441 135.416C248.757 134.615 250.838 133.837 252.341 133.255L254.095 132.569C254.308 132.467 254.535 132.393 254.768 132.35C254.574 132.481 254.366 132.591 254.148 132.679C253.739 132.875 253.148 133.145 252.394 133.462C250.92 134.096 248.85 134.921 246.547 135.716C244.243 136.511 242.079 137.134 240.524 137.543C239.74 137.745 239.109 137.9 238.665 137.998C238.44 138.064 238.208 138.102 237.975 138.113Z" fill="#B3B3B3"/>
<path d="M226.047 126.84C226.234 126.95 226.407 127.081 226.561 127.232C226.877 127.497 227.333 127.889 227.883 128.385C228.994 129.37 230.508 130.742 232.169 132.269C233.829 133.797 235.32 135.197 236.391 136.223C236.923 136.73 237.349 137.151 237.642 137.445C237.803 137.588 237.948 137.749 238.075 137.923C237.885 137.819 237.712 137.689 237.56 137.537C237.238 137.272 236.788 136.874 236.233 136.384C235.128 135.405 233.607 134.033 231.947 132.5C230.286 130.967 228.795 129.572 227.731 128.552C227.193 128.039 226.766 127.624 226.474 127.324C226.311 127.182 226.167 127.019 226.047 126.84Z" fill="#B3B3B3"/>
<path d="M218.668 147.208C218.904 147.354 219.124 147.524 219.323 147.716L221.024 149.185C222.451 150.436 224.404 152.177 226.556 154.119C228.708 156.061 230.649 157.83 232.023 159.121L233.654 160.666C233.868 160.838 234.064 161.031 234.239 161.242C234.006 161.093 233.787 160.923 233.584 160.735L231.883 159.265C230.456 158.015 228.503 156.269 226.351 154.332C224.199 152.396 222.258 150.62 220.89 149.329L219.241 147.819C219.029 147.636 218.837 147.431 218.668 147.208Z" fill="#B3B3B3"/>
<path d="M233.946 160.821C234.211 160.692 234.487 160.586 234.771 160.504L237.063 159.726C238.992 159.069 241.659 158.153 244.576 157.064C247.494 155.974 250.108 154.925 251.991 154.153L254.23 153.237C254.499 153.112 254.779 153.011 255.066 152.937C254.821 153.102 254.558 153.241 254.283 153.352C253.768 153.6 253.02 153.928 252.084 154.355C250.219 155.185 247.611 156.268 244.688 157.358C241.764 158.447 239.086 159.346 237.133 159.922C236.157 160.222 235.379 160.452 234.794 160.602C234.52 160.703 234.236 160.776 233.946 160.821Z" fill="#B3B3B3"/>
<path d="M45.7606 184.907C59.2617 177.311 63.6471 161.358 64.4716 146.736C64.6119 144.292 65.1206 141.756 64.1441 139.514C63.1676 137.272 60.5656 135.566 58.2619 136.391C56.3498 137.076 55.3383 139.105 54.1688 140.754C52.582 142.947 50.3992 144.655 47.8714 145.681C46.2225 146.344 44.2345 146.655 42.761 145.681C40.7379 144.327 40.7554 141.405 41.0068 138.99C41.4707 134.471 41.917 129.961 42.3458 125.458C42.5856 123.043 42.8253 120.57 42.2757 118.207C41.726 115.844 40.235 113.55 37.9604 112.697C35.6859 111.844 32.6687 112.905 31.9554 115.233C31.663 116.202 31.7683 117.239 31.6104 118.236C31.4525 119.233 30.8678 120.305 29.8563 120.501C28.8447 120.697 27.9325 119.925 27.2659 119.147C24.9271 116.472 23.5296 113.17 22.214 109.891C20.8984 106.611 19.6354 103.274 17.583 100.398C15.5307 97.5224 12.5486 95.1306 9.05198 94.6349C5.55536 94.1393 1.60852 95.9259 0.403996 99.2456C-0.800524 102.565 0.889312 106.219 2.83058 109.182C5.7261 113.566 9.24718 117.516 13.2853 120.91C14.0104 121.521 14.7939 122.184 15.0395 123.106C15.4196 124.766 13.718 126.23 12.0574 126.616C10.1688 127.048 8.19829 126.679 6.26872 126.731C4.33915 126.783 2.17569 127.423 1.29277 129.146C0.0531651 131.526 1.91257 134.333 3.81875 136.195C7.63891 139.971 12.0916 143.069 16.9808 145.353C18.7349 146.165 20.5709 146.909 21.9099 148.292C23.2489 149.675 23.9272 151.929 22.8923 153.554C21.8573 155.179 19.5418 155.525 17.6824 155.006C15.823 154.488 14.2267 153.323 12.4843 152.494C9.22739 150.932 4.84785 150.765 2.42127 153.444C0.824992 155.208 0.45662 157.825 0.965325 160.142C1.47403 162.458 2.74871 164.533 4.12865 166.481C8.95257 173.224 15.4079 178.884 22.9917 182.267C30.5755 185.65 37.7499 187.028 45.7957 184.93" fill="#F5F5F5"/>
<path d="M44.9533 195.73C44.8914 188.908 44.1689 182.107 42.7957 175.42C41.0759 167.256 38.8836 159.195 36.2293 151.277L34.1594 145.047C33.4811 143.001 32.8087 140.972 32.0252 139.024C30.5187 135.293 28.8028 131.647 26.8855 128.103C25.0787 124.708 23.2427 121.55 21.5002 118.611C19.7578 115.671 18.0679 112.962 16.4307 110.542C13.8612 106.743 10.991 103.151 7.84705 99.7989C6.73609 98.6116 5.84732 97.7183 5.23336 97.1189L4.5317 96.4446C4.45408 96.365 4.36999 96.2917 4.28027 96.2256C4.34614 96.3133 4.41845 96.3961 4.49662 96.4734L5.16904 97.1823C5.75376 97.799 6.63084 98.7154 7.71842 99.9199C10.8057 103.314 13.63 106.932 16.1676 110.744C17.7873 113.147 19.4479 115.861 21.1786 118.812C22.9094 121.763 24.7337 124.921 26.523 128.31C28.4259 131.838 30.1338 135.465 31.6392 139.174C32.4111 141.111 33.0776 143.122 33.7501 145.174C34.4225 147.226 35.1066 149.301 35.8024 151.41C38.4475 159.308 40.6455 167.345 42.3864 175.484C43.7729 182.143 44.5246 188.916 44.6317 195.713" fill="#B3B3B3"/>
<path d="M31.9199 138.996C32.0752 138.675 32.1891 138.336 32.2591 137.987C32.452 137.33 32.6918 136.373 32.9783 135.18C33.563 132.8 34.2237 129.492 34.9546 125.838C35.6855 122.184 36.4047 118.893 37.0128 116.53C37.311 115.377 37.5625 114.392 37.7496 113.735C37.8637 113.398 37.9421 113.05 37.9835 112.697C37.8102 113.009 37.6747 113.34 37.58 113.683C37.3461 114.328 37.0421 115.274 36.7029 116.449C36.0129 118.795 35.2411 122.092 34.5102 125.751L32.6625 135.14C32.4345 136.264 32.2415 137.215 32.0778 137.975C31.9927 138.31 31.9398 138.651 31.9199 138.996Z" fill="#B3B3B3"/>
<path d="M0.895508 130.333C1.30229 130.455 1.71899 130.542 2.14096 130.592C2.94787 130.737 4.11146 130.938 5.53817 131.238C8.40329 131.814 12.3267 132.725 16.6127 133.929C20.8987 135.134 24.7286 136.402 27.4768 137.388C28.8509 137.872 29.956 138.292 30.7161 138.581C31.1031 138.755 31.5066 138.892 31.9207 138.99C31.5627 138.761 31.1828 138.568 30.7863 138.413C30.0437 138.073 28.9561 137.607 27.5879 137.082C24.8631 136.01 21.039 134.702 16.7355 133.486C13.07 132.439 9.35209 131.579 5.59664 130.909C4.15824 130.656 2.98295 130.5 2.17019 130.408C1.74898 130.341 1.32188 130.315 0.895508 130.333Z" fill="#B3B3B3"/>
<path d="M42.457 174.815C42.5587 174.707 42.6434 174.585 42.7085 174.452L43.3575 173.374C43.9422 172.441 44.679 171.069 45.6028 169.34C47.4564 165.916 49.8713 161.104 52.4557 155.756C55.0402 150.407 57.4024 145.577 59.1858 142.119L61.3025 138.027L61.8872 136.909C61.9592 136.782 62.0161 136.646 62.0568 136.506C61.9581 136.614 61.8736 136.734 61.8054 136.863L61.1622 137.941C60.6067 138.88 59.8407 140.246 58.911 141.975C57.0574 145.405 54.6484 150.217 52.0581 155.565C49.4678 160.914 47.1114 165.738 45.3338 169.202L43.2113 173.294L42.6266 174.412C42.5514 174.538 42.4943 174.673 42.457 174.815Z" fill="#B3B3B3"/>
<path d="M1.74902 157.698C1.87264 157.786 2.00853 157.856 2.15248 157.905L3.32192 158.418L7.67807 160.262C11.3618 161.813 16.4488 164.02 22.0037 166.464C27.5585 168.908 32.6689 171.075 36.3877 172.55C38.2413 173.293 39.7499 173.876 40.8023 174.279L42.0127 174.717C42.1518 174.774 42.297 174.814 42.4454 174.838C42.3246 174.749 42.1904 174.679 42.0478 174.631L40.8784 174.118L36.4988 172.256C32.8151 170.7 27.7281 168.493 22.1732 166.049C16.6184 163.605 11.5021 161.438 7.78916 159.963C5.93561 159.225 4.42703 158.637 3.37454 158.234L2.16417 157.801C2.03039 157.751 1.89105 157.716 1.74902 157.698Z" fill="#B3B3B3"/>
<path d="M87.2702 11.0542V58.6251H17.9577L15.4609 11.3885L87.2702 11.0542Z" fill="#B3B3B3"/>
<path d="M15.4609 11.3942L15.4609 58.5271L84.7734 58.5271V11.3942L15.4609 11.3942Z" fill="white"/>
<path d="M85.106 58.8499H15.1328V11.0657H85.106V58.8499ZM15.7935 58.1986H84.4453V11.7112H15.7935V58.1986Z" fill="#B3B3B3"/>
<path d="M77.2657 17.2441H22.9688V52.6659H77.2657V17.2441Z" fill="white"/>
<path d="M77.2711 17.2441H77.0021H76.2595H73.2774L62.0859 17.2844L22.9975 17.3593L23.1554 17.2037C23.1554 28.0273 23.1554 40.0209 23.1554 52.6255L22.98 52.4583L77.2828 52.4929L77.1424 52.6255C77.1775 41.8479 77.2009 33.03 77.2185 26.8574C77.2185 23.7797 77.2184 21.3764 77.2535 19.7281C77.2535 18.9154 77.2535 18.2872 77.2535 17.855C77.2535 17.4227 77.2535 17.2037 77.2535 17.2037C77.2535 17.2037 77.2535 17.4112 77.2535 17.8262C77.2535 18.2411 77.2535 18.8693 77.2535 19.6762C77.2535 21.313 77.2535 23.7106 77.2886 26.7709C77.2886 32.9435 77.3296 41.8133 77.3588 52.6255V52.7638H77.2243L22.9215 52.7984H22.752V52.6255C22.752 40.0209 22.752 28.0273 22.752 17.2037V17.0481H22.904L62.0801 17.1288L73.2365 17.1691H76.1601H76.9144L77.2711 17.2441Z" fill="#B3B3B3"/>
<path d="M15.4492 11.2559C15.8675 11.4641 16.2599 11.7194 16.6186 12.0166C17.332 12.5238 18.2968 13.2385 19.3376 14.0626C20.3784 14.8868 21.2964 15.6591 21.9454 16.2412C22.317 16.5324 22.6491 16.8694 22.9336 17.244C22.8693 17.3189 21.1794 15.9645 19.1212 14.322C17.063 12.6794 15.4024 11.3365 15.4492 11.2559Z" fill="#B3B3B3"/>
<path d="M84.7793 11.3884C83.6389 12.4933 82.4196 13.516 81.1306 14.4488C79.9141 15.4707 78.6243 16.4049 77.2715 17.244C78.4194 16.1406 79.6445 15.118 80.9377 14.1837C82.1492 13.1631 83.433 12.229 84.7793 11.3884Z" fill="#B3B3B3"/>
<path d="M84.7202 58.5328L76.9961 52.3545L84.7202 58.5328Z" fill="white"/>
<path d="M76.9959 52.3545C78.3837 53.2532 79.7099 54.2409 80.9662 55.3111C82.2919 56.2977 83.5462 57.3743 84.7201 58.5328C83.3307 57.6364 82.0043 56.6486 80.7498 55.5762C78.5981 53.876 76.9316 52.4294 76.9959 52.3545Z" fill="#B3B3B3"/>
<path d="M15.4492 58.5272C16.5787 57.4329 17.7863 56.4198 19.0628 55.4957C20.2677 54.486 21.5437 53.5615 22.881 52.7292C21.7544 53.8245 20.5487 54.8376 19.2733 55.7608C18.0664 56.7707 16.7885 57.6952 15.4492 58.5272Z" fill="#B3B3B3"/>
<path d="M33.9961 28.2867V40.1477H68.1612V28.2867H33.9961Z" fill="#B3B3B3"/>
<path d="M247.325 0H210.266V52.9482H247.325V0Z" fill="#B3B3B3"/>
<path d="M245.472 0H208.412V52.9482H245.472V0Z" fill="#F5F5F5"/>
<path d="M240.864 5.73462H213.014V47.2137H240.864V5.73462Z" fill="white"/>
<path d="M240.87 47.2135C240.87 47.2135 240.87 47.1443 240.87 47.0118V46.4354C240.87 45.911 240.87 45.1502 240.87 44.1589C240.87 42.1705 240.87 39.2773 240.87 35.6176C240.87 28.3039 240.84 17.9413 240.823 5.74598L240.916 5.83819H213.014L213.119 5.74022C213.119 21.3878 213.119 35.8135 213.119 47.2366L213.037 47.1559L233.309 47.202H238.911H240.384H240.893H240.402H238.946H233.362L213.037 47.2423H212.961V47.1616C212.961 35.7559 212.961 21.3302 212.961 5.66529V5.63647H241.027V5.72869C241.027 17.9528 240.998 28.3269 240.986 35.6579C240.986 39.3061 240.986 42.1994 240.957 44.182C240.957 45.1617 240.957 45.911 240.957 46.4354V47.0118C240.87 47.1501 240.87 47.2135 240.87 47.2135Z" fill="#B3B3B3"/>
<path d="M245.576 0C245.388 0.335732 245.167 0.652334 244.916 0.945196C244.483 1.52153 243.875 2.28806 243.162 3.12375C242.448 3.95944 241.811 4.69716 241.325 5.22162C241.085 5.51695 240.819 5.79082 240.53 6.04002C240.739 5.71663 240.975 5.41192 241.238 5.12941L243.021 2.99696C243.694 2.18432 244.308 1.45237 244.805 0.858745C245.037 0.551423 245.295 0.264136 245.576 0Z" fill="#B3B3B3"/>
<path d="M241.01 47.0811C242.397 49.2502 244.027 51.2588 245.869 53.0692L241.01 47.0811Z" fill="white"/>
<path d="M245.869 53.0692C245.56 52.845 245.276 52.5901 245.021 52.3084C244.524 51.8128 243.851 51.1039 243.185 50.274C242.612 49.5632 242.075 48.8245 241.577 48.0608C241.349 47.7547 241.153 47.4264 240.992 47.0811C241.244 47.3646 241.473 47.6671 241.676 47.9859C242.086 48.5622 242.659 49.323 243.325 50.1472C243.992 50.9713 244.635 51.6975 245.109 52.2105C245.383 52.4783 245.637 52.7653 245.869 53.0692Z" fill="#B3B3B3"/>
<path d="M208.406 52.9078L213.259 47.0061L208.406 52.9078Z" fill="white"/>
<path d="M213.259 47.0061C212.535 48.0513 211.754 49.0575 210.921 50.0203C209.576 51.6456 208.453 52.9424 208.412 52.902C209.138 51.8578 209.919 50.8517 210.751 49.8878C211.536 48.885 212.373 47.9232 213.259 47.0061Z" fill="#B3B3B3"/>
<path d="M208.406 0C209.236 0.883946 210.017 1.81127 210.745 2.77795C211.529 3.69939 212.263 4.66131 212.944 5.65964C212.112 4.77739 211.331 3.84996 210.605 2.88169C209.821 1.96025 209.087 0.998324 208.406 0Z" fill="#B3B3B3"/>
<path d="M232.187 14.1548H222.86V40.2514H232.187V14.1548Z" fill="#B3B3B3"/>
<path d="M260.423 215.827C260.423 215.914 203.459 215.977 133.217 215.977C62.9749 215.977 6 215.937 6 215.827C6 215.718 62.9457 215.677 133.217 215.677C203.489 215.677 260.423 215.769 260.423 215.827Z" fill="#263238"/>
<path d="M182.65 116.121C183.084 117.861 183.033 119.685 182.503 121.399C181.973 123.113 180.983 124.655 179.638 125.861C177.855 127.417 175.545 128.316 173.908 130.028C172.895 131.166 172.198 132.544 171.885 134.026C171.573 135.509 171.655 137.046 172.125 138.488C172.621 139.92 173.408 141.237 174.436 142.36C175.464 143.484 176.713 144.39 178.106 145.024C180.004 145.898 182.085 146.317 184.178 146.247C186.271 146.177 188.318 145.619 190.151 144.621C194.671 142.102 197.303 137.047 197.969 131.97C198.636 126.892 197.589 121.751 196.215 116.812" fill="#263238"/>
<path d="M239.654 205.655C244.332 204.9 248.717 206.306 253.348 207.315C254.58 207.674 255.88 207.743 257.143 207.516C259.149 207.009 260.576 205.084 260.885 203.067C261.136 201.3 260.72 199.503 259.716 198.018C259.313 197.378 258.765 196.839 258.114 196.445C257.417 196.1 256.654 195.904 255.874 195.868C253.037 195.643 250.189 196.173 247.63 197.402C245.078 198.625 242.762 200.279 240.789 202.289C239.806 203.257 240.099 204.369 239.666 205.672" fill="#263238"/>
<path d="M144.818 131.238C144.068 126.842 144.16 122.346 145.087 117.983C145.48 115.849 146.273 113.806 147.426 111.96C147.819 111.271 148.417 110.718 149.139 110.375C149.664 110.203 150.227 110.179 150.765 110.304C151.303 110.429 151.795 110.699 152.186 111.084C152.685 111.596 153.069 112.208 153.311 112.878C153.553 113.547 153.648 114.26 153.589 114.968C153.485 116.385 153.133 117.773 152.548 119.072C150.742 123.625 147.871 127.406 144.801 131.233" fill="#263238"/>
<path d="M235.449 147.9C236.508 148.643 260.007 198.537 260.007 198.537C258.117 197.741 256.024 197.54 254.014 197.961L252.739 198.295C250.458 198.899 248.294 199.873 246.337 201.177L239.63 205.649C239.365 205.499 239.14 205.288 238.974 205.034C238.808 204.78 238.706 204.491 238.677 204.191V204.001L220.457 173.178L235.449 147.9Z" fill="#607274"/>
<path d="M147.21 68.4692L153.478 103.586C155.495 108.311 179.019 136.944 179.019 136.944L171.242 161.577L140.345 119.936C137.476 116.913 135.916 112.906 135.995 108.767L137.2 71.2472L147.21 68.4692Z" fill="#FFBE9D"/>
<path d="M180.569 131.44L196.701 132.645L210.769 134.794C210.769 134.794 235.45 141.186 235.45 143.849C235.45 144.736 228.714 165.882 224.925 178.55C223.997 181.627 223.239 184.751 222.657 187.91L235.45 215.827H174.739V190.232C174.739 190.232 170.646 156.614 171.365 152.021C172.084 147.428 180.569 131.44 180.569 131.44Z" fill="#607274"/>
<path d="M139.556 54.2798C139.651 50.7031 140.022 47.1386 140.667 43.6175C140.754 43.1161 140.965 42.511 141.474 42.4649C142.105 42.3842 142.427 43.1853 142.508 43.8077C143.069 48.0542 142.889 52.3639 141.976 56.5506" fill="#EB996E"/>
<path d="M146.748 128.639C153.671 122.541 153.905 111.977 153.314 103.568C153.199 102.954 153.293 102.32 153.583 101.764C154.244 100.836 155.852 101.188 156.507 102.122C157.162 103.055 157.092 104.283 157.056 105.413C157.413 104.456 158.933 104.462 159.647 105.199C160.36 105.937 160.483 107.049 160.565 108.081L160.793 110.894L181.018 129.913C181.018 129.913 181.574 128.184 183.059 129.181C184.544 130.178 185.503 132.281 185.503 132.281L171.253 162.937L144.807 131.238C145.315 130.279 145.97 129.403 146.748 128.639Z" fill="#607274"/>
<path d="M174.195 149.854C172.084 152.507 170.509 155.533 169.552 158.77C168.599 162.028 168.703 165.498 169.85 168.694C170.738 170.906 172.192 172.853 174.07 174.346C175.948 175.839 178.187 176.827 180.568 177.213" fill="#607274"/>
<path d="M239.654 205.655L238.888 215.827H253.874L257.382 197.817C252.817 197.565 248.315 198.956 244.711 201.73L239.654 205.655Z" fill="#FFBE9D"/>
<path d="M153.794 126.386C153.879 126.106 153.988 125.834 154.121 125.573C154.355 125.066 154.671 124.316 155.028 123.383C155.384 122.449 155.764 121.32 156.121 120.052C156.492 118.668 156.787 117.265 157.004 115.85C157.206 114.434 157.329 113.009 157.372 111.579C157.372 110.26 157.372 109.072 157.291 108.075C157.209 107.078 157.133 106.277 157.057 105.724C157.006 105.436 156.979 105.145 156.975 104.854C157.07 105.131 157.136 105.416 157.174 105.706C157.325 106.484 157.437 107.269 157.507 108.058C157.621 109.23 157.67 110.408 157.653 111.585C157.609 114.472 157.184 117.341 156.39 120.121C156.064 121.254 155.673 122.368 155.221 123.458C154.835 124.391 154.49 125.129 154.221 125.625C154.098 125.889 153.955 126.143 153.794 126.386Z" fill="#263238"/>
<path d="M158.196 121.031C158.387 120.535 158.606 120.05 158.851 119.579C159.875 117.24 160.469 114.74 160.605 112.196C160.604 111.666 160.634 111.137 160.693 110.611C160.808 111.133 160.851 111.668 160.822 112.202C160.802 114.786 160.203 117.335 159.068 119.665C158.844 120.159 158.551 120.619 158.196 121.031Z" fill="#263238"/>
<path d="M181.948 136.973C181.901 136.944 182.146 136.569 182.287 135.889C182.451 135 182.399 134.086 182.135 133.221C181.857 132.35 181.519 131.499 181.123 130.673C180.938 130.332 180.801 129.967 180.714 129.59C180.945 129.898 181.141 130.23 181.299 130.581C181.761 131.393 182.136 132.251 182.415 133.14C182.695 134.051 182.717 135.019 182.48 135.941C182.406 136.328 182.221 136.686 181.948 136.973Z" fill="#263238"/>
<path d="M178.434 177.57C178.342 177.533 178.256 177.484 178.177 177.426L177.487 176.976C176.902 176.579 176.031 175.997 175.013 175.207C173.811 174.294 172.711 173.257 171.733 172.112C170.53 170.695 169.663 169.032 169.195 167.242C168.749 165.452 168.634 163.597 168.856 161.767C169.035 160.282 169.371 158.82 169.856 157.404C170.178 156.45 170.551 155.513 170.973 154.597C171.125 154.275 171.242 154.021 171.33 153.86C171.368 153.77 171.417 153.685 171.476 153.606C171.365 153.959 171.234 154.305 171.084 154.643C170.821 155.3 170.441 156.257 170.061 157.467C169.612 158.877 169.302 160.327 169.137 161.796C168.933 163.593 169.052 165.411 169.488 167.167C169.943 168.917 170.783 170.546 171.949 171.939C172.907 173.077 173.978 174.115 175.148 175.04C176.142 175.847 176.978 176.452 177.557 176.884L178.212 177.38C178.364 177.495 178.44 177.559 178.434 177.57Z" fill="#263238"/>
<path d="M211.558 183.27C211.477 183.312 211.391 183.343 211.301 183.362C211.126 183.408 210.874 183.495 210.541 183.558C209.599 183.759 208.64 183.873 207.676 183.898C204.463 183.995 201.294 183.142 198.577 181.448C195.86 179.755 193.72 177.298 192.432 174.394C192.04 173.526 191.732 172.623 191.514 171.697C191.432 171.369 191.403 171.121 191.368 170.936C191.348 170.847 191.338 170.757 191.339 170.666C191.459 170.991 191.556 171.324 191.631 171.663C192.562 175.142 194.646 178.216 197.552 180.394C200.458 182.572 204.019 183.731 207.67 183.685C208.624 183.68 209.577 183.599 210.518 183.443C210.861 183.367 211.209 183.31 211.558 183.27Z" fill="#263238"/>
<path d="M220.861 194.503C220.78 194.503 221.551 191.292 222.616 187.385C223.68 183.477 224.557 180.325 224.633 180.348C224.709 180.371 223.943 183.552 222.908 187.46C221.873 191.367 220.943 194.503 220.861 194.503Z" fill="#263238"/>
<path d="M229.018 187.708C228.947 187.748 226.597 183.961 223.755 179.247C220.913 174.533 218.692 170.677 218.768 170.637C218.844 170.596 221.188 174.377 224.03 179.091C226.872 183.806 229.117 187.662 229.018 187.708Z" fill="#263238"/>
<path d="M251.465 197.039C251.465 197.096 250.612 197.166 249.278 197.5C248.5 197.695 247.736 197.943 246.992 198.243C246.085 198.622 245.209 199.069 244.373 199.58C243.547 200.104 242.765 200.692 242.034 201.338C241.438 201.875 240.881 202.453 240.367 203.067C239.49 204.11 239.058 204.842 239.005 204.796C239.075 204.61 239.168 204.432 239.28 204.266C239.551 203.794 239.858 203.343 240.198 202.917C240.697 202.281 241.247 201.683 241.841 201.131C242.576 200.459 243.371 199.854 244.215 199.321C245.066 198.799 245.962 198.352 246.893 197.984C247.652 197.689 248.434 197.455 249.232 197.287C249.766 197.165 250.31 197.084 250.857 197.045C251.059 197.014 251.263 197.012 251.465 197.039Z" fill="#263238"/>
<path d="M254.33 193.569C254.33 193.632 253.388 193.517 251.886 193.644C251.009 193.722 250.141 193.872 249.289 194.093C247.203 194.64 245.252 195.603 243.559 196.923C242.871 197.463 242.229 198.059 241.641 198.704C240.641 199.811 240.174 200.618 240.121 200.589C240.2 200.385 240.304 200.191 240.431 200.012C240.556 199.79 240.697 199.576 240.852 199.373C241.047 199.094 241.256 198.824 241.478 198.566C242.052 197.889 242.691 197.268 243.384 196.71C244.241 196.032 245.166 195.441 246.144 194.946C247.128 194.472 248.158 194.097 249.219 193.828C250.089 193.613 250.978 193.48 251.874 193.431C252.215 193.414 252.556 193.414 252.897 193.431C253.157 193.432 253.417 193.447 253.675 193.477C253.896 193.48 254.116 193.511 254.33 193.569Z" fill="#263238"/>
<g opacity="0.3">
<path d="M191.964 171.893C190.59 174.464 191.736 177.599 192.993 180.233C193.969 182.273 195.057 184.342 196.834 185.766C197.708 186.469 198.719 186.987 199.806 187.288C200.892 187.588 202.029 187.663 203.147 187.51C204.264 187.356 205.337 186.976 206.298 186.394C207.26 185.813 208.089 185.041 208.733 184.129C205.006 184.074 201.383 182.909 198.34 180.787C195.297 178.665 192.976 175.685 191.683 172.239" fill="black"/>
</g>
<g opacity="0.3">
<path d="M218.808 170.637C217.756 173.109 218.551 176.492 219.65 178.942C220.75 181.391 221.919 184.129 221.036 186.67C220.808 187.122 220.69 187.619 220.691 188.123C220.75 188.618 221.276 189.097 221.749 188.866C221.994 188.697 222.164 188.441 222.223 188.152C223.053 185.685 223.886 183.22 224.72 180.757" fill="black"/>
</g>
<path d="M163.494 138.079C163.588 136.532 163.784 134.992 164.079 133.469C164.277 131.938 164.576 130.421 164.973 128.927C164.885 130.475 164.69 132.016 164.389 133.538C164.192 135.07 163.893 136.587 163.494 138.079Z" fill="#FAFAFA"/>
<path d="M157.337 136.806C157.261 136.852 156.255 135.469 154.864 133.878C153.472 132.287 152.244 131.094 152.303 131.031C153.351 131.786 154.291 132.678 155.098 133.682C155.979 134.623 156.731 135.673 157.337 136.806Z" fill="#FAFAFA"/>
<path d="M162.623 121.959C162.447 122.331 162.225 122.679 161.962 122.997C161.518 123.613 160.869 124.438 160.114 125.302C159.36 126.167 158.635 126.945 158.091 127.475C157.819 127.783 157.506 128.054 157.162 128.282C157.097 128.224 158.378 126.858 159.88 125.106C161.383 123.354 162.553 121.884 162.623 121.959Z" fill="#FAFAFA"/>
<path d="M160.559 114.703C160.471 114.738 160.138 114.006 159.495 113.274C158.852 112.542 158.162 112.121 158.208 112.035C158.817 112.207 159.349 112.574 159.723 113.078C160.172 113.516 160.466 114.086 160.559 114.703Z" fill="#FAFAFA"/>
<path d="M155.226 119.175C154.748 119.397 154.233 119.528 153.706 119.561C153.195 119.693 152.662 119.724 152.139 119.654C153.127 119.3 154.175 119.138 155.226 119.175Z" fill="#FAFAFA"/>
<path d="M168.681 125.578C168.694 124.681 168.63 123.785 168.488 122.898C168.246 122.033 167.927 121.19 167.535 120.38C168.198 121.051 168.633 121.909 168.781 122.835C169.031 123.738 168.996 124.695 168.681 125.578Z" fill="#FAFAFA"/>
<path d="M175.867 133.198C174.789 131.501 173.341 130.062 171.628 128.985C172.595 129.355 173.472 129.921 174.202 130.647C174.933 131.373 175.5 132.242 175.867 133.198Z" fill="#FAFAFA"/>
<path d="M164.331 146.419C162.59 147.062 160.661 146.998 158.969 146.24C158.998 146.154 160.138 146.517 161.641 146.557C163.144 146.598 164.307 146.333 164.331 146.419Z" fill="#FAFAFA"/>
<path d="M169.745 149.157C169.663 149.122 170.119 147.796 170.499 146.114C170.879 144.431 171.049 143.036 171.137 143.047C171.197 144.102 171.082 145.159 170.797 146.177C170.612 147.22 170.256 148.226 169.745 149.157Z" fill="#FAFAFA"/>
<path d="M181.574 149.6C180.649 148.83 179.794 147.981 179.019 147.064C178.163 146.215 177.381 145.298 176.68 144.321C177.601 145.095 178.454 145.945 179.229 146.862C180.084 147.711 180.868 148.627 181.574 149.6Z" fill="#FAFAFA"/>
<path d="M187.081 163.069C186.38 162.568 185.74 161.988 185.175 161.34C184.541 160.76 183.976 160.11 183.491 159.404C184.192 159.905 184.832 160.486 185.397 161.133C186.037 161.708 186.602 162.358 187.081 163.069Z" fill="#FAFAFA"/>
<path d="M176.843 164.355C176.171 165.06 175.379 165.645 174.504 166.084C173.681 166.624 172.766 167.014 171.803 167.236C171.803 167.156 172.972 166.66 174.352 165.847C175.732 165.035 176.785 164.285 176.843 164.355Z" fill="#FAFAFA"/>
<path d="M181.556 177.167C181.468 177.167 181.819 175.633 181.994 173.737C182.17 171.841 182.117 170.279 182.205 170.279C182.42 171.42 182.451 172.587 182.298 173.737C182.24 174.912 181.989 176.07 181.556 177.167Z" fill="#FAFAFA"/>
<path d="M199.279 166.752C198.313 166.169 197.456 165.426 196.747 164.556C195.965 163.752 195.334 162.817 194.882 161.796C194.958 161.744 195.759 162.994 196.975 164.36C198.191 165.726 199.337 166.677 199.279 166.752Z" fill="#FAFAFA"/>
<path d="M205.752 172.187C205.682 172.135 206.571 170.936 207.565 169.397C208.559 167.859 209.289 166.568 209.366 166.608C208.986 167.656 208.465 168.648 207.816 169.559C207.255 170.525 206.56 171.409 205.752 172.187Z" fill="#FAFAFA"/>
<path d="M204.804 158.885C202.808 158.558 200.849 158.037 198.957 157.329C199.965 157.448 200.96 157.66 201.927 157.963C202.915 158.174 203.879 158.483 204.804 158.885Z" fill="#FAFAFA"/>
<path d="M200.086 182.296C199.982 181.388 199.982 180.472 200.086 179.564C200.093 178.651 200.199 177.741 200.401 176.85C200.506 177.757 200.506 178.674 200.401 179.581C200.396 180.495 200.29 181.405 200.086 182.296Z" fill="#FAFAFA"/>
<path d="M204.167 190.313C204.473 189.382 204.719 188.433 204.904 187.472C204.985 186.496 205 185.516 204.951 184.538C205.252 185.497 205.338 186.51 205.203 187.505C205.068 188.5 204.714 189.454 204.167 190.301V190.313Z" fill="#FAFAFA"/>
<path d="M193.59 188.544C193.292 186.553 193.687 184.521 194.713 182.78C194.794 182.815 194.256 184.031 193.952 185.627C193.648 187.224 193.678 188.538 193.59 188.544Z" fill="#FAFAFA"/>
<path d="M183.942 192.606C182.989 191.954 182.071 191.251 181.194 190.503C180.255 189.832 179.351 189.115 178.486 188.353C179.537 188.869 180.519 189.512 181.41 190.266C182.344 190.946 183.193 191.732 183.942 192.606Z" fill="#FAFAFA"/>
<path d="M190.473 181.299C188.235 182.698 185.889 183.922 183.456 184.959C184.557 184.212 185.714 183.549 186.918 182.976C188.057 182.327 189.246 181.767 190.473 181.299Z" fill="#FAFAFA"/>
<path d="M210.768 206.675C210.644 206.715 210.517 206.746 210.388 206.767C210.137 206.813 209.769 206.906 209.289 206.969C207.935 207.173 206.566 207.26 205.196 207.228C201.659 207.178 198.172 206.388 194.967 204.912C191.762 203.436 188.911 201.306 186.602 198.664C185.261 197.143 184.112 195.467 183.181 193.673C182.547 192.471 182.023 191.215 181.614 189.921C181.457 189.466 181.381 189.102 181.31 188.86C181.271 188.737 181.246 188.609 181.234 188.48C181.29 188.597 181.335 188.718 181.369 188.843C181.457 189.079 181.55 189.419 181.726 189.886C182.847 193.046 184.574 195.963 186.813 198.479C189.127 201.061 191.952 203.149 195.114 204.617C198.276 206.085 201.709 206.901 205.202 207.015C206.568 207.065 207.937 207.011 209.295 206.854C209.78 206.808 210.149 206.733 210.4 206.71C210.521 206.684 210.645 206.673 210.768 206.675Z" fill="#263238"/>
<path d="M193.298 203.689C193.098 202.775 193.194 201.821 193.573 200.963C193.858 200.071 194.423 199.29 195.186 198.733C194.67 199.47 194.226 200.253 193.859 201.073C193.591 201.926 193.403 202.802 193.298 203.689Z" fill="#FAFAFA"/>
<path d="M188.485 201.707C187.93 202.131 187.42 202.61 186.965 203.136C186.585 203.717 186.264 204.333 186.006 204.975C186.025 204.244 186.274 203.538 186.718 202.952C187.162 202.367 187.78 201.932 188.485 201.707Z" fill="#FAFAFA"/>
<path d="M206.991 212.565C206.034 212.49 205.11 212.189 204.296 211.687C203.482 211.186 202.802 210.498 202.313 209.684C203.585 211.037 205.2 212.032 206.991 212.565Z" fill="#FAFAFA"/>
<path d="M209.868 196.601C209.746 197.448 209.382 198.244 208.821 198.896C208.259 199.549 207.521 200.032 206.693 200.289C207.377 199.824 208.011 199.293 208.588 198.704C209.087 198.048 209.516 197.343 209.868 196.601Z" fill="#FAFAFA"/>
<path d="M218.049 208.502C217.979 208.444 218.75 207.482 219.464 206.156C220.177 204.831 220.557 203.661 220.633 203.689C220.302 205.523 219.394 207.206 218.037 208.502H218.049Z" fill="#FAFAFA"/>
<path d="M228.86 210.064C228.895 210.15 227.831 210.565 226.761 211.436C225.691 212.306 225.048 213.24 224.972 213.165C225.308 212.37 225.86 211.681 226.568 211.176C227.212 210.603 228.006 210.218 228.86 210.064Z" fill="#FAFAFA"/>
<path d="M220.616 196.422C220.522 196.451 220.031 194.768 218.937 192.901C217.844 191.033 216.675 189.719 216.751 189.662C217.072 189.884 217.354 190.157 217.587 190.468C218.817 191.886 219.755 193.526 220.347 195.298C220.494 195.657 220.584 196.036 220.616 196.422Z" fill="#FAFAFA"/>
<path d="M222.23 179.265C220.41 179.884 218.528 180.311 216.616 180.538C218.437 179.92 220.318 179.494 222.23 179.265Z" fill="#FAFAFA"/>
<path d="M217.253 174.135C216.585 173.523 215.985 172.843 215.464 172.106C214.868 171.427 214.349 170.687 213.914 169.899C214.588 170.503 215.188 171.181 215.703 171.922C216.304 172.599 216.824 173.341 217.253 174.135Z" fill="#FAFAFA"/>
<path d="M229.603 171.057C227.708 171.011 225.844 170.575 224.13 169.778C225.056 169.934 225.971 170.144 226.872 170.406C227.795 170.568 228.707 170.786 229.603 171.057Z" fill="#FAFAFA"/>
<path d="M238.373 170.902C238.625 170.087 238.923 169.286 239.268 168.504C239.515 167.686 239.813 166.883 240.162 166.101C240.115 166.964 239.917 167.812 239.578 168.608C239.317 169.437 238.909 170.214 238.373 170.902Z" fill="#FAFAFA"/>
<path d="M236.373 182.613C234.56 182.214 232.922 181.257 231.695 179.881C231.754 179.812 232.678 180.607 233.958 181.351C235.239 182.094 236.402 182.527 236.373 182.613Z" fill="#FAFAFA"/>
<path d="M242.068 182.255C242.186 181.099 242.401 179.953 242.712 178.832C242.923 177.692 243.232 176.572 243.635 175.483C243.307 177.784 242.777 180.051 242.051 182.261L242.068 182.255Z" fill="#FAFAFA"/>
<path d="M237.315 195.35C235.856 193.722 234.552 191.964 233.421 190.1C234.187 190.882 234.88 191.73 235.491 192.636C236.182 193.483 236.793 194.392 237.315 195.35Z" fill="#FAFAFA"/>
<path d="M245.431 190.341C245.349 190.382 244.817 189.339 243.975 188.174C243.133 187.01 242.32 186.163 242.384 186.1C243.12 186.607 243.746 187.254 244.226 188.002C244.785 188.693 245.195 189.489 245.431 190.341Z" fill="#FAFAFA"/>
<path d="M253.044 189.218C252.377 188.446 251.753 187.64 251.173 186.803C250.508 186.031 249.884 185.227 249.302 184.394C250.857 185.745 252.129 187.384 253.044 189.218Z" fill="#FAFAFA"/>
<path d="M251.237 194.192C251.133 193.499 250.897 192.832 250.542 192.226C250.114 191.667 249.584 191.19 248.98 190.82C248.98 190.786 249.249 190.82 249.618 190.999C250.093 191.248 250.496 191.613 250.787 192.059C251.085 192.504 251.264 193.015 251.308 193.546C251.366 193.927 251.29 194.192 251.237 194.192Z" fill="#FAFAFA"/>
<path d="M245.32 201.01C245.273 201.01 245.291 200.854 245.244 200.652C245.189 200.393 245.047 200.16 244.841 199.989C244.625 199.832 244.36 199.753 244.092 199.765C243.882 199.765 243.747 199.817 243.724 199.765C243.7 199.713 243.811 199.609 244.063 199.54C244.228 199.497 244.401 199.493 244.569 199.527C244.736 199.561 244.893 199.633 245.028 199.737C245.162 199.84 245.271 199.973 245.345 200.125C245.419 200.277 245.456 200.444 245.455 200.612C245.449 200.889 245.355 201.021 245.32 201.01Z" fill="#FAFAFA"/>
<path d="M184.486 211.908C183.394 211.493 182.402 210.859 181.572 210.045C180.743 209.232 180.094 208.256 179.668 207.182C180.861 209.126 182.514 210.756 184.486 211.931V211.908Z" fill="#FAFAFA"/>
<path d="M147.268 68.8611C146.327 60.095 144.625 51.8476 144.163 43.2544C144.182 43.0389 144.154 42.8221 144.083 42.6177C144.011 42.4132 143.897 42.2258 143.748 42.0671C143.621 41.9938 143.48 41.9467 143.333 41.9288C143.187 41.9109 143.038 41.9225 142.897 41.963C142.755 42.0034 142.623 42.0718 142.509 42.164C142.395 42.2562 142.302 42.3703 142.234 42.4994C141.979 43.0388 141.877 43.6366 141.941 44.2284C141.951 48.7983 141.16 53.3355 139.602 57.6398C138.603 60.435 137.264 63.115 136.515 65.9794C135.767 68.8438 137.176 69.8178 138.486 72.4863" fill="#FFBE9D"/>
<path d="M117.407 34.1425C117.354 34.2059 114.068 31.5721 110.063 28.2581C106.058 24.9442 102.859 22.1778 102.918 22.1374C102.976 22.0971 106.257 24.7079 110.262 28.0276C114.267 31.3473 117.466 34.0792 117.407 34.1425Z" fill="#263238"/>
<path d="M134.083 30.1945C134.002 30.1945 133.668 25.0767 133.347 18.7542C133.025 12.4318 132.826 7.3024 132.908 7.29664C132.99 7.29087 133.323 12.4145 133.651 18.7427C133.978 25.0709 134.165 30.1945 134.083 30.1945Z" fill="#263238"/>
<path d="M123.464 26.5348C123.382 26.5348 122.359 23.6531 121.172 20.0049C119.985 16.3567 119.09 13.4116 119.172 13.3886C119.254 13.3655 120.277 16.2703 121.464 19.9127C122.651 23.5552 123.54 26.5118 123.464 26.5348Z" fill="#263238"/>
<path d="M113.998 39.5485C112.458 39.0146 110.953 38.3891 109.49 37.6754C107.984 37.0496 106.519 36.3317 105.104 35.5256C106.644 36.0595 108.15 36.6851 109.613 37.3987C111.118 38.0258 112.582 38.7437 113.998 39.5485Z" fill="#263238"/>
<path d="M98.6256 32.9263C98.6256 33.007 98.1286 33.0185 97.5381 32.9263C96.9475 32.8341 96.4797 32.7303 96.4914 32.6496C96.5031 32.5689 96.9884 32.5574 97.5731 32.6496C98.1579 32.7418 98.6256 32.8456 98.6256 32.9263Z" fill="#263238"/>
<path d="M119.552 9.6654C119.465 9.6654 119.4 9.19857 119.4 8.61647C119.4 8.03437 119.465 7.56177 119.552 7.56177C119.64 7.56177 119.704 8.03437 119.704 8.61647C119.704 9.19857 119.634 9.6654 119.552 9.6654Z" fill="#263238"/>
<path d="M154.758 17.8032C154.822 17.8608 152.121 20.9096 148.736 24.6155C145.35 28.3213 142.555 31.2837 142.479 31.2261C142.403 31.1684 145.116 28.1254 148.502 24.4138C151.887 20.7021 154.7 17.7513 154.758 17.8032Z" fill="#263238"/>
<path d="M159.056 13.6134C159.115 13.671 158.805 14.0745 158.361 14.5125C157.916 14.9505 157.513 15.2502 157.454 15.1926C157.396 15.1349 157.706 14.7315 158.15 14.2992C158.595 13.867 158.998 13.5327 159.056 13.6134Z" fill="#263238"/>
<path d="M169.476 28.3677C169.225 28.5457 168.959 28.7019 168.681 28.8345C168.161 29.1169 167.401 29.5146 166.453 29.9872C164.553 30.9324 161.893 32.1657 158.899 33.3933C155.905 34.6209 153.139 35.6007 151.116 36.275C150.11 36.6035 149.292 36.8514 148.719 37.0185C148.429 37.1223 148.129 37.1976 147.824 37.2433C148.101 37.1084 148.388 36.9966 148.684 36.909L151.023 36.0733C153.022 35.3644 155.765 34.3443 158.758 33.134C161.752 31.9237 164.413 30.7076 166.36 29.8143L168.628 28.7538C168.901 28.6047 169.184 28.4756 169.476 28.3677Z" fill="#263238"/>
<path d="M160.927 42.5569C160.428 42.7762 159.907 42.9442 159.372 43.0583C158.401 43.3234 157.033 43.6346 155.525 43.894C154.016 44.1533 152.601 44.2974 151.613 44.3666C151.072 44.4345 150.525 44.4442 149.981 44.3954C150.512 44.2748 151.052 44.1939 151.595 44.1533C152.589 44.0323 153.963 43.8479 155.472 43.577C156.981 43.3061 158.343 43.0468 159.325 42.8393C159.849 42.6967 160.386 42.6022 160.927 42.5569Z" fill="#263238"/>
<path d="M168.698 41.1391C167.585 41.3389 166.444 41.3389 165.33 41.1391C166.444 40.9393 167.585 40.9393 168.698 41.1391Z" fill="#263238"/>
<path d="M138.503 72.4748C137.345 71.599 136.447 70.4323 135.902 69.097C135.358 67.7617 135.188 66.3067 135.41 64.8844C135.708 63.1554 136.579 61.5878 137.269 59.974C137.959 58.3603 138.492 56.5679 138.071 54.8677C137.838 54.2366 137.681 53.5809 137.603 52.9139C137.603 52.2453 138.041 51.4961 138.72 51.4673C138.976 51.4877 139.224 51.5665 139.444 51.6975C139.664 51.8285 139.851 52.0082 139.988 52.2223C141.129 53.6113 142.041 57.6687 141.468 60.7002" fill="#FFBE9D"/>
<path d="M141.468 60.7002C141.468 60.7002 141.527 60.2334 141.562 59.3919C141.599 58.2051 141.499 57.0179 141.264 55.8532C141.106 55.0511 140.871 54.2656 140.562 53.5075C140.399 53.0951 140.179 52.7071 139.907 52.3549C139.785 52.1658 139.625 52.0033 139.437 51.8775C139.249 51.7516 139.037 51.665 138.814 51.6229C138.584 51.6337 138.364 51.7184 138.187 51.8641C138.011 52.0099 137.888 52.2086 137.837 52.4298C137.712 52.9211 137.745 53.4387 137.931 53.911C138.127 54.4382 138.265 54.9852 138.34 55.542C138.397 56.1186 138.375 56.7 138.276 57.271C137.866 59.6109 136.603 61.5013 135.937 63.3744C135.608 64.2496 135.432 65.1733 135.416 66.1063C135.413 66.919 135.535 67.7275 135.779 68.5039C136.133 69.6367 136.732 70.6806 137.533 71.5642C138.118 72.1809 138.498 72.4518 138.48 72.4806C138.376 72.4283 138.278 72.3645 138.188 72.2904C137.924 72.0923 137.676 71.8746 137.445 71.6391C136.591 70.7703 135.951 69.7192 135.574 68.5672C135.308 67.7732 135.17 66.9427 135.165 66.1063C135.17 65.1432 135.342 64.1881 135.674 63.2822C136.317 61.3688 137.562 59.4784 137.948 57.2249C138.048 56.6773 138.07 56.1186 138.013 55.5651C137.942 55.024 137.811 54.4924 137.621 53.9801C137.419 53.4508 137.39 52.8723 137.539 52.326C137.626 52.0533 137.786 51.8086 138.001 51.6171C138.109 51.5181 138.236 51.442 138.375 51.3934C138.513 51.3448 138.661 51.3249 138.808 51.3347C139.076 51.3697 139.333 51.4601 139.563 51.6002C139.793 51.7403 139.99 51.9268 140.141 52.1474C140.425 52.5289 140.654 52.9479 140.819 53.3923C141.128 54.1664 141.356 54.9698 141.498 55.7898C141.719 56.9715 141.788 58.176 141.702 59.3746C141.682 59.6999 141.639 60.0234 141.574 60.3429C141.556 60.4663 141.52 60.5867 141.468 60.7002Z" fill="#EB996E"/>
<path d="M217.908 107.504C218.099 108.329 218.552 109.072 219.201 109.625C219.849 110.179 220.66 110.514 221.515 110.582C222.373 110.624 223.226 110.45 223.996 110.077C224.767 109.704 225.428 109.144 225.918 108.45C226.889 107.038 227.28 105.316 227.012 103.631C226.679 101.205 225.041 98.8709 222.667 98.1505C220.293 97.4301 217.341 98.7268 216.686 101.078L213.949 104.842L217.908 107.504Z" fill="#263238"/>
<path d="M214.675 100.11C214.94 98.0245 214.778 95.9076 214.198 93.885C213.617 91.8624 212.63 89.9753 211.296 88.3358C209.961 86.6962 208.306 85.3376 206.429 84.3406C204.551 83.3436 202.49 82.7285 200.367 82.5318C191.883 81.7365 184.334 87.9667 183.065 96.2775C181.948 103.562 180.989 110.916 181.024 113.568C181.13 121.636 185.907 124.76 187.848 125.671C188.545 125.918 189.266 126.094 190 126.195C190.007 126.197 190.013 126.199 190.019 126.203C190.025 126.207 190.03 126.212 190.034 126.218C190.038 126.224 190.04 126.231 190.042 126.238C190.043 126.245 190.042 126.252 190.041 126.259L188.228 135.48C187.404 141.537 190.836 146.943 196.97 147.825C203.103 148.707 207.939 144.056 208.88 137.993L214.675 100.11Z" fill="#FFBE9D"/>
<path d="M184.474 100.986C184.608 101.176 185.684 100.606 187.07 100.807C188.456 101.009 189.362 101.839 189.537 101.689C189.625 101.626 189.502 101.309 189.111 100.928C188.573 100.433 187.893 100.113 187.164 100.012C186.444 99.9089 185.709 100.032 185.064 100.364C184.579 100.623 184.404 100.9 184.474 100.986Z" fill="#263238"/>
<path d="M196.776 103.614C196.91 103.804 197.992 103.234 199.372 103.436C200.752 103.637 201.67 104.467 201.845 104.317C201.927 104.254 201.81 103.937 201.413 103.551C200.876 103.058 200.198 102.74 199.471 102.64C198.752 102.537 198.017 102.66 197.372 102.992C196.899 103.251 196.712 103.528 196.776 103.614Z" fill="#263238"/>
<path d="M191.993 110.058C191.297 109.729 190.563 109.487 189.806 109.337C189.455 109.251 189.134 109.13 189.111 108.888C189.133 108.524 189.268 108.177 189.496 107.891L190.935 105.389C192.94 101.822 194.443 98.8709 194.303 98.7903C194.162 98.7096 192.408 101.539 190.403 105.13L189.005 107.649C188.725 108.04 188.589 108.514 188.619 108.991C188.656 109.118 188.721 109.236 188.809 109.335C188.897 109.435 189.006 109.514 189.128 109.568C189.315 109.647 189.512 109.703 189.713 109.735C190.456 109.937 191.222 110.046 191.993 110.058Z" fill="#263238"/>
<path d="M190.052 126.253C190.052 126.253 195.314 127.452 202.594 124.455C202.594 124.455 199.46 131.111 189.566 128.743L190.052 126.253Z" fill="#EB996E"/>
<path d="M192.093 113.429C192.403 113.148 192.779 112.948 193.188 112.848C193.596 112.747 194.024 112.749 194.432 112.853C194.733 112.926 195.016 113.058 195.265 113.24C195.514 113.422 195.724 113.651 195.882 113.913C196.034 114.167 196.102 114.46 196.078 114.753C196.054 115.046 195.939 115.325 195.747 115.55C195.49 115.764 195.174 115.897 194.839 115.931C194.504 115.965 194.166 115.899 193.87 115.74C193.25 115.422 192.701 114.983 192.257 114.449C192.114 114.319 191.999 114.163 191.918 113.988C191.877 113.906 191.863 113.813 191.878 113.722C191.892 113.631 191.935 113.547 191.999 113.481" fill="#EB996E"/>
<path d="M195.923 111.585C195.701 111.539 195.478 113.02 194.04 113.89C192.602 114.761 191.023 114.363 190.982 114.57C190.947 114.663 191.298 114.911 191.97 115.026C192.847 115.163 193.746 114.991 194.508 114.542C195.239 114.108 195.771 113.412 195.993 112.599C196.139 111.983 196.028 111.591 195.923 111.585Z" fill="#263238"/>
<path d="M197.729 99.1764C197.811 99.5684 199.22 99.5914 200.811 100.018C202.401 100.444 203.658 101.067 203.922 100.767C204.038 100.623 203.863 100.243 203.389 99.8047C202.748 99.2632 201.989 98.8729 201.172 98.6632C200.354 98.4535 199.499 98.4299 198.671 98.5943C198.028 98.7442 197.7 98.992 197.729 99.1764Z" fill="#263238"/>
<path d="M185.871 96.7848C186.064 97.1306 187.07 96.9462 188.21 97.096C189.35 97.2459 190.297 97.6032 190.549 97.315C190.672 97.1709 190.549 96.8366 190.181 96.4851C189.664 96.0506 189.027 95.7779 188.352 95.7019C187.677 95.6259 186.995 95.7501 186.392 96.0586C185.965 96.3179 185.783 96.6176 185.871 96.7848Z" fill="#263238"/>
<path d="M181.463 94.4737C183.153 97.0154 188.52 95.442 191.76 93.6957C193.452 94.7596 195.498 95.1308 197.464 94.7304C199.429 94.33 201.159 93.1896 202.285 91.5517C204.138 93.857 207.91 93.1078 209.301 90.4855C210.693 87.8631 209.886 84.2495 208.015 81.9557C206.144 79.6618 203.372 78.4976 200.647 78.0078C194.186 76.8551 187.152 79.2988 183.287 85.0564C181.504 87.7133 180.434 91.2923 181.492 94.4737" fill="#263238"/>
<path d="M199.32 78.9123C199.32 79.0276 197.793 78.7394 195.396 79.1313C192.282 79.6419 189.428 81.156 187.28 83.4366C185.259 85.8243 183.922 88.7018 183.409 91.7704C183.232 93.0496 183.163 94.3413 183.205 95.6319C183.08 95.2988 183.007 94.949 182.988 94.5945C182.886 93.6356 182.902 92.668 183.035 91.7128C183.459 88.5252 184.803 85.5247 186.906 83.0677C189.129 80.6949 192.124 79.1636 195.373 78.7394C196.342 78.6109 197.323 78.5954 198.296 78.6933C198.647 78.7143 198.992 78.7882 199.32 78.9123Z" fill="#455A64"/>
<path d="M190.584 90.7617C190.487 90.4698 190.444 90.1636 190.455 89.8568C190.424 89.0208 190.513 88.1846 190.718 87.3728C191.031 86.0114 191.623 84.7274 192.458 83.6C193.293 82.4726 194.354 81.5255 195.574 80.8172C196.795 80.1089 198.149 79.6542 199.554 79.4812C200.96 79.3082 202.386 79.4205 203.746 79.8113C204.566 80.033 205.353 80.3626 206.085 80.791C206.367 80.9356 206.619 81.1311 206.827 81.3674C205.807 80.8917 204.747 80.506 203.658 80.2147C201.01 79.5498 198.202 79.9436 195.847 81.3104C193.493 82.6771 191.781 84.906 191.087 87.5111C190.514 89.4361 190.695 90.7617 190.584 90.7617Z" fill="#455A64"/>
<path d="M206.085 87.9957C205.451 90.2516 205.086 92.5726 204.997 94.9118C204.91 97.264 205.651 99.5735 207.096 101.447C209.353 104.127 213.119 104.946 216.592 105.597C218.45 101.029 219.01 96.0473 218.212 91.1886C217.814 88.8314 217.042 86.4281 215.358 84.7106C214.106 83.4932 212.48 82.7196 210.734 82.511C208.988 82.3024 207.221 82.6706 205.711 83.5579" fill="#263238"/>
<path d="M208.015 99.1533C207.103 101.101 207.167 103.355 207.483 105.493C207.798 107.631 208.348 109.723 208.325 111.867C208.301 114.011 207.611 116.288 205.904 117.631C205.386 117.971 204.901 118.357 204.454 118.783C204.233 119 204.086 119.278 204.031 119.58C203.977 119.883 204.018 120.194 204.15 120.472C204.477 120.991 205.465 120.979 205.606 120.386L205.518 120.535C205.432 120.679 205.385 120.842 205.384 121.009C205.382 121.176 205.424 121.34 205.507 121.486C205.59 121.631 205.711 121.752 205.856 121.838C206.002 121.923 206.167 121.969 206.337 121.971C206.934 121.942 207.519 121.794 208.056 121.534C208.593 121.274 209.071 120.909 209.459 120.461C210.576 119.187 211.02 117.475 211.312 115.85C212.213 110.761 212.038 105.476 213.464 100.513" fill="#263238"/>
<path d="M188.187 132.575C188.589 134.309 189.366 135.937 190.463 137.349C191.561 138.76 192.953 139.923 194.547 140.757C196.14 141.591 197.897 142.078 199.699 142.184C201.5 142.29 203.303 142.012 204.986 141.37C208.015 140.218 210.459 137.97 212.815 135.774C213.237 138.274 213.121 140.833 212.474 143.286C211.828 145.738 210.666 148.03 209.063 150.011C207.46 151.993 205.453 153.62 203.171 154.787C200.889 155.954 198.384 156.636 195.817 156.787C191.941 157.018 187.777 155.854 185.339 152.874C183.638 150.799 182.954 148.05 183 145.382C183.118 142.709 183.635 140.068 184.532 137.544C185.222 135.365 186.316 132.933 188.549 132.328" fill="#607274"/>
<path d="M215.925 105.747C218.264 106.986 219.516 109.579 219.966 112.138C220.416 114.697 220.188 117.325 220.299 119.913C220.41 122.501 220.913 125.221 222.58 127.232C224.334 129.376 227.111 130.391 229.596 131.699C235.046 134.581 239.536 139.497 241.174 145.387C242.811 151.277 241.326 158.066 236.853 162.303C232.76 166.141 226.854 167.49 221.217 167.49C217.2 167.49 212.786 166.637 210.277 163.542C207.769 160.447 207.938 156.107 208.815 152.292C209.692 148.476 211.3 144.77 211.365 140.857C210.764 143.28 209.718 145.573 208.277 147.623C207.862 148.2 207.155 148.834 206.523 148.499C205.892 148.165 206.085 147.087 206.412 146.367C211.254 135.745 209.57 114.334 212.441 102.605" fill="#263238"/>
<path d="M211.938 104.542C212.084 104.496 217.739 103.441 217.008 108.951C216.277 114.461 210.821 112.605 210.833 112.449C210.845 112.294 211.938 104.542 211.938 104.542Z" fill="#FFBE9D"/>
<path d="M212.815 110.582C212.815 110.582 212.903 110.657 213.061 110.755C213.279 110.882 213.539 110.921 213.786 110.865C214.406 110.726 215.026 109.862 215.184 108.876C215.257 108.404 215.225 107.922 215.09 107.464C215.06 107.285 214.987 107.116 214.876 106.971C214.765 106.827 214.619 106.711 214.453 106.634C214.348 106.598 214.233 106.596 214.127 106.631C214.021 106.665 213.93 106.733 213.868 106.824C213.774 106.968 213.792 107.084 213.763 107.09C213.733 107.095 213.657 106.98 213.728 106.761C213.778 106.628 213.873 106.516 213.997 106.444C214.084 106.393 214.18 106.359 214.281 106.346C214.382 106.333 214.484 106.341 214.581 106.369C214.805 106.444 215.006 106.573 215.164 106.746C215.323 106.918 215.434 107.128 215.488 107.355C215.661 107.863 215.707 108.404 215.622 108.934C215.441 110.04 214.727 111.003 213.868 111.13C213.712 111.154 213.553 111.144 213.402 111.099C213.251 111.054 213.112 110.976 212.997 110.87C212.81 110.715 212.798 110.588 212.815 110.582Z" fill="#EB996E"/>
<path d="M182.41 144.448C182.684 143.86 183.001 143.291 183.357 142.748C184.172 141.418 184.848 140.01 185.375 138.546C185.886 137.081 186.058 135.521 185.878 133.981C185.764 133.35 185.615 132.724 185.433 132.108C185.543 132.249 185.628 132.407 185.685 132.575C185.875 133.017 186.013 133.479 186.094 133.953C186.34 135.526 186.193 137.134 185.667 138.638C185.136 140.124 184.424 141.541 183.545 142.857C183.217 143.364 182.96 143.768 182.743 144.039C182.527 144.309 182.428 144.459 182.41 144.448Z" fill="#263238"/>
<path d="M185.258 138.091C185.176 138.091 185.018 137.618 184.515 137.29C184.012 136.961 183.509 136.961 183.498 136.875C183.486 136.788 183.621 136.777 183.849 136.771C184.151 136.774 184.445 136.868 184.691 137.042C184.938 137.212 185.129 137.451 185.24 137.728C185.316 137.941 185.299 138.079 185.258 138.091Z" fill="#FAFAFA"/>
<path d="M188.871 138.079C188.433 137.594 187.952 137.148 187.433 136.748C186.857 136.43 186.249 136.171 185.62 135.976C185.968 135.928 186.323 135.95 186.662 136.04C187.002 136.13 187.319 136.287 187.596 136.5C188.214 136.842 188.672 137.409 188.871 138.079Z" fill="#FAFAFA"/>
<path d="M191.14 149.773C191.153 148.978 191.267 148.188 191.479 147.422C191.592 146.63 191.806 145.855 192.116 145.116C192.103 145.913 191.989 146.705 191.777 147.473C191.664 148.263 191.45 149.036 191.14 149.773Z" fill="#FAFAFA"/>
<path d="M200.261 151.537C200.115 149.883 200.168 148.217 200.419 146.575C200.573 148.229 200.52 149.896 200.261 151.537Z" fill="#FAFAFA"/>
<path d="M14.0164 177.149L5 215.85L24.0677 215.908L32.8794 181.875L14.0164 177.149Z" fill="#B78876"/>
<path d="M107.659 129.601C105.846 127.209 103.764 124.91 102.811 122.074C102.349 120.702 102.168 119.25 101.677 117.89C101.186 116.53 100.291 115.204 98.9228 114.691C97.5546 114.178 96.5138 114.691 95.625 115.659L89.082 134.523L92.8535 149.012C96.6191 148.176 101.332 147.185 104.852 145.623C108.372 144.061 110.699 141.56 110.945 137.762C111.114 134.782 109.471 131.999 107.659 129.601Z" fill="#263238"/>
<path d="M48.1175 126.27C48.1175 126.27 25.372 136.027 22.5302 140.43C19.6885 144.834 10.333 176.227 10.333 176.227L34.3065 183.143L33.8972 215.827H92.6613L92.176 158.193L84.8086 126.345C84.8086 126.345 71.8337 125.52 70.6291 124.938C69.4246 124.356 48.1175 126.27 48.1175 126.27Z" fill="#607274"/>
<path d="M128.948 46.3835C129.135 45.0637 128.194 43.6113 128.872 42.4528C129.321 41.8558 129.962 41.427 130.691 41.2368C131.044 41.0777 131.425 40.9896 131.813 40.9774C132.007 40.9744 132.197 41.0273 132.36 41.1298C132.523 41.2322 132.653 41.3797 132.731 41.5538C132.774 41.7742 132.754 42.0017 132.675 42.2119C132.595 42.4222 132.459 42.6071 132.281 42.7468C131.925 43.0227 131.625 43.3631 131.398 43.7496C131.24 44.6983 131.314 45.6706 131.615 46.5852C132.394 48.5977 133.04 50.6575 133.55 52.752" fill="#B78876"/>
<path d="M124.148 46.8332C124.23 44.8333 125.903 36.9547 125.961 34.9548C127.335 35.3698 128.13 36.8106 128.388 38.2054C128.645 39.6001 128.51 41.0352 128.756 42.4299C129.083 44.303 130.072 45.9917 131.066 47.617C132.06 49.2423 133.1 50.8963 133.551 52.7406C134.001 54.5849 135.697 59.38 134.375 60.7633" fill="#B78876"/>
<path d="M123.768 60.3193L115.635 98.4038C115.348 100.133 84.8086 126.385 84.8086 126.385L90.837 150.124L130.598 111.781C133.469 108.755 135.031 104.747 134.954 100.605L134.276 64.8724L123.768 60.3193Z" fill="#B78876"/>
<path d="M122.377 47.0751L123.768 60.3309L134.293 64.8955C134.293 64.8955 134.422 63.9561 134.878 59.3626C135.375 54.3024 129.855 52.1296 127.394 48.4122C126.341 46.8158 126.616 43.8764 125.803 40.234C125.71 39.8132 125.125 37.2658 124.809 35.8999C124.643 35.1409 124.192 34.4718 123.546 34.0268C123.067 33.7156 122.529 33.56 122.137 34.0268C121.745 34.4936 122.377 47.0751 122.377 47.0751Z" fill="#B78876"/>
<path d="M128.948 62.5209C130.118 61.5239 130.399 59.7372 129.96 58.256C129.423 56.7975 128.576 55.4691 127.475 54.36C126.376 53.2537 125.451 51.9909 124.733 50.6138C124.288 49.6225 124.078 48.5274 123.563 47.5534C123.049 46.5794 122.177 45.6861 121.078 45.6458C121.961 51.1267 121.938 54.2908 123.744 60.2963" fill="#B78876"/>
<path d="M122.172 51.9049C122.172 51.9049 122.131 51.7551 122.067 51.4669C122.002 51.1787 121.891 50.7004 121.786 50.2105C121.535 49.0578 121.201 47.5882 120.856 45.8995L120.821 45.7381H120.991C121.351 45.7252 121.71 45.7827 122.047 45.9073C122.384 46.032 122.693 46.2213 122.956 46.4643C123.758 47.2174 124.33 48.1781 124.604 49.2365C124.838 50.059 125.145 50.8595 125.522 51.6283C125.809 52.1333 126.154 52.6033 126.552 53.0288C126.697 53.1922 126.815 53.377 126.902 53.5763C126.742 53.4301 126.594 53.2721 126.458 53.1037C126.023 52.6984 125.645 52.237 125.335 51.732C124.922 50.9607 124.585 50.1521 124.33 49.3172C124.058 48.3118 123.512 47.3989 122.751 46.6775C122.277 46.2389 121.647 46.0009 120.997 46.0148L121.137 45.8419C121.845 49.3114 122.301 51.9107 122.172 51.9049Z" fill="#7C5142"/>
<path d="M126.902 48.5333C126.477 46.7503 126.153 44.9455 125.931 43.1272C125.606 41.3233 125.382 39.5032 125.259 37.675C125.686 39.4594 126.01 41.2662 126.229 43.0869C126.554 44.8889 126.779 46.7071 126.902 48.5333Z" fill="#7C5142"/>
<path d="M130.252 48.9829C130.252 48.9829 130.293 49.0405 130.328 49.1846H130.24C129.806 47.9515 129.45 46.6926 129.176 45.4153C128.925 44.303 128.743 43.2887 128.632 42.5337C128.542 42.1387 128.507 41.7335 128.527 41.3291C128.615 41.3291 128.971 43.1215 129.474 45.3635C129.878 47.1559 130.252 48.6659 130.328 49.1731H130.24C130.234 49.052 130.234 48.9829 130.252 48.9829Z" fill="#7C5142"/>
<path d="M132.328 56.285C132.282 56.285 132.071 55.9853 131.65 55.5416C130.538 54.3768 129.028 53.6583 127.411 53.5244C127.073 53.5273 126.735 53.5061 126.399 53.461C126.723 53.3372 127.071 53.286 127.417 53.3111C128.26 53.3216 129.09 53.5144 129.848 53.8759C130.607 54.2374 131.276 54.7588 131.808 55.4032C132.047 55.6542 132.225 55.9558 132.328 56.285Z" fill="#7C5142"/>
<path d="M124.721 61.3682C124.432 60.8722 124.199 60.3465 124.025 59.8006C123.545 58.5074 123.142 57.1871 122.821 55.8469C122.494 54.5178 122.248 53.1706 122.084 51.8125C121.988 51.2413 121.953 50.6619 121.979 50.0835C122.126 50.6342 122.231 51.1947 122.295 51.7606C122.47 52.7923 122.739 54.2216 123.113 55.795C123.487 57.3684 123.908 58.7459 124.23 59.7487C124.432 60.2766 124.596 60.8178 124.721 61.3682Z" fill="#7C5142"/>
<path d="M77.6689 127.071C78.1899 126.284 78.9981 125.726 79.9257 125.511C80.8533 125.297 81.8292 125.442 82.6507 125.918C86.9426 122.46 91.3338 119.106 95.6256 115.665C94.2223 122.581 93.2868 132.223 96.4267 138.551C96.4267 138.551 100.385 145.802 106.689 144.695L101.064 150.124L92.1933 158.233" fill="#607274"/>
<path d="M76.2773 130.298C76.284 129.37 76.571 128.465 77.1018 127.699C77.55 126.88 78.2335 126.211 79.0665 125.774C77.7453 127.011 76.7825 128.573 76.2773 130.298Z" fill="#263238"/>
<path d="M80.9138 134.563C80.6704 134.179 80.5037 133.753 80.4226 133.307C80.1702 132.238 80.1401 131.13 80.3341 130.049C80.528 128.969 80.942 127.938 81.5511 127.019C81.7834 126.626 82.0889 126.28 82.4516 125.999C82.4925 126.034 82.1534 126.426 81.7383 127.152C81.1982 128.07 80.8243 129.075 80.6331 130.12C80.45 131.167 80.45 132.237 80.6331 133.284C80.7793 134.033 80.9606 134.517 80.9138 134.563Z" fill="#263238"/>
<path d="M102.397 149.364C101.965 149.628 101.493 149.823 100.999 149.94C99.6485 150.261 98.2351 150.219 96.9062 149.819C94.9382 149.203 93.2161 147.993 91.9829 146.361C90.5017 144.359 89.5019 142.051 89.0593 139.612C88.2335 135.22 87.9976 130.74 88.3577 126.287C88.4922 124.558 88.6851 123.209 88.8488 122.253C88.9248 121.78 88.995 121.417 89.0476 121.169C89.0658 121.041 89.0972 120.916 89.1412 120.794C89.1453 120.924 89.1335 121.054 89.1061 121.181L88.9658 122.27C88.843 123.215 88.6793 124.575 88.574 126.304C88.2749 130.738 88.5381 135.191 89.3575 139.56C89.7953 141.936 90.764 144.186 92.1934 146.148C93.3758 147.763 95.0425 148.973 96.9589 149.606C98.2529 150.016 99.6328 150.09 100.964 149.819C101.452 149.699 101.93 149.547 102.397 149.364Z" fill="#FAFAFA"/>
<path d="M34.4177 192.871C34.3358 192.871 34.2656 184.676 34.2656 174.573C34.2656 164.469 34.3358 156.274 34.4177 156.274C34.4995 156.274 34.5697 164.464 34.5697 174.573C34.5697 184.682 34.5054 192.871 34.4177 192.871Z" fill="#263238"/>
<path d="M33.9496 149.952C33.8853 149.952 33.9028 149.133 33.6163 147.859C33.4456 147.115 33.2008 146.389 32.8854 145.692C32.4925 144.845 32.0083 144.041 31.4412 143.295C30.8583 142.559 30.1978 141.887 29.4707 141.289C28.872 140.807 28.2279 140.382 27.547 140.021C26.3775 139.416 25.5648 139.214 25.5823 139.157C25.7819 139.167 25.9789 139.206 26.167 139.272C26.3886 139.326 26.6056 139.398 26.8161 139.485C27.1029 139.583 27.3823 139.7 27.6522 139.837C28.3546 140.176 29.0173 140.589 29.6286 141.07C30.3792 141.674 31.0597 142.359 31.6575 143.11C32.2411 143.875 32.7317 144.705 33.1193 145.583C33.4378 146.3 33.675 147.05 33.8268 147.819C33.8868 148.112 33.9278 148.409 33.9496 148.707C33.977 148.93 33.9887 149.156 33.9847 149.381C33.9953 149.572 33.9836 149.763 33.9496 149.952Z" fill="#263238"/>
<path d="M73.997 126.016C74.0455 126.176 74.0788 126.34 74.0964 126.506C74.1752 126.973 74.226 127.445 74.2484 127.918C74.3183 129.667 74.0708 131.413 73.5175 133.076C72.6936 135.556 71.2333 137.783 69.2783 139.543C66.8263 141.655 63.7469 142.929 60.5 143.174C57.2531 143.419 54.0129 142.622 51.2631 140.903C49.065 139.453 47.2844 137.468 46.0942 135.14C45.297 133.577 44.7882 131.887 44.5915 130.148C44.544 129.677 44.5225 129.204 44.5272 128.731C44.5131 128.566 44.5131 128.4 44.5272 128.235C44.5546 128.397 44.5683 128.561 44.5681 128.725C44.5831 129.195 44.6221 129.665 44.6851 130.131C44.9246 131.844 45.4584 133.505 46.2638 135.042C47.4568 137.323 49.2221 139.265 51.3918 140.684C54.0918 142.357 57.265 143.133 60.4454 142.898C63.6259 142.662 66.6459 141.428 69.062 139.376C70.9956 137.653 72.449 135.47 73.2836 133.036C73.844 131.397 74.1207 129.676 74.1022 127.947C74.1022 127.336 74.0496 126.863 74.0028 126.541C73.956 126.218 73.9911 126.022 73.997 126.016Z" fill="#263238"/>
<path d="M33.9143 176.019C33.9143 176.1 29.0553 174.596 23.1263 172.665C17.1972 170.734 12.4084 169.103 12.4376 169.023C12.4669 168.942 17.2908 170.446 23.2257 172.377C29.1606 174.308 33.9377 175.939 33.9143 176.019Z" fill="#FAFAFA"/>
<path d="M91.6084 168.02C91.6084 168.106 78.7154 168.227 62.811 168.29C46.9067 168.354 34.0078 168.342 34.0078 168.29C34.0078 168.239 46.9009 168.083 62.811 168.02C78.7212 167.956 91.6084 167.939 91.6084 168.02Z" fill="#FAFAFA"/>
<path d="M91.9008 173.04C91.9008 173.12 78.9376 173.189 62.9572 173.189C46.9769 173.189 34.0078 173.12 34.0078 173.04C34.0078 172.959 46.9652 172.89 62.9572 172.89C78.9493 172.89 91.9008 172.953 91.9008 173.04Z" fill="#FAFAFA"/>
<path d="M83.9602 179.137C83.9207 179.298 83.8658 179.454 83.7965 179.604C83.6679 179.927 83.4924 180.365 83.2761 180.918L82.8902 181.863C82.7381 182.209 82.5569 182.572 82.3698 182.97C81.9839 183.754 81.5863 184.664 81.0308 185.621L80.1888 187.131C79.8964 187.655 79.5456 188.174 79.2064 188.727C78.5399 189.84 77.7213 190.958 76.8676 192.151C74.9689 194.686 72.8774 197.075 70.6111 199.298C68.3125 201.489 65.8476 203.504 63.2378 205.326C62.0099 206.133 60.858 206.922 59.7295 207.556C59.1448 207.879 58.6302 208.213 58.0923 208.496L56.5252 209.291C55.5488 209.816 54.6132 210.196 53.8121 210.559C53.4087 210.732 53.0345 210.905 52.6836 211.049L51.713 211.412L50.374 211.902C50.2195 211.967 50.0589 212.018 49.8945 212.052C50.0405 211.97 50.193 211.901 50.3506 211.844L51.6721 211.303L52.6252 210.916C52.976 210.767 53.3444 210.588 53.742 210.404C54.5372 210.029 55.461 209.637 56.4258 209.101L57.9636 208.294C58.4957 208.006 59.0278 207.666 59.5892 207.343C60.7177 206.703 61.8579 205.908 63.0975 205.101C68.3058 201.479 72.8866 197.051 76.6629 191.99C77.5108 190.808 78.3352 189.684 79.0018 188.595C79.3468 188.047 79.7035 187.534 80.0017 187.016L80.8495 185.517C81.4342 184.578 81.826 183.673 82.2236 182.895C82.4166 182.503 82.6095 182.146 82.7674 181.806C82.9253 181.466 83.0539 181.154 83.1767 180.872C83.4164 180.33 83.6094 179.904 83.7614 179.581C83.8199 179.43 83.8863 179.282 83.9602 179.137Z" fill="#263238"/>
<g opacity="0.3">
<path d="M81.5862 184.128C77.6569 188.843 73.5405 192.261 67.7693 194.462C65.0036 195.511 62.1092 196.232 59.4312 197.482C56.7532 198.733 54.2272 200.617 52.9993 203.286C52.0696 205.349 52.5199 208.473 54.7535 208.922C55.6212 209.027 56.5015 208.894 57.297 208.536C68.7283 204.45 76.2419 194.128 81.5511 184.128" fill="black"/>
</g>
<path d="M40.6973 81.5864C38.2298 83.4941 38.0661 87.0616 38.1888 90.1508C38.3116 93.24 38.3467 96.7556 36.0605 98.8881C34.1894 100.646 30.915 101.297 30.377 103.793C30.2409 104.381 30.2953 104.996 30.5327 105.552C30.77 106.108 31.1783 106.576 31.7 106.891C32.2218 107.206 32.8307 107.352 33.4409 107.308C34.0511 107.264 34.6319 107.032 35.1015 106.646C34.3063 108.599 34.6688 111.101 36.3587 112.409C38.0485 113.717 41.0013 113.095 41.6211 111.089C41.5253 111.421 41.4989 111.769 41.5435 112.111C41.588 112.453 41.7026 112.783 41.8803 113.08C42.058 113.377 42.2951 113.636 42.5772 113.84C42.8593 114.044 43.1806 114.189 43.5215 114.268C43.8624 114.346 44.2158 114.355 44.5604 114.294C44.905 114.234 45.2335 114.105 45.526 113.915C45.8185 113.726 46.069 113.48 46.2621 113.192C46.4553 112.905 46.5871 112.581 46.6497 112.242" fill="#263238"/>
<path d="M76.5048 103.954C76.6224 104.359 76.8232 104.735 77.0947 105.06C77.3663 105.386 77.7027 105.652 78.0832 105.844C78.4636 106.035 78.88 106.148 79.3063 106.174C79.7327 106.2 80.1601 106.14 80.5618 105.997C80.9635 105.853 81.331 105.63 81.6415 105.341C81.952 105.052 82.1989 104.703 82.3668 104.315C82.5347 103.928 82.62 103.511 82.6174 103.09C82.6149 102.669 82.5245 102.253 82.352 101.868C81.8667 100.669 80.5978 99.7639 80.5686 98.4787C80.4926 96.9225 82.1532 95.8909 83.6091 95.2857C85.0651 94.6806 86.7725 93.8737 87.0005 92.3349C87.2285 90.7961 85.9246 89.6146 84.837 88.5599C83.7495 87.5052 82.7028 85.903 83.4688 84.6004C83.8606 83.9376 84.6382 83.5803 85.1411 82.9982C86.2755 81.7072 85.8194 79.5402 84.5096 78.4394C83.1998 77.3386 81.3229 77.085 79.6097 77.2867C77.8964 77.4884 76.2592 78.1224 74.5811 78.5316C71.7983 79.1936 68.9065 79.2793 66.0884 78.7833C63.2703 78.2873 60.5873 77.2203 58.209 75.6499" fill="#263238"/>
<path d="M42.3755 93.4705L48.3923 127.843C48.6416 129.282 49.1773 130.658 49.9685 131.891C50.7597 133.125 51.7908 134.192 53.0024 135.031C54.2139 135.87 55.582 136.464 57.0276 136.78C58.4733 137.095 59.968 137.125 61.4256 136.869C64.1874 136.381 66.6638 134.892 68.3673 132.695C70.0707 130.497 70.8776 127.751 70.6291 124.996C70.3543 121.947 70.1204 119.423 70.1204 119.423C70.1204 119.423 78.8561 117.21 78.1018 108.473C77.7334 104.242 76.2658 95.5914 74.8391 87.7762C74.0993 83.7313 71.8418 80.1091 68.5155 77.6305C65.1893 75.1518 61.0382 73.9983 56.8882 74.3994L56.0345 74.4801C53.8598 74.8161 51.7753 75.578 49.9042 76.7209C48.033 77.8638 46.4131 79.3646 45.1399 81.1347C43.8668 82.9047 42.9663 84.9082 42.4915 87.0269C42.0167 89.1456 41.9773 91.3365 42.3755 93.4705Z" fill="#B78876"/>
<path d="M72.9738 93.4184C73.0119 93.7436 72.9185 94.0705 72.7138 94.3283C72.5092 94.5861 72.2098 94.7541 71.8804 94.7959C71.7208 94.8247 71.5569 94.8215 71.3985 94.7867C71.2402 94.7518 71.0905 94.6859 70.9585 94.5929C70.8265 94.4999 70.7148 94.3816 70.6301 94.2452C70.5454 94.1088 70.4894 93.957 70.4654 93.7988C70.4273 93.4736 70.5207 93.1467 70.7253 92.8889C70.93 92.6311 71.2294 92.4632 71.5588 92.4214C71.7184 92.3926 71.8823 92.3957 72.0406 92.4306C72.199 92.4654 72.3486 92.5313 72.4807 92.6243C72.6127 92.7174 72.7243 92.8356 72.8091 92.972C72.8938 93.1084 72.9498 93.2602 72.9738 93.4184Z" fill="#263238"/>
<path d="M73.359 92.2255C73.2186 92.3984 72.1895 91.7932 70.8271 91.9258C69.4647 92.0583 68.5292 92.8306 68.3655 92.6808C68.2895 92.6116 68.4181 92.3062 68.8216 91.9488C69.3722 91.4881 70.0549 91.2081 70.7745 91.1477C71.4827 91.0781 72.1951 91.2315 72.8093 91.5857C73.2596 91.8624 73.4291 92.1448 73.359 92.2255Z" fill="#263238"/>
<path d="M59.6416 94.9573C59.6748 95.2819 59.5787 95.6065 59.3736 95.8625C59.1684 96.1185 58.8703 96.2858 58.5423 96.329C58.3827 96.357 58.2191 96.3533 58.0611 96.318C57.903 96.2828 57.7537 96.2169 57.6219 96.124C57.4901 96.0311 57.3784 95.9132 57.2935 95.7772C57.2085 95.6411 57.152 95.4898 57.1273 95.3319C57.0923 95.0073 57.1868 94.682 57.3909 94.4249C57.595 94.1678 57.8926 93.9991 58.2207 93.9545C58.381 93.9265 58.5453 93.9304 58.7041 93.9659C58.8629 94.0014 59.0128 94.0678 59.1452 94.1612C59.2776 94.2546 59.3896 94.3732 59.4749 94.5099C59.5601 94.6466 59.6168 94.7987 59.6416 94.9573Z" fill="#263238"/>
<path d="M59.9869 93.7584C59.8466 93.9371 58.8175 93.3319 57.4551 93.4645C56.0927 93.5971 55.163 94.3694 54.9934 94.2195C54.9174 94.1503 55.046 93.8449 55.4495 93.4876C56.0013 93.0288 56.6833 92.7491 57.4024 92.6864C58.1108 92.614 58.824 92.7676 59.4373 93.1245C59.8875 93.4011 60.0337 93.6835 59.9869 93.7584Z" fill="#263238"/>
<path d="M65.9214 103.251C65.9214 103.17 66.74 102.945 68.0907 102.64C68.4357 102.571 68.7631 102.473 68.7982 102.231C68.7884 101.875 68.6724 101.53 68.4649 101.239L67.1727 98.7266C65.3776 95.1418 64.0445 92.1851 64.1906 92.116C64.3368 92.0468 65.9097 94.8939 67.699 98.4557L68.9444 100.992C69.2036 101.383 69.3134 101.853 69.2543 102.317C69.2192 102.447 69.1538 102.566 69.0635 102.666C68.9731 102.766 68.8602 102.844 68.7339 102.894C68.545 102.962 68.3488 103.008 68.1492 103.032C67.4184 103.194 66.6703 103.267 65.9214 103.251Z" fill="#263238"/>
<path d="M59.8169 88.4562C59.7175 88.8366 58.3435 88.7904 56.7647 89.1362C55.186 89.4821 53.9288 90.0353 53.6891 89.7126C53.578 89.5685 53.7651 89.1996 54.2738 88.7962C54.9232 88.2906 55.6845 87.9431 56.4957 87.7819C57.3049 87.6062 58.1449 87.624 58.9457 87.8337C59.5363 88.0239 59.8579 88.2833 59.8169 88.4562Z" fill="#263238"/>
<path d="M72.4763 88.3811C72.2658 88.7096 71.3068 88.4848 70.1374 88.577C68.968 88.6693 68.0733 88.9862 67.7985 88.6865C67.6874 88.5424 67.7985 88.2197 68.1961 87.8912C68.72 87.483 69.3595 87.2454 70.0263 87.2111C70.6906 87.1576 71.3552 87.3108 71.9266 87.6491C72.4002 87.9258 72.564 88.2255 72.4763 88.3811Z" fill="#263238"/>
<path d="M51.0525 82.9581L51.0057 83.0042C49.7027 84.2367 48.932 85.9171 48.854 87.6956C48.854 87.759 48.854 87.8224 48.854 87.8742C48.7546 90.4044 49.0645 92.9345 48.9417 95.4588C48.8189 97.9832 48.1932 100.6 46.4917 102.496C45.7959 103.274 44.4861 103.891 43.7728 103.124C43.5246 102.801 43.3745 102.415 43.3401 102.012C42.2759 96.0409 40.0774 90.8597 39.4693 84.5603C39.382 83.7179 39.5005 82.8672 39.8148 82.0791C40.1291 81.2911 40.6301 80.5886 41.276 80.0303C42.5156 78.9525 44.0534 77.8171 45.6088 78.3704C47.1641 78.9237 49.3568 81.4769 50.6257 82.5258" fill="#263238"/>
<path d="M45.7552 97.1357C45.5973 97.0896 39.487 95.9485 40.2705 101.902C41.0541 107.856 46.9597 105.856 46.948 105.683C46.9363 105.51 45.7552 97.1357 45.7552 97.1357Z" fill="#B78876"/>
<path d="M44.8309 103.666C44.8309 103.666 44.7374 103.752 44.5678 103.85C44.4517 103.92 44.3227 103.967 44.1883 103.987C44.0538 104.008 43.9166 104.003 43.7843 103.971C43.1177 103.821 42.4453 102.888 42.2757 101.821C42.1927 101.311 42.2267 100.789 42.3751 100.294C42.4084 100.101 42.4885 99.9179 42.6086 99.7614C42.7287 99.6049 42.8853 99.4792 43.0651 99.395C43.1818 99.3499 43.3107 99.3459 43.4301 99.3837C43.5494 99.4215 43.6518 99.4988 43.72 99.6025C43.8252 99.7581 43.8018 99.8849 43.8369 99.8906C43.872 99.8964 43.9539 99.7754 43.872 99.5333C43.8191 99.3893 43.7181 99.2673 43.5855 99.1875C43.4072 99.0907 43.1983 99.0639 43.0008 99.1126C42.7585 99.1932 42.5412 99.3335 42.3693 99.5201C42.1974 99.7066 42.0766 99.9334 42.0185 100.179C41.8285 100.735 41.7783 101.328 41.8723 101.908C42.0711 103.101 42.8429 104.144 43.7492 104.282C43.9176 104.309 44.09 104.298 44.2532 104.249C44.4164 104.2 44.566 104.115 44.6906 104C44.831 103.81 44.8309 103.671 44.8309 103.666Z" fill="#7C5142"/>
<path d="M45.4862 79.3157C43.732 77.068 47.5093 73.2411 50.4095 72.025C53.3097 70.809 57.3969 71.8636 60.4725 72.5495C62.4079 72.9875 64.3667 73.6618 66.3197 73.3909C67.6292 73.133 68.8924 72.6843 70.0677 72.0596C71.2418 71.4245 72.5351 71.0322 73.8684 70.9069C74.5362 70.8568 75.2051 70.9877 75.8029 71.2853C76.4006 71.5829 76.9044 72.0361 77.2598 72.5956C77.8796 73.7483 77.3241 75.4773 76.026 75.7943C76.4252 75.5235 76.8852 75.3523 77.3664 75.2954C77.8475 75.2385 78.3355 75.2976 78.7884 75.4676C79.2413 75.6376 79.6456 75.9134 79.9665 76.2713C80.2873 76.6293 80.5153 77.0587 80.6307 77.5226C80.7461 77.9866 80.7455 78.4712 80.6289 78.9348C80.5124 79.3985 80.2834 79.8273 79.9616 80.1845C79.6399 80.5417 79.2349 80.8165 78.7816 80.9855C78.3283 81.1544 77.8402 81.2123 77.3592 81.1542C78.1602 80.428 79.5869 81.3675 79.5869 82.4337C79.5869 83.4999 78.6806 84.376 77.7334 84.9004C75.3127 86.2375 72.3306 86.1684 69.6292 85.5517C66.9278 84.935 64.3667 83.8227 61.677 83.1311C58.9873 82.4395 54.4791 81.1946 51.9648 82.353C50.1171 83.2002 49.0062 85.6036 47.8718 85.2347C47.335 85.0151 46.8581 84.6744 46.4793 84.2399C46.1004 83.8055 45.8304 83.2895 45.6908 82.7334C45.4296 81.6155 45.3546 80.4631 45.4686 79.3215" fill="#263238"/>
<path d="M45.8311 98.1561C45.9064 101.322 46.2744 104.474 46.9303 107.573C47.5859 110.684 49.083 113.562 51.2631 115.901C54.1867 118.858 58.0224 121.665 62.1739 122.362C66.7055 123.1 72.2486 122.166 75.9382 119.481C77.6923 118.207 78.9612 115.446 78.4174 113.36C79.1601 113.014 79.7956 112.48 80.2583 111.811C80.7209 111.142 80.9938 110.364 81.0486 109.556C81.1422 107.942 80.1423 105.925 78.8501 105.712C79.8207 105.55 80.1014 104.029 79.733 103.17C79.3646 102.311 78.0841 102.052 77.1135 102.237C76.1541 102.484 75.2618 102.937 74.4998 103.562C73.7422 104.188 72.8873 104.69 71.968 105.049C68.8339 106.052 65.6589 103.32 62.3669 103.453C59.3907 103.568 56.7419 106.006 53.7891 105.597C52.9694 105.443 52.1917 105.12 51.5067 104.651C50.8217 104.181 50.2446 103.574 49.813 102.87C48.9008 101.493 49.2984 96.404 48.9418 94.8018" fill="#263238"/>
<g opacity="0.6">
<path d="M69.7168 111.879C69.4703 111.822 69.2281 111.749 68.9917 111.66C68.4191 111.498 67.8164 111.469 67.2303 111.574C66.6443 111.679 66.0906 111.915 65.6121 112.265C65.2378 112.53 65.0273 112.743 65.0273 112.714C65.0273 112.685 65.1443 112.432 65.501 112.138C65.9812 111.721 66.5679 111.442 67.1976 111.33C67.8273 111.218 68.4761 111.278 69.0736 111.504C69.5063 111.648 69.7343 111.85 69.7168 111.879Z" fill="#455A64"/>
</g>
<path d="M63.3136 105.256C63.5358 105.222 63.682 106.68 65.0677 107.562C66.4535 108.444 67.9913 108.167 68.0264 108.369C68.0557 108.455 67.7048 108.686 67.0382 108.766C66.1744 108.866 65.3026 108.662 64.5766 108.19C63.8812 107.732 63.3945 107.025 63.22 106.219C63.0855 105.631 63.2142 105.256 63.3136 105.256Z" fill="white"/>
<path d="M58.917 121.388C59.0492 121.418 59.177 121.464 59.2971 121.527C59.5485 121.619 59.9169 121.746 60.4022 121.878C61.7775 122.245 63.1891 122.463 64.6122 122.529C65.5867 122.586 66.5643 122.567 67.5357 122.472C68.6561 122.373 69.7632 122.16 70.8394 121.838C72.0276 121.488 73.161 120.978 74.2074 120.322C75.3452 119.645 76.3383 118.757 77.131 117.705C78.0727 116.468 78.4918 114.919 78.3004 113.383V113.262L78.4056 113.216C79.133 112.883 79.7627 112.373 80.2358 111.735C80.4653 111.433 80.6614 111.109 80.8205 110.766C80.9602 110.434 81.047 110.082 81.0778 109.723C81.1415 109.074 81.0474 108.419 80.8034 107.813C80.5593 107.206 80.1724 106.666 79.6745 106.236L79.5868 106.167L79.6569 106.081C79.9207 105.751 80.0928 105.359 80.1563 104.944C80.2199 104.528 80.1727 104.104 80.0195 103.712C79.8993 103.415 79.7176 103.145 79.4861 102.921C79.2546 102.697 78.9782 102.523 78.6746 102.409C78.2871 102.257 77.8676 102.199 77.4526 102.242C77.166 102.277 77.0257 102.329 77.0199 102.311C77.1548 102.248 77.2987 102.205 77.4467 102.185C78.0022 102.096 78.5718 102.191 79.0667 102.455C79.5617 102.718 79.9543 103.136 80.1832 103.643C80.3563 104.065 80.415 104.525 80.3535 104.977C80.292 105.428 80.1124 105.856 79.8324 106.219V106.063C80.3665 106.513 80.7842 107.082 81.0506 107.722C81.317 108.363 81.4246 109.057 81.3643 109.746C81.3344 110.142 81.2417 110.531 81.0895 110.899C80.92 111.26 80.7143 111.604 80.4756 111.925C79.9778 112.609 79.3091 113.155 78.5343 113.51L78.622 113.337C78.8567 114.951 78.4365 116.591 77.4526 117.901C76.6364 118.984 75.6135 119.898 74.4413 120.593C73.3737 121.263 72.2138 121.777 70.9973 122.12C69.9021 122.445 68.7751 122.653 67.6351 122.743C66.6446 122.82 65.6494 122.82 64.6589 122.743C63.2247 122.654 61.8059 122.401 60.4314 121.988C60.0588 121.873 59.6936 121.737 59.338 121.578C59.1912 121.53 59.05 121.466 58.917 121.388Z" fill="#455A64"/>
<path d="M32.4115 106.179C32.2995 106.148 32.1944 106.097 32.1016 106.029C31.8381 105.834 31.6355 105.571 31.5169 105.268C31.3193 104.781 31.2764 104.246 31.3941 103.735C31.5785 103.058 31.9909 102.462 32.5635 102.046C33.2362 101.546 33.9866 101.157 34.7854 100.894C35.6807 100.616 36.5463 100.253 37.3699 99.8101C38.2366 99.2693 38.9157 98.4813 39.317 97.5508C39.7572 96.5495 39.9917 95.4721 40.007 94.381C40.0537 92.1275 39.5275 89.9893 39.469 88.0009C39.4105 86.0125 39.7614 84.1567 40.6794 82.9118C41.3669 81.9139 42.4109 81.208 43.603 80.935C43.9263 80.8715 44.2574 80.8559 44.5853 80.8889C44.6997 80.9019 44.8131 80.9231 44.9244 80.9523C44.4912 80.9319 44.0572 80.9648 43.6322 81.0502C42.4832 81.3494 41.4861 82.0552 40.8314 83.0329C39.9777 84.2432 39.621 86.0413 39.7263 87.9894C39.8315 89.9374 40.311 92.0756 40.311 94.3925C40.2867 95.5252 40.0343 96.6419 39.5684 97.6776C39.1386 98.6594 38.4142 99.488 37.4927 100.052C36.6465 100.504 35.7549 100.867 34.8322 101.136C34.0561 101.378 33.3239 101.739 32.6629 102.208C32.1199 102.587 31.7224 103.135 31.5344 103.764C31.407 104.243 31.4294 104.749 31.5987 105.216C31.7528 105.617 32.039 105.956 32.4115 106.179Z" fill="#455A64"/>
<path d="M76.2479 75.6961C76.3309 75.6464 76.4192 75.6058 76.5111 75.575C76.6222 75.5261 76.7377 75.4876 76.8561 75.4598C77.0147 75.4136 77.1771 75.3809 77.3414 75.3618C77.887 75.3032 78.4391 75.3677 78.9557 75.5505C79.4723 75.7332 79.94 76.0293 80.3234 76.4165C80.7069 76.9234 80.9844 77.5002 81.14 78.1136C81.2956 78.727 81.3261 79.3647 81.2297 79.9898C81.115 80.7651 80.8437 81.5098 80.432 82.18C80.0202 82.8502 79.4763 83.4322 78.8324 83.8916C77.3498 84.9555 75.5781 85.5577 73.7454 85.6206C71.7585 85.6977 69.7709 85.488 67.8456 84.9982C64.7872 84.2583 61.8853 82.992 59.2736 81.2577C58.1571 80.5013 56.9844 79.8289 55.7653 79.2463C54.6975 78.7593 53.5479 78.4702 52.3739 78.3933C50.6638 78.2769 48.9517 78.5902 47.398 79.3039C46.3045 79.8111 45.7841 80.2491 45.7607 80.2146C46.241 79.8071 46.7738 79.4641 47.3453 79.1944C48.9082 78.4326 50.6448 78.0831 52.3856 78.1801C53.5976 78.2414 54.7873 78.5248 55.8939 79.0158C57.1306 79.5969 58.3209 80.2693 59.4548 81.0272C62.0481 82.7272 64.9206 83.9713 67.945 84.7042C69.8406 85.1946 71.7982 85.4121 73.7571 85.3497C75.534 85.2884 77.2529 84.7109 78.6979 83.6899C79.3182 83.2526 79.8443 82.6984 80.2458 82.0593C80.6473 81.4202 80.9161 80.709 81.0368 79.9667C81.1398 79.366 81.1211 78.7511 80.9816 78.1575C80.842 77.564 80.5846 77.0036 80.224 76.5087C79.8613 76.134 79.4189 75.843 78.9286 75.6566C78.4383 75.4703 77.9122 75.3932 77.3881 75.431C77.0017 75.4903 76.6205 75.5789 76.2479 75.6961Z" fill="#455A64"/>
<path d="M73.1484 70.6187C73.1478 71.0723 73.0544 71.5212 72.8736 71.9385C72.3666 73.0852 71.4859 74.0324 70.371 74.63C69.6183 75.0617 68.792 75.3547 67.9327 75.4945C66.9478 75.636 65.9473 75.636 64.9624 75.4945C62.8749 75.2351 60.7173 74.4282 58.4486 73.7309C56.1799 73.0335 53.8937 72.6185 51.8822 73.045C50.0999 73.4288 48.4856 74.3564 47.2688 75.6962C46.4399 76.5898 45.8052 77.6411 45.4035 78.7854C45.1346 79.6038 45.082 80.0821 45.0469 80.0764C45.0326 79.9615 45.0326 79.8454 45.0469 79.7306C45.0937 79.399 45.166 79.0715 45.2632 78.7508C45.6264 77.567 46.247 76.4755 47.0817 75.5521C48.3105 74.1528 49.9624 73.179 51.7945 72.7742C53.8761 72.3188 56.2267 72.7396 58.5071 73.4427C60.7875 74.1458 62.9275 74.9527 64.9682 75.2178C65.9279 75.356 66.9029 75.356 67.8626 75.2178C68.6963 75.0936 69.5005 74.8222 70.2365 74.4167C71.3263 73.8533 72.2021 72.9577 72.7333 71.8635C72.9051 71.4601 73.0439 71.0439 73.1484 70.6187Z" fill="#455A64"/>
<path d="M128.02 184.128C128.843 184.266 129.629 184.566 130.332 185.01C131.035 185.453 131.641 186.032 132.113 186.71C133.044 188.082 133.644 189.645 133.867 191.281C134.399 194.416 133.539 197.978 132.358 200.94C129.113 199.436 127.382 195.713 126.628 193.765C125.459 190.693 125.16 184.417 127.99 184.128" fill="#607274"/>
<path d="M137.171 205.372C136.682 204.587 136.414 203.687 136.392 202.766C136.37 201.845 136.597 200.935 137.048 200.128C137.511 199.328 138.131 198.628 138.872 198.068C139.613 197.508 140.46 197.099 141.364 196.865C141.767 196.713 142.2 196.65 142.631 196.68C143.062 196.71 143.482 196.832 143.86 197.038C144.175 197.287 144.417 197.614 144.561 197.986C144.705 198.358 144.746 198.761 144.679 199.154C144.534 199.938 144.183 200.671 143.661 201.28C141.966 203.436 139.931 205.211 137.171 205.372Z" fill="#607274"/>
<path d="M136.353 215.308C136.285 215.095 136.248 214.874 136.242 214.651C136.201 214.225 136.142 213.602 136.101 212.836C135.954 210.831 136.078 208.815 136.47 206.842C136.889 204.849 137.845 203.004 139.235 201.499C139.664 201.058 140.148 200.67 140.674 200.347C140.85 200.214 141.047 200.113 141.259 200.047C140.594 200.539 139.972 201.084 139.399 201.678C138.102 203.184 137.209 204.988 136.803 206.923C136.416 208.869 136.259 210.854 136.335 212.836C136.391 213.659 136.397 214.485 136.353 215.308Z" fill="#263238"/>
<path d="M128.792 188.906C128.956 189.237 129.093 189.58 129.201 189.932C129.441 190.601 129.786 191.569 130.172 192.773C130.973 195.183 132.02 198.537 133.096 202.254C134.171 205.972 135.037 209.372 135.633 211.839C135.931 213.072 136.159 214.069 136.306 214.767C136.403 215.121 136.469 215.484 136.504 215.85C136.362 215.511 136.25 215.16 136.171 214.801C135.966 214.052 135.703 213.072 135.388 211.919C134.727 209.47 133.809 206.087 132.745 202.37C131.68 198.652 130.675 195.292 129.938 192.866L129.079 189.984C128.953 189.633 128.857 189.273 128.792 188.906Z" fill="#263238"/>
<path d="M132.85 208.335C132.034 206.572 130.804 205.026 129.263 203.824C127.722 202.621 125.913 201.797 123.985 201.419C123.003 201.234 121.793 201.257 121.243 202.087C120.694 202.917 121.167 204.024 121.758 204.819C123.018 206.468 124.746 207.712 126.724 208.394C128.701 209.075 130.839 209.163 132.867 208.646" fill="#607274"/>
<path d="M125.062 204.179C125.28 204.171 125.499 204.194 125.711 204.249C125.962 204.282 126.21 204.334 126.453 204.404C126.782 204.48 127.106 204.575 127.424 204.687C128.255 204.973 129.054 205.342 129.81 205.787C131.675 206.875 133.254 208.382 134.417 210.185C134.885 210.913 135.276 211.685 135.587 212.49C135.713 212.799 135.82 213.114 135.908 213.435C135.989 213.674 136.052 213.919 136.095 214.167C136.157 214.373 136.184 214.587 136.177 214.801C136.113 214.801 135.932 213.919 135.353 212.588C135.009 211.81 134.596 211.064 134.119 210.358C133.529 209.498 132.853 208.699 132.102 207.972C131.341 207.256 130.51 206.615 129.622 206.058C128.89 205.609 128.119 205.223 127.319 204.906C125.962 204.398 125.05 204.249 125.062 204.179Z" fill="#263238"/>
</g>
<defs>
<clipPath id="clip0_1_5223">
<rect width="266" height="216" fill="white"/>
</clipPath>
</defs>
</svg>
