<svg width="33" height="33" viewBox="0 0 33 33" fill="none" xmlns="http://www.w3.org/2000/svg">
<path fill-rule="evenodd" clip-rule="evenodd" d="M10.9991 5.35908C10.9991 4.61951 11.5669 4.01928 12.2682 4.01928H20.7298C21.431 4.01928 21.9989 4.61951 21.9989 5.35908C21.9989 6.09864 21.431 6.69887 20.7298 6.69887H12.2682C11.5669 6.69887 10.9991 6.09864 10.9991 5.35908ZM13.4438 28.1356H19.5542C23.8455 28.1356 25.9918 28.1356 27.5332 27.1683C28.1963 26.7528 28.7691 26.2142 29.2189 25.5833C30.2488 24.1363 30.2488 22.1199 30.2488 18.0871C30.2488 14.0543 30.2488 12.0393 29.2175 10.591C28.7682 9.96009 28.1959 9.42153 27.5332 9.006C25.9918 8.03867 23.8455 8.03867 19.5542 8.03867H13.4438C9.15246 8.03867 7.00612 8.03867 5.46477 9.006C4.80206 9.42156 4.22974 9.96011 3.78042 10.591C2.74918 12.038 2.74918 14.0543 2.74918 18.0845V18.0871C2.74918 22.1199 2.74918 24.135 3.77904 25.5833C4.22454 26.2103 4.79653 26.7489 5.46477 27.1683C7.00612 28.1356 9.15246 28.1356 13.4438 28.1356ZM10.7694 18.0871C10.7694 15.1128 13.3351 12.7038 16.499 12.7038C19.6628 12.7038 22.2285 15.1141 22.2285 18.0871C22.2285 21.0601 19.6614 23.4704 16.499 23.4704C13.3351 23.4704 10.7694 21.0588 10.7694 18.0871ZM13.0615 18.0871C13.0615 16.3025 14.6015 14.8582 16.499 14.8582C18.3964 14.8582 19.9364 16.3039 19.9364 18.0871C19.9364 19.8704 18.3964 21.316 16.499 21.316C14.6015 21.316 13.0615 19.8704 13.0615 18.0871ZM24.9015 12.7038C24.269 12.7038 23.7561 13.1862 23.7561 13.781C23.7561 14.3746 24.269 14.8569 24.9015 14.8569H25.666C26.2985 14.8569 26.8113 14.3746 26.8113 13.781C26.8113 13.1862 26.2985 12.7038 25.666 12.7038H24.9015Z" fill="#607274"/>
</svg>
