<svg width="266" height="216" viewBox="0 0 266 216" fill="none" xmlns="http://www.w3.org/2000/svg">
<g clip-path="url(#clip0_1_4326)">
<path d="M198.319 45.5884H168.995V87.4824H198.319V45.5884Z" fill="#B3B3B3"/>
<path d="M196.851 45.5884H167.528V87.4824H196.851V45.5884Z" fill="#F5F5F5"/>
<path d="M193.208 50.124H171.17V82.9465H193.208V50.124Z" fill="white"/>
<path d="M193.203 82.9408C193.203 82.9408 193.203 82.889 193.203 82.7852V82.3184C193.203 81.9034 193.203 81.304 193.203 80.5202C193.203 78.9468 193.203 76.653 193.203 73.754C193.203 67.9906 193.203 59.772 193.168 50.1241L193.238 50.1933H171.206L171.287 50.1126C171.287 62.4924 171.287 73.9096 171.287 82.9293L171.223 82.8717H187.268H191.694H193.203H192.817H191.647H187.227H171.147H171.083V82.8083C171.083 73.7886 171.083 62.3713 171.083 49.9916V49.9109H193.273V49.9858C193.273 59.6568 193.244 67.8523 193.238 73.6675C193.238 76.5492 193.238 78.8546 193.238 80.4107C193.238 81.1888 193.238 81.7882 193.238 82.1974V82.6527C193.236 82.7497 193.225 82.8463 193.203 82.9408Z" fill="#B3B3B3"/>
<path d="M196.933 45.5884C196.783 45.8529 196.608 46.1037 196.413 46.3376C196.074 46.7814 195.588 47.3923 195.039 48.0666C194.489 48.741 193.969 49.3115 193.588 49.7265C193.391 49.9609 193.174 50.1787 192.939 50.3777C193.116 50.1236 193.311 49.8828 193.524 49.6573L194.939 47.9687L196.348 46.28C196.522 46.0329 196.718 45.8015 196.933 45.5884Z" fill="#B3B3B3"/>
<path d="M193.32 82.8369C194.418 84.5531 195.709 86.1423 197.167 87.5744L193.32 82.8369Z" fill="white"/>
<path d="M197.167 87.5746C196.922 87.4072 196.697 87.2139 196.495 86.9983C195.984 86.4849 195.5 85.9463 195.044 85.3845C194.589 84.8309 194.163 84.2537 193.77 83.6555C193.592 83.4126 193.441 83.1517 193.32 82.8774C193.522 83.0995 193.704 83.3386 193.863 83.5921C194.185 84.0416 194.641 84.6526 195.167 85.3211C195.694 85.9897 196.208 86.5487 196.576 86.9579C196.788 87.1489 196.986 87.355 197.167 87.5746Z" fill="#B3B3B3"/>
<path d="M167.528 87.4476L171.363 82.7793L167.528 87.4476Z" fill="white"/>
<path d="M171.363 82.7793C170.788 83.6039 170.169 84.3984 169.51 85.1596C168.446 86.4506 167.557 87.4649 167.528 87.4649C168.102 86.6377 168.721 85.8412 169.381 85.0789C170.002 84.2799 170.664 83.5124 171.363 82.7793Z" fill="#B3B3B3"/>
<path d="M167.528 45.5884C168.191 46.2852 168.813 47.0183 169.393 47.7842C170.018 48.5222 170.603 49.2917 171.147 50.0896C170.484 49.3928 169.861 48.6597 169.282 47.8937C168.654 47.158 168.068 46.3884 167.528 45.5884Z" fill="#B3B3B3"/>
<path d="M186.344 56.7866H178.965V77.4368H186.344V56.7866Z" fill="#B3B3B3"/>
<path d="M139.993 162.804C138.66 163.238 137.429 163.933 136.374 164.847C135.319 165.761 134.462 166.875 133.854 168.123C132.656 170.631 132.055 173.375 132.1 176.146C132.03 181.489 134.374 187.183 137.099 191.799C142.098 188.491 144.005 181.875 144.759 178.457C145.928 173.051 144.759 162.579 139.999 162.804" fill="#F5F5F5"/>
<path d="M130.749 199.845C131.251 198.377 131.351 196.803 131.036 195.285C130.722 193.766 130.006 192.357 128.96 191.2C127.897 190.063 126.616 189.147 125.19 188.504C123.765 187.86 122.224 187.503 120.657 187.454C119.212 187.379 117.61 187.598 116.64 188.658C116.217 189.181 115.944 189.806 115.848 190.467C115.753 191.129 115.838 191.804 116.096 192.422C116.629 193.655 117.485 194.727 118.575 195.528C122.159 198.41 126.176 200.583 130.749 199.834" fill="#F5F5F5"/>
<path d="M134.497 212.686C134.564 211.508 134.509 210.326 134.333 209.159C134.19 207.876 133.892 206.614 133.444 205.401C132.943 203.91 132.344 202.452 131.649 201.038C130.369 198.441 128.456 196.196 126.083 194.503C125.348 194.008 124.565 193.589 123.744 193.252C123.451 193.113 123.137 193.024 122.814 192.987C122.767 193.085 124.071 193.563 125.808 194.843C128.028 196.586 129.825 198.795 131.07 201.309C131.751 202.701 132.354 204.129 132.877 205.586C133.335 206.759 133.668 207.976 133.871 209.216C134.234 211.355 134.403 212.698 134.497 212.686Z" fill="#B3B3B3"/>
<path d="M140.174 170.873C139.987 171.436 139.85 172.015 139.765 172.602C139.543 173.754 139.245 175.368 138.894 177.391C138.186 181.425 137.28 187.039 136.426 193.252C135.573 199.465 134.971 205.107 134.62 209.205C134.444 211.251 134.321 212.905 134.257 214.052C134.188 214.645 134.176 215.243 134.222 215.838C134.363 215.259 134.453 214.669 134.491 214.075C134.637 212.824 134.824 211.193 135.076 209.245C135.538 205.165 136.21 199.534 137.058 193.332C137.906 187.131 138.748 181.621 139.344 177.454C139.625 175.506 139.853 173.881 140.028 172.642C140.128 172.057 140.177 171.465 140.174 170.873Z" fill="#B3B3B3"/>
<path d="M137.274 202.716C138.656 199.752 140.733 197.155 143.335 195.141C145.937 193.126 148.989 191.752 152.237 191.131C153.886 190.831 155.921 190.889 156.827 192.284C157.734 193.679 156.938 195.534 155.939 196.895C153.799 199.637 150.884 201.694 147.561 202.806C144.237 203.919 140.654 204.038 137.263 203.148" fill="#F5F5F5"/>
<path d="M149.933 195.425C149.615 195.44 149.301 195.506 149.004 195.621C148.419 195.782 147.571 196.065 146.548 196.439C143.841 197.409 141.34 198.862 139.169 200.727C137.998 201.793 137.011 203.038 136.245 204.416C135.633 205.546 135.182 206.754 134.906 208.006C134.718 208.844 134.609 209.696 134.579 210.554C134.525 210.865 134.525 211.182 134.579 211.493C134.702 211.493 134.748 210.162 135.292 208.11C136.006 205.438 137.489 203.026 139.561 201.165C141.689 199.355 144.097 197.891 146.694 196.831C148.711 195.972 149.98 195.517 149.933 195.425Z" fill="#B3B3B3"/>
<path d="M251.435 61.8067C251.435 61.8067 245.307 60.0258 242.828 73.9098C240.348 87.7937 240.15 95.4417 240.15 95.4417C240.15 95.4417 239.29 98.456 237.021 97.3379C234.753 96.2198 230.899 92.2834 228.18 94.024C225.356 95.8279 225.397 99.5395 227.543 104.358C229.689 109.176 233.975 119.919 234.373 120.887C234.77 121.855 234.63 123.452 232.963 122.939C231.297 122.426 220.684 116.121 217.936 121.308C215.188 126.495 223.409 138.921 224.28 140.327C225.152 141.733 225.052 142.436 224.444 143.024C223.836 143.612 220.468 141.163 217.369 139.491C214.27 137.82 210.382 136.419 209.06 139.52C207.739 142.621 210.23 153.076 225.327 166.741L232.73 172.619L241.693 169.369C260.445 161.254 266.251 152.171 266.029 148.811C265.807 145.451 261.656 145.514 258.176 146.09C254.697 146.667 250.704 147.929 250.318 147.174C249.932 146.419 250.084 145.698 251.365 144.673C252.645 143.647 264.509 134.471 263.614 128.725C262.72 122.979 250.593 125.555 248.844 125.509C247.096 125.463 247.517 123.901 248.184 123.123C248.85 122.345 256.469 113.545 260.083 109.666C263.696 105.787 264.953 102.294 262.878 99.6836C260.878 97.165 255.931 99.6836 253.423 99.9948C250.914 100.306 251.084 97.2053 251.084 97.2053C251.084 97.2053 253.423 89.9089 255.627 75.973C257.831 62.0372 251.3 61.7951 251.3 61.7951" fill="#F5F5F5"/>
<path d="M249.195 74.2495C249.195 74.2495 249.195 74.3475 249.166 74.5434L249.043 75.4022C248.926 76.1687 248.757 77.2811 248.546 78.6988C248.108 81.5805 247.447 85.7071 246.611 90.8019C244.939 101.032 242.518 115.141 239.776 130.719C237.033 146.298 234.572 160.401 232.847 170.619C231.987 175.72 231.291 179.84 230.812 182.722C230.572 184.14 230.385 185.246 230.227 186.013C230.163 186.376 230.116 186.658 230.075 186.866C230.034 187.073 230.011 187.154 230.011 187.154C230.011 187.154 230.011 187.056 230.046 186.86C230.081 186.664 230.116 186.37 230.163 186.001C230.28 185.235 230.449 184.123 230.66 182.705C231.098 179.823 231.759 175.697 232.595 170.602C234.267 160.372 236.688 146.257 239.436 130.679C242.185 115.1 244.658 101.003 246.412 90.7616C247.266 85.661 247.962 81.5402 248.447 78.6585L249.002 75.3676L249.154 74.5146C249.163 74.4256 249.177 74.3371 249.195 74.2495Z" fill="#B3B3B3"/>
<path d="M233.349 99.7642C233.51 99.9267 233.651 100.107 233.77 100.3C234.028 100.657 234.355 101.182 234.811 101.833C235.671 103.142 236.811 104.974 238.027 107.02L241.12 112.282L242.062 113.867C242.195 114.044 242.303 114.238 242.383 114.443C242.221 114.284 242.077 114.106 241.956 113.913C241.705 113.556 241.372 113.031 240.927 112.374C240.079 111.055 238.963 109.205 237.746 107.159L234.618 101.92C234.244 101.297 233.922 100.767 233.665 100.335C233.535 100.159 233.429 99.9672 233.349 99.7642Z" fill="#B3B3B3"/>
<path d="M243.272 114.392C243.219 114.317 246.956 111.838 251.616 108.847C256.276 105.856 260.083 103.499 260.135 103.568C260.188 103.637 256.446 106.127 251.791 109.112C247.137 112.098 243.319 114.455 243.272 114.392Z" fill="#B3B3B3"/>
<path d="M237.975 138.113C238.185 138.011 238.407 137.932 238.635 137.877L240.46 137.33C241.997 136.863 244.126 136.217 246.441 135.416C248.757 134.615 250.838 133.837 252.341 133.255L254.095 132.569C254.308 132.467 254.535 132.393 254.768 132.35C254.574 132.481 254.366 132.591 254.148 132.679C253.739 132.875 253.148 133.145 252.394 133.462C250.92 134.096 248.85 134.921 246.547 135.716C244.243 136.511 242.079 137.134 240.524 137.543C239.74 137.745 239.109 137.9 238.665 137.998C238.44 138.064 238.208 138.102 237.975 138.113Z" fill="#B3B3B3"/>
<path d="M226.046 126.84C226.233 126.95 226.406 127.081 226.561 127.232C226.876 127.497 227.333 127.889 227.882 128.385C228.993 129.37 230.508 130.742 232.168 132.269C233.829 133.797 235.32 135.197 236.39 136.223C236.922 136.73 237.349 137.151 237.641 137.445C237.802 137.588 237.948 137.749 238.074 137.923C237.885 137.819 237.711 137.689 237.559 137.537C237.238 137.272 236.787 136.874 236.232 136.384C235.127 135.405 233.607 134.033 231.946 132.5C230.285 130.967 228.794 129.572 227.73 128.552C227.192 128.039 226.765 127.624 226.473 127.324C226.31 127.182 226.167 127.019 226.046 126.84Z" fill="#B3B3B3"/>
<path d="M218.667 147.208C218.903 147.354 219.123 147.524 219.322 147.716L221.023 149.185C222.45 150.436 224.403 152.177 226.555 154.119C228.707 156.061 230.648 157.83 232.022 159.121L233.653 160.666C233.867 160.838 234.063 161.031 234.238 161.242C234.005 161.093 233.786 160.923 233.583 160.735L231.882 159.265C230.455 158.015 228.502 156.269 226.35 154.332C224.198 152.396 222.257 150.62 220.889 149.329L219.24 147.819C219.028 147.636 218.836 147.431 218.667 147.208Z" fill="#B3B3B3"/>
<path d="M233.946 160.821C234.211 160.692 234.487 160.586 234.77 160.504L237.062 159.726C238.992 159.069 241.658 158.153 244.576 157.064C247.494 155.974 250.107 154.925 251.99 154.153L254.23 153.237C254.498 153.112 254.778 153.011 255.066 152.937C254.82 153.102 254.558 153.241 254.282 153.352C253.768 153.6 253.019 153.928 252.084 154.355C250.219 155.185 247.611 156.268 244.687 157.358C241.763 158.447 239.085 159.346 237.133 159.922C236.156 160.222 235.378 160.452 234.794 160.602C234.519 160.703 234.235 160.776 233.946 160.821Z" fill="#B3B3B3"/>
<path d="M45.7601 184.907C59.2612 177.311 63.6466 161.358 64.4711 146.736C64.6114 144.292 65.1201 141.756 64.1436 139.514C63.1672 137.272 60.5652 135.566 58.2614 136.391C56.3493 137.076 55.3378 139.105 54.1683 140.754C52.5815 142.947 50.3987 144.655 47.8709 145.681C46.222 146.344 44.234 146.655 42.7605 145.681C40.7374 144.327 40.7549 141.405 41.0063 138.99C41.4702 134.471 41.9165 129.961 42.3453 125.458C42.5851 123.043 42.8248 120.57 42.2752 118.207C41.7255 115.844 40.2345 113.55 37.96 112.697C35.6854 111.844 32.6683 112.905 31.9549 115.233C31.6625 116.202 31.7678 117.239 31.6099 118.236C31.452 119.233 30.8673 120.305 29.8558 120.501C28.8442 120.697 27.932 119.925 27.2655 119.147C24.9266 116.472 23.5291 113.17 22.2135 109.891C20.8979 106.611 19.6349 103.274 17.5825 100.398C15.5302 97.5224 12.5481 95.1306 9.05149 94.6349C5.55487 94.1393 1.60803 95.9259 0.403507 99.2456C-0.801012 102.565 0.888823 106.219 2.83009 109.182C5.72562 113.566 9.24669 117.516 13.2848 120.91C14.0099 121.521 14.7934 122.184 15.039 123.106C15.4191 124.766 13.7175 126.23 12.0569 126.616C10.1683 127.048 8.1978 126.679 6.26823 126.731C4.33866 126.783 2.1752 127.423 1.29228 129.146C0.0526768 131.526 1.91208 134.333 3.81826 136.195C7.63842 139.971 12.0911 143.069 16.9803 145.353C18.7344 146.165 20.5704 146.909 21.9094 148.292C23.2484 149.675 23.9267 151.929 22.8918 153.554C21.8568 155.179 19.5413 155.525 17.6819 155.006C15.8225 154.488 14.2262 153.323 12.4838 152.494C9.2269 150.932 4.84736 150.765 2.42078 153.444C0.824504 155.208 0.456131 157.825 0.964836 160.142C1.47354 162.458 2.74823 164.533 4.12816 166.481C8.95209 173.224 15.4074 178.884 22.9912 182.267C30.575 185.65 37.7495 187.028 45.7952 184.93" fill="#F5F5F5"/>
<path d="M44.9533 195.73C44.8914 188.908 44.1689 182.107 42.7957 175.42C41.0759 167.256 38.8836 159.195 36.2293 151.277L34.1594 145.047C33.4811 143.001 32.8087 140.972 32.0252 139.024C30.5187 135.293 28.8028 131.647 26.8855 128.103C25.0787 124.708 23.2427 121.55 21.5002 118.611C19.7578 115.671 18.0679 112.962 16.4307 110.542C13.8612 106.743 10.991 103.151 7.84705 99.7989C6.73609 98.6116 5.84732 97.7183 5.23336 97.1189L4.5317 96.4446C4.45408 96.365 4.36999 96.2917 4.28027 96.2256C4.34614 96.3133 4.41845 96.3961 4.49662 96.4734L5.16904 97.1823C5.75376 97.799 6.63084 98.7154 7.71842 99.9199C10.8057 103.314 13.63 106.932 16.1676 110.744C17.7873 113.147 19.4479 115.861 21.1786 118.812C22.9094 121.763 24.7337 124.921 26.523 128.31C28.4259 131.838 30.1338 135.465 31.6392 139.174C32.4111 141.111 33.0776 143.122 33.7501 145.174C34.4225 147.226 35.1066 149.301 35.8024 151.41C38.4475 159.308 40.6455 167.345 42.3864 175.484C43.7729 182.143 44.5246 188.916 44.6317 195.713" fill="#B3B3B3"/>
<path d="M31.9199 138.996C32.0752 138.675 32.1891 138.336 32.2591 137.987C32.452 137.33 32.6918 136.373 32.9783 135.18C33.563 132.8 34.2237 129.492 34.9546 125.838C35.6855 122.184 36.4047 118.893 37.0128 116.53C37.311 115.377 37.5625 114.392 37.7496 113.735C37.8637 113.398 37.9421 113.05 37.9835 112.697C37.8102 113.009 37.6747 113.34 37.58 113.683C37.3461 114.328 37.0421 115.274 36.7029 116.449C36.0129 118.795 35.2411 122.092 34.5102 125.751L32.6625 135.14C32.4345 136.264 32.2415 137.215 32.0778 137.975C31.9927 138.31 31.9398 138.651 31.9199 138.996Z" fill="#B3B3B3"/>
<path d="M0.894775 130.333C1.30156 130.455 1.71826 130.542 2.14022 130.592C2.94714 130.737 4.11072 130.938 5.53744 131.238C8.40256 131.814 12.326 132.725 16.612 133.929C20.898 135.134 24.7279 136.402 27.4761 137.388C28.8502 137.872 29.9553 138.292 30.7154 138.581C31.1024 138.755 31.5058 138.892 31.9199 138.99C31.562 138.761 31.182 138.568 30.7856 138.413C30.043 138.073 28.9554 137.607 27.5872 137.082C24.8624 136.01 21.0383 134.702 16.7348 133.486C13.0693 132.439 9.35136 131.579 5.59591 130.909C4.1575 130.656 2.98222 130.5 2.16946 130.408C1.74824 130.341 1.32115 130.315 0.894775 130.333Z" fill="#B3B3B3"/>
<path d="M42.4565 174.815C42.5582 174.707 42.643 174.585 42.708 174.452L43.357 173.374C43.9417 172.441 44.6785 171.069 45.6023 169.34C47.4559 165.916 49.8708 161.104 52.4552 155.756C55.0397 150.407 57.4019 145.577 59.1853 142.119L61.302 138.027L61.8867 136.909C61.9587 136.782 62.0156 136.646 62.0563 136.506C61.9576 136.614 61.8731 136.734 61.8049 136.863L61.1617 137.941C60.6062 138.88 59.8402 140.246 58.9105 141.975C57.057 145.405 54.6479 150.217 52.0576 155.565C49.4673 160.914 47.1109 165.738 45.3334 169.202L43.2108 173.294L42.6261 174.412C42.5509 174.538 42.4938 174.673 42.4565 174.815Z" fill="#B3B3B3"/>
<path d="M1.74829 157.698C1.8719 157.786 2.0078 157.856 2.15175 157.905L3.32118 158.418L7.67733 160.262C11.3611 161.813 16.4481 164.02 22.0029 166.464C27.5578 168.908 32.6682 171.075 36.387 172.55C38.2406 173.293 39.7491 173.876 40.8016 174.279L42.012 174.717C42.151 174.774 42.2962 174.814 42.4447 174.838C42.3238 174.749 42.1897 174.679 42.0471 174.631L40.8776 174.118L36.4981 172.256C32.8144 170.7 27.7273 168.493 22.1725 166.049C16.6177 163.605 11.5014 161.438 7.78843 159.963C5.93487 159.225 4.4263 158.637 3.37381 158.234L2.16344 157.801C2.02965 157.751 1.89032 157.716 1.74829 157.698Z" fill="#B3B3B3"/>
<path d="M87.2692 11.0542V58.6251H17.9567L15.46 11.3885L87.2692 11.0542Z" fill="#B3B3B3"/>
<path d="M15.46 11.3942L15.46 58.5271L84.7725 58.5271V11.3942L15.46 11.3942Z" fill="white"/>
<path d="M85.1058 58.8499H15.1326V11.0657H85.1058V58.8499ZM15.7933 58.1986H84.4451V11.7112H15.7933V58.1986Z" fill="#B3B3B3"/>
<path d="M77.2647 17.2441H22.9678V52.6659H77.2647V17.2441Z" fill="white"/>
<path d="M77.2706 17.2441H77.0016H76.259H73.277L62.0855 17.2844L22.997 17.3593L23.1549 17.2037C23.1549 28.0273 23.1549 40.0209 23.1549 52.6255L22.9795 52.4583L77.2823 52.4929L77.1419 52.6255C77.177 41.8479 77.2004 33.03 77.218 26.8574C77.218 23.7797 77.218 21.3764 77.253 19.7281C77.253 18.9154 77.253 18.2872 77.253 17.855C77.253 17.4227 77.253 17.2037 77.253 17.2037C77.253 17.2037 77.253 17.4112 77.253 17.8262C77.253 18.2411 77.253 18.8693 77.253 19.6762C77.253 21.313 77.253 23.7106 77.2881 26.7709C77.2881 32.9435 77.3291 41.8133 77.3583 52.6255V52.7638H77.2238L22.921 52.7984H22.7515V52.6255C22.7515 40.0209 22.7515 28.0273 22.7515 17.2037V17.0481H22.9035L62.0796 17.1288L73.236 17.1691H76.1596H76.9139L77.2706 17.2441Z" fill="#B3B3B3"/>
<path d="M15.4482 11.2559C15.8665 11.4641 16.259 11.7194 16.6177 12.0166C17.331 12.5238 18.2958 13.2385 19.3366 14.0626C20.3774 14.8868 21.2954 15.6591 21.9444 16.2412C22.316 16.5324 22.6481 16.8694 22.9326 17.244C22.8683 17.3189 21.1785 15.9645 19.1203 14.322C17.0621 12.6794 15.4015 11.3365 15.4482 11.2559Z" fill="#B3B3B3"/>
<path d="M84.7783 11.3884C83.6379 12.4933 82.4186 13.516 81.1297 14.4488C79.9131 15.4707 78.6234 16.4049 77.2705 17.244C78.4184 16.1406 79.6435 15.118 80.9367 14.1837C82.1482 13.1631 83.432 12.229 84.7783 11.3884Z" fill="#B3B3B3"/>
<path d="M84.72 58.5328L76.9958 52.3545L84.72 58.5328Z" fill="white"/>
<path d="M76.9957 52.3545C78.3834 53.2532 79.7097 54.2409 80.9659 55.3111C82.2917 56.2977 83.546 57.3743 84.7198 58.5328C83.3305 57.6364 82.004 56.6486 80.7496 55.5762C78.5978 53.876 76.9314 52.4294 76.9957 52.3545Z" fill="#B3B3B3"/>
<path d="M15.4482 58.5272C16.5777 57.4329 17.7853 56.4198 19.0618 55.4957C20.2668 54.486 21.5427 53.5615 22.88 52.7292C21.7534 53.8245 20.5477 54.8376 19.2723 55.7608C18.0654 56.7707 16.7876 57.6952 15.4482 58.5272Z" fill="#B3B3B3"/>
<path d="M33.9956 28.2867V40.1477H68.1607V28.2867H33.9956Z" fill="#B3B3B3"/>
<path d="M247.324 0H210.265V52.9482H247.324V0Z" fill="#B3B3B3"/>
<path d="M245.471 0H208.411V52.9482H245.471V0Z" fill="#F5F5F5"/>
<path d="M240.863 5.73462H213.013V47.2137H240.863V5.73462Z" fill="white"/>
<path d="M240.869 47.2135C240.869 47.2135 240.869 47.1443 240.869 47.0118V46.4354C240.869 45.911 240.869 45.1502 240.869 44.1589C240.869 42.1705 240.869 39.2773 240.869 35.6176C240.869 28.3039 240.84 17.9413 240.822 5.74598L240.916 5.83819H213.013L213.118 5.74022C213.118 21.3878 213.118 35.8135 213.118 47.2366L213.036 47.1559L233.308 47.202H238.91H240.383H240.892H240.401H238.945H233.361L213.036 47.2423H212.96V47.1616C212.96 35.7559 212.96 21.3302 212.96 5.66529V5.63647H241.027V5.72869C241.027 17.9528 240.997 28.3269 240.986 35.6579C240.986 39.3061 240.986 42.1994 240.957 44.182C240.957 45.1617 240.957 45.911 240.957 46.4354V47.0118C240.869 47.1501 240.869 47.2135 240.869 47.2135Z" fill="#B3B3B3"/>
<path d="M245.576 0C245.388 0.335732 245.166 0.652334 244.915 0.945196C244.482 1.52153 243.874 2.28806 243.161 3.12375C242.448 3.95944 241.81 4.69716 241.325 5.22162C241.085 5.51695 240.819 5.79082 240.53 6.04002C240.738 5.71663 240.975 5.41192 241.237 5.12941L243.021 2.99696C243.693 2.18432 244.307 1.45237 244.804 0.858745C245.036 0.551423 245.294 0.264136 245.576 0Z" fill="#B3B3B3"/>
<path d="M241.009 47.0811C242.396 49.2502 244.026 51.2588 245.868 53.0692L241.009 47.0811Z" fill="white"/>
<path d="M245.868 53.0692C245.56 52.845 245.276 52.5901 245.02 52.3084C244.523 51.8128 243.851 51.1039 243.184 50.274C242.611 49.5632 242.075 48.8245 241.576 48.0608C241.348 47.7547 241.152 47.4264 240.992 47.0811C241.243 47.3646 241.472 47.6671 241.676 47.9859C242.085 48.5622 242.658 49.323 243.325 50.1472C243.991 50.9713 244.634 51.6975 245.108 52.2105C245.382 52.4783 245.636 52.7653 245.868 53.0692Z" fill="#B3B3B3"/>
<path d="M208.405 52.9078L213.258 47.0061L208.405 52.9078Z" fill="white"/>
<path d="M213.258 47.0061C212.534 48.0513 211.753 49.0575 210.92 50.0203C209.575 51.6456 208.452 52.9424 208.411 52.902C209.137 51.8578 209.918 50.8517 210.75 49.8878C211.535 48.885 212.372 47.9232 213.258 47.0061Z" fill="#B3B3B3"/>
<path d="M208.405 0C209.235 0.883946 210.016 1.81127 210.744 2.77795C211.528 3.69939 212.262 4.66131 212.943 5.65964C212.111 4.77739 211.33 3.84996 210.604 2.88169C209.82 1.96025 209.086 0.998324 208.405 0Z" fill="#B3B3B3"/>
<path d="M232.186 14.1548H222.86V40.2514H232.186V14.1548Z" fill="#B3B3B3"/>
<path d="M260.422 215.827C260.422 215.914 203.459 215.977 133.217 215.977C62.9745 215.977 5.99951 215.937 5.99951 215.827C5.99951 215.718 62.9452 215.677 133.217 215.677C203.488 215.677 260.422 215.769 260.422 215.827Z" fill="#263238"/>
<path d="M182.65 116.121C183.084 117.861 183.033 119.685 182.503 121.399C181.973 123.113 180.983 124.655 179.638 125.861C177.855 127.417 175.545 128.316 173.908 130.028C172.895 131.166 172.198 132.544 171.885 134.026C171.573 135.509 171.655 137.046 172.125 138.488C172.621 139.92 173.408 141.237 174.436 142.36C175.464 143.484 176.713 144.39 178.106 145.024C180.004 145.898 182.085 146.317 184.178 146.247C186.271 146.177 188.318 145.619 190.151 144.621C194.671 142.102 197.303 137.047 197.969 131.97C198.636 126.892 197.589 121.751 196.215 116.812" fill="#263238"/>
<path d="M239.654 205.655C244.332 204.9 248.717 206.306 253.348 207.315C254.579 207.674 255.879 207.743 257.143 207.516C259.148 207.009 260.575 205.084 260.885 203.067C261.136 201.3 260.719 199.503 259.715 198.018C259.313 197.378 258.764 196.839 258.113 196.445C257.416 196.1 256.653 195.904 255.874 195.868C253.036 195.643 250.189 196.173 247.629 197.402C245.077 198.625 242.762 200.279 240.788 202.289C239.806 203.257 240.098 204.369 239.665 205.672" fill="#263238"/>
<path d="M144.818 131.238C144.068 126.842 144.16 122.346 145.087 117.983C145.48 115.849 146.273 113.806 147.426 111.96C147.819 111.271 148.417 110.718 149.139 110.375C149.664 110.203 150.227 110.179 150.765 110.304C151.303 110.429 151.795 110.699 152.186 111.084C152.685 111.596 153.069 112.208 153.311 112.878C153.553 113.547 153.648 114.26 153.589 114.968C153.485 116.385 153.133 117.773 152.548 119.072C150.742 123.625 147.871 127.406 144.801 131.233" fill="#263238"/>
<path d="M235.45 147.9C236.508 148.643 260.008 198.537 260.008 198.537C258.118 197.741 256.025 197.54 254.015 197.961L252.74 198.295C250.458 198.899 248.295 199.873 246.337 201.177L239.63 205.649C239.365 205.499 239.14 205.288 238.974 205.034C238.808 204.78 238.707 204.491 238.677 204.191V204.001L220.458 173.178L235.45 147.9Z" fill="#F16682"/>
<path d="M147.21 68.4692L153.478 103.586C155.495 108.311 179.019 136.944 179.019 136.944L171.242 161.577L140.345 119.936C137.476 116.913 135.916 112.906 135.995 108.767L137.2 71.2472L147.21 68.4692Z" fill="#FFBE9D"/>
<path d="M180.568 131.44L196.7 132.645L210.769 134.794C210.769 134.794 235.45 141.186 235.45 143.849C235.45 144.736 228.714 165.882 224.925 178.55C223.996 181.627 223.239 184.751 222.656 187.91L235.45 215.827H174.738V190.232C174.738 190.232 170.645 156.614 171.365 152.021C172.084 147.428 180.568 131.44 180.568 131.44Z" fill="#F16682"/>
<path d="M139.556 54.2798C139.651 50.7031 140.022 47.1386 140.667 43.6175C140.755 43.1161 140.965 42.511 141.474 42.4649C142.105 42.3842 142.427 43.1853 142.509 43.8077C143.069 48.0542 142.889 52.3639 141.977 56.5506" fill="#EB996E"/>
<path d="M146.748 128.639C153.671 122.541 153.905 111.977 153.314 103.568C153.199 102.954 153.293 102.32 153.583 101.764C154.244 100.836 155.852 101.188 156.507 102.122C157.162 103.055 157.092 104.283 157.056 105.413C157.413 104.456 158.933 104.462 159.647 105.199C160.36 105.937 160.483 107.049 160.565 108.081L160.793 110.894L181.018 129.913C181.018 129.913 181.574 128.184 183.059 129.181C184.544 130.178 185.503 132.281 185.503 132.281L171.253 162.937L144.807 131.238C145.315 130.279 145.97 129.403 146.748 128.639Z" fill="#F16682"/>
<path d="M174.195 149.854C172.084 152.507 170.508 155.533 169.552 158.77C168.599 162.028 168.703 165.498 169.85 168.694C170.738 170.906 172.191 172.853 174.07 174.346C175.948 175.839 178.187 176.827 180.568 177.213" fill="#F16682"/>
<path d="M239.654 205.655L238.888 215.827H253.874L257.383 197.817C252.818 197.565 248.315 198.956 244.712 201.73L239.654 205.655Z" fill="#FFBE9D"/>
<path d="M153.794 126.386C153.878 126.106 153.988 125.834 154.121 125.573C154.355 125.066 154.671 124.316 155.027 123.383C155.384 122.449 155.764 121.32 156.121 120.052C156.492 118.668 156.786 117.265 157.004 115.85C157.206 114.434 157.329 113.009 157.372 111.579C157.372 110.26 157.372 109.072 157.29 108.075C157.208 107.078 157.132 106.277 157.056 105.724C157.006 105.436 156.979 105.145 156.975 104.854C157.07 105.131 157.136 105.416 157.173 105.706C157.325 106.484 157.436 107.269 157.507 108.058C157.621 109.23 157.67 110.408 157.653 111.585C157.608 114.472 157.184 117.341 156.39 120.121C156.063 121.254 155.673 122.368 155.22 123.458C154.835 124.391 154.49 125.129 154.221 125.625C154.098 125.889 153.955 126.143 153.794 126.386Z" fill="#263238"/>
<path d="M158.197 121.031C158.387 120.535 158.606 120.05 158.852 119.579C159.875 117.24 160.469 114.74 160.606 112.196C160.605 111.666 160.634 111.137 160.694 110.611C160.808 111.133 160.852 111.668 160.822 112.202C160.802 114.786 160.203 117.335 159.068 119.665C158.845 120.159 158.551 120.619 158.197 121.031Z" fill="#263238"/>
<path d="M181.948 136.973C181.901 136.944 182.147 136.569 182.287 135.889C182.451 135 182.399 134.086 182.135 133.221C181.857 132.35 181.519 131.499 181.123 130.673C180.939 130.332 180.801 129.967 180.714 129.59C180.946 129.898 181.142 130.23 181.299 130.581C181.762 131.393 182.136 132.251 182.416 133.14C182.695 134.051 182.717 135.019 182.48 135.941C182.406 136.328 182.222 136.686 181.948 136.973Z" fill="#263238"/>
<path d="M178.434 177.57C178.342 177.533 178.256 177.484 178.177 177.426L177.487 176.976C176.902 176.579 176.031 175.997 175.013 175.207C173.811 174.294 172.711 173.257 171.733 172.112C170.53 170.695 169.663 169.032 169.195 167.242C168.749 165.452 168.634 163.597 168.856 161.767C169.035 160.282 169.371 158.82 169.856 157.404C170.178 156.45 170.551 155.513 170.973 154.597C171.125 154.275 171.242 154.021 171.33 153.86C171.368 153.77 171.417 153.685 171.476 153.606C171.365 153.959 171.234 154.305 171.084 154.643C170.821 155.3 170.441 156.257 170.061 157.467C169.612 158.877 169.302 160.327 169.137 161.796C168.933 163.593 169.052 165.411 169.488 167.167C169.943 168.917 170.783 170.546 171.949 171.939C172.907 173.077 173.978 174.115 175.148 175.04C176.142 175.847 176.978 176.452 177.557 176.884L178.212 177.38C178.364 177.495 178.44 177.559 178.434 177.57Z" fill="#263238"/>
<path d="M211.558 183.27C211.477 183.312 211.391 183.343 211.301 183.362C211.126 183.408 210.874 183.495 210.541 183.558C209.599 183.759 208.639 183.873 207.676 183.898C204.463 183.995 201.293 183.142 198.577 181.448C195.86 179.755 193.72 177.298 192.432 174.394C192.04 173.526 191.732 172.623 191.514 171.697C191.432 171.369 191.403 171.121 191.368 170.936C191.348 170.847 191.338 170.757 191.339 170.666C191.458 170.991 191.556 171.324 191.631 171.663C192.562 175.142 194.646 178.216 197.552 180.394C200.458 182.572 204.019 183.731 207.67 183.685C208.624 183.68 209.576 183.599 210.517 183.443C210.861 183.367 211.208 183.31 211.558 183.27Z" fill="#263238"/>
<path d="M220.861 194.503C220.779 194.503 221.551 191.292 222.615 187.385C223.679 183.477 224.556 180.325 224.632 180.348C224.708 180.371 223.942 183.552 222.907 187.46C221.872 191.367 220.943 194.503 220.861 194.503Z" fill="#263238"/>
<path d="M229.018 187.708C228.948 187.748 226.597 183.961 223.755 179.247C220.914 174.533 218.692 170.677 218.768 170.637C218.844 170.596 221.188 174.377 224.03 179.091C226.872 183.806 229.117 187.662 229.018 187.708Z" fill="#263238"/>
<path d="M251.465 197.039C251.465 197.096 250.612 197.166 249.278 197.5C248.5 197.695 247.736 197.943 246.992 198.243C246.085 198.622 245.209 199.069 244.373 199.58C243.547 200.104 242.765 200.692 242.034 201.338C241.438 201.875 240.881 202.453 240.367 203.067C239.49 204.11 239.058 204.842 239.005 204.796C239.075 204.61 239.168 204.432 239.28 204.266C239.551 203.794 239.858 203.343 240.198 202.917C240.697 202.281 241.247 201.683 241.841 201.131C242.576 200.459 243.371 199.854 244.215 199.321C245.066 198.799 245.962 198.352 246.893 197.984C247.652 197.689 248.434 197.455 249.232 197.287C249.766 197.165 250.31 197.084 250.857 197.045C251.059 197.014 251.263 197.012 251.465 197.039Z" fill="#263238"/>
<path d="M254.33 193.569C254.33 193.632 253.389 193.517 251.886 193.644C251.009 193.722 250.141 193.872 249.29 194.093C247.203 194.64 245.253 195.603 243.56 196.923C242.871 197.463 242.23 198.059 241.642 198.704C240.642 199.811 240.174 200.618 240.122 200.589C240.2 200.385 240.304 200.191 240.431 200.012C240.557 199.79 240.697 199.576 240.852 199.373C241.047 199.094 241.256 198.824 241.478 198.566C242.053 197.889 242.691 197.268 243.384 196.71C244.242 196.032 245.167 195.441 246.144 194.946C247.128 194.472 248.159 194.097 249.22 193.828C250.09 193.613 250.979 193.48 251.874 193.431C252.215 193.414 252.557 193.414 252.898 193.431C253.158 193.432 253.417 193.447 253.675 193.477C253.897 193.48 254.117 193.511 254.33 193.569Z" fill="#263238"/>
<g opacity="0.3">
<path d="M191.964 171.893C190.59 174.464 191.736 177.599 192.993 180.233C193.97 182.273 195.057 184.342 196.835 185.766C197.708 186.469 198.72 186.987 199.806 187.288C200.892 187.588 202.03 187.663 203.147 187.51C204.265 187.356 205.338 186.976 206.299 186.394C207.26 185.813 208.089 185.041 208.734 184.129C205.007 184.074 201.383 182.909 198.34 180.787C195.297 178.665 192.976 175.685 191.684 172.239" fill="black"/>
</g>
<g opacity="0.3">
<path d="M218.808 170.637C217.756 173.109 218.551 176.492 219.65 178.942C220.75 181.391 221.919 184.129 221.036 186.67C220.809 187.122 220.691 187.619 220.691 188.123C220.75 188.618 221.276 189.097 221.75 188.866C221.994 188.697 222.164 188.441 222.223 188.152C223.054 185.685 223.886 183.22 224.72 180.757" fill="black"/>
</g>
<path d="M163.494 138.079C163.589 136.532 163.784 134.992 164.079 133.469C164.278 131.938 164.577 130.421 164.974 128.927C164.885 130.475 164.69 132.016 164.389 133.538C164.192 135.07 163.893 136.587 163.494 138.079Z" fill="#FAFAFA"/>
<path d="M157.337 136.806C157.261 136.852 156.255 135.469 154.864 133.878C153.472 132.287 152.244 131.094 152.303 131.031C153.351 131.786 154.291 132.678 155.098 133.682C155.979 134.623 156.731 135.673 157.337 136.806Z" fill="#FAFAFA"/>
<path d="M162.623 121.959C162.447 122.331 162.225 122.679 161.962 122.997C161.518 123.613 160.869 124.438 160.115 125.302C159.36 126.167 158.635 126.945 158.091 127.475C157.819 127.783 157.506 128.054 157.162 128.282C157.097 128.224 158.378 126.858 159.881 125.106C161.383 123.354 162.553 121.884 162.623 121.959Z" fill="#FAFAFA"/>
<path d="M160.559 114.703C160.471 114.738 160.138 114.006 159.495 113.274C158.852 112.542 158.162 112.121 158.208 112.035C158.817 112.207 159.349 112.574 159.723 113.078C160.172 113.516 160.466 114.086 160.559 114.703Z" fill="#FAFAFA"/>
<path d="M155.226 119.175C154.749 119.397 154.233 119.528 153.706 119.561C153.195 119.693 152.662 119.724 152.139 119.654C153.127 119.3 154.176 119.138 155.226 119.175Z" fill="#FAFAFA"/>
<path d="M168.681 125.578C168.694 124.681 168.629 123.785 168.488 122.898C168.246 122.033 167.927 121.19 167.535 120.38C168.198 121.051 168.633 121.909 168.78 122.835C169.03 123.738 168.996 124.695 168.681 125.578Z" fill="#FAFAFA"/>
<path d="M175.867 133.198C174.788 131.501 173.34 130.062 171.628 128.985C172.595 129.355 173.472 129.921 174.202 130.647C174.933 131.373 175.5 132.242 175.867 133.198Z" fill="#FAFAFA"/>
<path d="M164.33 146.419C162.59 147.062 160.661 146.998 158.969 146.24C158.998 146.154 160.138 146.517 161.641 146.557C163.143 146.598 164.307 146.333 164.33 146.419Z" fill="#FAFAFA"/>
<path d="M169.745 149.157C169.663 149.122 170.119 147.796 170.499 146.114C170.879 144.431 171.049 143.036 171.137 143.047C171.197 144.102 171.082 145.159 170.797 146.177C170.612 147.22 170.256 148.226 169.745 149.157Z" fill="#FAFAFA"/>
<path d="M181.574 149.6C180.649 148.83 179.794 147.981 179.019 147.064C178.163 146.215 177.381 145.298 176.68 144.321C177.601 145.095 178.454 145.945 179.229 146.862C180.084 147.711 180.868 148.627 181.574 149.6Z" fill="#FAFAFA"/>
<path d="M187.082 163.069C186.381 162.568 185.741 161.988 185.176 161.34C184.542 160.76 183.977 160.11 183.492 159.404C184.193 159.905 184.833 160.486 185.398 161.133C186.037 161.708 186.603 162.358 187.082 163.069Z" fill="#FAFAFA"/>
<path d="M176.843 164.355C176.171 165.06 175.38 165.645 174.505 166.084C173.681 166.624 172.766 167.014 171.803 167.236C171.803 167.156 172.973 166.66 174.353 165.847C175.733 165.035 176.785 164.285 176.843 164.355Z" fill="#FAFAFA"/>
<path d="M181.556 177.167C181.469 177.167 181.819 175.633 181.995 173.737C182.17 171.841 182.118 170.279 182.205 170.279C182.42 171.42 182.452 172.587 182.299 173.737C182.241 174.912 181.99 176.07 181.556 177.167Z" fill="#FAFAFA"/>
<path d="M199.279 166.752C198.313 166.169 197.456 165.426 196.747 164.556C195.965 163.752 195.334 162.817 194.882 161.796C194.958 161.744 195.759 162.994 196.975 164.36C198.191 165.726 199.337 166.677 199.279 166.752Z" fill="#FAFAFA"/>
<path d="M205.752 172.187C205.682 172.135 206.571 170.936 207.565 169.397C208.559 167.859 209.289 166.568 209.366 166.608C208.986 167.656 208.465 168.648 207.816 169.559C207.255 170.525 206.56 171.409 205.752 172.187Z" fill="#FAFAFA"/>
<path d="M204.805 158.885C202.808 158.558 200.85 158.037 198.958 157.329C199.966 157.448 200.96 157.66 201.928 157.963C202.916 158.174 203.88 158.483 204.805 158.885Z" fill="#FAFAFA"/>
<path d="M200.086 182.296C199.982 181.388 199.982 180.472 200.086 179.564C200.094 178.651 200.199 177.741 200.402 176.85C200.507 177.757 200.507 178.674 200.402 179.581C200.396 180.495 200.29 181.405 200.086 182.296Z" fill="#FAFAFA"/>
<path d="M204.167 190.313C204.473 189.382 204.72 188.433 204.904 187.472C204.985 186.496 205.001 185.516 204.951 184.538C205.252 185.497 205.339 186.51 205.203 187.505C205.068 188.5 204.714 189.454 204.167 190.301V190.313Z" fill="#FAFAFA"/>
<path d="M193.59 188.544C193.291 186.553 193.687 184.521 194.712 182.78C194.794 182.815 194.256 184.031 193.952 185.627C193.648 187.224 193.677 188.538 193.59 188.544Z" fill="#FAFAFA"/>
<path d="M183.942 192.606C182.989 191.954 182.071 191.251 181.194 190.503C180.255 189.832 179.351 189.115 178.486 188.353C179.537 188.869 180.519 189.512 181.41 190.266C182.344 190.946 183.193 191.732 183.942 192.606Z" fill="#FAFAFA"/>
<path d="M190.473 181.299C188.235 182.698 185.889 183.922 183.457 184.959C184.558 184.212 185.715 183.549 186.918 182.976C188.058 182.327 189.246 181.767 190.473 181.299Z" fill="#FAFAFA"/>
<path d="M210.769 206.675C210.645 206.715 210.517 206.746 210.389 206.767C210.137 206.813 209.769 206.906 209.289 206.969C207.935 207.173 206.566 207.26 205.196 207.228C201.659 207.178 198.173 206.388 194.967 204.912C191.762 203.436 188.911 201.306 186.602 198.664C185.261 197.143 184.113 195.467 183.182 193.673C182.547 192.471 182.023 191.215 181.615 189.921C181.457 189.466 181.381 189.102 181.311 188.86C181.272 188.737 181.246 188.609 181.235 188.48C181.291 188.597 181.336 188.718 181.369 188.843C181.457 189.079 181.55 189.419 181.726 189.886C182.847 193.046 184.574 195.963 186.813 198.479C189.127 201.061 191.952 203.149 195.114 204.617C198.276 206.085 201.709 206.901 205.202 207.015C206.569 207.065 207.937 207.011 209.295 206.854C209.781 206.808 210.149 206.733 210.4 206.71C210.521 206.684 210.645 206.673 210.769 206.675Z" fill="#263238"/>
<path d="M193.297 203.689C193.098 202.775 193.194 201.821 193.572 200.963C193.858 200.071 194.423 199.29 195.186 198.733C194.67 199.47 194.225 200.253 193.859 201.073C193.591 201.926 193.403 202.802 193.297 203.689Z" fill="#FAFAFA"/>
<path d="M188.485 201.707C187.93 202.131 187.42 202.61 186.965 203.136C186.585 203.717 186.264 204.333 186.006 204.975C186.025 204.244 186.274 203.538 186.718 202.952C187.162 202.367 187.78 201.932 188.485 201.707Z" fill="#FAFAFA"/>
<path d="M206.991 212.565C206.034 212.49 205.11 212.189 204.296 211.687C203.482 211.186 202.802 210.498 202.314 209.684C203.585 211.037 205.2 212.032 206.991 212.565Z" fill="#FAFAFA"/>
<path d="M209.868 196.601C209.746 197.448 209.382 198.244 208.821 198.896C208.259 199.549 207.521 200.032 206.693 200.289C207.377 199.824 208.011 199.293 208.588 198.704C209.087 198.048 209.516 197.343 209.868 196.601Z" fill="#FAFAFA"/>
<path d="M218.049 208.502C217.978 208.444 218.75 207.482 219.464 206.156C220.177 204.831 220.557 203.661 220.633 203.689C220.302 205.523 219.394 207.206 218.037 208.502H218.049Z" fill="#FAFAFA"/>
<path d="M228.86 210.064C228.895 210.15 227.831 210.565 226.761 211.436C225.691 212.306 225.047 213.24 224.971 213.165C225.307 212.37 225.86 211.681 226.568 211.176C227.212 210.603 228.006 210.218 228.86 210.064Z" fill="#FAFAFA"/>
<path d="M220.615 196.422C220.522 196.451 220.031 194.768 218.937 192.901C217.844 191.033 216.674 189.719 216.75 189.662C217.071 189.884 217.354 190.157 217.587 190.468C218.817 191.886 219.755 193.526 220.346 195.298C220.493 195.657 220.584 196.036 220.615 196.422Z" fill="#FAFAFA"/>
<path d="M222.229 179.265C220.409 179.884 218.528 180.311 216.616 180.538C218.436 179.92 220.318 179.494 222.229 179.265Z" fill="#FAFAFA"/>
<path d="M217.253 174.135C216.586 173.523 215.986 172.843 215.464 172.106C214.869 171.427 214.349 170.687 213.915 169.899C214.588 170.503 215.189 171.181 215.704 171.922C216.305 172.599 216.825 173.341 217.253 174.135Z" fill="#FAFAFA"/>
<path d="M229.603 171.057C227.708 171.011 225.844 170.575 224.13 169.778C225.056 169.934 225.971 170.144 226.872 170.406C227.795 170.568 228.707 170.786 229.603 171.057Z" fill="#FAFAFA"/>
<path d="M238.373 170.902C238.625 170.087 238.924 169.286 239.268 168.504C239.515 167.686 239.814 166.883 240.163 166.101C240.115 166.964 239.917 167.812 239.578 168.608C239.317 169.437 238.909 170.214 238.373 170.902Z" fill="#FAFAFA"/>
<path d="M236.374 182.613C234.56 182.214 232.922 181.257 231.696 179.881C231.754 179.812 232.678 180.607 233.959 181.351C235.239 182.094 236.403 182.527 236.374 182.613Z" fill="#FAFAFA"/>
<path d="M242.069 182.255C242.186 181.099 242.401 179.953 242.712 178.832C242.924 177.692 243.233 176.572 243.636 175.483C243.308 177.784 242.777 180.051 242.051 182.261L242.069 182.255Z" fill="#FAFAFA"/>
<path d="M237.315 195.35C235.855 193.722 234.552 191.964 233.421 190.1C234.187 190.882 234.88 191.73 235.491 192.636C236.182 193.483 236.793 194.392 237.315 195.35Z" fill="#FAFAFA"/>
<path d="M245.431 190.341C245.349 190.382 244.817 189.339 243.975 188.174C243.133 187.01 242.32 186.163 242.384 186.1C243.12 186.607 243.746 187.254 244.226 188.002C244.785 188.693 245.195 189.489 245.431 190.341Z" fill="#FAFAFA"/>
<path d="M253.044 189.218C252.377 188.446 251.753 187.64 251.173 186.803C250.508 186.031 249.884 185.227 249.302 184.394C250.857 185.745 252.129 187.384 253.044 189.218Z" fill="#FAFAFA"/>
<path d="M251.237 194.192C251.133 193.499 250.897 192.832 250.541 192.226C250.113 191.667 249.584 191.19 248.98 190.82C248.98 190.786 249.249 190.82 249.617 190.999C250.092 191.248 250.495 191.613 250.787 192.059C251.084 192.504 251.263 193.015 251.307 193.546C251.366 193.927 251.29 194.192 251.237 194.192Z" fill="#FAFAFA"/>
<path d="M245.32 201.01C245.273 201.01 245.291 200.854 245.244 200.652C245.188 200.393 245.046 200.16 244.84 199.989C244.624 199.832 244.36 199.753 244.092 199.765C243.881 199.765 243.747 199.817 243.724 199.765C243.7 199.713 243.811 199.609 244.063 199.54C244.228 199.497 244.401 199.493 244.568 199.527C244.736 199.561 244.893 199.633 245.027 199.737C245.162 199.84 245.271 199.973 245.345 200.125C245.419 200.277 245.456 200.444 245.454 200.612C245.448 200.889 245.355 201.021 245.32 201.01Z" fill="#FAFAFA"/>
<path d="M184.486 211.908C183.394 211.493 182.401 210.859 181.572 210.045C180.742 209.232 180.094 208.256 179.667 207.182C180.86 209.126 182.513 210.756 184.486 211.931V211.908Z" fill="#FAFAFA"/>
<path d="M147.268 68.8611C146.327 60.095 144.625 51.8476 144.163 43.2544C144.182 43.0389 144.154 42.8221 144.083 42.6177C144.011 42.4132 143.897 42.2258 143.748 42.0671C143.621 41.9938 143.48 41.9467 143.334 41.9288C143.187 41.9109 143.039 41.9225 142.897 41.963C142.755 42.0034 142.624 42.0718 142.51 42.164C142.396 42.2562 142.302 42.3703 142.234 42.4994C141.979 43.0388 141.878 43.6366 141.942 44.2284C141.952 48.7983 141.16 53.3355 139.603 57.6398C138.603 60.435 137.264 63.115 136.515 65.9794C135.767 68.8438 137.176 69.8178 138.486 72.4863" fill="#FFBE9D"/>
<path d="M117.407 34.1425C117.354 34.2059 114.068 31.5721 110.063 28.2581C106.057 24.9442 102.859 22.1778 102.918 22.1374C102.976 22.0971 106.256 24.7079 110.262 28.0276C114.267 31.3473 117.465 34.0792 117.407 34.1425Z" fill="#263238"/>
<path d="M134.083 30.1945C134.001 30.1945 133.668 25.0767 133.346 18.7542C133.025 12.4318 132.826 7.3024 132.908 7.29664C132.989 7.29087 133.323 12.4145 133.65 18.7427C133.978 25.0709 134.165 30.1945 134.083 30.1945Z" fill="#263238"/>
<path d="M123.465 26.5348C123.383 26.5348 122.359 23.6531 121.172 20.0049C119.985 16.3567 119.091 13.4116 119.173 13.3886C119.255 13.3655 120.278 16.2703 121.465 19.9127C122.652 23.5552 123.541 26.5118 123.465 26.5348Z" fill="#263238"/>
<path d="M113.998 39.5485C112.458 39.0146 110.953 38.3891 109.49 37.6754C107.984 37.0496 106.519 36.3317 105.104 35.5256C106.644 36.0595 108.15 36.6851 109.612 37.3987C111.118 38.0258 112.582 38.7437 113.998 39.5485Z" fill="#263238"/>
<path d="M98.6256 32.9263C98.6256 33.007 98.1286 33.0185 97.5381 32.9263C96.9475 32.8341 96.4797 32.7303 96.4914 32.6496C96.5031 32.5689 96.9884 32.5574 97.5731 32.6496C98.1579 32.7418 98.6256 32.8456 98.6256 32.9263Z" fill="#263238"/>
<path d="M119.553 9.6654C119.465 9.6654 119.401 9.19857 119.401 8.61647C119.401 8.03437 119.465 7.56177 119.553 7.56177C119.64 7.56177 119.705 8.03437 119.705 8.61647C119.705 9.19857 119.635 9.6654 119.553 9.6654Z" fill="#263238"/>
<path d="M154.759 17.8032C154.823 17.8608 152.122 20.9096 148.736 24.6155C145.351 28.3213 142.556 31.2837 142.48 31.2261C142.404 31.1684 145.117 28.1254 148.502 24.4138C151.888 20.7021 154.7 17.7513 154.759 17.8032Z" fill="#263238"/>
<path d="M159.056 13.6134C159.115 13.671 158.805 14.0745 158.36 14.5125C157.916 14.9505 157.513 15.2502 157.454 15.1926C157.396 15.1349 157.706 14.7315 158.15 14.2992C158.594 13.867 158.998 13.5327 159.056 13.6134Z" fill="#263238"/>
<path d="M169.476 28.3677C169.225 28.5457 168.959 28.7019 168.681 28.8345C168.16 29.1169 167.4 29.5146 166.453 29.9872C164.553 30.9324 161.892 32.1657 158.898 33.3933C155.905 34.6209 153.139 35.6007 151.116 36.275C150.11 36.6035 149.291 36.8514 148.718 37.0185C148.428 37.1223 148.129 37.1976 147.824 37.2433C148.1 37.1084 148.388 36.9966 148.683 36.909L151.022 36.0733C153.022 35.3644 155.764 34.3443 158.758 33.134C161.752 31.9237 164.412 30.7076 166.359 29.8143L168.628 28.7538C168.901 28.6047 169.184 28.4756 169.476 28.3677Z" fill="#263238"/>
<path d="M160.927 42.5569C160.428 42.7762 159.907 42.9442 159.372 43.0583C158.401 43.3234 157.033 43.6346 155.525 43.894C154.016 44.1533 152.601 44.2974 151.613 44.3666C151.072 44.4345 150.525 44.4442 149.981 44.3954C150.512 44.2748 151.052 44.1939 151.595 44.1533C152.589 44.0323 153.963 43.8479 155.472 43.577C156.981 43.3061 158.343 43.0468 159.325 42.8393C159.849 42.6967 160.386 42.6022 160.927 42.5569Z" fill="#263238"/>
<path d="M168.698 41.1391C167.585 41.3389 166.444 41.3389 165.33 41.1391C166.444 40.9393 167.585 40.9393 168.698 41.1391Z" fill="#263238"/>
<path d="M138.503 72.4748C137.345 71.599 136.447 70.4323 135.903 69.097C135.358 67.7617 135.188 66.3067 135.41 64.8844C135.709 63.1554 136.58 61.5878 137.27 59.974C137.96 58.3603 138.492 56.5679 138.071 54.8677C137.838 54.2366 137.681 53.5809 137.603 52.9139C137.603 52.2453 138.042 51.4961 138.72 51.4673C138.976 51.4877 139.224 51.5665 139.444 51.6975C139.665 51.8285 139.851 52.0082 139.989 52.2223C141.129 53.6113 142.041 57.6687 141.468 60.7002" fill="#FFBE9D"/>
<path d="M141.468 60.7002C141.468 60.7002 141.527 60.2334 141.562 59.3919C141.598 58.2051 141.498 57.0179 141.263 55.8532C141.106 55.0511 140.871 54.2656 140.562 53.5075C140.399 53.0951 140.179 52.7071 139.907 52.3549C139.785 52.1658 139.625 52.0033 139.437 51.8775C139.249 51.7516 139.037 51.665 138.813 51.6229C138.584 51.6337 138.364 51.7184 138.187 51.8641C138.011 52.0099 137.888 52.2086 137.837 52.4298C137.712 52.9211 137.744 53.4387 137.931 53.911C138.127 54.4382 138.264 54.9852 138.34 55.542C138.396 56.1186 138.375 56.7 138.275 57.271C137.866 59.6109 136.603 61.5013 135.937 63.3744C135.608 64.2496 135.432 65.1733 135.416 66.1063C135.413 66.919 135.535 67.7275 135.779 68.5039C136.133 69.6367 136.731 70.6806 137.533 71.5642C138.118 72.1809 138.498 72.4518 138.48 72.4806C138.376 72.4283 138.278 72.3645 138.188 72.2904C137.924 72.0923 137.676 71.8746 137.445 71.6391C136.591 70.7703 135.95 69.7192 135.574 68.5672C135.308 67.7732 135.169 66.9427 135.165 66.1063C135.17 65.1432 135.342 64.1881 135.673 63.2822C136.317 61.3688 137.562 59.4784 137.948 57.2249C138.048 56.6773 138.069 56.1186 138.012 55.5651C137.942 55.024 137.811 54.4924 137.621 53.9801C137.418 53.4508 137.39 52.8723 137.539 52.326C137.626 52.0533 137.785 51.8086 138.001 51.6171C138.108 51.5181 138.236 51.442 138.374 51.3934C138.513 51.3448 138.661 51.3249 138.808 51.3347C139.075 51.3697 139.333 51.4601 139.563 51.6002C139.792 51.7403 139.989 51.9268 140.141 52.1474C140.425 52.5289 140.653 52.9479 140.819 53.3923C141.128 54.1664 141.355 54.9698 141.497 55.7898C141.719 56.9715 141.788 58.176 141.702 59.3746C141.681 59.6999 141.638 60.0234 141.573 60.3429C141.556 60.4663 141.52 60.5867 141.468 60.7002Z" fill="#EB996E"/>
<path d="M217.908 107.504C218.099 108.329 218.552 109.072 219.201 109.625C219.85 110.179 220.661 110.514 221.516 110.582C222.373 110.624 223.227 110.45 223.997 110.077C224.767 109.704 225.428 109.144 225.919 108.45C226.89 107.038 227.281 105.316 227.012 103.631C226.679 101.205 225.042 98.8709 222.668 98.1505C220.294 97.4301 217.341 98.7268 216.686 101.078L213.95 104.842L217.908 107.504Z" fill="#263238"/>
<path d="M214.675 100.11C214.94 98.0245 214.778 95.9076 214.197 93.885C213.617 91.8624 212.63 89.9753 211.296 88.3358C209.961 86.6962 208.306 85.3376 206.429 84.3406C204.551 83.3436 202.49 82.7285 200.367 82.5318C191.882 81.7365 184.334 87.9667 183.065 96.2775C181.948 103.562 180.989 110.916 181.024 113.568C181.129 121.636 185.907 124.76 187.848 125.671C188.545 125.918 189.266 126.094 190 126.195C190.007 126.197 190.013 126.199 190.019 126.203C190.025 126.207 190.03 126.212 190.034 126.218C190.038 126.224 190.04 126.231 190.041 126.238C190.042 126.245 190.042 126.252 190.04 126.259L188.228 135.48C187.403 141.537 190.836 146.943 196.969 147.825C203.103 148.707 207.939 144.056 208.88 137.993L214.675 100.11Z" fill="#FFBE9D"/>
<path d="M184.474 100.986C184.609 101.176 185.684 100.606 187.07 100.807C188.456 101.009 189.362 101.839 189.538 101.689C189.625 101.626 189.503 101.309 189.111 100.928C188.573 100.433 187.893 100.113 187.164 100.012C186.444 99.9089 185.709 100.032 185.065 100.364C184.579 100.623 184.404 100.9 184.474 100.986Z" fill="#263238"/>
<path d="M196.776 103.614C196.911 103.804 197.993 103.234 199.373 103.436C200.753 103.637 201.671 104.467 201.846 104.317C201.928 104.254 201.811 103.937 201.413 103.551C200.876 103.058 200.199 102.74 199.472 102.64C198.752 102.537 198.018 102.66 197.373 102.992C196.899 103.251 196.712 103.528 196.776 103.614Z" fill="#263238"/>
<path d="M191.993 110.058C191.298 109.729 190.563 109.487 189.807 109.337C189.456 109.251 189.134 109.13 189.111 108.888C189.134 108.524 189.268 108.177 189.497 107.891L190.935 105.389C192.941 101.822 194.443 98.8709 194.303 98.7903C194.163 98.7096 192.409 101.539 190.403 105.13L189.006 107.649C188.726 108.04 188.589 108.514 188.62 108.991C188.657 109.118 188.721 109.236 188.809 109.335C188.897 109.435 189.006 109.514 189.128 109.568C189.316 109.647 189.512 109.703 189.713 109.735C190.456 109.937 191.222 110.046 191.993 110.058Z" fill="#263238"/>
<path d="M190.052 126.253C190.052 126.253 195.315 127.452 202.594 124.455C202.594 124.455 199.46 131.111 189.567 128.743L190.052 126.253Z" fill="#EB996E"/>
<path d="M192.093 113.429C192.403 113.148 192.779 112.948 193.188 112.848C193.596 112.747 194.024 112.749 194.432 112.853C194.733 112.926 195.016 113.058 195.265 113.24C195.514 113.422 195.724 113.651 195.882 113.913C196.034 114.167 196.102 114.46 196.078 114.753C196.054 115.046 195.939 115.325 195.747 115.55C195.49 115.764 195.174 115.897 194.839 115.931C194.504 115.965 194.166 115.899 193.87 115.74C193.25 115.422 192.701 114.983 192.257 114.449C192.114 114.319 191.999 114.163 191.918 113.988C191.877 113.906 191.863 113.813 191.878 113.722C191.892 113.631 191.935 113.547 191.999 113.481" fill="#EB996E"/>
<path d="M195.923 111.585C195.701 111.539 195.478 113.02 194.04 113.89C192.602 114.761 191.023 114.363 190.982 114.57C190.947 114.663 191.298 114.911 191.97 115.026C192.847 115.163 193.746 114.991 194.508 114.542C195.239 114.108 195.771 113.412 195.993 112.599C196.139 111.983 196.028 111.591 195.923 111.585Z" fill="#263238"/>
<path d="M197.73 99.1764C197.811 99.5684 199.221 99.5914 200.811 100.018C202.401 100.444 203.659 101.067 203.922 100.767C204.039 100.623 203.863 100.243 203.39 99.8047C202.748 99.2632 201.989 98.8729 201.172 98.6632C200.354 98.4535 199.499 98.4299 198.671 98.5943C198.028 98.7442 197.7 98.992 197.73 99.1764Z" fill="#263238"/>
<path d="M185.871 96.7848C186.064 97.1306 187.07 96.9462 188.21 97.096C189.35 97.2459 190.298 97.6032 190.549 97.315C190.672 97.1709 190.549 96.8366 190.181 96.4851C189.664 96.0506 189.027 95.7779 188.352 95.7019C187.677 95.6259 186.995 95.7501 186.392 96.0586C185.965 96.3179 185.784 96.6176 185.871 96.7848Z" fill="#263238"/>
<path d="M181.463 94.4737C183.153 97.0154 188.52 95.442 191.76 93.6957C193.452 94.7596 195.498 95.1308 197.464 94.7304C199.429 94.33 201.159 93.1896 202.285 91.5517C204.138 93.857 207.91 93.1078 209.301 90.4855C210.693 87.8631 209.886 84.2495 208.015 81.9557C206.144 79.6618 203.372 78.4976 200.647 78.0078C194.186 76.8551 187.152 79.2988 183.287 85.0564C181.504 87.7133 180.434 91.2923 181.492 94.4737" fill="#263238"/>
<path d="M199.32 78.9123C199.32 79.0276 197.794 78.7394 195.397 79.1313C192.283 79.6419 189.428 81.156 187.281 83.4366C185.259 85.8243 183.923 88.7018 183.41 91.7704C183.232 93.0496 183.164 94.3413 183.205 95.6319C183.081 95.2988 183.008 94.949 182.989 94.5945C182.887 93.6356 182.902 92.668 183.036 91.7128C183.46 88.5252 184.803 85.5247 186.907 83.0677C189.13 80.6949 192.125 79.1636 195.373 78.7394C196.343 78.6109 197.324 78.5954 198.297 78.6933C198.647 78.7143 198.992 78.7882 199.32 78.9123Z" fill="#455A64"/>
<path d="M190.584 90.7617C190.488 90.4698 190.444 90.1636 190.456 89.8568C190.425 89.0208 190.514 88.1846 190.719 87.3728C191.032 86.0114 191.624 84.7274 192.459 83.6C193.294 82.4726 194.354 81.5255 195.575 80.8172C196.795 80.1089 198.15 79.6542 199.555 79.4812C200.96 79.3082 202.387 79.4205 203.746 79.8113C204.567 80.033 205.354 80.3626 206.085 80.791C206.367 80.9356 206.619 81.1311 206.828 81.3674C205.808 80.8917 204.747 80.506 203.659 80.2147C201.01 79.5498 198.203 79.9436 195.848 81.3104C193.493 82.6771 191.782 84.906 191.087 87.5111C190.514 89.4361 190.695 90.7617 190.584 90.7617Z" fill="#455A64"/>
<path d="M206.085 87.9957C205.451 90.2516 205.086 92.5726 204.998 94.9118C204.91 97.264 205.652 99.5735 207.097 101.447C209.354 104.127 213.119 104.946 216.593 105.597C218.451 101.029 219.01 96.0473 218.212 91.1886C217.815 88.8314 217.043 86.4281 215.359 84.7106C214.107 83.4932 212.48 82.7196 210.735 82.511C208.989 82.3024 207.222 82.6706 205.711 83.5579" fill="#263238"/>
<path d="M208.015 99.1533C207.103 101.101 207.167 103.355 207.483 105.493C207.798 107.631 208.348 109.723 208.325 111.867C208.301 114.011 207.611 116.288 205.904 117.631C205.386 117.971 204.901 118.357 204.454 118.783C204.233 119 204.086 119.278 204.031 119.58C203.977 119.883 204.018 120.194 204.15 120.472C204.477 120.991 205.465 120.979 205.606 120.386L205.518 120.535C205.432 120.679 205.385 120.842 205.384 121.009C205.382 121.176 205.424 121.34 205.507 121.486C205.59 121.631 205.711 121.752 205.856 121.838C206.002 121.923 206.167 121.969 206.337 121.971C206.934 121.942 207.519 121.794 208.056 121.534C208.593 121.274 209.071 120.909 209.459 120.461C210.576 119.187 211.02 117.475 211.312 115.85C212.213 110.761 212.038 105.476 213.464 100.513" fill="#263238"/>
<path d="M188.187 132.575C188.59 134.309 189.366 135.937 190.464 137.349C191.561 138.76 192.954 139.923 194.547 140.757C196.141 141.591 197.898 142.078 199.699 142.184C201.5 142.29 203.303 142.012 204.986 141.37C208.015 140.218 210.459 137.97 212.815 135.774C213.237 138.274 213.121 140.833 212.475 143.286C211.828 145.738 210.666 148.03 209.063 150.011C207.46 151.993 205.453 153.62 203.171 154.787C200.889 155.954 198.384 156.636 195.818 156.787C191.941 157.018 187.778 155.854 185.339 152.874C183.638 150.799 182.954 148.05 183.001 145.382C183.119 142.709 183.635 140.068 184.533 137.544C185.222 135.365 186.316 132.933 188.55 132.328" fill="#F16682"/>
<path d="M215.926 105.747C218.265 106.986 219.516 109.579 219.966 112.138C220.417 114.697 220.189 117.325 220.3 119.913C220.411 122.501 220.914 125.221 222.58 127.232C224.334 129.376 227.112 130.391 229.597 131.699C235.046 134.581 239.537 139.497 241.174 145.387C242.811 151.277 241.326 158.066 236.853 162.303C232.76 166.141 226.854 167.49 221.218 167.49C217.201 167.49 212.786 166.637 210.278 163.542C207.769 160.447 207.939 156.107 208.816 152.292C209.693 148.476 211.301 144.77 211.365 140.857C210.765 143.28 209.718 145.573 208.278 147.623C207.863 148.2 207.155 148.834 206.524 148.499C205.892 148.165 206.085 147.087 206.413 146.367C211.254 135.745 209.57 114.334 212.441 102.605" fill="#263238"/>
<path d="M211.938 104.542C212.084 104.496 217.739 103.441 217.008 108.951C216.277 114.461 210.821 112.605 210.833 112.449C210.845 112.294 211.938 104.542 211.938 104.542Z" fill="#FFBE9D"/>
<path d="M212.815 110.582C212.815 110.582 212.903 110.657 213.061 110.755C213.279 110.882 213.539 110.921 213.786 110.865C214.406 110.726 215.025 109.862 215.183 108.876C215.257 108.404 215.225 107.922 215.09 107.464C215.06 107.285 214.987 107.116 214.876 106.971C214.765 106.827 214.619 106.711 214.452 106.634C214.347 106.598 214.233 106.596 214.127 106.631C214.021 106.665 213.93 106.733 213.868 106.824C213.774 106.968 213.792 107.084 213.762 107.09C213.733 107.095 213.657 106.98 213.727 106.761C213.777 106.628 213.872 106.516 213.996 106.444C214.083 106.393 214.18 106.359 214.281 106.346C214.381 106.333 214.484 106.341 214.581 106.369C214.805 106.444 215.005 106.573 215.164 106.746C215.323 106.918 215.434 107.128 215.487 107.355C215.66 107.863 215.707 108.404 215.622 108.934C215.441 110.04 214.727 111.003 213.868 111.13C213.712 111.154 213.553 111.144 213.402 111.099C213.251 111.054 213.112 110.976 212.996 110.87C212.809 110.715 212.798 110.588 212.815 110.582Z" fill="#EB996E"/>
<path d="M182.41 144.448C182.684 143.86 183.001 143.291 183.357 142.748C184.172 141.418 184.848 140.01 185.374 138.546C185.886 137.081 186.058 135.521 185.877 133.981C185.763 133.35 185.615 132.724 185.433 132.108C185.543 132.249 185.628 132.407 185.684 132.575C185.875 133.017 186.012 133.479 186.094 133.953C186.34 135.526 186.193 137.134 185.667 138.638C185.136 140.124 184.423 141.541 183.544 142.857C183.217 143.364 182.96 143.768 182.743 144.039C182.527 144.309 182.427 144.459 182.41 144.448Z" fill="#263238"/>
<path d="M185.258 138.091C185.176 138.091 185.018 137.618 184.515 137.29C184.012 136.961 183.509 136.961 183.498 136.875C183.486 136.788 183.62 136.777 183.848 136.771C184.151 136.774 184.445 136.868 184.69 137.042C184.938 137.212 185.129 137.451 185.24 137.728C185.316 137.941 185.298 138.079 185.258 138.091Z" fill="#FAFAFA"/>
<path d="M188.871 138.079C188.433 137.594 187.952 137.148 187.433 136.748C186.857 136.43 186.249 136.171 185.62 135.976C185.968 135.928 186.323 135.95 186.662 136.04C187.002 136.13 187.319 136.287 187.596 136.5C188.214 136.842 188.672 137.409 188.871 138.079Z" fill="#FAFAFA"/>
<path d="M191.14 149.773C191.153 148.978 191.267 148.188 191.479 147.422C191.592 146.63 191.806 145.855 192.116 145.116C192.103 145.913 191.989 146.705 191.777 147.473C191.664 148.263 191.45 149.036 191.14 149.773Z" fill="#FAFAFA"/>
<path d="M200.261 151.537C200.115 149.883 200.168 148.217 200.419 146.575C200.573 148.229 200.52 149.896 200.261 151.537Z" fill="#FAFAFA"/>
<path d="M14.0164 177.149L5 215.85L24.0677 215.908L32.8794 181.875L14.0164 177.149Z" fill="#B78876"/>
<path d="M107.659 129.601C105.846 127.209 103.765 124.91 102.812 122.074C102.35 120.702 102.169 119.25 101.677 117.89C101.186 116.53 100.292 115.204 98.9233 114.691C97.5551 114.178 96.5143 114.691 95.6255 115.659L89.0825 134.523L92.854 149.012C96.6195 148.176 101.332 147.185 104.852 145.623C108.372 144.061 110.7 141.56 110.945 137.762C111.115 134.782 109.472 131.999 107.659 129.601Z" fill="#263238"/>
<path d="M48.117 126.27C48.117 126.27 25.3715 136.027 22.5297 140.43C19.688 144.834 10.3325 176.227 10.3325 176.227L34.306 183.143L33.8967 215.827H92.6608L92.1755 158.193L84.8081 126.345C84.8081 126.345 71.8332 125.52 70.6287 124.938C69.4241 124.356 48.117 126.27 48.117 126.27Z" fill="#F16682"/>
<path d="M128.949 46.3835C129.136 45.0637 128.194 43.6113 128.873 42.4528C129.321 41.8558 129.962 41.427 130.691 41.2368C131.044 41.0777 131.426 40.9896 131.814 40.9774C132.007 40.9744 132.197 41.0273 132.36 41.1298C132.524 41.2322 132.653 41.3797 132.732 41.5538C132.774 41.7742 132.754 42.0017 132.675 42.2119C132.595 42.4222 132.459 42.6071 132.281 42.7468C131.925 43.0227 131.626 43.3631 131.399 43.7496C131.24 44.6983 131.314 45.6706 131.615 46.5852C132.394 48.5977 133.04 50.6575 133.55 52.752" fill="#B78876"/>
<path d="M124.148 46.8332C124.23 44.8333 125.902 36.9547 125.961 34.9548C127.335 35.3698 128.13 36.8106 128.387 38.2054C128.644 39.6001 128.51 41.0352 128.756 42.4299C129.083 44.303 130.071 45.9917 131.065 47.617C132.059 49.2423 133.1 50.8963 133.55 52.7406C134 54.5849 135.696 59.38 134.375 60.7633" fill="#B78876"/>
<path d="M123.768 60.3193L115.634 98.4038C115.348 100.133 84.8081 126.385 84.8081 126.385L90.8365 150.124L130.597 111.781C133.468 108.755 135.031 104.747 134.954 100.605L134.275 64.8724L123.768 60.3193Z" fill="#B78876"/>
<path d="M122.376 47.0751L123.768 60.3309L134.293 64.8955C134.293 64.8955 134.422 63.9561 134.878 59.3626C135.375 54.3024 129.855 52.1296 127.393 48.4122C126.341 46.8158 126.616 43.8764 125.803 40.234C125.709 39.8132 125.125 37.2658 124.809 35.8999C124.643 35.1409 124.192 34.4718 123.546 34.0268C123.066 33.7156 122.528 33.56 122.137 34.0268C121.745 34.4936 122.376 47.0751 122.376 47.0751Z" fill="#B78876"/>
<path d="M128.948 62.5209C130.118 61.5239 130.399 59.7372 129.96 58.256C129.423 56.7975 128.576 55.4691 127.475 54.36C126.376 53.2537 125.451 51.9909 124.733 50.6138C124.288 49.6225 124.078 48.5274 123.563 47.5534C123.049 46.5794 122.177 45.6861 121.078 45.6458C121.961 51.1267 121.938 54.2908 123.744 60.2963" fill="#B78876"/>
<path d="M122.172 51.9049C122.172 51.9049 122.131 51.7551 122.066 51.4669C122.002 51.1787 121.891 50.7004 121.786 50.2105C121.534 49.0578 121.201 47.5882 120.856 45.8995L120.821 45.7381H120.991C121.351 45.7252 121.709 45.7827 122.047 45.9073C122.384 46.032 122.693 46.2213 122.955 46.4643C123.758 47.2174 124.33 48.1781 124.604 49.2365C124.837 50.059 125.145 50.8595 125.522 51.6283C125.808 52.1333 126.154 52.6033 126.551 53.0288C126.696 53.1922 126.815 53.377 126.902 53.5763C126.742 53.4301 126.594 53.2721 126.458 53.1037C126.022 52.6984 125.645 52.237 125.335 51.732C124.922 50.9607 124.585 50.1521 124.329 49.3172C124.057 48.3118 123.511 47.3989 122.751 46.6775C122.276 46.2389 121.647 46.0009 120.996 46.0148L121.137 45.8419C121.844 49.3114 122.3 51.9107 122.172 51.9049Z" fill="#7C5142"/>
<path d="M126.902 48.5333C126.478 46.7503 126.154 44.9455 125.931 43.1272C125.607 41.3233 125.382 39.5032 125.259 37.675C125.686 39.4594 126.011 41.2662 126.23 43.0869C126.554 44.8889 126.779 46.7071 126.902 48.5333Z" fill="#7C5142"/>
<path d="M130.253 48.9829C130.253 48.9829 130.293 49.0405 130.329 49.1846H130.241C129.806 47.9515 129.451 46.6926 129.177 45.4153C128.925 44.303 128.744 43.2887 128.633 42.5337C128.543 42.1387 128.507 41.7335 128.528 41.3291C128.615 41.3291 128.972 43.1215 129.475 45.3635C129.878 47.1559 130.253 48.6659 130.329 49.1731H130.241C130.235 49.052 130.235 48.9829 130.253 48.9829Z" fill="#7C5142"/>
<path d="M132.328 56.285C132.281 56.285 132.071 55.9853 131.65 55.5416C130.538 54.3768 129.028 53.6583 127.411 53.5244C127.072 53.5273 126.734 53.5061 126.399 53.461C126.723 53.3372 127.07 53.286 127.417 53.3111C128.259 53.3216 129.089 53.5144 129.848 53.8759C130.607 54.2374 131.276 54.7588 131.808 55.4032C132.047 55.6542 132.225 55.9558 132.328 56.285Z" fill="#7C5142"/>
<path d="M124.721 61.3682C124.432 60.8722 124.199 60.3465 124.025 59.8006C123.545 58.5074 123.142 57.1871 122.821 55.8469C122.494 54.5178 122.248 53.1706 122.084 51.8125C121.988 51.2413 121.953 50.6619 121.979 50.0835C122.126 50.6342 122.231 51.1947 122.295 51.7606C122.47 52.7923 122.739 54.2216 123.113 55.795C123.487 57.3684 123.908 58.7459 124.23 59.7487C124.432 60.2766 124.596 60.8178 124.721 61.3682Z" fill="#7C5142"/>
<path d="M77.6687 127.071C78.1897 126.284 78.9978 125.726 79.9255 125.511C80.8531 125.297 81.8289 125.442 82.6505 125.918C86.9423 122.46 91.3336 119.106 95.6254 115.665C94.2221 122.581 93.2865 132.223 96.4265 138.551C96.4265 138.551 100.385 145.802 106.688 144.695L101.063 150.124L92.1931 158.233" fill="#F16682"/>
<path d="M76.2771 130.298C76.2837 129.37 76.5707 128.465 77.1016 127.699C77.5497 126.88 78.2332 126.211 79.0662 125.774C77.745 127.011 76.7823 128.573 76.2771 130.298Z" fill="#263238"/>
<path d="M80.9141 134.563C80.6706 134.179 80.5039 133.753 80.4229 133.307C80.1705 132.238 80.1404 131.13 80.3343 130.049C80.5283 128.969 80.9423 127.938 81.5514 127.019C81.7836 126.626 82.0892 126.28 82.4519 125.999C82.4928 126.034 82.1536 126.426 81.7385 127.152C81.1984 128.07 80.8245 129.075 80.6334 130.12C80.4503 131.167 80.4503 132.237 80.6334 133.284C80.7796 134.033 80.9608 134.517 80.9141 134.563Z" fill="#263238"/>
<path d="M102.397 149.364C101.965 149.628 101.493 149.823 100.999 149.94C99.6482 150.261 98.2348 150.219 96.906 149.819C94.938 149.203 93.2159 147.993 91.9827 146.361C90.5014 144.359 89.5016 142.051 89.0591 139.612C88.2333 135.22 87.9973 130.74 88.3574 126.287C88.4919 124.558 88.6849 123.209 88.8486 122.253C88.9246 121.78 88.9948 121.417 89.0474 121.169C89.0656 121.041 89.0969 120.916 89.1409 120.794C89.145 120.924 89.1333 121.054 89.1059 121.181L88.9655 122.27C88.8427 123.215 88.679 124.575 88.5738 126.304C88.2746 130.738 88.5378 135.191 89.3573 139.56C89.7951 141.936 90.7638 144.186 92.1932 146.148C93.3755 147.763 95.0422 148.973 96.9586 149.606C98.2526 150.016 99.6326 150.09 100.964 149.819C101.451 149.699 101.93 149.547 102.397 149.364Z" fill="#FAFAFA"/>
<path d="M34.4172 192.871C34.3353 192.871 34.2651 184.676 34.2651 174.573C34.2651 164.469 34.3353 156.274 34.4172 156.274C34.499 156.274 34.5692 164.464 34.5692 174.573C34.5692 184.682 34.5049 192.871 34.4172 192.871Z" fill="#263238"/>
<path d="M33.9494 149.952C33.8851 149.952 33.9026 149.133 33.6161 147.859C33.4454 147.115 33.2006 146.389 32.8852 145.692C32.4922 144.845 32.008 144.041 31.4409 143.295C30.8581 142.559 30.1975 141.887 29.4704 141.289C28.8718 140.807 28.2276 140.382 27.5467 140.021C26.3773 139.416 25.5645 139.214 25.5821 139.157C25.7816 139.167 25.9786 139.206 26.1668 139.272C26.3884 139.326 26.6054 139.398 26.8158 139.485C27.1027 139.583 27.3821 139.7 27.652 139.837C28.3544 140.176 29.0171 140.589 29.6283 141.07C30.3789 141.674 31.0594 142.359 31.6573 143.11C32.2409 143.875 32.7315 144.705 33.1191 145.583C33.4375 146.3 33.6748 147.05 33.8266 147.819C33.8866 148.112 33.9276 148.409 33.9494 148.707C33.9767 148.93 33.9884 149.156 33.9845 149.381C33.9951 149.572 33.9833 149.763 33.9494 149.952Z" fill="#263238"/>
<path d="M73.9967 126.016C74.0453 126.176 74.0785 126.34 74.0961 126.506C74.175 126.973 74.2257 127.445 74.2482 127.918C74.318 129.667 74.0705 131.413 73.5173 133.076C72.6933 135.556 71.233 137.783 69.2781 139.543C66.826 141.655 63.7467 142.929 60.4998 143.174C57.2529 143.419 54.0127 142.622 51.2629 140.903C49.0647 139.453 47.2842 137.468 46.094 135.14C45.2968 133.577 44.7879 131.887 44.5912 130.148C44.5437 129.677 44.5223 129.204 44.5269 128.731C44.5128 128.566 44.5128 128.4 44.5269 128.235C44.5544 128.397 44.5681 128.561 44.5679 128.725C44.5829 129.195 44.6219 129.665 44.6848 130.131C44.9243 131.844 45.4582 133.505 46.2635 135.042C47.4566 137.323 49.2219 139.265 51.3915 140.684C54.0915 142.357 57.2647 143.133 60.4452 142.898C63.6256 142.662 66.6456 141.428 69.0617 139.376C70.9953 137.653 72.4488 135.47 73.2834 133.036C73.8437 131.397 74.1205 129.676 74.102 127.947C74.102 127.336 74.0494 126.863 74.0026 126.541C73.9558 126.218 73.9909 126.022 73.9967 126.016Z" fill="#263238"/>
<path d="M33.9143 176.019C33.9143 176.1 29.0553 174.596 23.1263 172.665C17.1972 170.734 12.4084 169.103 12.4376 169.023C12.4669 168.942 17.2908 170.446 23.2257 172.377C29.1606 174.308 33.9377 175.939 33.9143 176.019Z" fill="#FAFAFA"/>
<path d="M91.6084 168.02C91.6084 168.106 78.7154 168.227 62.811 168.29C46.9067 168.354 34.0078 168.342 34.0078 168.29C34.0078 168.239 46.9009 168.083 62.811 168.02C78.7212 167.956 91.6084 167.939 91.6084 168.02Z" fill="#FAFAFA"/>
<path d="M91.9008 173.04C91.9008 173.12 78.9376 173.189 62.9572 173.189C46.9769 173.189 34.0078 173.12 34.0078 173.04C34.0078 172.959 46.9652 172.89 62.9572 172.89C78.9493 172.89 91.9008 172.953 91.9008 173.04Z" fill="#FAFAFA"/>
<path d="M83.9605 179.137C83.9209 179.298 83.8661 179.454 83.7967 179.604C83.6681 179.927 83.4927 180.365 83.2763 180.918L82.8904 181.863C82.7384 182.209 82.5571 182.572 82.37 182.97C81.9841 183.754 81.5865 184.664 81.031 185.621L80.189 187.131C79.8967 187.655 79.5458 188.174 79.2067 188.727C78.5401 189.84 77.7215 190.958 76.8678 192.151C74.9692 194.686 72.8776 197.075 70.6113 199.298C68.3128 201.489 65.8478 203.504 63.238 205.326C62.0101 206.133 60.8582 206.922 59.7297 207.556C59.145 207.879 58.6305 208.213 58.0925 208.496L56.5255 209.291C55.549 209.816 54.6134 210.196 53.8124 210.559C53.4089 210.732 53.0347 210.905 52.6839 211.049L51.7132 211.412L50.3742 211.902C50.2198 211.967 50.0592 212.018 49.8948 212.052C50.0407 211.97 50.1933 211.901 50.3509 211.844L51.6723 211.303L52.6254 210.916C52.9762 210.767 53.3446 210.588 53.7422 210.404C54.5374 210.029 55.4613 209.637 56.4261 209.101L57.9639 208.294C58.496 208.006 59.0281 207.666 59.5894 207.343C60.7179 206.703 61.8581 205.908 63.0977 205.101C68.3061 201.479 72.8868 197.051 76.6632 191.99C77.511 190.808 78.3355 189.684 79.002 188.595C79.347 188.047 79.7037 187.534 80.0019 187.016L80.8498 185.517C81.4345 184.578 81.8262 183.673 82.2238 182.895C82.4168 182.503 82.6098 182.146 82.7676 181.806C82.9255 181.466 83.0541 181.154 83.1769 180.872C83.4167 180.33 83.6096 179.904 83.7617 179.581C83.8202 179.43 83.8865 179.282 83.9605 179.137Z" fill="#263238"/>
<g opacity="0.3">
<path d="M81.5865 184.128C77.6571 188.843 73.5407 192.261 67.7696 194.462C65.0038 195.511 62.1095 196.232 59.4315 197.482C56.7535 198.733 54.2275 200.617 52.9996 203.286C52.0699 205.349 52.5201 208.473 54.7537 208.922C55.6215 209.027 56.5017 208.894 57.2973 208.536C68.7285 204.45 76.2421 194.128 81.5514 184.128" fill="black"/>
</g>
<path d="M40.697 81.5864C38.2295 83.4941 38.0658 87.0616 38.1886 90.1508C38.3114 93.24 38.3465 96.7556 36.0602 98.8881C34.1891 100.646 30.9147 101.297 30.3768 103.793C30.2406 104.381 30.2951 104.996 30.5324 105.552C30.7698 106.108 31.1781 106.576 31.6998 106.891C32.2215 107.206 32.8304 107.352 33.4406 107.308C34.0509 107.264 34.6317 107.032 35.1013 106.646C34.3061 108.599 34.6686 111.101 36.3584 112.409C38.0483 113.717 41.0011 113.095 41.6209 111.089C41.5251 111.421 41.4987 111.769 41.5432 112.111C41.5878 112.453 41.7024 112.783 41.8801 113.08C42.0578 113.377 42.2949 113.636 42.577 113.84C42.8591 114.044 43.1803 114.189 43.5212 114.268C43.8621 114.346 44.2156 114.355 44.5602 114.294C44.9047 114.234 45.2332 114.105 45.5258 113.915C45.8183 113.726 46.0687 113.48 46.2619 113.192C46.455 112.905 46.5869 112.581 46.6495 112.242" fill="#263238"/>
<path d="M76.5053 103.954C76.6229 104.359 76.8237 104.735 77.0952 105.06C77.3667 105.386 77.7032 105.652 78.0836 105.844C78.4641 106.035 78.8804 106.148 79.3068 106.174C79.7332 106.2 80.1605 106.14 80.5623 105.997C80.964 105.853 81.3315 105.63 81.642 105.341C81.9525 105.052 82.1994 104.703 82.3673 104.315C82.5351 103.928 82.6205 103.511 82.6179 103.09C82.6154 102.669 82.525 102.253 82.3525 101.868C81.8672 100.669 80.5983 99.7639 80.5691 98.4787C80.4931 96.9225 82.1537 95.8909 83.6096 95.2857C85.0656 94.6806 86.773 93.8737 87.001 92.3349C87.229 90.7961 85.9251 89.6146 84.8375 88.5599C83.75 87.5052 82.7033 85.903 83.4693 84.6004C83.8611 83.9376 84.6387 83.5803 85.1416 82.9982C86.2759 81.7072 85.8199 79.5402 84.5101 78.4394C83.2003 77.3386 81.3234 77.085 79.6102 77.2867C77.8969 77.4884 76.2597 78.1224 74.5816 78.5316C71.7988 79.1936 68.907 79.2793 66.0889 78.7833C63.2708 78.2873 60.5878 77.2203 58.2095 75.6499" fill="#263238"/>
<path d="M42.3753 93.4705L48.392 127.843C48.6413 129.282 49.177 130.658 49.9682 131.891C50.7595 133.125 51.7906 134.192 53.0021 135.031C54.2137 135.87 55.5817 136.464 57.0274 136.78C58.4731 137.095 59.9678 137.125 61.4254 136.869C64.1871 136.381 66.6636 134.892 68.367 132.695C70.0704 130.497 70.8774 127.751 70.6288 124.996C70.354 121.947 70.1201 119.423 70.1201 119.423C70.1201 119.423 78.8558 117.21 78.1015 108.473C77.7332 104.242 76.2655 95.5914 74.8388 87.7762C74.0991 83.7313 71.8415 80.1091 68.5153 77.6305C65.189 75.1518 61.0379 73.9983 56.888 74.3994L56.0343 74.4801C53.8595 74.8161 51.7751 75.578 49.9039 76.7209C48.0328 77.8638 46.4128 79.3646 45.1397 81.1347C43.8666 82.9047 42.966 84.9082 42.4912 87.0269C42.0165 89.1456 41.977 91.3365 42.3753 93.4705Z" fill="#B78876"/>
<path d="M72.9736 93.4184C73.0116 93.7436 72.9183 94.0705 72.7136 94.3283C72.509 94.5861 72.2095 94.7541 71.8801 94.7959C71.7205 94.8247 71.5567 94.8215 71.3983 94.7867C71.2399 94.7518 71.0903 94.6859 70.9583 94.5929C70.8263 94.4999 70.7146 94.3816 70.6299 94.2452C70.5451 94.1088 70.4891 93.957 70.4651 93.7988C70.427 93.4736 70.5204 93.1467 70.7251 92.8889C70.9297 92.6311 71.2292 92.4632 71.5586 92.4214C71.7182 92.3926 71.882 92.3957 72.0404 92.4306C72.1988 92.4654 72.3484 92.5313 72.4804 92.6243C72.6124 92.7174 72.7241 92.8356 72.8088 92.972C72.8935 93.1084 72.9496 93.2602 72.9736 93.4184Z" fill="#263238"/>
<path d="M73.3595 92.2255C73.2191 92.3984 72.19 91.7932 70.8276 91.9258C69.4652 92.0583 68.5297 92.8306 68.366 92.6808C68.2899 92.6116 68.4186 92.3062 68.822 91.9488C69.3727 91.4881 70.0553 91.2081 70.775 91.1477C71.4832 91.0781 72.1955 91.2315 72.8098 91.5857C73.2601 91.8624 73.4296 92.1448 73.3595 92.2255Z" fill="#263238"/>
<path d="M59.6418 94.9573C59.6751 95.2819 59.579 95.6065 59.3738 95.8625C59.1687 96.1185 58.8706 96.2858 58.5425 96.329C58.383 96.357 58.2194 96.3533 58.0613 96.318C57.9033 96.2828 57.754 96.2169 57.6221 96.124C57.4903 96.0311 57.3787 95.9132 57.2937 95.7772C57.2088 95.6411 57.1523 95.4898 57.1275 95.3319C57.0925 95.0073 57.187 94.682 57.3911 94.4249C57.5952 94.1678 57.8928 93.9991 58.2209 93.9545C58.3812 93.9265 58.5456 93.9304 58.7043 93.9659C58.8631 94.0014 59.0131 94.0678 59.1454 94.1612C59.2778 94.2546 59.3899 94.3732 59.4751 94.5099C59.5604 94.6466 59.617 94.7987 59.6418 94.9573Z" fill="#263238"/>
<path d="M59.9869 93.7584C59.8466 93.9371 58.8175 93.3319 57.4551 93.4645C56.0927 93.5971 55.163 94.3694 54.9934 94.2195C54.9174 94.1503 55.046 93.8449 55.4495 93.4876C56.0013 93.0288 56.6833 92.7491 57.4024 92.6864C58.1108 92.614 58.824 92.7676 59.4373 93.1245C59.8875 93.4011 60.0337 93.6835 59.9869 93.7584Z" fill="#263238"/>
<path d="M65.9219 103.251C65.9219 103.17 66.7405 102.945 68.0912 102.64C68.4362 102.571 68.7636 102.473 68.7987 102.231C68.7889 101.875 68.6729 101.53 68.4654 101.239L67.1732 98.7266C65.3781 95.1418 64.045 92.1851 64.1911 92.116C64.3373 92.0468 65.9102 94.8939 67.6994 98.4557L68.9449 100.992C69.204 101.383 69.3138 101.853 69.2548 102.317C69.2197 102.447 69.1543 102.566 69.064 102.666C68.9736 102.766 68.8607 102.844 68.7344 102.894C68.5455 102.962 68.3493 103.008 68.1497 103.032C67.4189 103.194 66.6708 103.267 65.9219 103.251Z" fill="#263238"/>
<path d="M59.8174 88.4562C59.718 88.8366 58.3439 88.7904 56.7652 89.1362C55.1865 89.4821 53.9293 90.0353 53.6896 89.7126C53.5785 89.5685 53.7656 89.1996 54.2743 88.7962C54.9237 88.2906 55.685 87.9431 56.4962 87.7819C57.3054 87.6062 58.1454 87.624 58.9462 87.8337C59.5368 88.0239 59.8584 88.2833 59.8174 88.4562Z" fill="#263238"/>
<path d="M72.4765 88.3811C72.266 88.7096 71.3071 88.4848 70.1376 88.577C68.9682 88.6693 68.0736 88.9862 67.7988 88.6865C67.6877 88.5424 67.7988 88.2197 68.1964 87.8912C68.7202 87.483 69.3597 87.2454 70.0265 87.2111C70.6909 87.1576 71.3555 87.3108 71.9269 87.6491C72.4005 87.9258 72.5642 88.2255 72.4765 88.3811Z" fill="#263238"/>
<path d="M51.0525 82.9581L51.0057 83.0042C49.7027 84.2367 48.932 85.9171 48.854 87.6956C48.854 87.759 48.854 87.8224 48.854 87.8742C48.7546 90.4044 49.0645 92.9345 48.9417 95.4588C48.8189 97.9832 48.1932 100.6 46.4917 102.496C45.7959 103.274 44.4861 103.891 43.7728 103.124C43.5246 102.801 43.3745 102.415 43.3401 102.012C42.2759 96.0409 40.0774 90.8597 39.4693 84.5603C39.382 83.7179 39.5005 82.8672 39.8148 82.0791C40.1291 81.2911 40.6301 80.5886 41.276 80.0303C42.5156 78.9525 44.0534 77.8171 45.6088 78.3704C47.1641 78.9237 49.3568 81.4769 50.6257 82.5258" fill="#263238"/>
<path d="M45.7549 97.1357C45.5971 97.0896 39.4868 95.9485 40.2703 101.902C41.0538 107.856 46.9595 105.856 46.9478 105.683C46.9361 105.51 45.7549 97.1357 45.7549 97.1357Z" fill="#B78876"/>
<path d="M44.8309 103.666C44.8309 103.666 44.7374 103.752 44.5678 103.85C44.4517 103.92 44.3227 103.967 44.1883 103.987C44.0538 104.008 43.9166 104.003 43.7843 103.971C43.1177 103.821 42.4453 102.888 42.2757 101.821C42.1927 101.311 42.2267 100.789 42.3751 100.294C42.4084 100.101 42.4885 99.9179 42.6086 99.7614C42.7287 99.6049 42.8853 99.4792 43.0651 99.395C43.1818 99.3499 43.3107 99.3459 43.4301 99.3837C43.5494 99.4215 43.6518 99.4988 43.72 99.6025C43.8252 99.7581 43.8018 99.8849 43.8369 99.8906C43.872 99.8964 43.9539 99.7754 43.872 99.5333C43.8191 99.3893 43.7181 99.2673 43.5855 99.1875C43.4072 99.0907 43.1983 99.0639 43.0008 99.1126C42.7585 99.1932 42.5412 99.3335 42.3693 99.5201C42.1974 99.7066 42.0766 99.9334 42.0185 100.179C41.8285 100.735 41.7783 101.328 41.8723 101.908C42.0711 103.101 42.8429 104.144 43.7492 104.282C43.9176 104.309 44.09 104.298 44.2532 104.249C44.4164 104.2 44.566 104.115 44.6906 104C44.831 103.81 44.8309 103.671 44.8309 103.666Z" fill="#7C5142"/>
<path d="M45.4859 79.3157C43.7318 77.068 47.5091 73.2411 50.4093 72.025C53.3095 70.809 57.3966 71.8636 60.4723 72.5495C62.4077 72.9875 64.3665 73.6618 66.3194 73.3909C67.6289 73.133 68.8921 72.6843 70.0675 72.0596C71.2416 71.4245 72.5349 71.0322 73.8682 70.9069C74.5359 70.8568 75.2049 70.9877 75.8026 71.2853C76.4004 71.5829 76.9042 72.0361 77.2595 72.5956C77.8793 73.7483 77.3238 75.4773 76.0258 75.7943C76.425 75.5235 76.885 75.3523 77.3661 75.2954C77.8473 75.2385 78.3353 75.2976 78.7882 75.4676C79.2411 75.6376 79.6453 75.9134 79.9662 76.2713C80.2871 76.6293 80.515 77.0587 80.6304 77.5226C80.7458 77.9866 80.7452 78.4712 80.6287 78.9348C80.5122 79.3985 80.2832 79.8273 79.9614 80.1845C79.6396 80.5417 79.2347 80.8165 78.7814 80.9855C78.3281 81.1544 77.8399 81.2123 77.3589 81.1542C78.16 80.428 79.5867 81.3675 79.5867 82.4337C79.5867 83.4999 78.6804 84.376 77.7331 84.9004C75.3124 86.2375 72.3303 86.1684 69.6289 85.5517C66.9275 84.935 64.3665 83.8227 61.6768 83.1311C58.9871 82.4395 54.4789 81.1946 51.9646 82.353C50.1169 83.2002 49.0059 85.6036 47.8716 85.2347C47.3348 85.0151 46.8578 84.6744 46.479 84.2399C46.1002 83.8055 45.8301 83.2895 45.6906 82.7334C45.4294 81.6155 45.3543 80.4631 45.4684 79.3215" fill="#263238"/>
<path d="M45.8308 98.1561C45.9062 101.322 46.2741 104.474 46.9301 107.573C47.5856 110.684 49.0828 113.562 51.2628 115.901C54.1864 118.858 58.0222 121.665 62.1737 122.362C66.7053 123.1 72.2484 122.166 75.9379 119.481C77.6921 118.207 78.9609 115.446 78.4172 113.36C79.1599 113.014 79.7954 112.48 80.258 111.811C80.7206 111.142 80.9935 110.364 81.0484 109.556C81.1419 107.942 80.1421 105.925 78.8498 105.712C79.8205 105.55 80.1011 104.029 79.7328 103.17C79.3644 102.311 78.0839 102.052 77.1132 102.237C76.1539 102.484 75.2616 102.937 74.4995 103.562C73.7419 104.188 72.8871 104.69 71.9677 105.049C68.8336 106.052 65.6586 103.32 62.3666 103.453C59.3904 103.568 56.7417 106.006 53.7888 105.597C52.9691 105.443 52.1915 105.12 51.5064 104.651C50.8214 104.181 50.2443 103.574 49.8127 102.87C48.9006 101.493 49.2982 96.404 48.9415 94.8018" fill="#263238"/>
<g opacity="0.6">
<path d="M69.7165 111.879C69.4701 111.822 69.2279 111.749 68.9915 111.66C68.4188 111.498 67.8161 111.469 67.2301 111.574C66.644 111.679 66.0903 111.915 65.6118 112.265C65.2376 112.53 65.0271 112.743 65.0271 112.714C65.0271 112.685 65.1441 112.432 65.5007 112.138C65.981 111.721 66.5677 111.442 67.1974 111.33C67.8271 111.218 68.4758 111.278 69.0734 111.504C69.506 111.648 69.7341 111.85 69.7165 111.879Z" fill="#455A64"/>
</g>
<path d="M63.3138 105.256C63.536 105.222 63.6822 106.68 65.068 107.562C66.4538 108.444 67.9916 108.167 68.0267 108.369C68.0559 108.455 67.7051 108.686 67.0385 108.766C66.1747 108.866 65.3028 108.662 64.5768 108.19C63.8814 107.732 63.3947 107.025 63.2203 106.219C63.0858 105.631 63.2144 105.256 63.3138 105.256Z" fill="white"/>
<path d="M58.9167 121.388C59.049 121.418 59.1767 121.464 59.2968 121.527C59.5482 121.619 59.9166 121.746 60.4019 121.878C61.7773 122.245 63.1888 122.463 64.6119 122.529C65.5865 122.586 66.564 122.567 67.5355 122.472C68.6559 122.373 69.763 122.16 70.8392 121.838C72.0273 121.488 73.1607 120.978 74.2071 120.322C75.345 119.645 76.338 118.757 77.1307 117.705C78.0724 116.468 78.4915 114.919 78.3002 113.383V113.262L78.4054 113.216C79.1327 112.883 79.7624 112.373 80.2356 111.735C80.4651 111.433 80.6611 111.109 80.8203 110.766C80.96 110.434 81.0468 110.082 81.0776 109.723C81.1412 109.074 81.0471 108.419 80.8031 107.813C80.5591 107.206 80.1721 106.666 79.6742 106.236L79.5865 106.167L79.6567 106.081C79.9204 105.751 80.0925 105.359 80.1561 104.944C80.2197 104.528 80.1725 104.104 80.0192 103.712C79.899 103.415 79.7174 103.145 79.4859 102.921C79.2543 102.697 78.978 102.523 78.6744 102.409C78.2868 102.257 77.8674 102.199 77.4523 102.242C77.1658 102.277 77.0255 102.329 77.0196 102.311C77.1546 102.248 77.2985 102.205 77.4465 102.185C78.0019 102.096 78.5715 102.191 79.0665 102.455C79.5615 102.718 79.954 103.136 80.183 103.643C80.3561 104.065 80.4148 104.525 80.3533 104.977C80.2918 105.428 80.1122 105.856 79.8321 106.219V106.063C80.3663 106.513 80.7839 107.082 81.0504 107.722C81.3168 108.363 81.4244 109.057 81.3641 109.746C81.3342 110.142 81.2414 110.531 81.0893 110.899C80.9197 111.26 80.714 111.604 80.4753 111.925C79.9775 112.609 79.3088 113.155 78.534 113.51L78.6217 113.337C78.8565 114.951 78.4363 116.591 77.4523 117.901C76.6362 118.984 75.6132 119.898 74.441 120.593C73.3735 121.263 72.2135 121.777 70.997 122.12C69.9019 122.445 68.7748 122.653 67.6349 122.743C66.6444 122.82 65.6492 122.82 64.6587 122.743C63.2245 122.654 61.8057 122.401 60.4312 121.988C60.0585 121.873 59.6934 121.737 59.3377 121.578C59.1909 121.53 59.0498 121.466 58.9167 121.388Z" fill="#455A64"/>
<path d="M32.4117 106.179C32.2998 106.148 32.1946 106.097 32.1018 106.029C31.8384 105.834 31.6357 105.571 31.5171 105.268C31.3195 104.781 31.2767 104.246 31.3943 103.735C31.5788 103.058 31.9911 102.462 32.5637 102.046C33.2365 101.546 33.9868 101.157 34.7857 100.894C35.6809 100.616 36.5465 100.253 37.3701 99.8101C38.2368 99.2693 38.9159 98.4813 39.3172 97.5508C39.7574 96.5495 39.9919 95.4721 40.0072 94.381C40.054 92.1275 39.5277 89.9893 39.4693 88.0009C39.4108 86.0125 39.7616 84.1567 40.6796 82.9118C41.3672 81.9139 42.4111 81.208 43.6032 80.935C43.9265 80.8715 44.2576 80.8559 44.5855 80.8889C44.7 80.9019 44.8133 80.9231 44.9247 80.9523C44.4915 80.9319 44.0574 80.9648 43.6325 81.0502C42.4834 81.3494 41.4864 82.0552 40.8317 83.0329C39.978 84.2432 39.6213 86.0413 39.7265 87.9894C39.8318 89.9374 40.3113 92.0756 40.3113 94.3925C40.2869 95.5252 40.0345 96.6419 39.5687 97.6776C39.1388 98.6594 38.4145 99.488 37.4929 100.052C36.6468 100.504 35.7551 100.867 34.8324 101.136C34.0563 101.378 33.3241 101.739 32.6631 102.208C32.1202 102.587 31.7226 103.135 31.5346 103.764C31.4072 104.243 31.4296 104.749 31.599 105.216C31.7531 105.617 32.0392 105.956 32.4117 106.179Z" fill="#455A64"/>
<path d="M76.2479 75.6961C76.3309 75.6464 76.4192 75.6058 76.5111 75.575C76.6222 75.5261 76.7377 75.4876 76.8561 75.4598C77.0147 75.4136 77.1771 75.3809 77.3414 75.3618C77.887 75.3032 78.4391 75.3677 78.9557 75.5505C79.4723 75.7332 79.94 76.0293 80.3234 76.4165C80.7069 76.9234 80.9844 77.5002 81.14 78.1136C81.2956 78.727 81.3261 79.3647 81.2297 79.9898C81.115 80.7651 80.8437 81.5098 80.432 82.18C80.0202 82.8502 79.4763 83.4322 78.8324 83.8916C77.3498 84.9555 75.5781 85.5577 73.7454 85.6206C71.7585 85.6977 69.7709 85.488 67.8456 84.9982C64.7872 84.2583 61.8853 82.992 59.2736 81.2577C58.1571 80.5013 56.9844 79.8289 55.7653 79.2463C54.6975 78.7593 53.5479 78.4702 52.3739 78.3933C50.6638 78.2769 48.9517 78.5902 47.398 79.3039C46.3045 79.8111 45.7841 80.2491 45.7607 80.2146C46.241 79.8071 46.7738 79.4641 47.3453 79.1944C48.9082 78.4326 50.6448 78.0831 52.3856 78.1801C53.5976 78.2414 54.7873 78.5248 55.8939 79.0158C57.1306 79.5969 58.3209 80.2693 59.4548 81.0272C62.0481 82.7272 64.9206 83.9713 67.945 84.7042C69.8406 85.1946 71.7982 85.4121 73.7571 85.3497C75.534 85.2884 77.2529 84.7109 78.6979 83.6899C79.3182 83.2526 79.8443 82.6984 80.2458 82.0593C80.6473 81.4202 80.9161 80.709 81.0368 79.9667C81.1398 79.366 81.1211 78.7511 80.9816 78.1575C80.842 77.564 80.5846 77.0036 80.224 76.5087C79.8613 76.134 79.4189 75.843 78.9286 75.6566C78.4383 75.4703 77.9122 75.3932 77.3881 75.431C77.0017 75.4903 76.6205 75.5789 76.2479 75.6961Z" fill="#455A64"/>
<path d="M73.1489 70.6187C73.1483 71.0723 73.0549 71.5212 72.8741 71.9385C72.3671 73.0852 71.4864 74.0324 70.3715 74.63C69.6188 75.0617 68.7925 75.3547 67.9332 75.4945C66.9483 75.636 65.9478 75.636 64.9629 75.4945C62.8754 75.2351 60.7178 74.4282 58.4491 73.7309C56.1804 73.0335 53.8941 72.6185 51.8827 73.045C50.1004 73.4288 48.4861 74.3564 47.2693 75.6962C46.4404 76.5898 45.8056 77.6411 45.404 78.7854C45.1351 79.6038 45.0824 80.0821 45.0474 80.0764C45.033 79.9615 45.033 79.8454 45.0474 79.7306C45.0942 79.399 45.1665 79.0715 45.2637 78.7508C45.6269 77.567 46.2475 76.4755 47.0822 75.5521C48.311 74.1528 49.9629 73.179 51.795 72.7742C53.8766 72.3188 56.2272 72.7396 58.5076 73.4427C60.788 74.1458 62.928 74.9527 64.9687 75.2178C65.9284 75.356 66.9034 75.356 67.8631 75.2178C68.6968 75.0936 69.501 74.8222 70.237 74.4167C71.3268 73.8533 72.2026 72.9577 72.7338 71.8635C72.9056 71.4601 73.0444 71.0439 73.1489 70.6187Z" fill="#455A64"/>
<path d="M128.02 184.128C128.843 184.266 129.629 184.566 130.333 185.01C131.036 185.453 131.641 186.032 132.113 186.71C133.044 188.082 133.645 189.645 133.867 191.281C134.399 194.416 133.54 197.978 132.359 200.94C129.113 199.436 127.383 195.713 126.628 193.765C125.459 190.693 125.161 184.417 127.991 184.128" fill="#F16682"/>
<path d="M137.171 205.372C136.682 204.587 136.413 203.687 136.392 202.766C136.37 201.845 136.597 200.935 137.048 200.128C137.511 199.328 138.131 198.628 138.872 198.068C139.613 197.508 140.46 197.099 141.363 196.865C141.767 196.713 142.2 196.65 142.631 196.68C143.062 196.71 143.482 196.832 143.86 197.038C144.175 197.287 144.417 197.614 144.561 197.986C144.705 198.358 144.745 198.761 144.679 199.154C144.534 199.938 144.183 200.671 143.661 201.28C141.966 203.436 139.931 205.211 137.171 205.372Z" fill="#F16682"/>
<path d="M136.352 215.308C136.285 215.095 136.247 214.874 136.241 214.651C136.2 214.225 136.142 213.602 136.101 212.836C135.953 210.831 136.077 208.815 136.469 206.842C136.889 204.849 137.844 203.004 139.235 201.499C139.664 201.058 140.147 200.67 140.673 200.347C140.849 200.214 141.047 200.113 141.258 200.047C140.593 200.539 139.971 201.084 139.399 201.678C138.102 203.184 137.209 204.988 136.803 206.923C136.415 208.869 136.258 210.854 136.335 212.836C136.391 213.659 136.397 214.485 136.352 215.308Z" fill="#263238"/>
<path d="M128.792 188.906C128.956 189.237 129.093 189.58 129.201 189.932C129.441 190.601 129.786 191.569 130.172 192.773C130.973 195.183 132.02 198.537 133.096 202.254C134.171 205.972 135.037 209.372 135.633 211.839C135.931 213.072 136.159 214.069 136.306 214.767C136.403 215.121 136.469 215.484 136.504 215.85C136.362 215.511 136.25 215.16 136.171 214.801C135.966 214.052 135.703 213.072 135.388 211.919C134.727 209.47 133.809 206.087 132.745 202.37C131.68 198.652 130.675 195.292 129.938 192.866L129.079 189.984C128.953 189.633 128.857 189.273 128.792 188.906Z" fill="#263238"/>
<path d="M132.85 208.335C132.034 206.572 130.804 205.026 129.263 203.824C127.722 202.621 125.913 201.797 123.985 201.419C123.003 201.234 121.793 201.257 121.243 202.087C120.694 202.917 121.167 204.024 121.758 204.819C123.018 206.468 124.746 207.712 126.724 208.394C128.701 209.075 130.839 209.163 132.867 208.646" fill="#F16682"/>
<path d="M125.061 204.179C125.28 204.171 125.499 204.194 125.71 204.249C125.961 204.282 126.21 204.334 126.453 204.404C126.782 204.48 127.106 204.575 127.424 204.687C128.254 204.973 129.054 205.342 129.809 205.787C131.675 206.875 133.253 208.382 134.417 210.185C134.884 210.913 135.276 211.685 135.586 212.49C135.713 212.799 135.82 213.114 135.908 213.435C135.989 213.674 136.051 213.919 136.095 214.167C136.157 214.373 136.184 214.587 136.177 214.801C136.113 214.801 135.931 213.919 135.352 212.588C135.009 211.81 134.596 211.064 134.119 210.358C133.528 209.498 132.853 208.699 132.101 207.972C131.34 207.256 130.51 206.615 129.622 206.058C128.89 205.609 128.119 205.223 127.318 204.906C125.962 204.398 125.05 204.249 125.061 204.179Z" fill="#263238"/>
</g>
<defs>
<clipPath id="clip0_1_4326">
<rect width="266" height="216" fill="white"/>
</clipPath>
</defs>
</svg>
