<svg width="24" height="24" viewBox="0 0 24 24" fill="none" xmlns="http://www.w3.org/2000/svg">
<path d="M19.9998 11.6419L12.8929 18.7487C11.9063 19.7099 10.5809 20.2439 9.20356 20.2349C7.82622 20.2259 6.50784 19.6748 5.5339 18.7009C4.55995 17.7269 4.00883 16.4085 3.99987 15.0312C3.9909 13.6539 4.52482 12.3284 5.48601 11.3419L12.8052 4.02267C13.46 3.36787 14.3481 3 15.2742 3C16.2002 3 17.0883 3.36787 17.7431 4.02267C18.3979 4.67748 18.7658 5.56559 18.7658 6.49163C18.7658 7.41767 18.3979 8.30577 17.7431 8.96058L10.635 16.0687C10.3076 16.3961 9.86356 16.58 9.40054 16.58C8.93752 16.58 8.49346 16.3961 8.16606 16.0687C7.83866 15.7413 7.65472 15.2972 7.65472 14.8342C7.65472 14.3712 7.83866 13.9271 8.16606 13.5997L15.0618 6.70396" stroke="#656565" stroke-width="1.6"/>
</svg>
