<svg width="24" height="24" viewBox="0 0 24 24" fill="none" xmlns="http://www.w3.org/2000/svg">
<path d="M12 2.3999C10.7269 2.3999 9.50604 2.90562 8.60586 3.80579C7.70569 4.70596 7.19998 5.92686 7.19998 7.1999C7.19998 8.47294 7.70569 9.69384 8.60586 10.594C9.50604 11.4942 10.7269 11.9999 12 11.9999C13.273 11.9999 14.4939 11.4942 15.3941 10.594C16.2943 9.69384 16.8 8.47294 16.8 7.1999C16.8 5.92686 16.2943 4.70596 15.3941 3.80579C14.4939 2.90562 13.273 2.3999 12 2.3999ZM8.39998 7.1999C8.39998 6.24512 8.77926 5.32945 9.45439 4.65432C10.1295 3.97919 11.0452 3.5999 12 3.5999C12.9548 3.5999 13.8704 3.97919 14.5456 4.65432C15.2207 5.32945 15.6 6.24512 15.6 7.1999C15.6 8.15468 15.2207 9.07036 14.5456 9.74549C13.8704 10.4206 12.9548 10.7999 12 10.7999C11.0452 10.7999 10.1295 10.4206 9.45439 9.74549C8.77926 9.07036 8.39998 8.15468 8.39998 7.1999ZM6.01078 13.1999C5.69474 13.1986 5.38156 13.2598 5.0892 13.3798C4.79685 13.4998 4.53106 13.6764 4.30709 13.8994C4.08311 14.1223 3.90536 14.3873 3.78402 14.6791C3.66267 14.971 3.60013 15.2839 3.59998 15.5999C3.59998 17.6291 4.59958 19.1591 6.16198 20.1563C7.70038 21.1367 9.77398 21.5999 12 21.5999C14.226 21.5999 16.2996 21.1367 17.838 20.1563C19.4004 19.1603 20.4 17.6279 20.4 15.5999C20.4 14.9634 20.1471 14.3529 19.697 13.9028C19.2469 13.4528 18.6365 13.1999 18 13.1999H6.01078ZM4.79998 15.5999C4.79998 14.9363 5.33758 14.3999 6.01078 14.3999H18C18.3182 14.3999 18.6235 14.5263 18.8485 14.7514C19.0735 14.9764 19.2 15.2816 19.2 15.5999C19.2 17.1707 18.4536 18.3407 17.1924 19.1435C15.9084 19.9631 14.082 20.3999 12 20.3999C9.91798 20.3999 8.09158 19.9631 6.80758 19.1435C5.54758 18.3395 4.79998 17.1719 4.79998 15.5999Z" fill="#101010"/>
</svg>
