<svg width="10" height="8" viewBox="0 0 10 8" fill="none" xmlns="http://www.w3.org/2000/svg">
<g opacity="0.7">
<path d="M1.66667 3.99984C1.66667 4.08824 1.71057 4.17303 1.78871 4.23554C1.86685 4.29805 1.97283 4.33317 2.08333 4.33317C2.19384 4.33317 2.29982 4.29805 2.37796 4.23554C2.4561 4.17303 2.5 4.08824 2.5 3.99984C2.5 3.91143 2.4561 3.82665 2.37796 3.76414C2.29982 3.70162 2.19384 3.6665 2.08333 3.6665C1.97283 3.6665 1.86685 3.70162 1.78871 3.76414C1.71057 3.82665 1.66667 3.91143 1.66667 3.99984ZM4.58333 3.99984C4.58333 4.08824 4.62723 4.17303 4.70537 4.23554C4.78351 4.29805 4.88949 4.33317 5 4.33317C5.11051 4.33317 5.21649 4.29805 5.29463 4.23554C5.37277 4.17303 5.41667 4.08824 5.41667 3.99984C5.41667 3.91143 5.37277 3.82665 5.29463 3.76414C5.21649 3.70162 5.11051 3.6665 5 3.6665C4.88949 3.6665 4.78351 3.70162 4.70537 3.76414C4.62723 3.82665 4.58333 3.91143 4.58333 3.99984ZM7.5 3.99984C7.5 4.08824 7.5439 4.17303 7.62204 4.23554C7.70018 4.29805 7.80616 4.33317 7.91667 4.33317C8.02718 4.33317 8.13316 4.29805 8.2113 4.23554C8.28944 4.17303 8.33333 4.08824 8.33333 3.99984C8.33333 3.91143 8.28944 3.82665 8.2113 3.76414C8.13316 3.70162 8.02718 3.6665 7.91667 3.6665C7.80616 3.6665 7.70018 3.70162 7.62204 3.76414C7.5439 3.82665 7.5 3.91143 7.5 3.99984Z" stroke="#101010" stroke-width="1.33333" stroke-linecap="round" stroke-linejoin="round"/>
</g>
</svg>
